<svg width="20" height="22" viewBox="0 0 20 22" fill="none" xmlns="http://www.w3.org/2000/svg">
<path d="M16.7498 9.68336C15.2415 9.68336 14.6248 8.6167 15.3748 7.30836C15.8082 6.55003 15.5498 5.58336 14.7915 5.15003L13.3498 4.32503C12.6915 3.93336 11.8415 4.1667 11.4498 4.82503L11.3582 4.98336C10.6082 6.2917 9.37484 6.2917 8.6165 4.98336L8.52484 4.82503C8.14984 4.1667 7.29984 3.93336 6.6415 4.32503L5.19984 5.15003C4.4415 5.58336 4.18317 6.55836 4.6165 7.3167C5.37484 8.6167 4.75817 9.68336 3.24984 9.68336C2.38317 9.68336 1.6665 10.3917 1.6665 11.2667V12.7334C1.6665 13.6 2.37484 14.3167 3.24984 14.3167C4.75817 14.3167 5.37484 15.3834 4.6165 16.6917C4.18317 17.45 4.4415 18.4167 5.19984 18.85L6.6415 19.675C7.29984 20.0667 8.14984 19.8334 8.5415 19.175L8.63317 19.0167C9.38317 17.7084 10.6165 17.7084 11.3748 19.0167L11.4665 19.175C11.8582 19.8334 12.7082 20.0667 13.3665 19.675L14.8082 18.85C15.5665 18.4167 15.8248 17.4417 15.3915 16.6917C14.6332 15.3834 15.2498 14.3167 16.7582 14.3167C17.6248 14.3167 18.3415 13.6084 18.3415 12.7334V11.2667C18.3332 10.4 17.6248 9.68336 16.7498 9.68336ZM9.99984 14.7084C8.50817 14.7084 7.2915 13.4917 7.2915 12C7.2915 10.5084 8.50817 9.2917 9.99984 9.2917C11.4915 9.2917 12.7082 10.5084 12.7082 12C12.7082 13.4917 11.4915 14.7084 9.99984 14.7084Z" fill="#6F00FF"/>
</svg>
