<svg width="20" height="22" viewBox="0 0 20 22" fill="none" xmlns="http://www.w3.org/2000/svg">
<path d="M12.4998 14.9168C12.4998 17.9085 10.0748 20.3335 7.08317 20.3335C4.0915 20.3335 1.6665 17.9085 1.6665 14.9168C1.6665 11.9251 4.0915 9.50012 7.08317 9.50012C7.22484 9.50012 7.37484 9.50846 7.5165 9.51679C10.1582 9.72512 12.2748 11.8418 12.4832 14.4835C12.4915 14.6251 12.4998 14.7751 12.4998 14.9168Z" fill="#6F00FF"/>
<path d="M18.3336 9.08341C18.3336 11.8001 16.3336 14.0417 13.7336 14.4334V14.3834C13.4752 11.1501 10.8502 8.52508 7.59189 8.26675H7.56689C7.95856 5.66675 10.2002 3.66675 12.9169 3.66675C15.9086 3.66675 18.3336 6.09175 18.3336 9.08341Z" fill="#6F00FF"/>
<path d="M4.65817 3.66675H2.49984C2.0415 3.66675 1.6665 4.04175 1.6665 4.50008V6.65842C1.6665 7.40008 2.5665 7.77508 3.0915 7.25008L5.24984 5.09175C5.7665 4.56675 5.39984 3.66675 4.65817 3.66675Z" fill="#6F00FF"/>
<path d="M15.3418 20.3335H17.5001C17.9584 20.3335 18.3334 19.9585 18.3334 19.5001V17.3418C18.3334 16.6001 17.4334 16.2251 16.9084 16.7501L14.7501 18.9085C14.2334 19.4335 14.6001 20.3335 15.3418 20.3335Z" fill="#6F00FF"/>
</svg>
