<svg width="20" height="22" viewBox="0 0 20 22" fill="none" xmlns="http://www.w3.org/2000/svg">
<path fill-rule="evenodd" clip-rule="evenodd" d="M18.3334 12.0001C18.3334 16.6026 14.6026 20.3334 10.0001 20.3334C5.39758 20.3334 1.66675 16.6026 1.66675 12.0001C1.66675 7.39758 5.39758 3.66675 10.0001 3.66675C14.6026 3.66675 18.3334 7.39758 18.3334 12.0001ZM10.5901 9.64337L12.3568 11.4109C12.4342 11.4883 12.4957 11.5802 12.5376 11.6813C12.5796 11.7825 12.6012 11.8909 12.6012 12.0005C12.6012 12.11 12.5796 12.2184 12.5376 12.3196C12.4957 12.4207 12.4342 12.5126 12.3568 12.59L10.5893 14.3567C10.5119 14.4342 10.42 14.4957 10.3188 14.5376C10.2176 14.5795 10.1092 14.6011 9.99967 14.6011C9.89016 14.6011 9.78172 14.5795 9.68056 14.5376C9.57939 14.4957 9.48748 14.4342 9.41009 14.3567L7.64342 12.59C7.56594 12.5126 7.50448 12.4207 7.46254 12.3196C7.4206 12.2184 7.39902 12.11 7.39902 12.0005C7.39902 11.8909 7.4206 11.7825 7.46254 11.6813C7.50448 11.5802 7.56594 11.4883 7.64342 11.4109L9.41092 9.64337C9.48832 9.56589 9.58022 9.50443 9.68139 9.46249C9.78255 9.42055 9.89099 9.39897 10.0005 9.39897C10.11 9.39897 10.2185 9.42055 10.3196 9.46249C10.4208 9.50443 10.5127 9.56589 10.5901 9.64337Z" fill="#6F00FF"/>
</svg>
