<svg width="25" height="24" viewBox="0 0 25 24" fill="none" xmlns="http://www.w3.org/2000/svg">
<path d="M12.5 22.75C6.57 22.75 1.75 17.93 1.75 12C1.75 6.07 6.57 1.25 12.5 1.25C18.43 1.25 23.25 6.07 23.25 12C23.25 17.93 18.43 22.75 12.5 22.75ZM12.5 2.75C7.4 2.75 3.25 6.9 3.25 12C3.25 17.1 7.4 21.25 12.5 21.25C17.6 21.25 21.75 17.1 21.75 12C21.75 6.9 17.6 2.75 12.5 2.75Z" fill="#F4F0FF"/>
<path d="M16.5 12.75H8.5C8.09 12.75 7.75 12.41 7.75 12C7.75 11.59 8.09 11.25 8.5 11.25H16.5C16.91 11.25 17.25 11.59 17.25 12C17.25 12.41 16.91 12.75 16.5 12.75Z" fill="#F4F0FF"/>
<path d="M12.5 16.75C12.09 16.75 11.75 16.41 11.75 16V8C11.75 7.59 12.09 7.25 12.5 7.25C12.91 7.25 13.25 7.59 13.25 8V16C13.25 16.41 12.91 16.75 12.5 16.75Z" fill="#FBFAFF"/>
</svg>
