<svg width="984" height="603" viewBox="0 0 984 603" fill="none" xmlns="http://www.w3.org/2000/svg">
<rect x="1" y="1" width="2068" height="2070.2" rx="1034" fill="#F4F0FF"/>
<path d="M500.414 200.837C596.849 118.927 704.237 61.7804 819.959 30.5879C707.57 36.7788 492.318 147.5 338.975 277.747C375.644 230.601 429.933 204.647 500.414 200.837Z" stroke="#6F00FF" stroke-opacity="0.05" stroke-miterlimit="10"/>
<path d="M600.421 127.261C561.847 129.404 488.033 167.264 435.41 212.028" stroke="#6F00FF" stroke-opacity="0.05" stroke-miterlimit="10"/>
<path d="M707.095 70.3525C631.138 74.4004 485.414 149.405 381.598 237.745" stroke="#6F00FF" stroke-opacity="0.05" stroke-miterlimit="10"/>
<path d="M500.414 200.837C548.036 132.023 608.278 87.4965 679.473 68.2095" stroke="#6F00FF" stroke-opacity="0.05" stroke-miterlimit="10"/>
<path d="M500.414 200.838C488.033 162.74 490.414 147.977 506.843 157.025" stroke="#6F00FF" stroke-opacity="0.05" stroke-miterlimit="10"/>
<path d="M500.414 200.837C429.933 204.647 375.644 230.601 339.213 277.747C185.87 408.232 152.772 508.953 264.922 502.762C324.926 384.183 404.217 282.747 500.414 200.837Z" stroke="#6F00FF" stroke-opacity="0.05" stroke-miterlimit="10"/>
<path d="M435.411 212.029C382.788 256.794 371.359 291.32 409.933 289.177" stroke="#6F00FF" stroke-opacity="0.05" stroke-miterlimit="10"/>
<path d="M381.597 237.744C277.781 326.084 255.398 394.183 331.356 390.135" stroke="#6F00FF" stroke-opacity="0.05" stroke-miterlimit="10"/>
<path d="M500.416 200.837C390.885 245.602 298.974 310.844 226.826 395.374" stroke="#6F00FF" stroke-opacity="0.05" stroke-miterlimit="10"/>
<path d="M500.414 200.837C381.835 273.461 280.876 366.086 200.156 476.093" stroke="#6F00FF" stroke-opacity="0.05" stroke-miterlimit="10"/>
<path d="M500.414 200.838C404.217 282.748 324.926 384.183 264.922 502.524C377.31 496.333 592.562 385.612 745.906 255.365C653.519 215.362 571.132 197.028 500.414 200.838Z" stroke="#6F00FF" stroke-opacity="0.05" stroke-miterlimit="10"/>
<path d="M409.93 289.177C448.504 287.034 522.318 249.174 574.941 204.409" stroke="#6F00FF" stroke-opacity="0.05" stroke-miterlimit="10"/>
<path d="M331.355 389.897C407.313 385.85 553.037 310.845 656.853 222.505" stroke="#6F00FF" stroke-opacity="0.05" stroke-miterlimit="10"/>
<path d="M500.414 200.838C452.792 269.652 420.885 358.467 405.408 464.665" stroke="#6F00FF" stroke-opacity="0.05" stroke-miterlimit="10"/>
<path d="M500.412 200.838C512.794 238.936 538.748 297.749 578.036 376.088" stroke="#6F00FF" stroke-opacity="0.05" stroke-miterlimit="10"/>
<path d="M500.414 200.837C570.895 197.027 653.519 215.362 745.906 255.365C899.25 124.88 932.347 24.159 820.197 30.3499C704.237 61.7805 596.849 118.927 500.414 200.837Z" stroke="#6F00FF" stroke-opacity="0.05" stroke-miterlimit="10"/>
<path d="M574.943 204.409C627.566 159.644 638.995 125.118 600.421 127.261" stroke="#6F00FF" stroke-opacity="0.05" stroke-miterlimit="10"/>
<path d="M656.854 222.743C760.67 134.404 783.052 66.3045 707.095 70.3524" stroke="#6F00FF" stroke-opacity="0.05" stroke-miterlimit="10"/>
<path d="M500.414 200.838C609.945 156.073 730.191 134.881 858.057 137.738" stroke="#6F00FF" stroke-opacity="0.05" stroke-miterlimit="10"/>
<path d="M500.414 200.838C619.231 128.214 748.526 79.8772 884.725 57.0186" stroke="#6F00FF" stroke-opacity="0.05" stroke-miterlimit="10"/>
<path d="M819.958 30.5879C931.87 0.585971 1046.64 -4.17624 1161.17 17.0156C957.109 28.2068 566.131 229.172 287.542 466.093C286.351 386.802 303.733 323.464 338.974 277.747C492.555 147.262 707.807 36.5407 819.958 30.5879Z" stroke="#6F00FF" stroke-opacity="0.05" stroke-miterlimit="10"/>
<path d="M932.822 8.91968C787.336 16.7773 508.508 160.12 309.924 329.179" stroke="#6F00FF" stroke-opacity="0.05" stroke-miterlimit="10"/>
<path d="M1046.88 4.39575C870.674 13.9202 533.271 187.503 292.779 392.04" stroke="#6F00FF" stroke-opacity="0.05" stroke-miterlimit="10"/>
<path d="M679.473 68.4476C748.525 49.875 824.72 55.5896 906.154 85.5916" stroke="#6F00FF" stroke-opacity="0.05" stroke-miterlimit="10"/>
<path d="M507.08 157.025C523.272 165.597 552.083 195.837 592.8 246.792" stroke="#6F00FF" stroke-opacity="0.05" stroke-miterlimit="10"/>
<path d="M339.212 277.747C303.972 323.226 286.59 386.564 287.78 466.093C9.42838 702.775 -51.0518 885.644 153.009 874.691C169.439 742.301 207.06 617.055 264.921 502.762C152.771 508.714 185.869 407.994 339.212 277.747Z" stroke="#6F00FF" stroke-opacity="0.05" stroke-miterlimit="10"/>
<path d="M309.925 329.179C111.34 497.999 68.4801 628.484 213.966 620.388" stroke="#6F00FF" stroke-opacity="0.05" stroke-miterlimit="10"/>
<path d="M292.781 392.04C52.5268 596.339 0.380492 754.207 176.583 744.682" stroke="#6F00FF" stroke-opacity="0.05" stroke-miterlimit="10"/>
<path d="M226.823 395.374C157.295 476.808 108.959 572.528 83.7187 679.678" stroke="#6F00FF" stroke-opacity="0.05" stroke-miterlimit="10"/>
<path d="M200.156 476.093C122.293 582.291 67.0516 700.156 35.3828 826.355" stroke="#6F00FF" stroke-opacity="0.05" stroke-miterlimit="10"/>
<path d="M264.922 502.762C207.061 617.055 169.201 742.302 153.01 874.691C357.071 863.5 748.049 662.534 1026.64 425.614C929.489 351.561 834.959 294.177 745.906 255.603C592.562 385.849 377.31 496.571 264.922 502.762Z" stroke="#6F00FF" stroke-opacity="0.05" stroke-miterlimit="10"/>
<path d="M213.967 620.389C359.453 612.531 638.28 469.189 836.865 300.13" stroke="#6F00FF" stroke-opacity="0.05" stroke-miterlimit="10"/>
<path d="M176.582 744.682C352.784 735.158 690.187 561.575 930.679 357.038" stroke="#6F00FF" stroke-opacity="0.05" stroke-miterlimit="10"/>
<path d="M405.645 464.902C390.644 567.766 391.597 682.298 408.503 805.877" stroke="#6F00FF" stroke-opacity="0.05" stroke-miterlimit="10"/>
<path d="M578.037 376.087C615.897 451.806 664.233 542.05 721.618 644.676" stroke="#6F00FF" stroke-opacity="0.05" stroke-miterlimit="10"/>
<path d="M745.906 255.365C834.96 294.177 929.49 351.323 1026.64 425.376C1304.99 188.694 1365.47 5.82452 1161.41 16.7776C1046.64 -4.17614 931.871 0.347972 819.959 30.5881C932.347 24.3972 899.25 125.118 745.906 255.365Z" stroke="#6F00FF" stroke-opacity="0.05" stroke-miterlimit="10"/>
<path d="M836.627 300.367C1035.21 131.309 1078.31 1.062 932.824 8.91966" stroke="#6F00FF" stroke-opacity="0.05" stroke-miterlimit="10"/>
<path d="M930.441 357.038C1170.93 152.739 1222.84 -5.36665 1046.88 4.39589" stroke="#6F00FF" stroke-opacity="0.05" stroke-miterlimit="10"/>
<path d="M858.293 137.738C981.873 140.357 1107.12 165.359 1230.7 211.79" stroke="#6F00FF" stroke-opacity="0.05" stroke-miterlimit="10"/>
<path d="M884.725 57.0184C1016.4 35.1122 1149.03 37.7314 1278.8 65.1142" stroke="#6F00FF" stroke-opacity="0.05" stroke-miterlimit="10"/>
<path d="M1161.41 16.7778C1275.94 37.7316 1384.76 83.4489 1484.29 152.501C1218.56 167.026 708.761 428.948 345.88 737.54C308.497 636.581 288.972 545.146 287.781 465.617C566.371 229.173 957.349 27.969 1161.41 16.7778Z" stroke="#6F00FF" stroke-opacity="0.05" stroke-miterlimit="10"/>
<path d="M1273.8 46.0649C1045.21 58.4467 607.087 283.7 294.924 549.193" stroke="#6F00FF" stroke-opacity="0.05" stroke-miterlimit="10"/>
<path d="M1381.66 91.5447C1132.36 105.117 654.708 350.847 314.447 640.152" stroke="#6F00FF" stroke-opacity="0.05" stroke-miterlimit="10"/>
<path d="M906.154 85.5918C987.588 115.594 1070.21 168.216 1151.65 242.269" stroke="#6F00FF" stroke-opacity="0.05" stroke-miterlimit="10"/>
<path d="M592.801 246.793C633.518 297.748 684.235 366.801 743.287 452.282" stroke="#6F00FF" stroke-opacity="0.05" stroke-miterlimit="10"/>
<path d="M287.78 465.854C288.97 545.145 308.495 636.818 345.879 737.777C-17.0023 1046.37 -95.5789 1284.96 170.391 1270.43C142.532 1140.18 136.817 1007.08 153.009 874.691C-51.0522 885.644 9.42798 702.775 287.78 465.854Z" stroke="#6F00FF" stroke-opacity="0.05" stroke-miterlimit="10"/>
<path d="M295.164 549.194C-16.9999 814.687 -84.3853 1019.7 144.201 1007.08" stroke="#6F00FF" stroke-opacity="0.05" stroke-miterlimit="10"/>
<path d="M153.01 874.691C136.58 1007.08 142.533 1140.42 170.392 1270.43C436.124 1255.91 945.919 993.985 1308.8 685.393C1218.79 587.291 1123.79 499.905 1026.64 425.852C748.287 662.534 357.071 863.5 153.01 874.691Z" stroke="#6F00FF" stroke-opacity="0.05" stroke-miterlimit="10"/>
<path d="M144.199 1007.08C372.786 994.699 810.91 769.446 1123.07 503.952" stroke="#6F00FF" stroke-opacity="0.05" stroke-miterlimit="10"/>
<path d="M149.914 1139.47C399.216 1125.9 876.867 880.168 1217.13 590.863" stroke="#6F00FF" stroke-opacity="0.05" stroke-miterlimit="10"/>
<path d="M1484.29 152.739C1587.39 224.172 1676.44 317.512 1748.59 430.376C1460 446.091 906.868 730.396 513.271 1065.42C441.123 952.553 384.691 842.308 346.117 737.777C708.76 429.186 1218.32 167.264 1484.29 152.739Z" stroke="#6F00FF" stroke-opacity="0.05" stroke-miterlimit="10"/>
<path d="M1582.63 231.315C1304.28 246.555 770.431 520.858 390.406 844.213" stroke="#6F00FF" stroke-opacity="0.05" stroke-miterlimit="10"/>
<path d="M1670.97 324.179C1384.99 339.656 836.625 621.579 446.361 953.506" stroke="#6F00FF" stroke-opacity="0.05" stroke-miterlimit="10"/>
<path d="M743.285 452.044C804.48 540.383 872.103 642.533 944.489 755.397" stroke="#6F00FF" stroke-opacity="0.05" stroke-miterlimit="10"/>
<path d="M1748.59 430.376C1820.74 543.241 1872.17 668.725 1900.74 803.496C1635.01 818.021 1125.22 1079.94 762.335 1388.53C669.234 1286.86 585.181 1178.28 513.033 1065.42C906.869 730.396 1460 446.091 1748.59 430.376Z" stroke="#6F00FF" stroke-opacity="0.05" stroke-miterlimit="10"/>
<path d="M1813.83 547.288C1527.86 563.004 979.492 844.689 589.229 1176.85" stroke="#6F00FF" stroke-opacity="0.05" stroke-miterlimit="10"/>
<path d="M748.525 43.9224C750.906 43.2081 773.289 36.7791 801.148 30.112C830.674 23.2068 854.008 19.1589 854.247 19.1589C867.819 16.7778 886.153 14.1586 899.964 12.0156C907.345 11.0631 917.108 9.87256 924.489 9.15823C931.395 8.44389 940.443 7.49145 947.348 7.01523C956.634 6.3009 969.254 5.34845 978.779 4.87223C925.204 7.96767 872.343 16.5397 819.959 30.5882C704.237 61.7807 596.849 118.927 500.414 200.838C596.849 118.927 704.237 61.7807 819.959 30.5882C872.343 16.5397 925.204 7.96767 978.302 5.11034C1016.88 2.96734 1045.93 3.68168 1047.12 3.68168C1075.69 4.39601 1075.69 4.39601 1091.88 5.11034C1109.74 6.06279 1117.36 6.77712 1135.93 8.44389C1146.88 9.39634 1161.41 11.0631 1172.12 12.7299C1184.98 14.3967 1202.13 17.254 1214.98 19.397C1228.32 21.54 1258.56 27.7309 1278.8 32.7312C1284.99 34.398 1293.56 36.3029 1299.75 37.9696C1305.94 39.6364 1314.04 41.7794 1320.23 43.4462C1326.42 45.113 1334.75 47.4941 1340.71 49.6371C1352.85 53.4469 1368.8 58.6853 1380.71 62.7332C1403.33 70.8289 1420.24 77.4961 1420.47 77.7342C1432.14 82.4964 1447.62 88.9254 1459.05 94.1638C1471.67 99.8785 1484.53 105.831 1496.91 112.022C1509.29 118.213 1521.91 124.88 1534.05 131.547C1545.01 137.5 1559.53 146.072 1570.25 152.501C1570.48 152.501 1586.91 162.502 1605.72 174.883C1616.44 182.027 1630.73 192.027 1641.2 199.409C1643.58 201.076 1665.49 216.791 1692.4 238.935C1719.07 261.08 1740.73 281.319 1740.97 281.557C1761.45 301.082 1761.45 301.082 1771.69 311.559C1780.74 320.607 1792.4 333.227 1800.98 342.752C1834.31 379.659 1865.5 419.661 1893.6 461.569C1921.7 503.715 1946.94 547.765 1968.37 593.006C1974.56 606.102 1980.51 618.96 1985.99 632.056C1990.99 643.962 1997.42 659.677 2001.94 671.821C2001.94 672.059 2012.66 699.918 2022.89 732.777C2025.75 742.54 2029.8 755.874 2034.8 774.209C2038.37 788.257 2038.37 788.257 2044.8 816.116C2048.37 832.069 2054.09 862.548 2056.71 880.168C2059.56 900.407 2063.37 925.647 2065.99 963.507C2066.95 977.317 2067.66 991.604 2068.14 1005.41C2068.61 1018.03 2068.61 1034.7 2068.61 1047.32C2068.61 1047.56 2068.61 1065.66 2067.18 1089.71C2066.47 1102.33 2065.28 1118.99 2064.09 1131.61C2063.61 1138.04 2062.66 1146.61 2061.95 1152.8C2061.23 1159 2060.04 1167.57 2059.33 1173.76C2058.61 1180.19 2057.18 1188.76 2056.23 1195.19C2056.23 1195.43 2053.37 1213.76 2048.61 1237.57C2045.75 1252.1 2045.75 1252.1 2039.32 1279.96C2035.99 1294.24 2028.61 1321.86 2021.94 1343.53C2019.56 1351.39 2015.04 1365.68 2008.13 1385.44C2003.85 1397.82 1997.42 1414.01 1992.65 1426.16C1990.04 1432.59 1986.46 1440.92 1983.84 1447.35C1981.23 1453.3 1977.65 1461.4 1975.03 1467.35C1972.18 1473.78 1968.13 1482.11 1965.03 1488.54C1959.08 1500.68 1957.65 1503.54 1944.08 1529.5C1940.75 1535.93 1935.75 1544.5 1932.17 1550.93C1920.27 1571.64 1907.65 1592.12 1894.55 1611.64C1866.46 1653.55 1835.26 1693.79 1801.45 1731.18C1731.69 1808.09 1651.2 1873.8 1562.15 1926.67C1546.91 1935.71 1544.53 1937.14 1521.2 1949.76C1513.58 1953.81 1503.57 1959.05 1495.72 1962.86C1483.1 1969.05 1466.19 1977.14 1453.33 1982.86C1443.09 1987.38 1429.52 1993.1 1419.05 1997.38C1410.95 2000.72 1400 2005 1391.66 2007.86C1378.09 2012.62 1359.76 2019.05 1346.18 2023.34C1339.04 2025.72 1329.52 2028.58 1322.37 2030.48C1311.66 2033.58 1297.37 2037.39 1286.66 2040.24C1250.7 2049.29 1221.18 2054.53 1209.98 2056.44C1202.36 2057.86 1192.36 2059.53 1184.74 2060.48C1178.08 2061.44 1169.03 2062.63 1162.12 2063.58C1154.74 2064.53 1144.98 2065.72 1137.6 2066.2C1124.03 2067.39 1106.17 2068.82 1092.6 2069.53C1081.17 2070.25 1065.69 2070.72 1054.26 2070.96C1047.35 2071.2 1038.07 2071.2 1030.92 2071.2C1017.83 2070.96 1000.21 2070.48 986.874 2070.01C967.826 2069.29 937.347 2066.67 920.441 2064.77C892.106 2061.44 892.106 2061.44 877.105 2059.05C856.628 2055.96 842.103 2053.1 834.245 2051.44C802.815 2045.24 774.718 2037.86 771.146 2036.91C744.477 2029.77 744.001 2029.53 730.191 2025.24C709.951 2019.05 694.236 2013.58 689.95 2011.91C681.378 2008.81 668.52 2004.29 650.424 1997.15C638.756 1992.38 623.279 1985.95 611.85 1980.72C599.23 1975 586.372 1969.05 573.99 1962.86C557.799 1954.76 547.798 1949.29 536.845 1943.33C536.13 1942.86 520.177 1934.28 500.652 1922.38C487.794 1914.76 485.175 1913.09 465.173 1900C459.697 1896.43 452.554 1891.66 447.077 1887.85C441.839 1884.04 434.695 1879.04 429.219 1875.23C423.98 1871.42 417.075 1866.19 411.837 1862.38C398.264 1852.37 375.882 1834.28 361.357 1821.9C347.547 1809.99 326.831 1791.89 298.734 1763.32C294.21 1758.8 288.257 1752.61 283.733 1747.84C263.97 1726.41 261.827 1724.27 254.921 1715.94C250.635 1710.94 245.159 1704.51 240.873 1699.51C236.825 1694.51 231.348 1687.84 227.301 1682.84C218.014 1671.17 218.014 1671.17 201.108 1648.55C191.108 1635.22 174.44 1610.69 164.439 1594.98C155.153 1580.21 139.676 1555.69 120.865 1520.45C113.96 1507.59 107.769 1494.97 101.34 1481.87C95.8634 1470.21 88.9582 1454.49 83.7197 1442.82C81.1005 1436.87 77.767 1429.01 75.3858 1422.82C73.0047 1416.87 69.9093 1408.77 67.5282 1402.82C65.1471 1396.87 62.2897 1388.77 60.1467 1382.58C53.0034 1362.82 48.2412 1347.1 46.5744 1341.86C42.2884 1328.05 42.2884 1328.05 34.6689 1300.43C33.0021 1294.24 30.8591 1285.67 29.4304 1279.48C26.5731 1266.86 22.7633 1250.19 20.3822 1237.33C13.9532 1204.47 5.38124 1152.09 2.2858 1090.18C0.857133 1062.56 0.619023 1033.51 1.57147 1006.13C2.76202 970.412 5.61935 940.648 7.76235 921.837C11.0959 893.026 15.62 864.691 21.0966 837.308C29.1923 797.067 38.0024 764.922 41.5741 752.779C45.1458 740.635 54.6702 708.014 69.4331 669.202C84.9103 628.485 98.4826 600.149 105.15 586.577C106.816 583.244 114.912 566.1 126.103 545.622C134.914 529.192 137.295 525.383 149.438 504.667C156.82 492.285 160.63 486.332 175.631 463.474C180.155 456.569 186.346 447.52 191.108 440.853C199.204 429.424 210.395 414.661 218.729 403.47C224.443 396.088 232.063 386.326 238.016 379.183C246.826 368.706 258.731 354.657 268.018 344.418C278.018 333.465 291.591 318.941 302.067 308.464C321.831 288.7 343.022 269.175 364.929 250.365C386.597 232.03 411.122 212.743 432.076 197.742C443.029 190.123 452.315 183.455 469.459 172.264C484.222 162.502 489.699 159.406 507.557 148.453C520.177 140.834 528.987 136.071 548.274 125.594C555.656 121.547 565.894 116.308 573.514 112.498C586.134 106.307 603.278 98.2117 616.136 92.497C626.374 87.9729 639.947 82.2583 650.186 78.2104C657.091 75.5912 666.377 71.7814 673.282 69.4003C681.14 66.543 691.617 62.7332 699.475 60.114C714.952 54.1612 734.001 48.2084 748.525 43.9224Z" stroke="#6F00FF" stroke-opacity="0.05" stroke-miterlimit="10"/>
<path d="M748.525 43.9224C750.906 43.2081 773.289 36.7791 801.148 30.112C830.674 23.2068 854.008 19.1589 854.247 19.1589C867.819 16.7778 886.153 14.1586 899.964 12.0156C907.345 11.0631 917.108 9.87256 924.489 9.15823C931.395 8.44389 940.443 7.49145 947.348 7.01523C956.634 6.3009 969.254 5.34845 978.779 4.87223C925.204 7.96767 872.343 16.5397 819.959 30.5882C704.237 61.7807 596.849 118.927 500.414 200.838C596.849 118.927 704.237 61.7807 819.959 30.5882C872.343 16.5397 925.204 7.96767 978.302 5.11034C1016.88 2.96734 1045.93 3.68168 1047.12 3.68168C1075.69 4.39601 1075.69 4.39601 1091.88 5.11034C1109.74 6.06279 1117.36 6.77712 1135.93 8.44389C1146.88 9.39634 1161.41 11.0631 1172.12 12.7299C1184.98 14.3967 1202.13 17.254 1214.98 19.397C1228.32 21.54 1258.56 27.7309 1278.8 32.7312C1284.99 34.398 1293.56 36.3029 1299.75 37.9696C1305.94 39.6364 1314.04 41.7794 1320.23 43.4462C1326.42 45.113 1334.75 47.4941 1340.71 49.6371C1352.85 53.4469 1368.8 58.6853 1380.71 62.7332C1403.33 70.8289 1420.24 77.4961 1420.47 77.7342C1432.14 82.4964 1447.62 88.9254 1459.05 94.1638C1471.67 99.8785 1484.53 105.831 1496.91 112.022C1509.29 118.213 1521.91 124.88 1534.05 131.547C1545.01 137.5 1559.53 146.072 1570.25 152.501C1570.48 152.501 1586.91 162.502 1605.72 174.883C1616.44 182.027 1630.73 192.027 1641.2 199.409C1643.58 201.076 1665.49 216.791 1692.4 238.935C1719.07 261.08 1740.73 281.319 1740.97 281.557C1761.45 301.082 1761.45 301.082 1771.69 311.559C1780.74 320.607 1792.4 333.227 1800.98 342.752C1834.31 379.659 1865.5 419.661 1893.6 461.569C1921.7 503.715 1946.94 547.765 1968.37 593.006C1974.56 606.102 1980.51 618.96 1985.99 632.056C1990.99 643.962 1997.42 659.677 2001.94 671.821C2001.94 672.059 2012.66 699.918 2022.89 732.777C2025.75 742.54 2029.8 755.874 2034.8 774.209C2038.37 788.257 2038.37 788.257 2044.8 816.116C2048.37 832.069 2054.09 862.548 2056.71 880.168C2059.56 900.407 2063.37 925.647 2065.99 963.507C2066.95 977.317 2067.66 991.604 2068.14 1005.41C2068.61 1018.03 2068.61 1034.7 2068.61 1047.32C2068.61 1047.56 2068.61 1065.66 2067.18 1089.71C2066.47 1102.33 2065.28 1118.99 2064.09 1131.61C2063.61 1138.04 2062.66 1146.61 2061.95 1152.8C2061.23 1159 2060.04 1167.57 2059.33 1173.76C2058.61 1180.19 2057.18 1188.76 2056.23 1195.19C2056.23 1195.43 2053.37 1213.76 2048.61 1237.57C2045.75 1252.1 2045.75 1252.1 2039.32 1279.96C2035.99 1294.24 2028.61 1321.86 2021.94 1343.53C2019.56 1351.39 2015.04 1365.68 2008.13 1385.44C2003.85 1397.82 1997.42 1414.01 1992.65 1426.16C1990.04 1432.59 1986.46 1440.92 1983.84 1447.35C1981.23 1453.3 1977.65 1461.4 1975.03 1467.35C1972.18 1473.78 1968.13 1482.11 1965.03 1488.54C1959.08 1500.68 1957.65 1503.54 1944.08 1529.5C1940.75 1535.93 1935.75 1544.5 1932.17 1550.93C1920.27 1571.64 1907.65 1592.12 1894.55 1611.64C1866.46 1653.55 1835.26 1693.79 1801.45 1731.18C1731.69 1808.09 1651.2 1873.8 1562.15 1926.67C1546.91 1935.71 1544.53 1937.14 1521.2 1949.76C1513.58 1953.81 1503.57 1959.05 1495.72 1962.86C1483.1 1969.05 1466.19 1977.14 1453.33 1982.86C1443.09 1987.38 1429.52 1993.1 1419.05 1997.38C1410.95 2000.72 1400 2005 1391.66 2007.86C1378.09 2012.62 1359.76 2019.05 1346.18 2023.34C1339.04 2025.72 1329.52 2028.58 1322.37 2030.48C1311.66 2033.58 1297.37 2037.39 1286.66 2040.24C1250.7 2049.29 1221.18 2054.53 1209.98 2056.44C1202.36 2057.86 1192.36 2059.53 1184.74 2060.48C1178.08 2061.44 1169.03 2062.63 1162.12 2063.58C1154.74 2064.53 1144.98 2065.72 1137.6 2066.2C1124.03 2067.39 1106.17 2068.82 1092.6 2069.53C1081.17 2070.25 1065.69 2070.72 1054.26 2070.96C1047.35 2071.2 1038.07 2071.2 1030.92 2071.2C1017.83 2070.96 1000.21 2070.48 986.874 2070.01C967.826 2069.29 937.347 2066.67 920.441 2064.77C892.106 2061.44 892.106 2061.44 877.105 2059.05C856.628 2055.96 842.103 2053.1 834.245 2051.44C802.815 2045.24 774.718 2037.86 771.146 2036.91C744.477 2029.77 744.001 2029.53 730.191 2025.24C709.951 2019.05 694.236 2013.58 689.95 2011.91C681.378 2008.81 668.52 2004.29 650.424 1997.15C638.756 1992.38 623.279 1985.95 611.85 1980.72C599.23 1975 586.372 1969.05 573.99 1962.86C557.799 1954.76 547.798 1949.29 536.845 1943.33C536.13 1942.86 520.177 1934.28 500.652 1922.38C487.794 1914.76 485.175 1913.09 465.173 1900C459.697 1896.43 452.554 1891.66 447.077 1887.85C441.839 1884.04 434.695 1879.04 429.219 1875.23C423.98 1871.42 417.075 1866.19 411.837 1862.38C398.264 1852.37 375.882 1834.28 361.357 1821.9C347.547 1809.99 326.831 1791.89 298.734 1763.32C294.21 1758.8 288.257 1752.61 283.733 1747.84C263.97 1726.41 261.827 1724.27 254.921 1715.94C250.635 1710.94 245.159 1704.51 240.873 1699.51C236.825 1694.51 231.348 1687.84 227.301 1682.84C218.014 1671.17 218.014 1671.17 201.108 1648.55C191.108 1635.22 174.44 1610.69 164.439 1594.98C155.153 1580.21 139.676 1555.69 120.865 1520.45C113.96 1507.59 107.769 1494.97 101.34 1481.87C95.8634 1470.21 88.9582 1454.49 83.7197 1442.82C81.1005 1436.87 77.767 1429.01 75.3858 1422.82C73.0047 1416.87 69.9093 1408.77 67.5282 1402.82C65.1471 1396.87 62.2897 1388.77 60.1467 1382.58C53.0034 1362.82 48.2412 1347.1 46.5744 1341.86C42.2884 1328.05 42.2884 1328.05 34.6689 1300.43C33.0021 1294.24 30.8591 1285.67 29.4304 1279.48C26.5731 1266.86 22.7633 1250.19 20.3822 1237.33C13.9532 1204.47 5.38124 1152.09 2.2858 1090.18C0.857133 1062.56 0.619023 1033.51 1.57147 1006.13C2.76202 970.412 5.61935 940.648 7.76235 921.837C11.0959 893.026 15.62 864.691 21.0966 837.308C29.1923 797.067 38.0024 764.922 41.5741 752.779C45.1458 740.635 54.6702 708.014 69.4331 669.202C84.9103 628.485 98.4826 600.149 105.15 586.577C106.816 583.244 114.912 566.1 126.103 545.622C134.914 529.192 137.295 525.383 149.438 504.667C156.82 492.285 160.63 486.332 175.631 463.474C180.155 456.569 186.346 447.52 191.108 440.853C199.204 429.424 210.395 414.661 218.729 403.47C224.443 396.088 232.063 386.326 238.016 379.183C246.826 368.706 258.731 354.657 268.018 344.418C278.018 333.465 291.591 318.941 302.067 308.464C321.831 288.7 343.022 269.175 364.929 250.365C386.597 232.03 411.122 212.743 432.076 197.742C443.029 190.123 452.315 183.455 469.459 172.264C484.222 162.502 489.699 159.406 507.557 148.453C520.177 140.834 528.987 136.071 548.274 125.594C555.656 121.547 565.894 116.308 573.514 112.498C586.134 106.307 603.278 98.2117 616.136 92.497C626.374 87.9729 639.947 82.2583 650.186 78.2104C657.091 75.5912 666.377 71.7814 673.282 69.4003C681.14 66.543 691.617 62.7332 699.475 60.114C714.952 54.1612 734.001 48.2084 748.525 43.9224Z" stroke="#6F00FF" stroke-opacity="0.05" stroke-miterlimit="10"/>
<path d="M500.416 200.837C596.851 118.927 704.239 61.7807 819.961 30.5881C707.572 36.779 492.32 147.501 338.977 277.747C375.646 230.601 429.935 204.647 500.416 200.837Z" stroke="#6F00FF" stroke-opacity="0.05" stroke-miterlimit="10"/>
<path d="M500.416 200.837C548.038 132.023 608.28 87.4967 679.475 68.2097" stroke="#6F00FF" stroke-opacity="0.05" stroke-miterlimit="10"/>
<path d="M500.416 200.838C488.034 162.74 490.416 147.977 506.845 157.025" stroke="#6F00FF" stroke-opacity="0.05" stroke-miterlimit="10"/>
<path d="M500.414 200.838C429.933 204.647 375.644 230.601 339.213 277.747C185.87 408.232 152.772 508.953 264.922 502.762C324.926 384.183 404.217 282.748 500.414 200.838Z" stroke="#6F00FF" stroke-opacity="0.05" stroke-miterlimit="10"/>
<path d="M500.416 200.838C390.885 245.603 298.974 310.845 226.826 395.374" stroke="#6F00FF" stroke-opacity="0.05" stroke-miterlimit="10"/>
<path d="M500.414 200.838C381.835 273.461 280.876 366.087 200.156 476.094" stroke="#6F00FF" stroke-opacity="0.05" stroke-miterlimit="10"/>
<path d="M500.414 200.837C404.217 282.748 324.926 384.183 264.922 502.524C377.31 496.333 592.562 385.611 745.906 255.365C653.519 215.362 571.132 197.028 500.414 200.837Z" stroke="#6F00FF" stroke-opacity="0.05" stroke-miterlimit="10"/>
<path d="M500.414 200.838C452.792 269.652 420.885 358.467 405.408 464.665" stroke="#6F00FF" stroke-opacity="0.05" stroke-miterlimit="10"/>
<path d="M500.412 200.838C512.794 238.935 538.748 297.749 578.036 376.087" stroke="#6F00FF" stroke-opacity="0.05" stroke-miterlimit="10"/>
<path d="M500.414 200.837C570.895 197.027 653.519 215.362 745.906 255.365C899.25 124.88 932.347 24.159 820.197 30.3499C704.237 61.7805 596.849 118.927 500.414 200.837Z" stroke="#6F00FF" stroke-opacity="0.05" stroke-miterlimit="10"/>
<path d="M500.414 200.838C609.945 156.073 730.191 134.881 858.057 137.738" stroke="#6F00FF" stroke-opacity="0.05" stroke-miterlimit="10"/>
<path d="M500.414 200.838C619.231 128.214 748.526 79.8772 884.725 57.0186" stroke="#6F00FF" stroke-opacity="0.05" stroke-miterlimit="10"/>
<path d="M819.96 30.5879C931.872 0.585971 1046.64 -4.17624 1161.17 17.0156C957.111 28.2068 566.133 229.172 287.544 466.093C286.353 386.802 303.735 323.464 338.976 277.747C492.557 147.262 707.809 36.5407 819.96 30.5879Z" stroke="#6F00FF" stroke-opacity="0.05" stroke-miterlimit="10"/>
<path d="M932.824 8.91992C787.338 16.7776 508.51 160.12 309.926 329.179" stroke="#6F00FF" stroke-opacity="0.05" stroke-miterlimit="10"/>
<path d="M1046.88 4.396C870.678 13.9204 533.275 187.503 292.783 392.041" stroke="#6F00FF" stroke-opacity="0.05" stroke-miterlimit="10"/>
<path d="M679.475 68.4476C748.527 49.875 824.722 55.5896 906.156 85.5916" stroke="#6F00FF" stroke-opacity="0.05" stroke-miterlimit="10"/>
<path d="M507.082 157.025C523.274 165.597 552.085 195.837 592.802 246.793" stroke="#6F00FF" stroke-opacity="0.05" stroke-miterlimit="10"/>
<path d="M339.214 277.747C303.974 323.226 286.591 386.564 287.782 466.093C9.43033 702.775 -51.0498 885.644 153.011 874.691C169.441 742.301 207.062 617.055 264.923 502.762C152.773 508.715 185.871 407.994 339.214 277.747Z" stroke="#6F00FF" stroke-opacity="0.05" stroke-miterlimit="10"/>
<path d="M309.927 329.179C111.342 498 68.4821 628.484 213.968 620.389" stroke="#6F00FF" stroke-opacity="0.05" stroke-miterlimit="10"/>
<path d="M292.783 392.04C52.5287 596.339 0.382445 754.207 176.585 744.682" stroke="#6F00FF" stroke-opacity="0.05" stroke-miterlimit="10"/>
<path d="M226.825 395.374C157.297 476.808 108.96 572.529 83.7207 679.678" stroke="#6F00FF" stroke-opacity="0.05" stroke-miterlimit="10"/>
<path d="M200.158 476.094C122.295 582.291 67.0535 700.156 35.3848 826.355" stroke="#6F00FF" stroke-opacity="0.05" stroke-miterlimit="10"/>
<path d="M264.922 502.762C207.061 617.055 169.201 742.302 153.01 874.691C357.071 863.5 748.049 662.534 1026.64 425.614C929.489 351.562 834.959 294.177 745.906 255.603C592.562 385.85 377.31 496.571 264.922 502.762Z" stroke="#6F00FF" stroke-opacity="0.05" stroke-miterlimit="10"/>
<path d="M213.967 620.389C359.453 612.531 638.28 469.189 836.865 300.13" stroke="#6F00FF" stroke-opacity="0.05" stroke-miterlimit="10"/>
<path d="M176.582 744.683C352.784 735.158 690.187 561.575 930.679 357.038" stroke="#6F00FF" stroke-opacity="0.05" stroke-miterlimit="10"/>
<path d="M405.645 464.902C390.644 567.766 391.597 682.298 408.503 805.877" stroke="#6F00FF" stroke-opacity="0.05" stroke-miterlimit="10"/>
<path d="M578.037 376.087C615.897 451.806 664.233 542.05 721.618 644.676" stroke="#6F00FF" stroke-opacity="0.05" stroke-miterlimit="10"/>
<path d="M745.908 255.365C834.962 294.177 929.492 351.323 1026.64 425.376C1304.99 188.694 1365.47 5.82452 1161.41 16.7776C1046.64 -4.17614 931.873 0.347972 819.961 30.5881C932.349 24.3972 899.252 125.118 745.908 255.365Z" stroke="#6F00FF" stroke-opacity="0.05" stroke-miterlimit="10"/>
<path d="M836.629 300.368C1035.21 131.309 1078.31 1.06224 932.826 8.9199" stroke="#6F00FF" stroke-opacity="0.05" stroke-miterlimit="10"/>
<path d="M930.443 357.038C1170.94 152.739 1222.84 -5.36665 1046.88 4.39589" stroke="#6F00FF" stroke-opacity="0.05" stroke-miterlimit="10"/>
<path d="M858.295 137.738C981.874 140.357 1107.12 165.359 1230.7 211.79" stroke="#6F00FF" stroke-opacity="0.05" stroke-miterlimit="10"/>
<path d="M884.727 57.0184C1016.4 35.1122 1149.03 37.7314 1278.8 65.1142" stroke="#6F00FF" stroke-opacity="0.05" stroke-miterlimit="10"/>
<path d="M1161.41 16.7776C1275.94 37.7314 1384.76 83.4487 1484.29 152.501C1218.56 167.026 708.761 428.948 345.88 737.539C308.497 636.58 288.972 545.146 287.781 465.617C566.371 229.173 957.349 27.9688 1161.41 16.7776Z" stroke="#6F00FF" stroke-opacity="0.05" stroke-miterlimit="10"/>
<path d="M1273.8 46.0649C1045.21 58.4467 607.087 283.7 294.924 549.193" stroke="#6F00FF" stroke-opacity="0.05" stroke-miterlimit="10"/>
<path d="M1381.66 91.5442C1132.36 105.117 654.708 350.847 314.447 640.152" stroke="#6F00FF" stroke-opacity="0.05" stroke-miterlimit="10"/>
<path d="M906.154 85.5916C987.588 115.594 1070.21 168.216 1151.65 242.269" stroke="#6F00FF" stroke-opacity="0.05" stroke-miterlimit="10"/>
<path d="M592.801 246.793C633.518 297.748 684.235 366.801 743.287 452.282" stroke="#6F00FF" stroke-opacity="0.05" stroke-miterlimit="10"/>
<path d="M287.782 465.854C288.972 545.145 308.497 636.818 345.881 737.777C-17.0004 1046.37 -95.577 1284.96 170.393 1270.43C142.534 1140.18 136.819 1007.08 153.011 874.691C-51.0502 885.644 9.42993 702.775 287.782 465.854Z" stroke="#6F00FF" stroke-opacity="0.05" stroke-miterlimit="10"/>
<path d="M295.164 549.194C-16.9999 814.687 -84.3853 1019.7 144.201 1007.08" stroke="#6F00FF" stroke-opacity="0.05" stroke-miterlimit="10"/>
<path d="M153.01 874.691C136.58 1007.08 142.533 1140.42 170.392 1270.43C436.124 1255.91 945.919 993.985 1308.8 685.393C1218.79 587.291 1123.79 499.905 1026.64 425.852C748.287 662.534 357.071 863.5 153.01 874.691Z" stroke="#6F00FF" stroke-opacity="0.05" stroke-miterlimit="10"/>
<path d="M144.199 1007.08C372.786 994.699 810.91 769.446 1123.07 503.952" stroke="#6F00FF" stroke-opacity="0.05" stroke-miterlimit="10"/>
<path d="M149.914 1139.47C399.216 1125.9 876.867 880.168 1217.13 590.863" stroke="#6F00FF" stroke-opacity="0.05" stroke-miterlimit="10"/>
<path d="M1484.29 152.739C1587.39 224.172 1676.44 317.512 1748.59 430.376C1460 446.092 906.87 730.396 513.273 1065.42C441.125 952.554 384.693 842.308 346.119 737.778C708.762 429.186 1218.32 167.264 1484.29 152.739Z" stroke="#6F00FF" stroke-opacity="0.05" stroke-miterlimit="10"/>
<path d="M1582.63 231.316C1304.28 246.555 770.433 520.858 390.408 844.213" stroke="#6F00FF" stroke-opacity="0.05" stroke-miterlimit="10"/>
<path d="M1670.97 324.179C1385 339.656 836.627 621.579 446.363 953.506" stroke="#6F00FF" stroke-opacity="0.05" stroke-miterlimit="10"/>
<path d="M743.287 452.044C804.482 540.383 872.105 642.533 944.491 755.398" stroke="#6F00FF" stroke-opacity="0.05" stroke-miterlimit="10"/>
<path d="M1748.59 430.376C1820.74 543.241 1872.17 668.725 1900.75 803.496C1635.01 818.021 1125.22 1079.94 762.337 1388.53C669.236 1286.86 585.183 1178.28 513.035 1065.42C906.871 730.396 1460 446.091 1748.59 430.376Z" stroke="#6F00FF" stroke-opacity="0.05" stroke-miterlimit="10"/>
<path d="M1813.83 547.288C1527.86 563.004 979.494 844.689 589.23 1176.85" stroke="#6F00FF" stroke-opacity="0.05" stroke-miterlimit="10"/>
<path d="M365.881 249.65C377.072 240.126 392.311 227.982 403.979 218.934C412.313 212.267 423.742 203.933 432.314 197.742C442.553 190.361 452.077 183.455 470.412 171.55C487.556 160.359 500.414 152.501 508.271 147.977C512.795 145.358 528.749 135.833 547.56 125.833C554.227 122.261 563.037 117.737 569.704 114.403C575.895 111.308 584.229 107.26 590.42 104.165C598.277 100.355 608.992 95.3544 617.088 91.7828C630.422 86.0681 648.042 78.6867 661.377 73.4482C671.854 69.1622 685.902 64.1619 696.617 60.5903C710.666 55.828 729.714 49.6372 744.001 45.3512C752.097 42.9701 762.574 40.1127 770.67 37.9697C777.575 36.0648 786.861 33.9218 794.004 32.017C802.815 29.874 814.72 27.2547 823.53 25.3498C831.626 23.6831 842.817 21.302 850.913 20.1114C857.58 18.9209 866.628 17.2541 873.533 16.3016C881.391 15.1111 891.63 13.6824 899.488 12.4919C936.871 7.49153 962.825 6.06287 978.302 5.11042C1039.02 1.77687 1100.22 5.82475 1161.17 17.016C1275.7 37.9697 1384.52 83.687 1484.05 152.739C1587.15 224.172 1676.21 317.512 1748.35 430.376C1820.5 543.241 1871.93 668.725 1900.51 803.496C1928.36 933.505 1934.08 1066.85 1917.89 1199.24C1901.46 1331.63 1863.84 1456.87 1805.98 1571.17C1747.16 1687.13 1670.01 1786.66 1575.96 1866.9C1573.58 1867.14 1568.82 1869.52 1565.48 1872.38C1562.15 1875.23 1561.44 1877.38 1563.82 1877.38C1566.2 1877.38 1570.96 1874.76 1574.29 1871.9C1577.63 1869.04 1578.34 1866.9 1575.96 1866.9C1670.01 1786.89 1747.16 1687.13 1805.98 1571.17C1863.84 1456.87 1901.7 1331.63 1917.89 1199.24C1934.32 1066.85 1928.36 933.505 1900.51 803.496C1871.69 668.725 1820.5 543.241 1748.35 430.376C1676.21 317.512 1587.15 224.172 1484.05 152.739C1384.52 83.687 1275.7 37.9697 1161.17 17.016C1100.22 5.82475 1039.02 1.77687 978.302 5.11042C991.636 4.6342 1009.49 3.91987 1022.83 3.68176C1029.73 3.44365 1039.02 3.44365 1046.16 3.68176C1075.45 4.39609 1075.45 4.39609 1090.93 5.11042C1109.03 6.06287 1117.36 6.7772 1135.22 8.44397C1153.79 10.1108 1183.08 13.9205 1200.22 16.7779C1210.94 18.6827 1225.22 21.0639 1235.94 23.2069C1243.8 24.8736 1264.04 28.9215 1278.08 32.4932C1284.51 34.1599 1292.85 36.0648 1299.04 37.7316C1305.23 39.3984 1313.32 41.5414 1319.52 43.2082C1325.71 44.8749 1334.04 47.256 1340.23 49.399C1366.42 57.7329 1366.9 57.971 1380.47 62.7333C1402.62 70.5909 1419.76 77.4961 1420 77.4961C1442.14 86.5443 1445 87.7349 1458.81 93.9258C1470.24 99.1642 1485.24 106.308 1496.67 111.784C1509.05 117.975 1521.67 124.642 1534.05 131.309C1545.01 137.262 1559.53 145.834 1570.25 152.263C1570.48 152.263 1586.91 162.264 1605.72 174.645C1616.44 181.789 1630.73 191.551 1641.2 199.171C1643.58 200.838 1665.49 216.553 1692.4 238.697C1719.07 260.842 1740.73 281.081 1740.97 281.319C1761.45 300.844 1761.45 300.844 1771.69 311.321C1780.74 320.369 1792.4 332.989 1800.98 342.514C1834.31 379.421 1865.5 419.423 1893.6 461.331C1901.93 473.713 1909.32 485.142 1916.94 497.762C1924.56 510.144 1924.56 510.144 1938.84 535.145C1944.32 544.67 1957.18 568.719 1968.61 592.53C1971.46 598.483 1978.13 612.531 1986.23 631.58C1991.23 643.486 1997.66 659.201 2002.18 671.345C2002.18 671.583 2012.89 699.442 2023.13 732.301C2025.99 742.064 2030.04 755.398 2035.04 773.732C2038.61 787.781 2038.61 787.781 2045.04 815.64C2048.61 831.355 2054.33 862.071 2056.94 879.692C2058.85 892.073 2060.99 908.741 2062.42 921.123C2064.09 935.172 2065.28 949.22 2066.23 963.03C2067.18 976.841 2067.9 991.128 2068.37 1004.94C2068.85 1017.56 2068.85 1034.23 2068.85 1046.85C2068.85 1047.08 2068.85 1065.42 2067.66 1088.99C2066.95 1103.28 2066.95 1103.99 2064.56 1131.14C2064.09 1137.57 2063.14 1146.14 2062.42 1152.33C2061.71 1158.52 2060.52 1167.09 2059.8 1173.28C2059.09 1179.71 2057.66 1188.28 2056.71 1194.47C2056.23 1198.52 2050.75 1234.48 2040.04 1279C2033.37 1306.39 2026.94 1328.53 2022.66 1342.34C2020.51 1349.48 2015.75 1364.49 2008.85 1384.01C2004.56 1396.39 1998.13 1412.58 1993.37 1424.73C1990.99 1431.16 1987.42 1439.49 1984.56 1445.68C1981.94 1451.63 1978.37 1459.73 1975.75 1465.68C1972.89 1472.11 1968.84 1480.45 1965.99 1486.64C1960.03 1499.26 1959.8 1499.73 1945.27 1527.35C1941.94 1533.78 1937.18 1542.12 1933.6 1548.31C1926.94 1560.21 1917.41 1575.45 1910.27 1587.12C1906.22 1593.55 1900.74 1602.12 1896.46 1608.31C1892.17 1614.74 1886.22 1623.31 1881.93 1629.74C1877.89 1635.46 1872.41 1643.08 1868.12 1648.79C1863.36 1655.46 1856.46 1664.27 1851.46 1670.93C1826.69 1702.84 1806.69 1724.75 1800.26 1731.89C1774.78 1759.75 1753.35 1780.23 1750.97 1782.61C1740.02 1792.85 1725.49 1806.18 1714.3 1816.18C1705.97 1823.56 1694.78 1832.85 1686.21 1839.75C1677.87 1846.66 1666.44 1855.47 1657.63 1862.14C1646.44 1870.47 1631.44 1881.19 1620.25 1889.04C1618.82 1890 1595.01 1906.66 1562.86 1925.71C1536.91 1941.19 1515 1952.62 1501.19 1959.52C1488.57 1965.72 1471.91 1973.81 1459.05 1979.53C1450.95 1983.1 1440.24 1987.86 1432.14 1991.19C1421.66 1995.48 1407.38 2001.19 1396.66 2005.24C1383.09 2010.24 1364.99 2016.43 1351.42 2020.96C1337.85 2025.48 1312.61 2032.86 1286.89 2039.29C1270.46 2043.34 1244.27 2049.53 1213.32 2054.77C1179.51 2060.72 1150.22 2063.82 1139.27 2065.01C1125.69 2066.44 1107.83 2067.63 1094.26 2068.58C1087.12 2069.06 1077.59 2069.53 1070.45 2069.53C1058.78 2069.77 1043.54 2070.25 1031.88 2070.01C1019.73 2070.01 1002.35 2069.53 987.112 2068.82C974.016 2068.1 956.634 2066.91 943.538 2065.72C936.871 2065.25 928.061 2064.29 921.394 2063.58C892.82 2060.01 892.82 2060.01 877.819 2057.86C857.104 2054.77 842.579 2051.91 834.959 2050.24C800.672 2043.58 771.622 2035.72 771.622 2035.72C745.668 2028.58 744.477 2028.34 730.429 2024.05C708.999 2017.39 692.093 2011.43 690.188 2010.72C674.473 2005.24 648.519 1995.72 612.088 1979.53C599.468 1973.81 586.61 1967.86 574.228 1961.67C561.37 1955.24 559.941 1954.52 537.083 1942.14C536.845 1942.14 520.891 1933.33 500.652 1921.19C489.937 1914.76 475.888 1905.71 465.411 1898.81C459.935 1895.23 452.791 1890.47 447.315 1886.66C442.076 1882.85 434.933 1878.09 429.695 1874.28C424.456 1870.47 417.551 1865.23 412.313 1861.42C398.74 1851.42 376.358 1833.33 361.833 1820.94C348.023 1809.04 327.307 1790.94 299.21 1762.37C294.686 1757.84 288.733 1751.65 284.209 1746.89C264.446 1725.46 262.303 1723.32 255.398 1714.98C236.825 1693.08 236.825 1693.08 228.015 1681.89C218.728 1670.22 218.728 1670.22 201.823 1647.6C192.06 1634.5 174.916 1609.5 165.153 1594.02C155.867 1579.26 140.39 1554.74 121.579 1519.5C114.674 1506.64 108.483 1494.02 102.054 1480.92C96.5775 1469.25 89.6723 1453.54 84.4339 1441.87C81.8147 1435.92 78.4811 1428.06 76.1 1421.87C73.7189 1415.92 70.6234 1407.82 68.2423 1401.87C65.8612 1395.92 63.0039 1387.82 60.8609 1381.63C56.0987 1368.53 51.5746 1354.72 47.2886 1340.91C45.3837 1334.72 43.0026 1326.39 41.0977 1320.2C39.4309 1314.01 37.0498 1305.67 35.383 1299.48C33.7163 1293.29 31.5733 1284.96 30.1446 1278.53C27.2873 1265.91 23.4775 1249.24 20.8583 1236.38C14.4293 1203.52 5.85727 1151.14 2.76183 1089.23C2.28561 1081.37 1.09506 1057.56 1.57128 1026.13C1.80939 1013.51 2.28561 996.842 2.76183 984.222C2.99994 977.793 3.71428 969.459 4.1905 963.03C4.66672 956.601 5.38105 948.268 5.85727 941.839C7.04783 929.219 8.95272 912.551 10.6195 899.931C11.5719 892.312 14.9055 870.643 17.2866 857.309C19.6677 844.689 23.0013 828.022 25.6205 815.402C27.0491 808.973 28.954 800.401 30.6208 793.972C32.0495 787.543 34.1925 778.971 36.0974 772.78C39.4309 760.398 44.1931 743.73 48.0029 731.349C51.5746 719.205 65.385 675.869 86.1006 627.294C88.7199 621.103 92.5296 612.531 95.387 606.34C101.102 594.435 108.721 578.481 114.674 566.576C117.055 561.814 127.294 542.05 137.294 524.668C145.628 510.144 167.773 471.332 202.537 423.947C213.014 409.661 223.729 395.85 234.206 382.992C255.159 357.276 269.208 342.275 270.637 340.609C275.637 335.132 282.542 327.751 287.781 322.274C297.305 312.512 310.163 299.654 319.926 290.129C338.022 273.699 359.214 255.127 365.881 249.65Z" stroke="#6F00FF" stroke-opacity="0.05" stroke-miterlimit="10"/>
<path d="M365.881 249.65C377.072 240.126 392.311 227.982 403.979 218.934C412.313 212.267 423.742 203.933 432.314 197.742C442.553 190.361 452.077 183.455 470.412 171.55C487.556 160.359 500.414 152.501 508.271 147.977C512.795 145.358 528.749 135.833 547.56 125.833C554.227 122.261 563.037 117.737 569.704 114.403C575.895 111.308 584.229 107.26 590.42 104.165C598.277 100.355 608.992 95.3544 617.088 91.7828C630.422 86.0681 648.042 78.6867 661.377 73.4482C671.854 69.1622 685.902 64.1619 696.617 60.5903C710.666 55.828 729.714 49.6372 744.001 45.3512C752.097 42.9701 762.574 40.1127 770.67 37.9697C777.575 36.0648 786.861 33.9218 794.004 32.017C802.815 29.874 814.72 27.2547 823.53 25.3498C831.626 23.6831 842.817 21.302 850.913 20.1114C857.58 18.9209 866.628 17.2541 873.533 16.3016C881.391 15.1111 891.63 13.6824 899.488 12.4919C936.871 7.49153 962.825 6.06287 978.302 5.11042C1039.02 1.77687 1100.22 5.82475 1161.17 17.016C1275.7 37.9697 1384.52 83.687 1484.05 152.739C1587.15 224.172 1676.21 317.512 1748.35 430.376C1820.5 543.241 1871.93 668.725 1900.51 803.496C1928.36 933.505 1934.08 1066.85 1917.89 1199.24C1901.46 1331.63 1863.84 1456.87 1805.98 1571.17C1747.16 1687.13 1670.01 1786.66 1575.96 1866.9C1573.58 1867.14 1568.82 1869.52 1565.48 1872.38C1562.15 1875.23 1561.44 1877.38 1563.82 1877.38C1566.2 1877.38 1570.96 1874.76 1574.29 1871.9C1577.63 1869.04 1578.34 1866.9 1575.96 1866.9C1670.01 1786.89 1747.16 1687.13 1805.98 1571.17C1863.84 1456.87 1901.7 1331.63 1917.89 1199.24C1934.32 1066.85 1928.36 933.505 1900.51 803.496C1871.69 668.725 1820.5 543.241 1748.35 430.376C1676.21 317.512 1587.15 224.172 1484.05 152.739C1384.52 83.687 1275.7 37.9697 1161.17 17.016C1100.22 5.82475 1039.02 1.77687 978.302 5.11042C991.636 4.6342 1009.49 3.91987 1022.83 3.68176C1029.73 3.44365 1039.02 3.44365 1046.16 3.68176C1075.45 4.39609 1075.45 4.39609 1090.93 5.11042C1109.03 6.06287 1117.36 6.7772 1135.22 8.44397C1153.79 10.1108 1183.08 13.9205 1200.22 16.7779C1210.94 18.6827 1225.22 21.0639 1235.94 23.2069C1243.8 24.8736 1264.04 28.9215 1278.08 32.4932C1284.51 34.1599 1292.85 36.0648 1299.04 37.7316C1305.23 39.3984 1313.32 41.5414 1319.52 43.2082C1325.71 44.8749 1334.04 47.256 1340.23 49.399C1366.42 57.7329 1366.9 57.971 1380.47 62.7333C1402.62 70.5909 1419.76 77.4961 1420 77.4961C1442.14 86.5443 1445 87.7349 1458.81 93.9258C1470.24 99.1642 1485.24 106.308 1496.67 111.784C1509.05 117.975 1521.67 124.642 1534.05 131.309C1545.01 137.262 1559.53 145.834 1570.25 152.263C1570.48 152.263 1586.91 162.264 1605.72 174.645C1616.44 181.789 1630.73 191.551 1641.2 199.171C1643.58 200.838 1665.49 216.553 1692.4 238.697C1719.07 260.842 1740.73 281.081 1740.97 281.319C1761.45 300.844 1761.45 300.844 1771.69 311.321C1780.74 320.369 1792.4 332.989 1800.98 342.514C1834.31 379.421 1865.5 419.423 1893.6 461.331C1901.93 473.713 1909.32 485.142 1916.94 497.762C1924.56 510.144 1924.56 510.144 1938.84 535.145C1944.32 544.67 1957.18 568.719 1968.61 592.53C1971.46 598.483 1978.13 612.531 1986.23 631.58C1991.23 643.486 1997.66 659.201 2002.18 671.345C2002.18 671.583 2012.89 699.442 2023.13 732.301C2025.99 742.064 2030.04 755.398 2035.04 773.732C2038.61 787.781 2038.61 787.781 2045.04 815.64C2048.61 831.355 2054.33 862.071 2056.94 879.692C2058.85 892.073 2060.99 908.741 2062.42 921.123C2064.09 935.172 2065.28 949.22 2066.23 963.03C2067.18 976.841 2067.9 991.128 2068.37 1004.94C2068.85 1017.56 2068.85 1034.23 2068.85 1046.85C2068.85 1047.08 2068.85 1065.42 2067.66 1088.99C2066.95 1103.28 2066.95 1103.99 2064.56 1131.14C2064.09 1137.57 2063.14 1146.14 2062.42 1152.33C2061.71 1158.52 2060.52 1167.09 2059.8 1173.28C2059.09 1179.71 2057.66 1188.28 2056.71 1194.47C2056.23 1198.52 2050.75 1234.48 2040.04 1279C2033.37 1306.39 2026.94 1328.53 2022.66 1342.34C2020.51 1349.48 2015.75 1364.49 2008.85 1384.01C2004.56 1396.39 1998.13 1412.58 1993.37 1424.73C1990.99 1431.16 1987.42 1439.49 1984.56 1445.68C1981.94 1451.63 1978.37 1459.73 1975.75 1465.68C1972.89 1472.11 1968.84 1480.45 1965.99 1486.64C1960.03 1499.26 1959.8 1499.73 1945.27 1527.35C1941.94 1533.78 1937.18 1542.12 1933.6 1548.31C1926.94 1560.21 1917.41 1575.45 1910.27 1587.12C1906.22 1593.55 1900.74 1602.12 1896.46 1608.31C1892.17 1614.74 1886.22 1623.31 1881.93 1629.74C1877.89 1635.46 1872.41 1643.08 1868.12 1648.79C1863.36 1655.46 1856.46 1664.27 1851.46 1670.93C1826.69 1702.84 1806.69 1724.75 1800.26 1731.89C1774.78 1759.75 1753.35 1780.23 1750.97 1782.61C1740.02 1792.85 1725.49 1806.18 1714.3 1816.18C1705.97 1823.56 1694.78 1832.85 1686.21 1839.75C1677.87 1846.66 1666.44 1855.47 1657.63 1862.14C1646.44 1870.47 1631.44 1881.19 1620.25 1889.04C1618.82 1890 1595.01 1906.66 1562.86 1925.71C1536.91 1941.19 1515 1952.62 1501.19 1959.52C1488.57 1965.72 1471.91 1973.81 1459.05 1979.53C1450.95 1983.1 1440.24 1987.86 1432.14 1991.19C1421.66 1995.48 1407.38 2001.19 1396.66 2005.24C1383.09 2010.24 1364.99 2016.43 1351.42 2020.96C1337.85 2025.48 1312.61 2032.86 1286.89 2039.29C1270.46 2043.34 1244.27 2049.53 1213.32 2054.77C1179.51 2060.72 1150.22 2063.82 1139.27 2065.01C1125.69 2066.44 1107.83 2067.63 1094.26 2068.58C1087.12 2069.06 1077.59 2069.53 1070.45 2069.53C1058.78 2069.77 1043.54 2070.25 1031.88 2070.01C1019.73 2070.01 1002.35 2069.53 987.112 2068.82C974.016 2068.1 956.634 2066.91 943.538 2065.72C936.871 2065.25 928.061 2064.29 921.394 2063.58C892.82 2060.01 892.82 2060.01 877.819 2057.86C857.104 2054.77 842.579 2051.91 834.959 2050.24C800.672 2043.58 771.622 2035.72 771.622 2035.72C745.668 2028.58 744.477 2028.34 730.429 2024.05C708.999 2017.39 692.093 2011.43 690.188 2010.72C674.473 2005.24 648.519 1995.72 612.088 1979.53C599.468 1973.81 586.61 1967.86 574.228 1961.67C561.37 1955.24 559.941 1954.52 537.083 1942.14C536.845 1942.14 520.891 1933.33 500.652 1921.19C489.937 1914.76 475.888 1905.71 465.411 1898.81C459.935 1895.23 452.791 1890.47 447.315 1886.66C442.076 1882.85 434.933 1878.09 429.695 1874.28C424.456 1870.47 417.551 1865.23 412.313 1861.42C398.74 1851.42 376.358 1833.33 361.833 1820.94C348.023 1809.04 327.307 1790.94 299.21 1762.37C294.686 1757.84 288.733 1751.65 284.209 1746.89C264.446 1725.46 262.303 1723.32 255.398 1714.98C236.825 1693.08 236.825 1693.08 228.015 1681.89C218.728 1670.22 218.728 1670.22 201.823 1647.6C192.06 1634.5 174.916 1609.5 165.153 1594.02C155.867 1579.26 140.39 1554.74 121.579 1519.5C114.674 1506.64 108.483 1494.02 102.054 1480.92C96.5775 1469.25 89.6723 1453.54 84.4339 1441.87C81.8147 1435.92 78.4811 1428.06 76.1 1421.87C73.7189 1415.92 70.6234 1407.82 68.2423 1401.87C65.8612 1395.92 63.0039 1387.82 60.8609 1381.63C56.0987 1368.53 51.5746 1354.72 47.2886 1340.91C45.3837 1334.72 43.0026 1326.39 41.0977 1320.2C39.4309 1314.01 37.0498 1305.67 35.383 1299.48C33.7163 1293.29 31.5733 1284.96 30.1446 1278.53C27.2873 1265.91 23.4775 1249.24 20.8583 1236.38C14.4293 1203.52 5.85727 1151.14 2.76183 1089.23C2.28561 1081.37 1.09506 1057.56 1.57128 1026.13C1.80939 1013.51 2.28561 996.842 2.76183 984.222C2.99994 977.793 3.71428 969.459 4.1905 963.03C4.66672 956.601 5.38105 948.268 5.85727 941.839C7.04783 929.219 8.95272 912.551 10.6195 899.931C11.5719 892.312 14.9055 870.643 17.2866 857.309C19.6677 844.689 23.0013 828.022 25.6205 815.402C27.0491 808.973 28.954 800.401 30.6208 793.972C32.0495 787.543 34.1925 778.971 36.0974 772.78C39.4309 760.398 44.1931 743.73 48.0029 731.349C51.5746 719.205 65.385 675.869 86.1006 627.294C88.7199 621.103 92.5296 612.531 95.387 606.34C101.102 594.435 108.721 578.481 114.674 566.576C117.055 561.814 127.294 542.05 137.294 524.668C145.628 510.144 167.773 471.332 202.537 423.947C213.014 409.661 223.729 395.85 234.206 382.992C255.159 357.276 269.208 342.275 270.637 340.609C275.637 335.132 282.542 327.751 287.781 322.274C297.305 312.512 310.163 299.654 319.926 290.129C338.022 273.699 359.214 255.127 365.881 249.65Z" stroke="#6F00FF" stroke-opacity="0.05" stroke-miterlimit="10"/>
<path d="M1570.01 1871.9C1962.65 1537.83 2042.42 891.598 1747.64 431.091C1459.52 446.806 907.107 730.873 513.748 1065.42C808.529 1525.92 1282.37 1887.62 1570.01 1871.9Z" stroke="#6F00FF" stroke-opacity="0.05" stroke-miterlimit="10"/>
<path d="M1747.64 431.091C1453.09 -29.4155 893.772 -132.279 500.413 200.838C213.251 217.505 218.966 604.912 513.747 1065.42C907.106 730.873 1459.52 446.806 1747.64 431.091Z" stroke="#6F00FF" stroke-opacity="0.05" stroke-miterlimit="10"/>
<path d="M1380.71 92.7358C1131.88 106.308 654.948 351.562 315.402 640.391" stroke="#6F00FF" stroke-opacity="0.05" stroke-miterlimit="10"/>
<path d="M933.061 10.1108C787.813 17.9685 509.223 161.311 310.639 329.894" stroke="#6F00FF" stroke-opacity="0.05" stroke-miterlimit="10"/>
<path d="M1387.14 528.24C1092.36 67.7337 694.951 -78.7045 500.414 200.838" stroke="#6F00FF" stroke-opacity="0.05" stroke-miterlimit="10"/>
<path d="M944.491 755.636C649.709 295.368 450.887 46.7801 500.414 200.838" stroke="#6F00FF" stroke-opacity="0.05" stroke-miterlimit="10"/>
<path d="M513.748 1065.42C218.967 604.912 213.49 217.506 500.414 200.838C108.483 535.86 28.7162 1182.33 323.497 1642.6C35.1452 1658.55 120.389 1399.96 513.748 1065.42Z" stroke="#6F00FF" stroke-opacity="0.05" stroke-miterlimit="10"/>
<path d="M310.877 330.132C112.531 498.953 69.4331 629.2 214.919 621.342" stroke="#6F00FF" stroke-opacity="0.05" stroke-miterlimit="10"/>
<path d="M225.633 1367.34C-69.1479 906.837 54.4316 383.945 500.413 200.838" stroke="#6F00FF" stroke-opacity="0.05" stroke-miterlimit="10"/>
<path d="M157.297 1574.26C-137.485 1113.76 16.8113 498 500.415 200.838" stroke="#6F00FF" stroke-opacity="0.05" stroke-miterlimit="10"/>
<path d="M323.497 1642.6C28.7161 1182.33 108.483 535.86 500.414 200.838C788.766 186.075 1262.61 548.004 1557.39 1008.27C1164.03 1343.06 611.612 1626.88 323.497 1642.6Z" stroke="#6F00FF" stroke-opacity="0.05" stroke-miterlimit="10"/>
<path d="M151.344 1138.76C400.17 1125.18 877.106 879.93 1216.65 591.102" stroke="#6F00FF" stroke-opacity="0.05" stroke-miterlimit="10"/>
<path d="M214.92 621.342C360.168 613.484 638.757 470.141 837.342 301.559" stroke="#6F00FF" stroke-opacity="0.05" stroke-miterlimit="10"/>
<path d="M683.997 1545.69C389.216 1085.18 307.306 482.285 500.414 200.838" stroke="#6F00FF" stroke-opacity="0.05" stroke-miterlimit="10"/>
<path d="M1126.65 1318.05C831.864 857.548 551.37 356.801 500.414 200.838" stroke="#6F00FF" stroke-opacity="0.05" stroke-miterlimit="10"/>
<path d="M1557.39 1008.51C1262.61 548.003 788.768 186.075 500.416 200.838C893.775 -132.279 1452.86 -29.4155 1747.64 431.091C2035.99 415.376 1950.75 673.964 1557.39 1008.51Z" stroke="#6F00FF" stroke-opacity="0.05" stroke-miterlimit="10"/>
<path d="M837.104 301.321C1035.45 132.738 1078.55 2.25333 933.062 10.111" stroke="#6F00FF" stroke-opacity="0.05" stroke-miterlimit="10"/>
<path d="M1845.5 706.585C1550.96 246.079 947.824 19.6352 500.414 200.838" stroke="#6F00FF" stroke-opacity="0.05" stroke-miterlimit="10"/>
<path d="M1913.84 499.429C1619.06 38.9223 985.446 -94.4199 500.414 200.838" stroke="#6F00FF" stroke-opacity="0.05" stroke-miterlimit="10"/>
<path d="M1093.31 2067.15C1072.59 2068.1 1044.97 2069.29 1024.26 2068.58C991.398 2067.63 947.586 2065.01 914.726 2061.44C869.962 2056.67 810.91 2044.29 767.336 2033.1C738.524 2025.72 701.141 2013.34 673.282 2003.1C638.756 1990.24 583.038 1967.38 519.224 1930.71C486.365 1911.66 435.647 1880.23 379.691 1834.28C358.976 1817.13 332.069 1793.56 313.258 1774.51C278.494 1739.27 234.444 1689.51 204.918 1649.74C177.773 1613.07 143.961 1562.12 123.96 1521.16C112.055 1496.64 94.6725 1464.97 85.148 1439.49C76.576 1416.63 63.9561 1386.15 56.3366 1362.82C48.0027 1337.58 37.2877 1303.53 32.0493 1277.34C27.2871 1253.76 20.3819 1222.57 16.5721 1198.76C12.5242 1172.33 8.00009 1137.09 6.57142 1110.42C5.38087 1086.85 3.9522 1055.66 4.19031 1032.08C4.42843 1004.94 5.38087 968.745 8.71442 941.839C14.191 896.836 23.7154 836.832 33.7161 792.543C39.9069 766.113 50.6219 731.349 58.9558 705.633C65.6229 685.393 75.8617 659.201 83.9575 639.438C94.6725 613.008 111.34 579.196 124.198 553.718C132.294 537.526 144.438 516.811 153.962 501.334C163.01 486.094 175.868 466.331 185.869 451.806C193.965 439.901 205.394 424.424 213.966 412.756C228.253 393.469 248.968 368.944 264.922 350.847C272.541 342.037 283.018 330.608 291.114 322.274C306.591 306.559 327.545 286.081 343.498 270.842C350.642 264.175 360.166 255.841 367.786 249.65C383.263 236.792 394.454 227.268 408.979 216.315C425.17 204.171 437.79 194.647 447.077 188.456C452.553 184.646 459.935 179.408 465.649 175.836C471.126 172.264 478.745 167.264 484.222 163.692C489.937 160.121 497.318 155.597 503.033 152.025C503.271 152.025 520.177 141.548 542.321 129.642C547.797 126.785 563.989 117.975 585.657 107.498C629.708 86.3063 663.996 73.4483 664.472 73.4483C684.473 66.0668 711.38 56.7805 731.619 50.3515C745.191 46.0655 763.526 41.0652 777.336 37.4935C793.528 33.4456 815.196 28.4453 831.388 25.1117C848.293 21.7782 870.914 18.2065 887.82 15.5873C914.488 11.5394 950.443 8.68209 977.35 6.7772C810.434 15.8254 644.471 79.401 500.652 201.076C644.232 79.1629 810.196 15.5873 977.111 6.53909C994.732 -4.89023 1025.92 4.87232 1046.88 5.11043C1068.07 5.34854 1096.41 6.7772 1117.6 8.44398C1146.88 10.8251 1185.93 15.3492 1214.75 20.8257C1259.75 29.3977 1318.8 44.3987 1362.37 58.2092C1389.76 66.7812 1425.47 81.0678 1451.9 92.7352C1476.67 103.688 1509.53 119.166 1533.1 132.738C1574.77 156.311 1628.11 191.551 1666.68 219.886C1688.35 236.078 1715.73 259.651 1735.49 277.986C1755.26 296.32 1780.97 321.322 1798.83 341.561C1831.93 379.183 1872.65 432.281 1900.74 473.713C1916.22 496.571 1934.56 528.478 1947.41 552.765C1961.7 579.672 1979.56 616.579 1990.75 644.914C2008.61 690.394 2028.37 752.302 2040.28 799.687C2046.71 825.164 2052.9 859.929 2056.71 886.121C2066.95 956.84 2067.9 1015.42 2067.42 1052.8C2066.95 1079.94 2065.04 1116.14 2061.94 1143.04C2056.47 1188.05 2045.99 1247.57 2035.28 1291.62C2028.85 1318.05 2017.89 1352.82 2009.08 1378.53C2002.42 1398.54 1991.7 1424.49 1983.61 1444.01C1972.65 1470.44 1955.27 1504.26 1942.17 1529.73C1934.08 1545.45 1921.94 1565.93 1912.41 1580.93C1903.36 1595.69 1890.5 1614.98 1880.74 1629.26C1871.69 1642.12 1859.07 1658.79 1849.79 1671.17C1835.5 1689.98 1815.02 1713.79 1799.07 1731.18C1784.07 1747.84 1763.12 1769.27 1746.92 1784.75C1739.3 1791.89 1729.07 1801.66 1721.21 1808.56C1710.02 1818.32 1695.02 1831.18 1683.59 1840.47C1669.06 1852.37 1641.2 1873.33 1624.54 1884.76C1609.3 1895.23 1602.15 1900 1587.15 1909.52C1575.72 1916.66 1560.48 1925.95 1548.82 1932.62C1526.91 1945.24 1500.72 1958.81 1485.24 1966.19C1467.14 1974.76 1442.62 1986.43 1406.43 2000.48C1369.28 2014.77 1339.52 2023.58 1336.18 2024.53C1310.23 2032.15 1274.99 2041.2 1248.56 2046.91C1229.03 2051.2 1202.6 2055.72 1182.84 2058.34C1155.93 2061.91 1120.22 2065.72 1093.31 2067.15Z" stroke="#6F00FF" stroke-opacity="0.05" stroke-miterlimit="10"/>
<path d="M1093.31 2067.15C1072.59 2068.1 1044.97 2069.29 1024.26 2068.58C991.398 2067.63 947.586 2065.01 914.726 2061.44C869.962 2056.67 810.91 2044.29 767.336 2033.1C738.524 2025.72 701.141 2013.34 673.282 2003.1C638.756 1990.24 583.038 1967.38 519.224 1930.71C486.365 1911.66 435.647 1880.23 379.691 1834.28C358.976 1817.13 332.069 1793.56 313.258 1774.51C278.494 1739.27 234.444 1689.51 204.918 1649.74C177.773 1613.07 143.961 1562.12 123.96 1521.16C112.055 1496.64 94.6725 1464.97 85.148 1439.49C76.576 1416.63 63.9561 1386.15 56.3366 1362.82C48.0027 1337.58 37.2877 1303.53 32.0493 1277.34C27.2871 1253.76 20.3819 1222.57 16.5721 1198.76C12.5242 1172.33 8.00009 1137.09 6.57142 1110.42C5.38087 1086.85 3.9522 1055.66 4.19031 1032.08C4.42843 1004.94 5.38087 968.745 8.71442 941.839C14.191 896.836 23.7154 836.832 33.7161 792.543C39.9069 766.113 50.6219 731.349 58.9558 705.633C65.6229 685.393 75.8617 659.201 83.9575 639.438C94.6725 613.008 111.34 579.196 124.198 553.718C132.294 537.526 144.438 516.811 153.962 501.334C163.01 486.094 175.868 466.331 185.869 451.806C193.965 439.901 205.394 424.424 213.966 412.756C228.253 393.469 248.968 368.944 264.922 350.847C272.541 342.037 283.018 330.608 291.114 322.274C306.591 306.559 327.545 286.081 343.498 270.842C350.642 264.175 360.166 255.841 367.786 249.65C383.263 236.792 394.454 227.268 408.979 216.315C425.17 204.171 437.79 194.647 447.077 188.456C452.553 184.646 459.935 179.408 465.649 175.836C471.126 172.264 478.745 167.264 484.222 163.692C489.937 160.121 497.318 155.597 503.033 152.025C503.271 152.025 520.177 141.548 542.321 129.642C547.797 126.785 563.989 117.975 585.657 107.498C629.708 86.3063 663.996 73.4483 664.472 73.4483C684.473 66.0668 711.38 56.7805 731.619 50.3515C745.191 46.0655 763.526 41.0652 777.336 37.4935C793.528 33.4456 815.196 28.4453 831.388 25.1117C848.293 21.7782 870.914 18.2065 887.82 15.5873C914.488 11.5394 950.443 8.68209 977.35 6.7772C810.434 15.8254 644.471 79.401 500.652 201.076C644.232 79.1629 810.196 15.5873 977.111 6.53909C994.732 -4.89023 1025.92 4.87232 1046.88 5.11043C1068.07 5.34854 1096.41 6.7772 1117.6 8.44398C1146.88 10.8251 1185.93 15.3492 1214.75 20.8257C1259.75 29.3977 1318.8 44.3987 1362.37 58.2092C1389.76 66.7812 1425.47 81.0678 1451.9 92.7352C1476.67 103.688 1509.53 119.166 1533.1 132.738C1574.77 156.311 1628.11 191.551 1666.68 219.886C1688.35 236.078 1715.73 259.651 1735.49 277.986C1755.26 296.32 1780.97 321.322 1798.83 341.561C1831.93 379.183 1872.65 432.281 1900.74 473.713C1916.22 496.571 1934.56 528.478 1947.41 552.765C1961.7 579.672 1979.56 616.579 1990.75 644.914C2008.61 690.394 2028.37 752.302 2040.28 799.687C2046.71 825.164 2052.9 859.929 2056.71 886.121C2066.95 956.84 2067.9 1015.42 2067.42 1052.8C2066.95 1079.94 2065.04 1116.14 2061.94 1143.04C2056.47 1188.05 2045.99 1247.57 2035.28 1291.62C2028.85 1318.05 2017.89 1352.82 2009.08 1378.53C2002.42 1398.54 1991.7 1424.49 1983.61 1444.01C1972.65 1470.44 1955.27 1504.26 1942.17 1529.73C1934.08 1545.45 1921.94 1565.93 1912.41 1580.93C1903.36 1595.69 1890.5 1614.98 1880.74 1629.26C1871.69 1642.12 1859.07 1658.79 1849.79 1671.17C1835.5 1689.98 1815.02 1713.79 1799.07 1731.18C1784.07 1747.84 1763.12 1769.27 1746.92 1784.75C1739.3 1791.89 1729.07 1801.66 1721.21 1808.56C1710.02 1818.32 1695.02 1831.18 1683.59 1840.47C1669.06 1852.37 1641.2 1873.33 1624.54 1884.76C1609.3 1895.23 1602.15 1900 1587.15 1909.52C1575.72 1916.66 1560.48 1925.95 1548.82 1932.62C1526.91 1945.24 1500.72 1958.81 1485.24 1966.19C1467.14 1974.76 1442.62 1986.43 1406.43 2000.48C1369.28 2014.77 1339.52 2023.58 1336.18 2024.53C1310.23 2032.15 1274.99 2041.2 1248.56 2046.91C1229.03 2051.2 1202.6 2055.72 1182.84 2058.34C1155.93 2061.91 1120.22 2065.72 1093.31 2067.15Z" stroke="#6F00FF" stroke-opacity="0.05" stroke-miterlimit="10"/>
<path d="M1570.01 1871.9C1962.65 1537.83 2042.42 891.598 1747.64 431.091C1459.52 446.807 907.105 730.873 513.746 1065.42C808.527 1525.93 1282.37 1887.62 1570.01 1871.9Z" stroke="#6F00FF" stroke-opacity="0.05" stroke-miterlimit="10"/>
<path d="M1747.64 431.091C1453.09 -29.4153 893.77 -132.279 500.411 200.838C213.249 217.506 218.964 604.912 513.745 1065.42C907.104 730.873 1459.52 446.807 1747.64 431.091Z" stroke="#6F00FF" stroke-opacity="0.05" stroke-miterlimit="10"/>
<path d="M1380.71 92.7361C1131.88 106.308 654.946 351.563 315.4 640.391" stroke="#6F00FF" stroke-opacity="0.05" stroke-miterlimit="10"/>
<path d="M933.059 10.1113C787.811 17.969 509.221 161.312 310.637 329.894" stroke="#6F00FF" stroke-opacity="0.05" stroke-miterlimit="10"/>
<path d="M1387.14 528.24C1092.36 67.7339 694.949 -78.7043 500.412 200.838" stroke="#6F00FF" stroke-opacity="0.05" stroke-miterlimit="10"/>
<path d="M944.489 755.637C649.707 295.368 450.885 46.7804 500.412 200.838" stroke="#6F00FF" stroke-opacity="0.05" stroke-miterlimit="10"/>
<path d="M513.746 1065.42C218.965 604.912 213.488 217.506 500.412 200.838C108.481 535.86 28.7142 1182.33 323.495 1642.6C35.1432 1658.55 120.387 1399.96 513.746 1065.42Z" stroke="#6F00FF" stroke-opacity="0.05" stroke-miterlimit="10"/>
<path d="M310.877 330.133C112.531 498.953 69.4331 629.2 214.919 621.342" stroke="#6F00FF" stroke-opacity="0.05" stroke-miterlimit="10"/>
<path d="M225.633 1367.34C-69.1479 906.837 54.4316 383.945 500.413 200.838" stroke="#6F00FF" stroke-opacity="0.05" stroke-miterlimit="10"/>
<path d="M157.295 1574.26C-137.487 1113.76 16.8093 498.001 500.413 200.838" stroke="#6F00FF" stroke-opacity="0.05" stroke-miterlimit="10"/>
<path d="M323.496 1642.6C28.7142 1182.33 108.481 535.86 500.412 200.838C788.764 186.075 1262.61 548.004 1557.39 1008.27C1164.03 1343.06 611.61 1626.88 323.496 1642.6Z" stroke="#6F00FF" stroke-opacity="0.05" stroke-miterlimit="10"/>
<path d="M151.342 1138.76C400.168 1125.18 877.104 879.931 1216.65 591.102" stroke="#6F00FF" stroke-opacity="0.05" stroke-miterlimit="10"/>
<path d="M214.918 621.342C360.166 613.484 638.755 470.141 837.34 301.559" stroke="#6F00FF" stroke-opacity="0.05" stroke-miterlimit="10"/>
<path d="M683.996 1545.69C389.214 1085.18 307.304 482.285 500.412 200.838" stroke="#6F00FF" stroke-opacity="0.05" stroke-miterlimit="10"/>
<path d="M1126.64 1318.05C831.862 857.548 551.368 356.801 500.412 200.838" stroke="#6F00FF" stroke-opacity="0.05" stroke-miterlimit="10"/>
<path d="M1557.39 1008.51C1262.61 548.004 788.764 186.075 500.412 200.838C893.771 -132.279 1452.86 -29.4153 1747.64 431.091C2035.99 415.376 1950.75 673.964 1557.39 1008.51Z" stroke="#6F00FF" stroke-opacity="0.05" stroke-miterlimit="10"/>
<path d="M837.102 301.321C1035.45 132.738 1078.55 2.25357 933.06 10.1112" stroke="#6F00FF" stroke-opacity="0.05" stroke-miterlimit="10"/>
<path d="M1845.5 706.585C1550.96 246.079 947.822 19.6354 500.412 200.838" stroke="#6F00FF" stroke-opacity="0.05" stroke-miterlimit="10"/>
<path d="M1913.84 499.429C1619.06 38.9225 985.444 -94.4196 500.412 200.838" stroke="#6F00FF" stroke-opacity="0.05" stroke-miterlimit="10"/>
<path d="M166.343 1593.55C151.104 1570.69 133.008 1538.55 120.388 1514.02C85.8618 1447.59 65.1462 1390.44 53.7169 1354.72C30.382 1282.81 19.9051 1223.05 14.9048 1188.76C10.8569 1161.38 6.80901 1124.71 5.61846 1097.09C3.71357 1050.42 4.66602 987.794 8.47579 941.363C10.8569 912.789 16.5716 875.168 21.81 847.071C37.2872 764.684 59.4315 702.299 70.1465 673.25C77.528 653.487 88.2429 627.533 97.0531 608.484C105.625 589.673 118.245 564.909 127.769 546.575C143.961 514.906 169.677 474.665 189.916 445.378C203.251 425.853 222.537 400.851 237.538 382.517C252.539 364.182 273.493 340.847 289.447 323.703C304.448 307.512 325.64 287.034 342.069 272.271C358.737 256.794 372.547 245.365 388.501 232.269C396.358 225.84 416.598 210.124 428.027 202.028C433.742 197.981 441.123 192.504 447.076 188.456C458.267 180.837 473.03 171.074 484.221 163.693C495.889 156.311 498.984 154.406 522.319 140.834C528.272 137.262 536.368 132.976 542.559 129.643C564.703 117.737 578.99 110.356 609.468 96.5453C624.945 89.402 650.423 78.9251 667.09 72.4961C687.092 64.8766 714.237 55.8284 734.714 49.3994C749.953 44.399 770.669 38.9225 786.384 35.1127C808.528 29.8743 838.054 23.6834 860.437 19.6355C894.725 13.4446 941.871 9.39674 977.111 6.53941C1267.13 -9.17591 1560.72 138.929 1747.64 431.091C2042.42 891.598 1962.65 1537.83 1570.01 1871.9C1962.65 1537.83 2042.42 891.598 1747.64 431.091C1560.72 138.929 1267.13 -9.17591 977.111 6.53941C1005.68 5.34886 1044.02 3.68208 1072.59 5.82508C1093.79 7.25374 1122.36 8.4443 1143.55 10.8254C1170.22 13.9208 1205.7 18.6831 1231.89 24.1596C1269.51 32.0173 1320.94 42.7323 1390.23 67.972C1412.38 76.0678 1441.43 87.7352 1462.86 97.4978C1486.91 108.451 1518.34 123.69 1541.2 137.024C1561.91 148.93 1589.29 165.121 1609.06 178.455C1630.96 193.218 1659.77 213.458 1680.01 230.364C1717.64 261.556 1765.26 306.321 1798.83 341.8C1817.4 361.563 1840.26 389.66 1856.69 411.328C1871.93 431.329 1890.98 459.426 1905.03 480.38C1922.17 506.096 1942.89 542.051 1956.22 569.91C1966.94 592.292 1981.46 622.056 1990.75 645.153C2000.99 670.154 2013.13 703.966 2021.23 729.682C2042.9 799.211 2052.9 858.262 2058.13 895.884C2068.14 969.222 2068.14 1029.23 2067.18 1065.89C2066.23 1095.18 2063.61 1134.23 2059.56 1163.28C2053.37 1208.05 2041.7 1267.34 2030.28 1310.91C2022.18 1341.87 2008.37 1382.11 1996.7 1411.87C1989.08 1431.4 1977.89 1456.87 1969.32 1475.92C1960.27 1495.92 1946.7 1521.88 1935.98 1541.16C1927.41 1556.64 1915.27 1576.88 1905.74 1591.88C1892.17 1613.31 1872.88 1640.93 1857.65 1660.93C1843.36 1679.74 1823.12 1704.27 1807.4 1721.89C1782.64 1749.75 1756.45 1776.42 1729.3 1801.18C1709.3 1819.28 1695.97 1830.47 1682.87 1840.95C1674.78 1847.61 1654.3 1863.33 1643.11 1871.42C1627.15 1882.85 1616.68 1890.23 1605.49 1897.62C1599.77 1901.19 1592.39 1906.19 1586.67 1909.76C1580.96 1913.33 1573.34 1917.86 1567.63 1921.43C1561.91 1925 1554.05 1929.52 1548.34 1932.86C1536.2 1939.76 1519.77 1948.57 1507.38 1955C1500.72 1958.57 1491.43 1963.1 1484.53 1966.43C1480.95 1968.1 1462.14 1977.38 1433.81 1989.29C1424.76 1993.1 1412.62 1997.86 1403.33 2001.43C1393.57 2005.24 1380.23 2009.77 1370.23 2013.34C1357.37 2017.86 1340.23 2023.34 1327.13 2027.15C1314.28 2030.72 1296.89 2035.72 1284.04 2038.82C1261.89 2043.82 1232.37 2050.48 1210.22 2054.29C1175.22 2060.01 1128.31 2065.25 1093.07 2067.39C1060.69 2069.29 1017.11 2070.25 984.73 2067.63C957.348 2065.48 920.679 2063.82 893.772 2059.06C871.628 2055.25 841.864 2050.72 819.958 2046.2C793.766 2040.72 759.239 2032.15 733.762 2024.05C689.473 2009.77 631.612 1986.43 588.752 1967.86C564.465 1957.14 533.272 1939.76 510.414 1926.19C487.793 1912.86 457.553 1894.52 436.837 1878.57C398.263 1849.04 347.546 1808.8 312.782 1774.99C280.875 1743.8 242.539 1698.08 214.204 1663.32C198.488 1643.08 180.392 1614.5 166.343 1593.55Z" stroke="#6F00FF" stroke-opacity="0.05" stroke-miterlimit="10"/>
<path d="M166.343 1593.55C151.104 1570.69 133.008 1538.55 120.388 1514.02C85.8618 1447.59 65.1462 1390.44 53.7169 1354.72C30.382 1282.81 19.9051 1223.05 14.9048 1188.76C10.8569 1161.38 6.80901 1124.71 5.61846 1097.09C3.71357 1050.42 4.66602 987.794 8.47579 941.363C10.8569 912.789 16.5716 875.168 21.81 847.071C37.2872 764.684 59.4315 702.299 70.1465 673.25C77.528 653.487 88.2429 627.533 97.0531 608.484C105.625 589.673 118.245 564.909 127.769 546.575C143.961 514.906 169.677 474.665 189.916 445.378C203.251 425.853 222.537 400.851 237.538 382.517C252.539 364.182 273.493 340.847 289.447 323.703C304.448 307.512 325.64 287.034 342.069 272.271C358.737 256.794 372.547 245.365 388.501 232.269C396.358 225.84 416.598 210.124 428.027 202.028C433.742 197.981 441.123 192.504 447.076 188.456C458.267 180.837 473.03 171.074 484.221 163.693C495.889 156.311 498.984 154.406 522.319 140.834C528.272 137.262 536.368 132.976 542.559 129.643C564.703 117.737 578.99 110.356 609.468 96.5453C624.945 89.402 650.423 78.9251 667.09 72.4961C687.092 64.8766 714.237 55.8284 734.714 49.3994C749.953 44.399 770.669 38.9225 786.384 35.1127C808.528 29.8743 838.054 23.6834 860.437 19.6355C894.725 13.4446 941.871 9.39674 977.111 6.53941C1267.13 -9.17591 1560.72 138.929 1747.64 431.091C2042.42 891.598 1962.65 1537.83 1570.01 1871.9C1962.65 1537.83 2042.42 891.598 1747.64 431.091C1560.72 138.929 1267.13 -9.17591 977.111 6.53941C1005.68 5.34886 1044.02 3.68208 1072.59 5.82508C1093.79 7.25374 1122.36 8.4443 1143.55 10.8254C1170.22 13.9208 1205.7 18.6831 1231.89 24.1596C1269.51 32.0173 1320.94 42.7323 1390.23 67.972C1412.38 76.0678 1441.43 87.7352 1462.86 97.4978C1486.91 108.451 1518.34 123.69 1541.2 137.024C1561.91 148.93 1589.29 165.121 1609.06 178.455C1630.96 193.218 1659.77 213.458 1680.01 230.364C1717.64 261.556 1765.26 306.321 1798.83 341.8C1817.4 361.563 1840.26 389.66 1856.69 411.328C1871.93 431.329 1890.98 459.426 1905.03 480.38C1922.17 506.096 1942.89 542.051 1956.22 569.91C1966.94 592.292 1981.46 622.056 1990.75 645.153C2000.99 670.154 2013.13 703.966 2021.23 729.682C2042.9 799.211 2052.9 858.262 2058.13 895.884C2068.14 969.222 2068.14 1029.23 2067.18 1065.89C2066.23 1095.18 2063.61 1134.23 2059.56 1163.28C2053.37 1208.05 2041.7 1267.34 2030.28 1310.91C2022.18 1341.87 2008.37 1382.11 1996.7 1411.87C1989.08 1431.4 1977.89 1456.87 1969.32 1475.92C1960.27 1495.92 1946.7 1521.88 1935.98 1541.16C1927.41 1556.64 1915.27 1576.88 1905.74 1591.88C1892.17 1613.31 1872.88 1640.93 1857.65 1660.93C1843.36 1679.74 1823.12 1704.27 1807.4 1721.89C1782.64 1749.75 1756.45 1776.42 1729.3 1801.18C1709.3 1819.28 1695.97 1830.47 1682.87 1840.95C1674.78 1847.61 1654.3 1863.33 1643.11 1871.42C1627.15 1882.85 1616.68 1890.23 1605.49 1897.62C1599.77 1901.19 1592.39 1906.19 1586.67 1909.76C1580.96 1913.33 1573.34 1917.86 1567.63 1921.43C1561.91 1925 1554.05 1929.52 1548.34 1932.86C1536.2 1939.76 1519.77 1948.57 1507.38 1955C1500.72 1958.57 1491.43 1963.1 1484.53 1966.43C1480.95 1968.1 1462.14 1977.38 1433.81 1989.29C1424.76 1993.1 1412.62 1997.86 1403.33 2001.43C1393.57 2005.24 1380.23 2009.77 1370.23 2013.34C1357.37 2017.86 1340.23 2023.34 1327.13 2027.15C1314.28 2030.72 1296.89 2035.72 1284.04 2038.82C1261.89 2043.82 1232.37 2050.48 1210.22 2054.29C1175.22 2060.01 1128.31 2065.25 1093.07 2067.39C1060.69 2069.29 1017.11 2070.25 984.73 2067.63C957.348 2065.48 920.679 2063.82 893.772 2059.06C871.628 2055.25 841.864 2050.72 819.958 2046.2C793.766 2040.72 759.239 2032.15 733.762 2024.05C689.473 2009.77 631.612 1986.43 588.752 1967.86C564.465 1957.14 533.272 1939.76 510.414 1926.19C487.793 1912.86 457.553 1894.52 436.837 1878.57C398.263 1849.04 347.546 1808.8 312.782 1774.99C280.875 1743.8 242.539 1698.08 214.204 1663.32C198.488 1643.08 180.392 1614.5 166.343 1593.55Z" stroke="#6F00FF" stroke-opacity="0.05" stroke-miterlimit="10"/>
</svg>
