<svg width="13" height="12" viewBox="0 0 13 12" fill="none" xmlns="http://www.w3.org/2000/svg">
<path d="M6.84334 2.10319L6.66656 1.92642L6.48979 2.10319L3.71979 4.87319C3.67242 4.92056 3.59071 4.92056 3.54334 4.87319C3.49597 4.82583 3.49597 4.74412 3.54334 4.69675L6.57834 1.66175C6.62571 1.61438 6.70742 1.61438 6.75479 1.66175L9.78979 4.69675C9.83715 4.74412 9.83715 4.82583 9.78979 4.87319L9.78968 4.87309L9.7838 4.87939C9.76867 4.8956 9.73924 4.90997 9.70156 4.90997C9.66929 4.90997 9.63898 4.89884 9.61334 4.87319L6.84334 2.10319Z" fill="#12B76A" stroke="#12B76A" stroke-width="0.5"/>
<path d="M6.66797 10.375C6.60104 10.375 6.54297 10.3169 6.54297 10.25V1.83496C6.54297 1.76803 6.60104 1.70996 6.66797 1.70996C6.7349 1.70996 6.79297 1.76803 6.79297 1.83496V10.25C6.79297 10.3169 6.7349 10.375 6.66797 10.375Z" fill="#12B76A" stroke="#12B76A" stroke-width="0.5"/>
</svg>
