<svg width="16" height="16" viewBox="0 0 16 16" fill="none" xmlns="http://www.w3.org/2000/svg">
<path d="M9.62 12.5467C9.49333 12.5467 9.36667 12.5001 9.26667 12.4001C9.07333 12.2067 9.07333 11.8867 9.26667 11.6934L12.96 8.00008L9.26667 4.30674C9.07333 4.11341 9.07333 3.79341 9.26667 3.60008C9.46 3.40674 9.78 3.40674 9.97333 3.60008L14.02 7.64675C14.2133 7.84008 14.2133 8.16008 14.02 8.35341L9.97333 12.4001C9.87333 12.5001 9.74667 12.5467 9.62 12.5467Z" fill="#6F00FF"/>
<path d="M13.5533 8.5H2.33333C2.06 8.5 1.83333 8.27333 1.83333 8C1.83333 7.72667 2.06 7.5 2.33333 7.5H13.5533C13.8267 7.5 14.0533 7.72667 14.0533 8C14.0533 8.27333 13.8267 8.5 13.5533 8.5Z" fill="#6F00FF"/>
</svg>
