<svg width="698" height="448" viewBox="0 0 698 448" fill="none" xmlns="http://www.w3.org/2000/svg">
<rect width="698" height="448" rx="8" fill="white"/>
<g clip-path="url(#clip0_5008_143897)">
<path d="M242.702 230.496L137.228 364H73.3479C73.3479 364 49.8829 391.177 50.8411 391.177L50.8417 438.716H712.381L697.485 259L702.049 247.233L558.135 320.093H453.098L346.803 230.496H242.702Z" fill="url(#paint0_linear_5008_143897)" fill-opacity="0.2" stroke="#0FBBE6" stroke-width="2" stroke-linecap="round" stroke-linejoin="round"/>
<g opacity="0.5">
<path opacity="0.60681" d="M85 176V408" stroke="#ACAFC3" stroke-width="0.5" stroke-linecap="square" stroke-dasharray="2 2 2"/>
<path opacity="0.60681" d="M136.962 176V408" stroke="#ACAFC3" stroke-width="0.5" stroke-linecap="square" stroke-dasharray="2 2 2"/>
<path opacity="0.60681" d="M189.509 176V408" stroke="#ACAFC3" stroke-width="0.5" stroke-linecap="square" stroke-dasharray="2 2 2"/>
<path opacity="0.60681" d="M242.052 176V408" stroke="#ACAFC3" stroke-width="0.5" stroke-linecap="square" stroke-dasharray="2 2 2"/>
<path opacity="0.60681" d="M294.599 176V408" stroke="#ACAFC3" stroke-width="0.5" stroke-linecap="square" stroke-dasharray="2 2 2"/>
<path opacity="0.60681" d="M347.146 176V408" stroke="#ACAFC3" stroke-width="0.5" stroke-linecap="square" stroke-dasharray="2 2 2"/>
<path opacity="0.60681" d="M399.689 176V408" stroke="#ACAFC3" stroke-width="0.5" stroke-linecap="square" stroke-dasharray="2 2 2"/>
<path opacity="0.60681" d="M452.236 176V408" stroke="#ACAFC3" stroke-width="0.5" stroke-linecap="square" stroke-dasharray="2 2 2"/>
<path opacity="0.60681" d="M504.779 176V408" stroke="#ACAFC3" stroke-width="0.5" stroke-linecap="square" stroke-dasharray="2 2 2"/>
<path opacity="0.60681" d="M557.326 176V408" stroke="#ACAFC3" stroke-width="0.5" stroke-linecap="square" stroke-dasharray="2 2 2"/>
<path opacity="0.60681" d="M609.872 176V408" stroke="#ACAFC3" stroke-width="0.5" stroke-linecap="square" stroke-dasharray="2 2 2"/>
<path opacity="0.60681" d="M662.415 176V408" stroke="#ACAFC3" stroke-width="0.5" stroke-linecap="square" stroke-dasharray="2 2 2"/>
</g>
<g opacity="0.5">
<path opacity="0.756413" d="M52.9492 185.628H682.001" stroke="#ACAFC3" stroke-width="0.5" stroke-linecap="square" stroke-dasharray="2 2 2 2"/>
<path opacity="0.756413" d="M52.9492 230.73H682.001" stroke="#ACAFC3" stroke-width="0.5" stroke-linecap="square" stroke-dasharray="2 2 2 2"/>
<path opacity="0.756413" d="M52.9492 275.362H682.001" stroke="#ACAFC3" stroke-width="0.5" stroke-linecap="square" stroke-dasharray="2 2 2 2"/>
<path opacity="0.756413" d="M52.9492 319.522H682.001" stroke="#ACAFC3" stroke-width="0.5" stroke-linecap="square" stroke-dasharray="2 2 2 2"/>
<path opacity="0.756413" d="M52.9492 363.683H682.001" stroke="#ACAFC3" stroke-width="0.5" stroke-linecap="square" stroke-dasharray="2 2 2 2"/>
<path opacity="0.756413" d="M52.9492 407.843H682.001" stroke="#ACAFC3" stroke-width="0.5" stroke-linecap="square" stroke-dasharray="2 2 2 2"/>
</g>
<path d="M52.7209 176V408" stroke="#E6E8F9" stroke-linecap="square"/>
<path d="M53.0547 407.477H672.209" stroke="#E7E9FB" stroke-linecap="square"/>
</g>
<path d="M646.096 429L649.24 420.6H650.884L654.016 429H652.54L651.748 426.924H648.304L647.524 429H646.096ZM648.688 425.748H651.364L650.02 422.088L648.688 425.748ZM660.282 422.856V429H659.142L658.998 428.22C658.53 428.796 657.894 429.072 657.102 429.072C656.382 429.072 655.794 428.856 655.35 428.4C654.894 427.956 654.678 427.236 654.678 426.24V422.856H655.974V426.108C655.974 426.708 656.094 427.164 656.334 427.476C656.574 427.788 656.922 427.944 657.402 427.944C657.894 427.944 658.278 427.764 658.566 427.404C658.842 427.044 658.986 426.54 658.986 425.904V422.856H660.282ZM667.764 422.856V428.748C667.764 429.612 667.5 430.284 666.996 430.764C666.48 431.244 665.688 431.472 664.62 431.472C663.78 431.472 663.108 431.292 662.592 430.92C662.064 430.548 661.776 430.02 661.728 429.336H663.048C663.12 429.684 663.312 429.948 663.6 430.14C663.888 430.332 664.26 430.416 664.716 430.416C665.892 430.416 666.48 429.852 666.48 428.7V428.016C666.024 428.688 665.364 429.024 664.476 429.024C663.912 429.024 663.408 428.904 662.976 428.652C662.532 428.4 662.184 428.04 661.944 427.572C661.692 427.104 661.572 426.552 661.572 425.904C661.572 425.292 661.692 424.752 661.944 424.272C662.196 423.804 662.544 423.444 662.988 423.18C663.42 422.916 663.924 422.784 664.476 422.784C664.932 422.784 665.34 422.88 665.676 423.06C666.012 423.252 666.276 423.504 666.492 423.816L666.636 422.856H667.764ZM665.988 427.38C666.312 427.008 666.48 426.528 666.48 425.928C666.48 425.328 666.312 424.836 665.988 424.452C665.652 424.068 665.22 423.876 664.692 423.876C664.152 423.876 663.72 424.068 663.396 424.44C663.06 424.824 662.904 425.304 662.904 425.904C662.904 426.504 663.06 426.996 663.396 427.368C663.72 427.752 664.152 427.932 664.692 427.932C665.22 427.932 665.652 427.752 665.988 427.38ZM677.284 423.696C677.704 423.936 678.04 424.272 678.28 424.704C678.52 425.136 678.64 425.628 678.64 426.18C678.64 426.792 678.496 427.308 678.232 427.74C677.956 428.172 677.584 428.508 677.128 428.724C676.66 428.952 676.144 429.06 675.592 429.06C674.968 429.06 674.428 428.94 673.972 428.7C673.516 428.46 673.156 428.136 672.904 427.728C672.64 427.32 672.496 426.852 672.472 426.348H673.792C673.84 426.804 674.02 427.188 674.356 427.488C674.68 427.8 675.088 427.944 675.592 427.944C675.88 427.944 676.156 427.884 676.42 427.74C676.684 427.608 676.888 427.404 677.056 427.14C677.212 426.876 677.296 426.564 677.296 426.18C677.296 425.676 677.14 425.256 676.828 424.92C676.516 424.596 676.108 424.428 675.604 424.428C675.268 424.428 674.932 424.512 674.608 424.656C674.272 424.812 674.044 425.076 673.912 425.46L672.628 425.436L672.88 420.6H678.112V421.764H674.104L673.948 424.104C674.188 423.84 674.476 423.648 674.812 423.528C675.148 423.408 675.496 423.336 675.868 423.336C676.396 423.336 676.864 423.456 677.284 423.696Z" fill="#98A2B3"/>
<path d="M598.137 420.6V426.912C598.137 427.584 597.945 428.1 597.585 428.46C597.225 428.82 596.709 429 596.037 429H594.741V427.764H595.725C596.085 427.764 596.337 427.68 596.505 427.512C596.673 427.344 596.757 427.08 596.757 426.708V420.6H598.137ZM605.29 422.856V429H604.15L604.006 428.22C603.538 428.796 602.902 429.072 602.11 429.072C601.39 429.072 600.802 428.856 600.358 428.4C599.902 427.956 599.686 427.236 599.686 426.24V422.856H600.982V426.108C600.982 426.708 601.102 427.164 601.342 427.476C601.582 427.788 601.93 427.944 602.41 427.944C602.902 427.944 603.286 427.764 603.574 427.404C603.85 427.044 603.994 426.54 603.994 425.904V422.856H605.29ZM606.807 420.6H608.103V429H606.807V420.6ZM615.936 425.184C616.368 424.824 616.704 424.488 616.92 424.176C617.136 423.864 617.256 423.528 617.256 423.156C617.256 422.688 617.112 422.316 616.824 422.052C616.536 421.788 616.14 421.656 615.648 421.656C615.168 421.656 614.772 421.812 614.484 422.124C614.196 422.436 614.052 422.844 614.052 423.348V423.504H612.72V423.276C612.72 422.748 612.84 422.28 613.08 421.86C613.32 421.452 613.668 421.116 614.112 420.876C614.544 420.636 615.06 420.516 615.648 420.516C616.584 420.516 617.304 420.756 617.832 421.224C618.348 421.692 618.612 422.316 618.612 423.096C618.612 423.672 618.456 424.164 618.168 424.596C617.868 425.028 617.424 425.484 616.836 425.976L614.604 427.836H618.66V429H612.708V427.932L615.936 425.184ZM622.996 425.184C623.428 424.824 623.764 424.488 623.98 424.176C624.196 423.864 624.316 423.528 624.316 423.156C624.316 422.688 624.172 422.316 623.884 422.052C623.596 421.788 623.2 421.656 622.708 421.656C622.228 421.656 621.832 421.812 621.544 422.124C621.256 422.436 621.112 422.844 621.112 423.348V423.504H619.78V423.276C619.78 422.748 619.9 422.28 620.14 421.86C620.38 421.452 620.728 421.116 621.172 420.876C621.604 420.636 622.12 420.516 622.708 420.516C623.644 420.516 624.364 420.756 624.892 421.224C625.408 421.692 625.672 422.316 625.672 423.096C625.672 423.672 625.516 424.164 625.228 424.596C624.928 425.028 624.484 425.484 623.896 425.976L621.664 427.836H625.72V429H619.768V427.932L622.996 425.184Z" fill="#98A2B3"/>
<path d="M546.594 420.6V426.912C546.594 427.584 546.402 428.1 546.042 428.46C545.682 428.82 545.166 429 544.494 429H543.198V427.764H544.182C544.542 427.764 544.794 427.68 544.962 427.512C545.13 427.344 545.214 427.08 545.214 426.708V420.6H546.594ZM553.747 422.856V429H552.607L552.463 428.22C551.995 428.796 551.359 429.072 550.567 429.072C549.847 429.072 549.259 428.856 548.815 428.4C548.359 427.956 548.143 427.236 548.143 426.24V422.856H549.439V426.108C549.439 426.708 549.559 427.164 549.799 427.476C550.039 427.788 550.387 427.944 550.867 427.944C551.359 427.944 551.743 427.764 552.031 427.404C552.307 427.044 552.451 426.54 552.451 425.904V422.856H553.747ZM555.264 420.6H556.56V429H555.264V420.6ZM566.973 425.328C567.309 425.688 567.489 426.156 567.489 426.732C567.489 427.188 567.357 427.596 567.117 427.956C566.865 428.316 566.505 428.592 566.037 428.784C565.569 428.976 565.017 429.072 564.369 429.072C563.721 429.072 563.157 428.976 562.689 428.784C562.221 428.592 561.861 428.316 561.621 427.956C561.369 427.596 561.249 427.188 561.249 426.732C561.249 426.168 561.417 425.7 561.753 425.34C562.089 424.98 562.521 424.752 563.049 424.632C562.593 424.536 562.221 424.32 561.933 423.984C561.633 423.648 561.489 423.24 561.489 422.748C561.489 422.316 561.597 421.92 561.837 421.584C562.065 421.248 562.401 420.996 562.833 420.804C563.265 420.612 563.781 420.516 564.369 420.516C564.945 420.516 565.461 420.612 565.893 420.804C566.325 420.996 566.661 421.248 566.901 421.584C567.129 421.92 567.249 422.316 567.249 422.748C567.249 423.228 567.093 423.636 566.793 423.972C566.481 424.32 566.109 424.536 565.653 424.632C566.181 424.74 566.625 424.968 566.973 425.328ZM563.229 421.884C562.929 422.124 562.785 422.424 562.785 422.784C562.785 423.168 562.929 423.468 563.229 423.696C563.517 423.936 563.901 424.044 564.369 424.044C564.825 424.044 565.209 423.936 565.497 423.696C565.785 423.456 565.941 423.156 565.941 422.784C565.941 422.424 565.785 422.124 565.497 421.884C565.209 421.644 564.825 421.524 564.369 421.524C563.901 421.524 563.517 421.644 563.229 421.884ZM565.653 427.68C565.989 427.416 566.157 427.08 566.157 426.66C566.157 426.252 565.977 425.916 565.641 425.64C565.305 425.364 564.873 425.22 564.369 425.22C563.841 425.22 563.409 425.364 563.073 425.64C562.737 425.916 562.569 426.252 562.569 426.66C562.569 427.08 562.737 427.416 563.073 427.68C563.409 427.944 563.841 428.076 564.369 428.076C564.885 428.076 565.317 427.944 565.653 427.68Z" fill="#98A2B3"/>
<path d="M494.047 420.6V426.912C494.047 427.584 493.855 428.1 493.495 428.46C493.135 428.82 492.619 429 491.947 429H490.651V427.764H491.635C491.995 427.764 492.247 427.68 492.415 427.512C492.583 427.344 492.667 427.08 492.667 426.708V420.6H494.047ZM501.2 422.856V429H500.06L499.916 428.22C499.448 428.796 498.812 429.072 498.02 429.072C497.3 429.072 496.712 428.856 496.268 428.4C495.812 427.956 495.596 427.236 495.596 426.24V422.856H496.892V426.108C496.892 426.708 497.012 427.164 497.252 427.476C497.492 427.788 497.84 427.944 498.32 427.944C498.812 427.944 499.196 427.764 499.484 427.404C499.76 427.044 499.904 426.54 499.904 425.904V422.856H501.2ZM507.734 423.456C508.19 423.912 508.43 424.632 508.43 425.616V429H507.122V425.688C507.122 425.112 506.99 424.668 506.75 424.356C506.498 424.056 506.138 423.9 505.658 423.9C505.142 423.9 504.734 424.08 504.446 424.44C504.158 424.8 504.014 425.28 504.014 425.904V429H502.718V422.856H503.846L503.99 423.66C504.446 423.084 505.106 422.784 505.958 422.784C506.678 422.784 507.278 423.012 507.734 423.456ZM516.17 425.184C516.602 424.824 516.938 424.488 517.154 424.176C517.37 423.864 517.49 423.528 517.49 423.156C517.49 422.688 517.346 422.316 517.058 422.052C516.77 421.788 516.374 421.656 515.882 421.656C515.402 421.656 515.006 421.812 514.718 422.124C514.43 422.436 514.286 422.844 514.286 423.348V423.504H512.954V423.276C512.954 422.748 513.074 422.28 513.314 421.86C513.554 421.452 513.902 421.116 514.346 420.876C514.778 420.636 515.294 420.516 515.882 420.516C516.818 420.516 517.538 420.756 518.066 421.224C518.582 421.692 518.846 422.316 518.846 423.096C518.846 423.672 518.69 424.164 518.402 424.596C518.102 425.028 517.658 425.484 517.07 425.976L514.838 427.836H518.894V429H512.942V427.932L516.17 425.184ZM519.718 425.928L523.714 420.6H525.322V425.904H526.594V427.056H525.322V429H524.014V427.056H519.718V425.928ZM521.05 425.904H524.014V421.968L521.05 425.904Z" fill="#98A2B3"/>
<path d="M442.5 420.6V426.912C442.5 427.584 442.308 428.1 441.948 428.46C441.588 428.82 441.072 429 440.4 429H439.104V427.764H440.088C440.448 427.764 440.7 427.68 440.868 427.512C441.036 427.344 441.12 427.08 441.12 426.708V420.6H442.5ZM449.654 422.856V429H448.514L448.37 428.22C447.902 428.796 447.266 429.072 446.474 429.072C445.754 429.072 445.166 428.856 444.722 428.4C444.266 427.956 444.05 427.236 444.05 426.24V422.856H445.346V426.108C445.346 426.708 445.466 427.164 445.706 427.476C445.946 427.788 446.294 427.944 446.774 427.944C447.266 427.944 447.65 427.764 447.938 427.404C448.214 427.044 448.358 426.54 448.358 425.904V422.856H449.654ZM456.187 423.456C456.643 423.912 456.883 424.632 456.883 425.616V429H455.575V425.688C455.575 425.112 455.443 424.668 455.203 424.356C454.951 424.056 454.591 423.9 454.111 423.9C453.595 423.9 453.187 424.08 452.899 424.44C452.611 424.8 452.467 425.28 452.467 425.904V429H451.171V422.856H452.299L452.443 423.66C452.899 423.084 453.559 422.784 454.411 422.784C455.131 422.784 455.731 423.012 456.187 423.456ZM464.276 420.6V429H462.956V423.324C462.836 423.396 462.656 423.432 462.428 423.432H461.048V422.304H462.368C462.56 422.304 462.716 422.232 462.824 422.088C462.92 421.944 462.98 421.764 462.98 421.524V420.6H464.276ZM465.845 424.608C465.845 423.816 465.977 423.108 466.253 422.484C466.529 421.86 466.925 421.38 467.429 421.044C467.933 420.708 468.509 420.528 469.157 420.528C469.793 420.528 470.357 420.708 470.861 421.044C471.365 421.38 471.749 421.86 472.037 422.484C472.313 423.108 472.457 423.816 472.457 424.608V424.992C472.457 425.832 472.313 426.552 472.037 427.164C471.761 427.788 471.377 428.256 470.873 428.58C470.369 428.916 469.805 429.072 469.157 429.072C468.497 429.072 467.921 428.916 467.417 428.58C466.913 428.256 466.529 427.788 466.253 427.164C465.977 426.552 465.845 425.832 465.845 424.992V424.608ZM470.585 422.484C470.225 421.956 469.757 421.692 469.157 421.692C468.557 421.692 468.077 421.956 467.717 422.484C467.357 423.012 467.177 423.732 467.177 424.656V424.944C467.177 425.88 467.357 426.6 467.717 427.128C468.077 427.656 468.557 427.908 469.157 427.908C469.757 427.908 470.225 427.656 470.585 427.128C470.945 426.6 471.125 425.88 471.125 424.944V424.656C471.125 423.732 470.945 423.012 470.585 422.484Z" fill="#98A2B3"/>
<path d="M383.041 420.6H384.829L387.517 427.212L390.157 420.6H391.909V429H390.577V422.82L388.057 429H386.893L384.373 422.82V429H383.041V420.6ZM399.436 427.872V429H398.752C398.344 429 398.056 428.916 397.888 428.748C397.708 428.58 397.624 428.34 397.624 428.016C397.156 428.724 396.484 429.072 395.596 429.072C394.9 429.072 394.348 428.916 393.94 428.592C393.52 428.28 393.316 427.836 393.316 427.272C393.316 426.648 393.532 426.156 393.988 425.82C394.432 425.484 395.08 425.304 395.944 425.304H397.492V424.932C397.492 424.596 397.372 424.32 397.132 424.128C396.892 423.936 396.556 423.828 396.136 423.828C395.752 423.828 395.44 423.912 395.2 424.08C394.96 424.248 394.816 424.464 394.768 424.728H393.496C393.556 424.116 393.832 423.636 394.312 423.3C394.792 422.964 395.416 422.784 396.196 422.784C397.012 422.784 397.648 422.976 398.104 423.36C398.548 423.744 398.776 424.296 398.776 425.016V427.44C398.776 427.728 398.908 427.872 399.184 427.872H399.436ZM397.492 426.264H395.884C395.476 426.264 395.176 426.348 394.96 426.504C394.744 426.66 394.636 426.888 394.636 427.188C394.636 427.452 394.732 427.668 394.936 427.824C395.14 427.992 395.416 428.064 395.776 428.064C396.304 428.064 396.724 427.92 397.024 427.632C397.324 427.344 397.48 426.96 397.492 426.48V426.264ZM400.962 422.856L402.678 427.596L404.346 422.856H405.726L402.942 429.96C402.798 430.332 402.666 430.62 402.546 430.812C402.426 431.004 402.27 431.16 402.102 431.256C401.922 431.352 401.682 431.4 401.394 431.4H400.002V430.26H400.914C401.154 430.26 401.334 430.224 401.43 430.152C401.526 430.08 401.622 429.9 401.73 429.636L401.982 429.048L399.582 422.856H400.962ZM412.944 425.184C413.376 424.824 413.712 424.488 413.928 424.176C414.144 423.864 414.264 423.528 414.264 423.156C414.264 422.688 414.12 422.316 413.832 422.052C413.544 421.788 413.148 421.656 412.656 421.656C412.176 421.656 411.78 421.812 411.492 422.124C411.204 422.436 411.06 422.844 411.06 423.348V423.504H409.728V423.276C409.728 422.748 409.848 422.28 410.088 421.86C410.328 421.452 410.676 421.116 411.12 420.876C411.552 420.636 412.068 420.516 412.656 420.516C413.592 420.516 414.312 420.756 414.84 421.224C415.356 421.692 415.62 422.316 415.62 423.096C415.62 423.672 415.464 424.164 415.176 424.596C414.876 425.028 414.432 425.484 413.844 425.976L411.612 427.836H415.668V429H409.716V427.932L412.944 425.184ZM416.43 420.6H422.466V421.488L418.53 429H417.09L421.002 421.764H416.43V420.6Z" fill="#98A2B3"/>
<path d="M328.495 420.6H330.283L332.971 427.212L335.611 420.6H337.363V429H336.031V422.82L333.511 429H332.347L329.827 422.82V429H328.495V420.6ZM344.889 427.872V429H344.205C343.797 429 343.509 428.916 343.341 428.748C343.161 428.58 343.077 428.34 343.077 428.016C342.609 428.724 341.937 429.072 341.049 429.072C340.353 429.072 339.801 428.916 339.393 428.592C338.973 428.28 338.769 427.836 338.769 427.272C338.769 426.648 338.985 426.156 339.441 425.82C339.885 425.484 340.533 425.304 341.397 425.304H342.945V424.932C342.945 424.596 342.825 424.32 342.585 424.128C342.345 423.936 342.009 423.828 341.589 423.828C341.205 423.828 340.893 423.912 340.653 424.08C340.413 424.248 340.269 424.464 340.221 424.728H338.949C339.009 424.116 339.285 423.636 339.765 423.3C340.245 422.964 340.869 422.784 341.649 422.784C342.465 422.784 343.101 422.976 343.557 423.36C344.001 423.744 344.229 424.296 344.229 425.016V427.44C344.229 427.728 344.361 427.872 344.637 427.872H344.889ZM342.945 426.264H341.337C340.929 426.264 340.629 426.348 340.413 426.504C340.197 426.66 340.089 426.888 340.089 427.188C340.089 427.452 340.185 427.668 340.389 427.824C340.593 427.992 340.869 428.064 341.229 428.064C341.757 428.064 342.177 427.92 342.477 427.632C342.777 427.344 342.933 426.96 342.945 426.48V426.264ZM346.415 422.856L348.131 427.596L349.799 422.856H351.179L348.395 429.96C348.251 430.332 348.119 430.62 347.999 430.812C347.879 431.004 347.723 431.16 347.555 431.256C347.375 431.352 347.135 431.4 346.847 431.4H345.455V430.26H346.367C346.607 430.26 346.787 430.224 346.883 430.152C346.979 430.08 347.075 429.9 347.183 429.636L347.435 429.048L345.035 422.856H346.415ZM358.049 420.6V429H356.729V423.324C356.609 423.396 356.429 423.432 356.201 423.432H354.821V422.304H356.141C356.333 422.304 356.489 422.232 356.597 422.088C356.693 421.944 356.753 421.764 356.753 421.524V420.6H358.049ZM365.342 425.328C365.69 425.664 365.87 426.108 365.87 426.66C365.87 427.14 365.738 427.572 365.474 427.932C365.21 428.292 364.85 428.58 364.37 428.772C363.89 428.976 363.338 429.072 362.714 429.072C361.754 429.072 360.986 428.832 360.422 428.34C359.858 427.848 359.582 427.176 359.582 426.312H360.914C360.914 426.828 361.094 427.236 361.442 427.524C361.778 427.824 362.234 427.968 362.798 427.968C363.29 427.968 363.698 427.848 364.022 427.584C364.346 427.332 364.514 426.996 364.514 426.564C364.514 426.168 364.346 425.856 364.034 425.628C363.722 425.4 363.266 425.28 362.69 425.28H361.922V424.176H362.606C363.158 424.176 363.578 424.056 363.866 423.816C364.154 423.576 364.31 423.264 364.31 422.856C364.31 422.484 364.166 422.184 363.878 421.968C363.59 421.752 363.218 421.632 362.762 421.632C362.282 421.632 361.886 421.764 361.574 422.016C361.262 422.268 361.106 422.604 361.106 423.036H359.798C359.798 422.268 360.074 421.656 360.602 421.2C361.13 420.756 361.826 420.528 362.714 420.528C363.314 420.528 363.842 420.624 364.286 420.804C364.73 420.996 365.066 421.26 365.306 421.596C365.546 421.932 365.666 422.328 365.666 422.76C365.666 423.264 365.51 423.684 365.222 424.008C364.934 424.332 364.538 424.548 364.046 424.656C364.562 424.764 364.994 424.992 365.342 425.328Z" fill="#98A2B3"/>
<path d="M274.28 429L277.424 420.6H279.068L282.2 429H280.724L279.932 426.924H276.488L275.708 429H274.28ZM276.872 425.748H279.548L278.204 422.088L276.872 425.748ZM287.957 423.168C288.389 423.42 288.737 423.78 288.989 424.26C289.229 424.74 289.361 425.292 289.361 425.928C289.361 426.552 289.229 427.104 288.989 427.584C288.737 428.064 288.389 428.424 287.957 428.688C287.513 428.952 287.009 429.072 286.457 429.072C286.001 429.072 285.605 428.988 285.269 428.82C284.933 428.652 284.657 428.424 284.465 428.136V431.4H283.169V422.856H284.297L284.453 423.768C284.945 423.12 285.617 422.784 286.457 422.784C287.009 422.784 287.513 422.916 287.957 423.168ZM287.537 427.404C287.873 427.02 288.041 426.528 288.041 425.928C288.041 425.328 287.873 424.836 287.537 424.452C287.201 424.08 286.769 423.888 286.241 423.888C285.701 423.888 285.269 424.08 284.945 424.452C284.609 424.824 284.453 425.304 284.453 425.904C284.453 426.528 284.609 427.02 284.945 427.404C285.269 427.788 285.701 427.98 286.241 427.98C286.769 427.98 287.201 427.788 287.537 427.404ZM294.035 422.856V424.068H293.459C292.919 424.068 292.535 424.248 292.295 424.596C292.055 424.944 291.935 425.388 291.935 425.916V429H290.639V422.856H291.791L291.935 423.78C292.103 423.492 292.331 423.276 292.619 423.108C292.895 422.94 293.267 422.856 293.747 422.856H294.035ZM301.42 425.184C301.852 424.824 302.188 424.488 302.404 424.176C302.62 423.864 302.74 423.528 302.74 423.156C302.74 422.688 302.596 422.316 302.308 422.052C302.02 421.788 301.624 421.656 301.132 421.656C300.652 421.656 300.256 421.812 299.968 422.124C299.68 422.436 299.536 422.844 299.536 423.348V423.504H298.204V423.276C298.204 422.748 298.324 422.28 298.564 421.86C298.804 421.452 299.152 421.116 299.596 420.876C300.028 420.636 300.544 420.516 301.132 420.516C302.068 420.516 302.788 420.756 303.316 421.224C303.832 421.692 304.096 422.316 304.096 423.096C304.096 423.672 303.94 424.164 303.652 424.596C303.352 425.028 302.908 425.484 302.32 425.976L300.088 427.836H304.144V429H298.192V427.932L301.42 425.184ZM311.48 423.132C311.6 423.636 311.672 424.164 311.672 424.74C311.672 426.108 311.372 427.164 310.796 427.932C310.22 428.7 309.404 429.072 308.36 429.072C307.556 429.072 306.896 428.868 306.392 428.436C305.876 428.016 305.564 427.44 305.468 426.696H306.788C306.884 427.092 307.064 427.404 307.34 427.632C307.616 427.86 307.976 427.968 308.432 427.968C309.068 427.968 309.56 427.716 309.92 427.188C310.268 426.672 310.448 425.976 310.448 425.088V424.764C310.376 424.908 310.328 424.992 310.316 425.016C310.124 425.376 309.836 425.664 309.476 425.868C309.104 426.072 308.672 426.168 308.192 426.168C307.628 426.168 307.136 426.06 306.704 425.832C306.272 425.604 305.948 425.28 305.708 424.848C305.468 424.428 305.36 423.936 305.36 423.36C305.36 422.82 305.48 422.34 305.732 421.908C305.984 421.476 306.344 421.14 306.8 420.9C307.256 420.66 307.772 420.528 308.372 420.528C308.924 420.528 309.428 420.648 309.86 420.876C310.292 421.104 310.64 421.428 310.928 421.836C311.168 422.208 311.348 422.64 311.48 423.132ZM307.136 424.596C307.436 424.92 307.844 425.076 308.348 425.076C308.852 425.076 309.272 424.92 309.596 424.596C309.908 424.284 310.076 423.864 310.076 423.336C310.076 422.832 309.92 422.424 309.608 422.1C309.296 421.788 308.888 421.62 308.384 421.62C307.868 421.62 307.46 421.788 307.148 422.1C306.836 422.424 306.68 422.844 306.68 423.348C306.68 423.864 306.824 424.284 307.136 424.596Z" fill="#98A2B3"/>
<path d="M222.733 429L225.877 420.6H227.521L230.653 429H229.177L228.385 426.924H224.941L224.161 429H222.733ZM225.325 425.748H228.001L226.657 422.088L225.325 425.748ZM236.41 423.168C236.842 423.42 237.19 423.78 237.442 424.26C237.682 424.74 237.814 425.292 237.814 425.928C237.814 426.552 237.682 427.104 237.442 427.584C237.19 428.064 236.842 428.424 236.41 428.688C235.966 428.952 235.462 429.072 234.91 429.072C234.454 429.072 234.058 428.988 233.722 428.82C233.386 428.652 233.11 428.424 232.918 428.136V431.4H231.622V422.856H232.75L232.906 423.768C233.398 423.12 234.07 422.784 234.91 422.784C235.462 422.784 235.966 422.916 236.41 423.168ZM235.99 427.404C236.326 427.02 236.494 426.528 236.494 425.928C236.494 425.328 236.326 424.836 235.99 424.452C235.654 424.08 235.222 423.888 234.694 423.888C234.154 423.888 233.722 424.08 233.398 424.452C233.062 424.824 232.906 425.304 232.906 425.904C232.906 426.528 233.062 427.02 233.398 427.404C233.722 427.788 234.154 427.98 234.694 427.98C235.222 427.98 235.654 427.788 235.99 427.404ZM242.489 422.856V424.068H241.913C241.373 424.068 240.989 424.248 240.749 424.596C240.509 424.944 240.389 425.388 240.389 425.916V429H239.093V422.856H240.245L240.389 423.78C240.557 423.492 240.785 423.276 241.073 423.108C241.349 422.94 241.721 422.856 242.201 422.856H242.489ZM249.526 420.6V429H248.206V423.324C248.086 423.396 247.906 423.432 247.678 423.432H246.298V422.304H247.618C247.81 422.304 247.966 422.232 248.074 422.088C248.17 421.944 248.23 421.764 248.23 421.524V420.6H249.526ZM255.931 423.696C256.351 423.936 256.687 424.272 256.927 424.704C257.167 425.136 257.287 425.628 257.287 426.18C257.287 426.792 257.143 427.308 256.879 427.74C256.603 428.172 256.231 428.508 255.775 428.724C255.307 428.952 254.791 429.06 254.239 429.06C253.615 429.06 253.075 428.94 252.619 428.7C252.163 428.46 251.803 428.136 251.551 427.728C251.287 427.32 251.143 426.852 251.119 426.348H252.439C252.487 426.804 252.667 427.188 253.003 427.488C253.327 427.8 253.735 427.944 254.239 427.944C254.527 427.944 254.803 427.884 255.067 427.74C255.331 427.608 255.535 427.404 255.703 427.14C255.859 426.876 255.943 426.564 255.943 426.18C255.943 425.676 255.787 425.256 255.475 424.92C255.163 424.596 254.755 424.428 254.251 424.428C253.915 424.428 253.579 424.512 253.255 424.656C252.919 424.812 252.691 425.076 252.559 425.46L251.275 425.436L251.527 420.6H256.759V421.764H252.751L252.595 424.104C252.835 423.84 253.123 423.648 253.459 423.528C253.795 423.408 254.143 423.336 254.515 423.336C255.043 423.336 255.511 423.456 255.931 423.696Z" fill="#98A2B3"/>
<path d="M171.186 429L174.33 420.6H175.974L179.106 429H177.63L176.838 426.924H173.394L172.614 429H171.186ZM173.778 425.748H176.454L175.11 422.088L173.778 425.748ZM184.863 423.168C185.295 423.42 185.643 423.78 185.895 424.26C186.135 424.74 186.267 425.292 186.267 425.928C186.267 426.552 186.135 427.104 185.895 427.584C185.643 428.064 185.295 428.424 184.863 428.688C184.419 428.952 183.915 429.072 183.363 429.072C182.907 429.072 182.511 428.988 182.175 428.82C181.839 428.652 181.563 428.424 181.371 428.136V431.4H180.075V422.856H181.203L181.359 423.768C181.851 423.12 182.523 422.784 183.363 422.784C183.915 422.784 184.419 422.916 184.863 423.168ZM184.443 427.404C184.779 427.02 184.947 426.528 184.947 425.928C184.947 425.328 184.779 424.836 184.443 424.452C184.107 424.08 183.675 423.888 183.147 423.888C182.607 423.888 182.175 424.08 181.851 424.452C181.515 424.824 181.359 425.304 181.359 425.904C181.359 426.528 181.515 427.02 181.851 427.404C182.175 427.788 182.607 427.98 183.147 427.98C183.675 427.98 184.107 427.788 184.443 427.404ZM190.942 422.856V424.068H190.366C189.826 424.068 189.442 424.248 189.202 424.596C188.962 424.944 188.842 425.388 188.842 425.916V429H187.546V422.856H188.698L188.842 423.78C189.01 423.492 189.238 423.276 189.526 423.108C189.802 422.94 190.174 422.856 190.654 422.856H190.942ZM197.979 420.6V429H196.659V423.324C196.539 423.396 196.359 423.432 196.131 423.432H194.751V422.304H196.071C196.263 422.304 196.419 422.232 196.527 422.088C196.623 421.944 196.683 421.764 196.683 421.524V420.6H197.979Z" fill="#98A2B3"/>
<path d="M119.315 420.6H121.103L123.791 427.212L126.431 420.6H128.183V429H126.851V422.82L124.331 429H123.167L120.647 422.82V429H119.315V420.6ZM135.709 427.872V429H135.025C134.617 429 134.329 428.916 134.161 428.748C133.981 428.58 133.897 428.34 133.897 428.016C133.429 428.724 132.757 429.072 131.869 429.072C131.173 429.072 130.621 428.916 130.213 428.592C129.793 428.28 129.589 427.836 129.589 427.272C129.589 426.648 129.805 426.156 130.261 425.82C130.705 425.484 131.353 425.304 132.217 425.304H133.765V424.932C133.765 424.596 133.645 424.32 133.405 424.128C133.165 423.936 132.829 423.828 132.409 423.828C132.025 423.828 131.713 423.912 131.473 424.08C131.233 424.248 131.089 424.464 131.041 424.728H129.769C129.829 424.116 130.105 423.636 130.585 423.3C131.065 422.964 131.689 422.784 132.469 422.784C133.285 422.784 133.921 422.976 134.377 423.36C134.821 423.744 135.049 424.296 135.049 425.016V427.44C135.049 427.728 135.181 427.872 135.457 427.872H135.709ZM133.765 426.264H132.157C131.749 426.264 131.449 426.348 131.233 426.504C131.017 426.66 130.909 426.888 130.909 427.188C130.909 427.452 131.005 427.668 131.209 427.824C131.413 427.992 131.689 428.064 132.049 428.064C132.577 428.064 132.997 427.92 133.297 427.632C133.597 427.344 133.753 426.96 133.765 426.48V426.264ZM140.051 422.856V424.068H139.475C138.935 424.068 138.551 424.248 138.311 424.596C138.071 424.944 137.951 425.388 137.951 425.916V429H136.655V422.856H137.807L137.951 423.78C138.119 423.492 138.347 423.276 138.635 423.108C138.911 422.94 139.283 422.856 139.763 422.856H140.051ZM147.088 420.6V429H145.768V423.324C145.648 423.396 145.468 423.432 145.24 423.432H143.86V422.304H145.18C145.372 422.304 145.528 422.232 145.636 422.088C145.732 421.944 145.792 421.764 145.792 421.524V420.6H147.088ZM154.381 425.328C154.717 425.688 154.897 426.156 154.897 426.732C154.897 427.188 154.765 427.596 154.525 427.956C154.273 428.316 153.913 428.592 153.445 428.784C152.977 428.976 152.425 429.072 151.777 429.072C151.129 429.072 150.565 428.976 150.097 428.784C149.629 428.592 149.269 428.316 149.029 427.956C148.777 427.596 148.657 427.188 148.657 426.732C148.657 426.168 148.825 425.7 149.161 425.34C149.497 424.98 149.929 424.752 150.457 424.632C150.001 424.536 149.629 424.32 149.341 423.984C149.041 423.648 148.897 423.24 148.897 422.748C148.897 422.316 149.005 421.92 149.245 421.584C149.473 421.248 149.809 420.996 150.241 420.804C150.673 420.612 151.189 420.516 151.777 420.516C152.353 420.516 152.869 420.612 153.301 420.804C153.733 420.996 154.069 421.248 154.309 421.584C154.537 421.92 154.657 422.316 154.657 422.748C154.657 423.228 154.501 423.636 154.201 423.972C153.889 424.32 153.517 424.536 153.061 424.632C153.589 424.74 154.033 424.968 154.381 425.328ZM150.637 421.884C150.337 422.124 150.193 422.424 150.193 422.784C150.193 423.168 150.337 423.468 150.637 423.696C150.925 423.936 151.309 424.044 151.777 424.044C152.233 424.044 152.617 423.936 152.905 423.696C153.193 423.456 153.349 423.156 153.349 422.784C153.349 422.424 153.193 422.124 152.905 421.884C152.617 421.644 152.233 421.524 151.777 421.524C151.309 421.524 150.925 421.644 150.637 421.884ZM153.061 427.68C153.397 427.416 153.565 427.08 153.565 426.66C153.565 426.252 153.385 425.916 153.049 425.64C152.713 425.364 152.281 425.22 151.777 425.22C151.249 425.22 150.817 425.364 150.481 425.64C150.145 425.916 149.977 426.252 149.977 426.66C149.977 427.08 150.145 427.416 150.481 427.68C150.817 427.944 151.249 428.076 151.777 428.076C152.293 428.076 152.725 427.944 153.061 427.68Z" fill="#98A2B3"/>
<path d="M66.768 420.6H68.556L71.244 427.212L73.884 420.6H75.636V429H74.304V422.82L71.784 429H70.62L68.1 422.82V429H66.768V420.6ZM83.1623 427.872V429H82.4783C82.0703 429 81.7823 428.916 81.6143 428.748C81.4342 428.58 81.3503 428.34 81.3503 428.016C80.8822 428.724 80.2103 429.072 79.3222 429.072C78.6262 429.072 78.0742 428.916 77.6662 428.592C77.2462 428.28 77.0422 427.836 77.0422 427.272C77.0422 426.648 77.2582 426.156 77.7142 425.82C78.1582 425.484 78.8062 425.304 79.6702 425.304H81.2182V424.932C81.2182 424.596 81.0983 424.32 80.8582 424.128C80.6183 423.936 80.2822 423.828 79.8622 423.828C79.4782 423.828 79.1662 423.912 78.9262 424.08C78.6862 424.248 78.5422 424.464 78.4942 424.728H77.2222C77.2822 424.116 77.5582 423.636 78.0382 423.3C78.5182 422.964 79.1422 422.784 79.9222 422.784C80.7383 422.784 81.3743 422.976 81.8302 423.36C82.2742 423.744 82.5023 424.296 82.5023 425.016V427.44C82.5023 427.728 82.6342 427.872 82.9102 427.872H83.1623ZM81.2182 426.264H79.6102C79.2022 426.264 78.9022 426.348 78.6862 426.504C78.4702 426.66 78.3622 426.888 78.3622 427.188C78.3622 427.452 78.4582 427.668 78.6622 427.824C78.8662 427.992 79.1422 428.064 79.5022 428.064C80.0302 428.064 80.4502 427.92 80.7502 427.632C81.0502 427.344 81.2063 426.96 81.2182 426.48V426.264ZM87.5042 422.856V424.068H86.9282C86.3882 424.068 86.0042 424.248 85.7642 424.596C85.5242 424.944 85.4042 425.388 85.4042 425.916V429H84.1082V422.856H85.2602L85.4042 423.78C85.5722 423.492 85.8002 423.276 86.0882 423.108C86.3642 422.94 86.7362 422.856 87.2162 422.856H87.5042ZM94.5412 420.6V429H93.2212V423.324C93.1012 423.396 92.9212 423.432 92.6932 423.432H91.3132V422.304H92.6332C92.8252 422.304 92.9812 422.232 93.0892 422.088C93.1852 421.944 93.2452 421.764 93.2452 421.524V420.6H94.5412ZM101.834 425.328C102.17 425.688 102.35 426.156 102.35 426.732C102.35 427.188 102.218 427.596 101.978 427.956C101.726 428.316 101.366 428.592 100.898 428.784C100.43 428.976 99.8783 429.072 99.2303 429.072C98.5823 429.072 98.0183 428.976 97.5503 428.784C97.0823 428.592 96.7223 428.316 96.4823 427.956C96.2303 427.596 96.1103 427.188 96.1103 426.732C96.1103 426.168 96.2783 425.7 96.6143 425.34C96.9503 424.98 97.3823 424.752 97.9103 424.632C97.4543 424.536 97.0823 424.32 96.7943 423.984C96.4943 423.648 96.3503 423.24 96.3503 422.748C96.3503 422.316 96.4583 421.92 96.6983 421.584C96.9263 421.248 97.2623 420.996 97.6943 420.804C98.1263 420.612 98.6423 420.516 99.2303 420.516C99.8063 420.516 100.322 420.612 100.754 420.804C101.186 420.996 101.522 421.248 101.762 421.584C101.99 421.92 102.11 422.316 102.11 422.748C102.11 423.228 101.954 423.636 101.654 423.972C101.342 424.32 100.97 424.536 100.514 424.632C101.042 424.74 101.486 424.968 101.834 425.328ZM98.0903 421.884C97.7903 422.124 97.6463 422.424 97.6463 422.784C97.6463 423.168 97.7903 423.468 98.0903 423.696C98.3783 423.936 98.7623 424.044 99.2303 424.044C99.6863 424.044 100.07 423.936 100.358 423.696C100.646 423.456 100.802 423.156 100.802 422.784C100.802 422.424 100.646 422.124 100.358 421.884C100.07 421.644 99.6863 421.524 99.2303 421.524C98.7623 421.524 98.3783 421.644 98.0903 421.884ZM100.514 427.68C100.85 427.416 101.018 427.08 101.018 426.66C101.018 426.252 100.838 425.916 100.502 425.64C100.166 425.364 99.7343 425.22 99.2303 425.22C98.7023 425.22 98.2703 425.364 97.9343 425.64C97.5983 425.916 97.4303 426.252 97.4303 426.66C97.4303 427.08 97.5983 427.416 97.9343 427.68C98.2703 427.944 98.7023 428.076 99.2303 428.076C99.7463 428.076 100.178 427.944 100.514 427.68Z" fill="#98A2B3"/>
<path d="M12.056 190V186.916H11.12V186.148H12.056V185.164H11.12V184.396H12.056V181.432H13.304L14.444 184.396H15.86V181.432H16.808V184.396H17.744V185.164H16.808V186.148H17.744V186.916H16.808V190H15.548L14.408 186.916H12.992V190H12.056ZM12.992 186.148H14.12L13.76 185.164H12.968L12.992 186.148ZM15.86 188.308H15.908L15.872 186.916H15.368L15.86 188.308ZM12.968 184.396H13.472L12.968 182.908H12.92L12.968 184.396ZM15.08 186.148H15.884L15.86 185.164H14.72L15.08 186.148ZM21.7552 186.184C22.1872 185.824 22.5232 185.488 22.7392 185.176C22.9552 184.864 23.0752 184.528 23.0752 184.156C23.0752 183.688 22.9312 183.316 22.6432 183.052C22.3552 182.788 21.9592 182.656 21.4672 182.656C20.9872 182.656 20.5912 182.812 20.3032 183.124C20.0152 183.436 19.8712 183.844 19.8712 184.348V184.504H18.5392V184.276C18.5392 183.748 18.6592 183.28 18.8992 182.86C19.1392 182.452 19.4872 182.116 19.9312 181.876C20.3632 181.636 20.8792 181.516 21.4672 181.516C22.4032 181.516 23.1232 181.756 23.6512 182.224C24.1672 182.692 24.4312 183.316 24.4312 184.096C24.4312 184.672 24.2752 185.164 23.9872 185.596C23.6872 186.028 23.2432 186.484 22.6552 186.976L20.4232 188.836H24.4792V190H18.5272V188.932L21.7552 186.184ZM30.5309 184.696C30.9509 184.936 31.2869 185.272 31.5269 185.704C31.7669 186.136 31.8869 186.628 31.8869 187.18C31.8869 187.792 31.7429 188.308 31.4789 188.74C31.2029 189.172 30.8309 189.508 30.3749 189.724C29.9069 189.952 29.3909 190.06 28.8389 190.06C28.2149 190.06 27.6749 189.94 27.2189 189.7C26.7629 189.46 26.4029 189.136 26.1509 188.728C25.8869 188.32 25.7429 187.852 25.7189 187.348H27.0389C27.0869 187.804 27.2669 188.188 27.6029 188.488C27.9269 188.8 28.3349 188.944 28.8389 188.944C29.1269 188.944 29.4029 188.884 29.6669 188.74C29.9309 188.608 30.1349 188.404 30.3029 188.14C30.4589 187.876 30.5429 187.564 30.5429 187.18C30.5429 186.676 30.3869 186.256 30.0749 185.92C29.7629 185.596 29.3549 185.428 28.8509 185.428C28.5149 185.428 28.1789 185.512 27.8549 185.656C27.5189 185.812 27.2909 186.076 27.1589 186.46L25.8749 186.436L26.1269 181.6H31.3589V182.764H27.3509L27.1949 185.104C27.4349 184.84 27.7229 184.648 28.0589 184.528C28.3949 184.408 28.7429 184.336 29.1149 184.336C29.6429 184.336 30.1109 184.456 30.5309 184.696ZM41.9045 184.444C42.3245 184.876 42.5405 185.572 42.5405 186.532V190H41.2445V186.544C41.2445 186.016 41.1365 185.608 40.9205 185.32C40.7045 185.044 40.3805 184.9 39.9605 184.9C39.5045 184.9 39.1565 185.068 38.8925 185.38C38.6285 185.692 38.5085 186.124 38.5085 186.676V190H37.2005V186.544C37.2005 186.004 37.0805 185.596 36.8645 185.32C36.6485 185.044 36.3245 184.9 35.9045 184.9C35.4605 184.9 35.1125 185.068 34.8485 185.392C34.5845 185.728 34.4645 186.16 34.4645 186.712V190H33.1685V183.856H34.2965L34.4405 184.66C34.8725 184.084 35.4725 183.796 36.2405 183.784C36.6725 183.784 37.0445 183.88 37.3805 184.06C37.7045 184.252 37.9565 184.528 38.1365 184.9C38.3525 184.552 38.6285 184.276 38.9885 184.084C39.3365 183.892 39.7565 183.784 40.2605 183.784C40.9325 183.784 41.4725 184.012 41.9045 184.444Z" fill="#98A2B3"/>
<path d="M12.056 234.8V231.716H11.12V230.948H12.056V229.964H11.12V229.196H12.056V226.232H13.304L14.444 229.196H15.86V226.232H16.808V229.196H17.744V229.964H16.808V230.948H17.744V231.716H16.808V234.8H15.548L14.408 231.716H12.992V234.8H12.056ZM12.992 230.948H14.12L13.76 229.964H12.968L12.992 230.948ZM15.86 233.108H15.908L15.872 231.716H15.368L15.86 233.108ZM12.968 229.196H13.472L12.968 227.708H12.92L12.968 229.196ZM15.08 230.948H15.884L15.86 229.964H14.72L15.08 230.948ZM21.7552 230.984C22.1872 230.624 22.5232 230.288 22.7392 229.976C22.9552 229.664 23.0752 229.328 23.0752 228.956C23.0752 228.488 22.9312 228.116 22.6432 227.852C22.3552 227.588 21.9592 227.456 21.4672 227.456C20.9872 227.456 20.5912 227.612 20.3032 227.924C20.0152 228.236 19.8712 228.644 19.8712 229.148V229.304H18.5392V229.076C18.5392 228.548 18.6592 228.08 18.8992 227.66C19.1392 227.252 19.4872 226.916 19.9312 226.676C20.3632 226.436 20.8792 226.316 21.4672 226.316C22.4032 226.316 23.1232 226.556 23.6512 227.024C24.1672 227.492 24.4312 228.116 24.4312 228.896C24.4312 229.472 24.2752 229.964 23.9872 230.396C23.6872 230.828 23.2432 231.284 22.6552 231.776L20.4232 233.636H24.4792V234.8H18.5272V233.732L21.7552 230.984ZM25.6949 230.408C25.6949 229.616 25.8269 228.908 26.1029 228.284C26.3789 227.66 26.7749 227.18 27.2789 226.844C27.7829 226.508 28.3589 226.328 29.0069 226.328C29.6429 226.328 30.2069 226.508 30.7109 226.844C31.2149 227.18 31.5989 227.66 31.8869 228.284C32.1629 228.908 32.3069 229.616 32.3069 230.408V230.792C32.3069 231.632 32.1629 232.352 31.8869 232.964C31.6109 233.588 31.2269 234.056 30.7229 234.38C30.2189 234.716 29.6549 234.872 29.0069 234.872C28.3469 234.872 27.7709 234.716 27.2669 234.38C26.7629 234.056 26.3789 233.588 26.1029 232.964C25.8269 232.352 25.6949 231.632 25.6949 230.792V230.408ZM30.4349 228.284C30.0749 227.756 29.6069 227.492 29.0069 227.492C28.4069 227.492 27.9269 227.756 27.5669 228.284C27.2069 228.812 27.0269 229.532 27.0269 230.456V230.744C27.0269 231.68 27.2069 232.4 27.5669 232.928C27.9269 233.456 28.4069 233.708 29.0069 233.708C29.6069 233.708 30.0749 233.456 30.4349 232.928C30.7949 232.4 30.9749 231.68 30.9749 230.744V230.456C30.9749 229.532 30.7949 228.812 30.4349 228.284ZM42.4201 229.244C42.8401 229.676 43.0561 230.372 43.0561 231.332V234.8H41.7601V231.344C41.7601 230.816 41.6521 230.408 41.4361 230.12C41.2201 229.844 40.8961 229.7 40.4761 229.7C40.0201 229.7 39.6721 229.868 39.4081 230.18C39.1441 230.492 39.0241 230.924 39.0241 231.476V234.8H37.7161V231.344C37.7161 230.804 37.5961 230.396 37.3801 230.12C37.1641 229.844 36.8401 229.7 36.4201 229.7C35.9761 229.7 35.6281 229.868 35.3641 230.192C35.1001 230.528 34.9801 230.96 34.9801 231.512V234.8H33.6841V228.656H34.8121L34.9561 229.46C35.3881 228.884 35.9881 228.596 36.7561 228.584C37.1881 228.584 37.5601 228.68 37.8961 228.86C38.2201 229.052 38.4721 229.328 38.6521 229.7C38.8681 229.352 39.1441 229.076 39.5041 228.884C39.8521 228.692 40.2721 228.584 40.7761 228.584C41.4481 228.584 41.9881 228.812 42.4201 229.244Z" fill="#98A2B3"/>
<path d="M15.056 279.6V276.516H14.12V275.748H15.056V274.764H14.12V273.996H15.056V271.032H16.304L17.444 273.996H18.86V271.032H19.808V273.996H20.744V274.764H19.808V275.748H20.744V276.516H19.808V279.6H18.548L17.408 276.516H15.992V279.6H15.056ZM15.992 275.748H17.12L16.76 274.764H15.968L15.992 275.748ZM18.86 277.908H18.908L18.872 276.516H18.368L18.86 277.908ZM15.968 273.996H16.472L15.968 272.508H15.92L15.968 273.996ZM18.08 275.748H18.884L18.86 274.764H17.72L18.08 275.748ZM24.4072 271.2V279.6H23.0872V273.924C22.9672 273.996 22.7872 274.032 22.5592 274.032H21.1792V272.904H22.4992C22.6912 272.904 22.8472 272.832 22.9552 272.688C23.0512 272.544 23.1112 272.364 23.1112 272.124V271.2H24.4072ZM30.8122 274.296C31.2322 274.536 31.5682 274.872 31.8082 275.304C32.0482 275.736 32.1682 276.228 32.1682 276.78C32.1682 277.392 32.0242 277.908 31.7602 278.34C31.4842 278.772 31.1122 279.108 30.6562 279.324C30.1882 279.552 29.6722 279.66 29.1202 279.66C28.4962 279.66 27.9562 279.54 27.5002 279.3C27.0442 279.06 26.6842 278.736 26.4322 278.328C26.1682 277.92 26.0242 277.452 26.0002 276.948H27.3202C27.3682 277.404 27.5482 277.788 27.8842 278.088C28.2082 278.4 28.6162 278.544 29.1202 278.544C29.4082 278.544 29.6842 278.484 29.9482 278.34C30.2122 278.208 30.4162 278.004 30.5842 277.74C30.7402 277.476 30.8242 277.164 30.8242 276.78C30.8242 276.276 30.6682 275.856 30.3562 275.52C30.0442 275.196 29.6362 275.028 29.1322 275.028C28.7962 275.028 28.4602 275.112 28.1362 275.256C27.8002 275.412 27.5722 275.676 27.4402 276.06L26.1562 276.036L26.4082 271.2H31.6402V272.364H27.6322L27.4762 274.704C27.7162 274.44 28.0042 274.248 28.3402 274.128C28.6762 274.008 29.0242 273.936 29.3962 273.936C29.9242 273.936 30.3922 274.056 30.8122 274.296ZM42.1857 274.044C42.6057 274.476 42.8217 275.172 42.8217 276.132V279.6H41.5257V276.144C41.5257 275.616 41.4177 275.208 41.2018 274.92C40.9857 274.644 40.6617 274.5 40.2417 274.5C39.7857 274.5 39.4377 274.668 39.1737 274.98C38.9097 275.292 38.7897 275.724 38.7897 276.276V279.6H37.4817V276.144C37.4817 275.604 37.3617 275.196 37.1457 274.92C36.9297 274.644 36.6057 274.5 36.1857 274.5C35.7417 274.5 35.3937 274.668 35.1297 274.992C34.8657 275.328 34.7457 275.76 34.7457 276.312V279.6H33.4497V273.456H34.5777L34.7217 274.26C35.1537 273.684 35.7537 273.396 36.5217 273.384C36.9537 273.384 37.3257 273.48 37.6617 273.66C37.9857 273.852 38.2377 274.128 38.4177 274.5C38.6337 274.152 38.9097 273.876 39.2697 273.684C39.6177 273.492 40.0378 273.384 40.5417 273.384C41.2137 273.384 41.7538 273.612 42.1857 274.044Z" fill="#98A2B3"/>
<path d="M15.056 324.4V321.316H14.12V320.548H15.056V319.564H14.12V318.796H15.056V315.832H16.304L17.444 318.796H18.86V315.832H19.808V318.796H20.744V319.564H19.808V320.548H20.744V321.316H19.808V324.4H18.548L17.408 321.316H15.992V324.4H15.056ZM15.992 320.548H17.12L16.76 319.564H15.968L15.992 320.548ZM18.86 322.708H18.908L18.872 321.316H18.368L18.86 322.708ZM15.968 318.796H16.472L15.968 317.308H15.92L15.968 318.796ZM18.08 320.548H18.884L18.86 319.564H17.72L18.08 320.548ZM24.4072 316V324.4H23.0872V318.724C22.9672 318.796 22.7872 318.832 22.5592 318.832H21.1792V317.704H22.4992C22.6912 317.704 22.8472 317.632 22.9552 317.488C23.0512 317.344 23.1112 317.164 23.1112 316.924V316H24.4072ZM25.9762 320.008C25.9762 319.216 26.1082 318.508 26.3842 317.884C26.6602 317.26 27.0562 316.78 27.5602 316.444C28.0642 316.108 28.6402 315.928 29.2882 315.928C29.9242 315.928 30.4882 316.108 30.9922 316.444C31.4962 316.78 31.8802 317.26 32.1682 317.884C32.4442 318.508 32.5882 319.216 32.5882 320.008V320.392C32.5882 321.232 32.4442 321.952 32.1682 322.564C31.8922 323.188 31.5082 323.656 31.0042 323.98C30.5002 324.316 29.9362 324.472 29.2882 324.472C28.6282 324.472 28.0522 324.316 27.5482 323.98C27.0442 323.656 26.6602 323.188 26.3842 322.564C26.1082 321.952 25.9762 321.232 25.9762 320.392V320.008ZM30.7162 317.884C30.3562 317.356 29.8882 317.092 29.2882 317.092C28.6882 317.092 28.2082 317.356 27.8482 317.884C27.4882 318.412 27.3082 319.132 27.3082 320.056V320.344C27.3082 321.28 27.4882 322 27.8482 322.528C28.2082 323.056 28.6882 323.308 29.2882 323.308C29.8882 323.308 30.3562 323.056 30.7162 322.528C31.0762 322 31.2562 321.28 31.2562 320.344V320.056C31.2562 319.132 31.0762 318.412 30.7162 317.884ZM42.7014 318.844C43.1214 319.276 43.3374 319.972 43.3374 320.932V324.4H42.0414V320.944C42.0414 320.416 41.9334 320.008 41.7174 319.72C41.5014 319.444 41.1774 319.3 40.7574 319.3C40.3014 319.3 39.9534 319.468 39.6894 319.78C39.4254 320.092 39.3054 320.524 39.3054 321.076V324.4H37.9974V320.944C37.9974 320.404 37.8774 319.996 37.6614 319.72C37.4454 319.444 37.1214 319.3 36.7014 319.3C36.2574 319.3 35.9094 319.468 35.6454 319.792C35.3814 320.128 35.2614 320.56 35.2614 321.112V324.4H33.9654V318.256H35.0934L35.2374 319.06C35.6694 318.484 36.2694 318.196 37.0374 318.184C37.4694 318.184 37.8414 318.28 38.1774 318.46C38.5014 318.652 38.7534 318.928 38.9334 319.3C39.1494 318.952 39.4254 318.676 39.7854 318.484C40.1334 318.292 40.5534 318.184 41.0574 318.184C41.7294 318.184 42.2694 318.412 42.7014 318.844Z" fill="#98A2B3"/>
<path d="M20.056 369.2V366.116H19.12V365.348H20.056V364.364H19.12V363.596H20.056V360.632H21.304L22.444 363.596H23.86V360.632H24.808V363.596H25.744V364.364H24.808V365.348H25.744V366.116H24.808V369.2H23.548L22.408 366.116H20.992V369.2H20.056ZM20.992 365.348H22.12L21.76 364.364H20.968L20.992 365.348ZM23.86 367.508H23.908L23.872 366.116H23.368L23.86 367.508ZM20.968 363.596H21.472L20.968 362.108H20.92L20.968 363.596ZM23.08 365.348H23.884L23.86 364.364H22.72L23.08 365.348ZM31.4472 363.896C31.8672 364.136 32.2032 364.472 32.4432 364.904C32.6832 365.336 32.8032 365.828 32.8032 366.38C32.8032 366.992 32.6592 367.508 32.3952 367.94C32.1192 368.372 31.7472 368.708 31.2912 368.924C30.8232 369.152 30.3072 369.26 29.7552 369.26C29.1312 369.26 28.5912 369.14 28.1352 368.9C27.6792 368.66 27.3192 368.336 27.0672 367.928C26.8032 367.52 26.6592 367.052 26.6352 366.548H27.9552C28.0032 367.004 28.1832 367.388 28.5192 367.688C28.8432 368 29.2512 368.144 29.7552 368.144C30.0432 368.144 30.3192 368.084 30.5832 367.94C30.8472 367.808 31.0512 367.604 31.2192 367.34C31.3752 367.076 31.4592 366.764 31.4592 366.38C31.4592 365.876 31.3032 365.456 30.9912 365.12C30.6792 364.796 30.2712 364.628 29.7672 364.628C29.4312 364.628 29.0952 364.712 28.7712 364.856C28.4352 365.012 28.2072 365.276 28.0752 365.66L26.7912 365.636L27.0432 360.8H32.2752V361.964H28.2672L28.1112 364.304C28.3512 364.04 28.6392 363.848 28.9752 363.728C29.3112 363.608 29.6592 363.536 30.0312 363.536C30.5592 363.536 31.0272 363.656 31.4472 363.896ZM42.8207 363.644C43.2408 364.076 43.4568 364.772 43.4568 365.732V369.2H42.1607V365.744C42.1607 365.216 42.0527 364.808 41.8368 364.52C41.6208 364.244 41.2968 364.1 40.8767 364.1C40.4207 364.1 40.0728 364.268 39.8087 364.58C39.5447 364.892 39.4247 365.324 39.4247 365.876V369.2H38.1167V365.744C38.1167 365.204 37.9967 364.796 37.7807 364.52C37.5647 364.244 37.2407 364.1 36.8207 364.1C36.3767 364.1 36.0287 364.268 35.7647 364.592C35.5007 364.928 35.3807 365.36 35.3807 365.912V369.2H34.0847V363.056H35.2127L35.3567 363.86C35.7887 363.284 36.3887 362.996 37.1567 362.984C37.5887 362.984 37.9607 363.08 38.2967 363.26C38.6207 363.452 38.8727 363.728 39.0527 364.1C39.2687 363.752 39.5447 363.476 39.9048 363.284C40.2527 363.092 40.6728 362.984 41.1768 362.984C41.8488 362.984 42.3888 363.212 42.8207 363.644Z" fill="#98A2B3"/>
<path d="M36.504 409.608C36.504 408.816 36.636 408.108 36.912 407.484C37.188 406.86 37.584 406.38 38.088 406.044C38.592 405.708 39.168 405.528 39.816 405.528C40.452 405.528 41.016 405.708 41.52 406.044C42.024 406.38 42.408 406.86 42.696 407.484C42.972 408.108 43.116 408.816 43.116 409.608V409.992C43.116 410.832 42.972 411.552 42.696 412.164C42.42 412.788 42.036 413.256 41.532 413.58C41.028 413.916 40.464 414.072 39.816 414.072C39.156 414.072 38.58 413.916 38.076 413.58C37.572 413.256 37.188 412.788 36.912 412.164C36.636 411.552 36.504 410.832 36.504 409.992V409.608ZM41.244 407.484C40.884 406.956 40.416 406.692 39.816 406.692C39.216 406.692 38.736 406.956 38.376 407.484C38.016 408.012 37.836 408.732 37.836 409.656V409.944C37.836 410.88 38.016 411.6 38.376 412.128C38.736 412.656 39.216 412.908 39.816 412.908C40.416 412.908 40.884 412.656 41.244 412.128C41.604 411.6 41.784 410.88 41.784 409.944V409.656C41.784 408.732 41.604 408.012 41.244 407.484Z" fill="#98A2B3"/>
<path d="M16.288 20.6H22.852V21.824H20.26V29H18.88V21.824H16.288V20.6ZM30.6036 26.996C30.2556 27.644 29.7756 28.16 29.1516 28.52C28.5276 28.892 27.8316 29.072 27.0396 29.072C26.2476 29.072 25.5396 28.892 24.9156 28.52C24.2916 28.16 23.8116 27.644 23.4756 26.996C23.1276 26.348 22.9596 25.616 22.9596 24.8C22.9596 23.984 23.1276 23.252 23.4756 22.604C23.8116 21.956 24.2916 21.452 24.9156 21.08C25.5396 20.72 26.2476 20.528 27.0396 20.528C27.8316 20.528 28.5276 20.72 29.1516 21.08C29.7756 21.452 30.2556 21.956 30.6036 22.604C30.9396 23.252 31.1196 23.984 31.1196 24.8C31.1196 25.616 30.9396 26.348 30.6036 26.996ZM24.7116 26.384C24.9276 26.852 25.2396 27.212 25.6476 27.476C26.0556 27.74 26.5116 27.86 27.0396 27.86C27.5556 27.86 28.0116 27.74 28.4196 27.476C28.8276 27.212 29.1396 26.852 29.3676 26.384C29.5836 25.916 29.7036 25.388 29.7036 24.8C29.7036 24.224 29.5836 23.696 29.3676 23.228C29.1396 22.76 28.8276 22.4 28.4196 22.136C28.0116 21.872 27.5556 21.74 27.0396 21.74C26.5116 21.74 26.0556 21.872 25.6476 22.136C25.2396 22.4 24.9276 22.76 24.7116 23.228C24.4836 23.696 24.3756 24.224 24.3756 24.8C24.3756 25.388 24.4836 25.916 24.7116 26.384ZM31.2411 20.6H37.8051V21.824H35.2131V29H33.8331V21.824H31.2411V20.6ZM36.9788 29L40.1228 20.6H41.7668L44.8988 29H43.4228L42.6308 26.924H39.1868L38.4068 29H36.9788ZM39.5708 25.748H42.2468L40.9028 22.088L39.5708 25.748ZM45.7602 29V20.6H47.1402V27.776H50.7522V29H45.7602ZM58.1894 20.6C58.7654 20.6 59.2694 20.72 59.7134 20.936C60.1454 21.152 60.4934 21.464 60.7334 21.872C60.9734 22.28 61.0934 22.748 61.0934 23.276C61.0934 23.816 60.9734 24.284 60.7334 24.692C60.4934 25.1 60.1454 25.412 59.7134 25.628C59.2694 25.844 58.7654 25.952 58.1894 25.952H56.2574V29H54.8774V20.6H58.1894ZM56.2574 24.752H58.0694C58.5614 24.752 58.9574 24.62 59.2454 24.356C59.5334 24.092 59.6894 23.732 59.6894 23.276C59.6894 22.82 59.5454 22.46 59.2574 22.196C58.9694 21.932 58.5734 21.8 58.0814 21.8H56.2574V24.752ZM60.428 29L63.572 20.6H65.216L68.348 29H66.872L66.08 26.924H62.636L61.856 29H60.428ZM63.02 25.748H65.696L64.352 22.088L63.02 25.748ZM67.1772 20.588H68.7972L71.0052 24.44L73.2732 20.588H74.8212L71.6892 25.892V29H70.3092V25.892L67.1772 20.588ZM75.6547 20.6H77.4427L80.1307 27.212L82.7707 20.6H84.5227V29H83.1907V22.82L80.6707 29H79.5067L76.9867 22.82V29H75.6547V20.6ZM86.061 20.6H91.545V21.824H87.441V24.152H90.825V25.34H87.441V27.776H91.689V29H86.061V20.6ZM92.8227 29V20.6H94.0827L98.1747 26.552V20.6H99.5307V29H98.2707L94.1787 23.048V29H92.8227ZM100.581 20.6H107.145V21.824H104.553V29H103.173V21.824H100.581V20.6ZM108.808 26.264C108.844 26.768 109.048 27.164 109.408 27.464C109.768 27.764 110.248 27.908 110.836 27.908C111.34 27.908 111.76 27.8 112.072 27.584C112.384 27.368 112.552 27.056 112.552 26.66C112.552 26.384 112.456 26.168 112.288 26C112.12 25.832 111.88 25.712 111.592 25.616C111.292 25.532 110.872 25.436 110.344 25.34C109.792 25.244 109.324 25.124 108.94 24.968C108.556 24.812 108.232 24.572 107.992 24.248C107.752 23.936 107.632 23.516 107.632 22.988C107.632 22.508 107.752 22.088 108.004 21.704C108.256 21.332 108.604 21.044 109.06 20.828C109.516 20.624 110.032 20.516 110.62 20.516C111.22 20.516 111.748 20.636 112.228 20.852C112.696 21.08 113.068 21.392 113.344 21.776C113.608 22.172 113.764 22.616 113.788 23.12H112.432C112.384 22.688 112.192 22.34 111.868 22.076C111.532 21.812 111.124 21.68 110.62 21.68C110.128 21.68 109.732 21.788 109.444 22.004C109.156 22.22 109.012 22.508 109.012 22.892C109.012 23.168 109.096 23.384 109.264 23.54C109.432 23.708 109.672 23.828 109.96 23.9C110.248 23.984 110.656 24.068 111.196 24.164C111.736 24.26 112.204 24.392 112.6 24.548C112.984 24.716 113.308 24.944 113.56 25.256C113.8 25.568 113.932 25.988 113.932 26.492C113.932 26.996 113.8 27.44 113.536 27.824C113.272 28.22 112.9 28.532 112.432 28.748C111.952 28.964 111.424 29.072 110.824 29.072C110.152 29.072 109.576 28.952 109.072 28.712C108.568 28.472 108.172 28.148 107.884 27.716C107.596 27.284 107.452 26.792 107.452 26.24L108.808 26.264ZM117.509 20.6H118.973L121.289 27.344L123.629 20.6H125.057L122.117 29H120.461L117.509 20.6ZM132.791 26.996C132.443 27.644 131.963 28.16 131.339 28.52C130.715 28.892 130.019 29.072 129.227 29.072C128.435 29.072 127.727 28.892 127.103 28.52C126.479 28.16 125.999 27.644 125.663 26.996C125.315 26.348 125.147 25.616 125.147 24.8C125.147 23.984 125.315 23.252 125.663 22.604C125.999 21.956 126.479 21.452 127.103 21.08C127.727 20.72 128.435 20.528 129.227 20.528C130.019 20.528 130.715 20.72 131.339 21.08C131.963 21.452 132.443 21.956 132.791 22.604C133.127 23.252 133.307 23.984 133.307 24.8C133.307 25.616 133.127 26.348 132.791 26.996ZM126.899 26.384C127.115 26.852 127.427 27.212 127.835 27.476C128.243 27.74 128.699 27.86 129.227 27.86C129.743 27.86 130.199 27.74 130.607 27.476C131.015 27.212 131.327 26.852 131.555 26.384C131.771 25.916 131.891 25.388 131.891 24.8C131.891 24.224 131.771 23.696 131.555 23.228C131.327 22.76 131.015 22.4 130.607 22.136C130.199 21.872 129.743 21.74 129.227 21.74C128.699 21.74 128.243 21.872 127.835 22.136C127.427 22.4 127.115 22.76 126.899 23.228C126.671 23.696 126.563 24.224 126.563 24.8C126.563 25.388 126.671 25.916 126.899 26.384ZM134.518 29V20.6H135.898V27.776H139.51V29H134.518ZM141.299 20.6V25.472C141.299 26.264 141.455 26.864 141.767 27.26C142.079 27.656 142.559 27.848 143.219 27.848C143.879 27.848 144.371 27.656 144.683 27.26C144.995 26.864 145.163 26.264 145.163 25.472V20.6H146.543V25.4C146.543 26.6 146.255 27.512 145.691 28.136C145.127 28.76 144.299 29.072 143.219 29.072C142.139 29.072 141.311 28.76 140.759 28.136C140.195 27.512 139.919 26.6 139.919 25.4V20.6H141.299ZM148.03 20.6H149.818L152.506 27.212L155.146 20.6H156.898V29H155.566V22.82L153.046 29H151.882L149.362 22.82V29H148.03V20.6ZM158.436 20.6H163.92V21.824H159.816V24.152H163.2V25.34H159.816V27.776H164.064V29H158.436V20.6Z" fill="#667085"/>
<path d="M18.112 65V58.832H16.24V57.296H18.112V55.328H16.24V53.792H18.112V47.864H20.608L22.888 53.792H25.72V47.864H27.616V53.792H29.488V55.328H27.616V57.296H29.488V58.832H27.616V65H25.096L22.816 58.832H19.984V65H18.112ZM19.984 57.296H22.24L21.52 55.328H19.936L19.984 57.296ZM25.72 61.616H25.816L25.744 58.832H24.736L25.72 61.616ZM19.936 53.792H20.944L19.936 50.816H19.84L19.936 53.792ZM24.16 57.296H25.768L25.72 55.328H23.44L24.16 57.296ZM39.7664 54.464C40.5824 54.944 41.2304 55.616 41.7104 56.456C42.1664 57.32 42.4064 58.28 42.4064 59.384C42.4064 60.584 42.1424 61.616 41.6144 62.48C41.0864 63.344 40.3664 64.016 39.4784 64.448C38.5664 64.904 37.5824 65.12 36.5264 65.12C35.3024 65.12 34.2464 64.904 33.3584 64.424C32.4464 63.944 31.7504 63.296 31.2704 62.48C30.7904 61.664 30.5024 60.776 30.4544 59.768H32.4704C32.5664 60.776 32.9744 61.64 33.6944 62.312C34.4144 62.984 35.3744 63.32 36.5264 63.32C37.1984 63.32 37.8224 63.176 38.3984 62.888C38.9744 62.6 39.4544 62.144 39.8144 61.544C40.1504 60.968 40.3424 60.248 40.3424 59.408C40.3424 58.256 39.9824 57.32 39.3104 56.6C38.6144 55.88 37.7024 55.52 36.5504 55.52C35.7824 55.52 35.0384 55.688 34.3184 56C33.5744 56.336 33.0464 56.936 32.7344 57.8L30.7904 57.752L31.3424 48.2H41.3264V50.048H33.1904L32.8064 55.568C33.2864 54.944 33.9104 54.464 34.6544 54.176C35.3984 53.888 36.1664 53.744 36.9344 53.744C37.9904 53.744 38.9264 53.984 39.7664 54.464ZM44.0118 56.216C44.0118 54.632 44.2758 53.24 44.8038 51.992C45.3318 50.768 46.0998 49.808 47.0598 49.112C48.0198 48.416 49.1478 48.056 50.3958 48.056C51.6198 48.056 52.7238 48.416 53.6838 49.112C54.6438 49.808 55.4118 50.768 55.9398 51.992C56.4678 53.24 56.7558 54.632 56.7558 56.216V56.984C56.7558 58.64 56.4678 60.08 55.9398 61.304C55.4118 62.552 54.6678 63.488 53.7078 64.16C52.7478 64.832 51.6438 65.144 50.3958 65.144C49.1238 65.144 48.0198 64.832 47.0598 64.16C46.0998 63.488 45.3318 62.552 44.8038 61.304C44.2758 60.08 44.0118 58.64 44.0118 56.984V56.216ZM54.1638 52.88C53.8038 51.92 53.2998 51.2 52.6518 50.672C52.0038 50.168 51.2598 49.904 50.3958 49.904C49.5318 49.904 48.7638 50.168 48.1158 50.672C47.4438 51.2 46.9398 51.92 46.5798 52.88C46.2198 53.84 46.0518 54.992 46.0518 56.288V56.912C46.0518 58.232 46.2198 59.36 46.5798 60.32C46.9398 61.28 47.4438 62.024 48.1158 62.528C48.7638 63.056 49.5318 63.296 50.3958 63.296C51.2598 63.296 52.0038 63.056 52.6518 62.528C53.2998 62.024 53.8038 61.28 54.1638 60.32C54.5238 59.36 54.7158 58.232 54.7158 56.912V56.288C54.7158 54.992 54.5238 53.84 54.1638 52.88ZM64.333 56.216C64.333 54.632 64.597 53.24 65.125 51.992C65.653 50.768 66.421 49.808 67.381 49.112C68.341 48.416 69.469 48.056 70.717 48.056C71.941 48.056 73.045 48.416 74.005 49.112C74.965 49.808 75.733 50.768 76.261 51.992C76.789 53.24 77.077 54.632 77.077 56.216V56.984C77.077 58.64 76.789 60.08 76.261 61.304C75.733 62.552 74.989 63.488 74.029 64.16C73.069 64.832 71.965 65.144 70.717 65.144C69.445 65.144 68.341 64.832 67.381 64.16C66.421 63.488 65.653 62.552 65.125 61.304C64.597 60.08 64.333 58.64 64.333 56.984V56.216ZM74.485 52.88C74.125 51.92 73.621 51.2 72.973 50.672C72.325 50.168 71.581 49.904 70.717 49.904C69.853 49.904 69.085 50.168 68.437 50.672C67.765 51.2 67.261 51.92 66.901 52.88C66.541 53.84 66.373 54.992 66.373 56.288V56.912C66.373 58.232 66.541 59.36 66.901 60.32C67.261 61.28 67.765 62.024 68.437 62.528C69.085 63.056 69.853 63.296 70.717 63.296C71.581 63.296 72.325 63.056 72.973 62.528C73.621 62.024 74.125 61.28 74.485 60.32C74.845 59.36 75.037 58.232 75.037 56.912V56.288C75.037 54.992 74.845 53.84 74.485 52.88ZM78.853 56.216C78.853 54.632 79.117 53.24 79.645 51.992C80.173 50.768 80.941 49.808 81.901 49.112C82.861 48.416 83.989 48.056 85.237 48.056C86.461 48.056 87.565 48.416 88.525 49.112C89.485 49.808 90.253 50.768 90.781 51.992C91.309 53.24 91.597 54.632 91.597 56.216V56.984C91.597 58.64 91.309 60.08 90.781 61.304C90.253 62.552 89.509 63.488 88.549 64.16C87.589 64.832 86.485 65.144 85.237 65.144C83.965 65.144 82.861 64.832 81.901 64.16C80.941 63.488 80.173 62.552 79.645 61.304C79.117 60.08 78.853 58.64 78.853 56.984V56.216ZM89.005 52.88C88.645 51.92 88.141 51.2 87.493 50.672C86.845 50.168 86.101 49.904 85.237 49.904C84.373 49.904 83.605 50.168 82.957 50.672C82.285 51.2 81.781 51.92 81.421 52.88C81.061 53.84 80.893 54.992 80.893 56.288V56.912C80.893 58.232 81.061 59.36 81.421 60.32C81.781 61.28 82.285 62.024 82.957 62.528C83.605 63.056 84.373 63.296 85.237 63.296C86.101 63.296 86.845 63.056 87.493 62.528C88.141 62.024 88.645 61.28 89.005 60.32C89.365 59.36 89.557 58.232 89.557 56.912V56.288C89.557 54.992 89.365 53.84 89.005 52.88ZM93.373 56.216C93.373 54.632 93.637 53.24 94.165 51.992C94.693 50.768 95.461 49.808 96.421 49.112C97.381 48.416 98.509 48.056 99.757 48.056C100.981 48.056 102.085 48.416 103.045 49.112C104.005 49.808 104.773 50.768 105.301 51.992C105.829 53.24 106.117 54.632 106.117 56.216V56.984C106.117 58.64 105.829 60.08 105.301 61.304C104.773 62.552 104.029 63.488 103.069 64.16C102.109 64.832 101.005 65.144 99.757 65.144C98.485 65.144 97.381 64.832 96.421 64.16C95.461 63.488 94.693 62.552 94.165 61.304C93.637 60.08 93.373 58.64 93.373 56.984V56.216ZM103.525 52.88C103.165 51.92 102.661 51.2 102.013 50.672C101.365 50.168 100.621 49.904 99.757 49.904C98.893 49.904 98.125 50.168 97.477 50.672C96.805 51.2 96.301 51.92 95.941 52.88C95.581 53.84 95.413 54.992 95.413 56.288V56.912C95.413 58.232 95.581 59.36 95.941 60.32C96.301 61.28 96.805 62.024 97.477 62.528C98.125 63.056 98.893 63.296 99.757 63.296C100.621 63.296 101.365 63.056 102.013 62.528C102.661 62.024 103.165 61.28 103.525 60.32C103.885 59.36 104.077 58.232 104.077 56.912V56.288C104.077 54.992 103.885 53.84 103.525 52.88ZM124.806 57.68C125.478 58.376 125.838 59.264 125.838 60.344C125.838 61.304 125.574 62.144 125.07 62.864C124.566 63.584 123.846 64.16 122.934 64.544C121.998 64.952 120.918 65.144 119.718 65.144C117.846 65.144 116.382 64.688 115.278 63.728C114.174 62.768 113.622 61.472 113.622 59.816H115.686C115.686 60.92 116.07 61.784 116.838 62.408C117.606 63.032 118.59 63.344 119.838 63.344C120.966 63.344 121.902 63.056 122.646 62.48C123.39 61.904 123.774 61.16 123.774 60.2C123.774 59.312 123.414 58.616 122.694 58.088C121.974 57.584 120.942 57.32 119.646 57.32H118.206V55.568H119.526C120.75 55.568 121.686 55.304 122.358 54.752C123.006 54.224 123.342 53.504 123.342 52.616C123.342 51.776 123.006 51.104 122.334 50.6C121.662 50.12 120.822 49.856 119.79 49.856C118.686 49.856 117.798 50.144 117.126 50.696C116.454 51.248 116.094 51.992 116.094 52.928H114.078C114.078 51.416 114.606 50.216 115.638 49.352C116.646 48.488 118.014 48.056 119.718 48.056C120.87 48.056 121.878 48.248 122.742 48.608C123.606 48.992 124.254 49.496 124.71 50.168C125.166 50.84 125.406 51.632 125.406 52.496C125.406 53.528 125.118 54.368 124.566 55.04C123.99 55.712 123.246 56.144 122.286 56.336C123.27 56.528 124.11 56.984 124.806 57.68ZM136.989 54.464C137.805 54.944 138.453 55.616 138.933 56.456C139.389 57.32 139.629 58.28 139.629 59.384C139.629 60.584 139.365 61.616 138.837 62.48C138.309 63.344 137.589 64.016 136.701 64.448C135.789 64.904 134.805 65.12 133.749 65.12C132.525 65.12 131.469 64.904 130.581 64.424C129.669 63.944 128.973 63.296 128.493 62.48C128.013 61.664 127.725 60.776 127.677 59.768H129.693C129.789 60.776 130.197 61.64 130.917 62.312C131.637 62.984 132.597 63.32 133.749 63.32C134.421 63.32 135.045 63.176 135.621 62.888C136.197 62.6 136.677 62.144 137.037 61.544C137.373 60.968 137.565 60.248 137.565 59.408C137.565 58.256 137.205 57.32 136.533 56.6C135.837 55.88 134.925 55.52 133.773 55.52C133.005 55.52 132.261 55.688 131.541 56C130.797 56.336 130.269 56.936 129.957 57.8L128.013 57.752L128.565 48.2H138.549V50.048H130.413L130.029 55.568C130.509 54.944 131.133 54.464 131.877 54.176C132.621 53.888 133.389 53.744 134.157 53.744C135.213 53.744 136.149 53.984 136.989 54.464ZM141.234 56.216C141.234 54.632 141.498 53.24 142.026 51.992C142.554 50.768 143.322 49.808 144.282 49.112C145.242 48.416 146.37 48.056 147.618 48.056C148.842 48.056 149.946 48.416 150.906 49.112C151.866 49.808 152.634 50.768 153.162 51.992C153.69 53.24 153.978 54.632 153.978 56.216V56.984C153.978 58.64 153.69 60.08 153.162 61.304C152.634 62.552 151.89 63.488 150.93 64.16C149.97 64.832 148.866 65.144 147.618 65.144C146.346 65.144 145.242 64.832 144.282 64.16C143.322 63.488 142.554 62.552 142.026 61.304C141.498 60.08 141.234 58.64 141.234 56.984V56.216ZM151.386 52.88C151.026 51.92 150.522 51.2 149.874 50.672C149.226 50.168 148.482 49.904 147.618 49.904C146.754 49.904 145.986 50.168 145.338 50.672C144.666 51.2 144.162 51.92 143.802 52.88C143.442 53.84 143.274 54.992 143.274 56.288V56.912C143.274 58.232 143.442 59.36 143.802 60.32C144.162 61.28 144.666 62.024 145.338 62.528C145.986 63.056 146.754 63.296 147.618 63.296C148.482 63.296 149.226 63.056 149.874 62.528C150.522 62.024 151.026 61.28 151.386 60.32C151.746 59.36 151.938 58.232 151.938 56.912V56.288C151.938 54.992 151.746 53.84 151.386 52.88Z" fill="#101828"/>
<path d="M186.179 55.1032L186.003 54.9264L185.826 55.1032L183.056 57.8732C183.008 57.9206 182.927 57.9206 182.879 57.8732C182.832 57.8258 182.832 57.7441 182.879 57.6967L185.914 54.6617C185.962 54.6144 186.043 54.6144 186.091 54.6617L189.126 57.6967C189.173 57.7441 189.173 57.8258 189.126 57.8732L189.126 57.8731L189.12 57.8794C189.105 57.8956 189.075 57.91 189.037 57.91C189.005 57.91 188.975 57.8988 188.949 57.8732L186.179 55.1032Z" fill="#12B76A" stroke="#12B76A" stroke-width="0.5"/>
<path d="M186 63.375C185.933 63.375 185.875 63.3169 185.875 63.25V54.835C185.875 54.768 185.933 54.71 186 54.71C186.067 54.71 186.125 54.768 186.125 54.835V63.25C186.125 63.3169 186.067 63.375 186 63.375Z" fill="#12B76A" stroke="#12B76A" stroke-width="0.5"/>
<path d="M196.66 59.076H198.904V56.736H199.888V59.076H202.144V60.024H199.888V62.388H198.904V60.024H196.66V59.076ZM206.049 58.536C206.465 58.528 206.809 58.408 207.081 58.176C207.353 57.944 207.489 57.64 207.489 57.264C207.489 56.912 207.357 56.616 207.093 56.376C206.829 56.136 206.481 56.016 206.049 56.016C205.617 56.016 205.269 56.136 205.005 56.376C204.741 56.616 204.609 56.912 204.609 57.264C204.609 57.64 204.745 57.944 205.017 58.176C205.289 58.408 205.633 58.528 206.049 58.536ZM204.849 61.788C205.145 62.036 205.545 62.16 206.049 62.16C206.553 62.16 206.949 62.036 207.237 61.788C207.533 61.54 207.681 61.228 207.681 60.852C207.681 60.468 207.533 60.152 207.237 59.904C206.949 59.648 206.553 59.52 206.049 59.52C205.545 59.52 205.145 59.648 204.849 59.904C204.561 60.152 204.417 60.468 204.417 60.852C204.417 61.228 204.561 61.54 204.849 61.788ZM208.113 62.556C207.609 62.972 206.921 63.18 206.049 63.18C205.177 63.18 204.489 62.972 203.985 62.556C203.481 62.132 203.229 61.596 203.229 60.948C203.229 60.492 203.365 60.096 203.637 59.76C203.917 59.416 204.273 59.172 204.705 59.028C204.337 58.892 204.033 58.66 203.793 58.332C203.553 57.996 203.433 57.62 203.433 57.204C203.433 56.572 203.681 56.056 204.177 55.656C204.673 55.248 205.297 55.044 206.049 55.044C206.801 55.044 207.425 55.248 207.921 55.656C208.417 56.056 208.665 56.572 208.665 57.204C208.665 57.612 208.545 57.984 208.305 58.32C208.065 58.656 207.761 58.892 207.393 59.028C207.825 59.164 208.177 59.404 208.449 59.748C208.729 60.092 208.869 60.492 208.869 60.948C208.869 61.596 208.617 62.132 208.113 62.556ZM210.246 62.82C210.086 62.66 210.006 62.464 210.006 62.232C210.006 62 210.086 61.804 210.246 61.644C210.406 61.476 210.602 61.392 210.834 61.392C211.066 61.392 211.262 61.476 211.422 61.644C211.59 61.804 211.674 62 211.674 62.232C211.674 62.464 211.59 62.66 211.422 62.82C211.262 62.98 211.066 63.06 210.834 63.06C210.602 63.06 210.406 62.98 210.246 62.82ZM215.098 59.388L214.522 58.416L216.814 56.304H213.094V55.224H218.374V56.28L216.154 58.332C216.786 58.332 217.342 58.54 217.822 58.956C218.31 59.372 218.554 59.952 218.554 60.696C218.554 61.384 218.302 61.972 217.798 62.46C217.294 62.948 216.606 63.192 215.734 63.192C214.878 63.192 214.19 62.956 213.67 62.484C213.158 62.004 212.882 61.424 212.842 60.744L213.994 60.48C214.018 60.984 214.19 61.392 214.51 61.704C214.838 62.008 215.242 62.16 215.722 62.16C216.234 62.16 216.634 62.024 216.922 61.752C217.218 61.472 217.366 61.128 217.366 60.72C217.366 60.248 217.21 59.888 216.898 59.64C216.586 59.392 216.214 59.268 215.782 59.268C215.55 59.268 215.322 59.308 215.098 59.388ZM220.713 56.352C220.537 56.528 220.449 56.752 220.449 57.024C220.449 57.296 220.537 57.524 220.713 57.708C220.889 57.884 221.109 57.972 221.373 57.972C221.637 57.972 221.857 57.884 222.033 57.708C222.209 57.524 222.297 57.296 222.297 57.024C222.297 56.752 222.209 56.528 222.033 56.352C221.857 56.176 221.637 56.088 221.373 56.088C221.109 56.088 220.889 56.176 220.713 56.352ZM219.453 57.024C219.453 56.504 219.641 56.06 220.017 55.692C220.401 55.324 220.853 55.14 221.373 55.14C221.893 55.14 222.345 55.324 222.729 55.692C223.113 56.06 223.305 56.504 223.305 57.024C223.305 57.552 223.113 58 222.729 58.368C222.345 58.736 221.893 58.92 221.373 58.92C220.853 58.92 220.401 58.736 220.017 58.368C219.641 58 219.453 57.552 219.453 57.024ZM225.465 60.528C225.289 60.704 225.201 60.928 225.201 61.2C225.201 61.472 225.289 61.7 225.465 61.884C225.641 62.06 225.861 62.148 226.125 62.148C226.389 62.148 226.609 62.06 226.785 61.884C226.961 61.7 227.049 61.472 227.049 61.2C227.049 60.928 226.961 60.704 226.785 60.528C226.609 60.352 226.389 60.264 226.125 60.264C225.861 60.264 225.641 60.352 225.465 60.528ZM224.205 61.2C224.205 60.68 224.393 60.236 224.769 59.868C225.153 59.5 225.605 59.316 226.125 59.316C226.645 59.316 227.097 59.5 227.481 59.868C227.865 60.236 228.057 60.68 228.057 61.2C228.057 61.728 227.865 62.176 227.481 62.544C227.097 62.912 226.645 63.096 226.125 63.096C225.605 63.096 225.153 62.912 224.769 62.544C224.393 62.176 224.205 61.728 224.205 61.2ZM221.517 63H220.413L226.005 55.224H227.085L221.517 63Z" fill="#12B76A"/>
<path d="M20.044 106.6C20.596 106.6 21.076 106.708 21.508 106.924C21.928 107.14 22.252 107.44 22.48 107.824C22.708 108.208 22.828 108.664 22.828 109.18C22.828 109.708 22.708 110.164 22.48 110.548C22.24 110.944 21.916 111.244 21.496 111.46C21.076 111.676 20.596 111.772 20.044 111.772H17.86V115H16.816V106.6H20.044ZM17.86 110.812H19.948C20.5 110.812 20.932 110.668 21.268 110.368C21.592 110.08 21.76 109.684 21.76 109.18C21.76 108.688 21.592 108.292 21.268 108.004C20.944 107.716 20.512 107.56 19.96 107.56H17.86V110.812ZM29.3977 114.1V115H28.8577C28.4617 115 28.1857 114.928 28.0177 114.76C27.8497 114.604 27.7537 114.364 27.7537 114.052C27.2737 114.736 26.5897 115.072 25.7017 115.072C25.0177 115.072 24.4657 114.916 24.0577 114.592C23.6497 114.28 23.4457 113.836 23.4457 113.284C23.4457 112.672 23.6497 112.204 24.0697 111.868C24.4897 111.544 25.1017 111.376 25.9057 111.376H27.7057V110.956C27.7057 110.56 27.5617 110.248 27.2977 110.02C27.0337 109.804 26.6617 109.684 26.1817 109.684C25.7497 109.684 25.4017 109.78 25.1257 109.972C24.8497 110.164 24.6817 110.404 24.6217 110.716H23.6377C23.7097 110.116 23.9737 109.648 24.4297 109.312C24.8857 108.976 25.4857 108.808 26.2297 108.808C27.0097 108.808 27.6097 109 28.0417 109.384C28.4737 109.768 28.6897 110.308 28.6897 111.016V113.656C28.6897 113.956 28.8217 114.1 29.0977 114.1H29.3977ZM27.7057 112.204H25.8097C24.8977 112.204 24.4417 112.552 24.4417 113.224C24.4417 113.536 24.5617 113.776 24.8017 113.956C25.0417 114.148 25.3657 114.232 25.7737 114.232C26.3737 114.232 26.8417 114.076 27.1897 113.764C27.5257 113.452 27.7057 113.032 27.7057 112.504V112.204ZM30.6504 108.88L32.5344 113.872L34.3584 108.88H35.4024L32.5824 116.032C32.4384 116.404 32.3064 116.68 32.1984 116.86C32.0784 117.052 31.9464 117.184 31.7784 117.268C31.6104 117.364 31.3824 117.4 31.1064 117.4H29.9304V116.5H30.8064C30.9984 116.5 31.1424 116.488 31.2384 116.44C31.3344 116.404 31.4064 116.344 31.4664 116.248C31.5264 116.152 31.5984 115.996 31.6944 115.78L32.0064 115.048L29.6064 108.88H30.6504ZM44.8724 109.456C45.3044 109.888 45.5204 110.56 45.5204 111.472V115H44.5364V111.532C44.5364 110.944 44.4044 110.488 44.1524 110.176C43.9004 109.864 43.5404 109.708 43.0844 109.708C42.5684 109.708 42.1604 109.888 41.8724 110.248C41.5844 110.608 41.4404 111.1 41.4404 111.724V115H40.4564V111.532C40.4564 110.944 40.3244 110.488 40.0724 110.176C39.8084 109.864 39.4484 109.708 38.9804 109.708C38.4764 109.708 38.0804 109.9 37.7924 110.284C37.5044 110.668 37.3604 111.16 37.3604 111.772V115H36.3764V108.88H37.2284L37.3604 109.72C37.7924 109.12 38.3924 108.808 39.1484 108.808C39.5804 108.808 39.9764 108.916 40.3124 109.108C40.6484 109.3 40.9124 109.588 41.0804 109.972C41.5124 109.204 42.2204 108.808 43.2044 108.808C43.8884 108.808 44.4404 109.024 44.8724 109.456ZM47.1666 110.296C47.4066 109.828 47.7546 109.468 48.1986 109.204C48.6306 108.94 49.1346 108.808 49.7106 108.808C50.2626 108.808 50.7666 108.928 51.1986 109.156C51.6306 109.396 51.9666 109.732 52.2186 110.164C52.4586 110.608 52.5906 111.124 52.6146 111.712C52.6146 111.808 52.6026 111.94 52.5906 112.132H47.8386V112.216C47.8506 112.816 48.0306 113.296 48.3906 113.656C48.7386 114.016 49.1946 114.196 49.7706 114.196C50.2026 114.196 50.5746 114.088 50.8866 113.872C51.1986 113.656 51.4026 113.344 51.5106 112.948H52.5066C52.3866 113.572 52.0866 114.088 51.6066 114.484C51.1266 114.88 50.5386 115.072 49.8426 115.072C49.2306 115.072 48.7026 114.952 48.2466 114.688C47.7906 114.424 47.4306 114.064 47.1786 113.584C46.9266 113.104 46.8066 112.564 46.8066 111.94C46.8066 111.316 46.9266 110.776 47.1666 110.296ZM51.5946 111.316C51.5466 110.8 51.3426 110.392 51.0066 110.104C50.6706 109.816 50.2386 109.672 49.7226 109.672C49.2546 109.672 48.8466 109.828 48.4986 110.128C48.1386 110.44 47.9466 110.836 47.8986 111.316H51.5946ZM58.7655 109.48C59.2215 109.936 59.4495 110.632 59.4495 111.592V115H58.4655V111.652C58.4655 111.028 58.3215 110.548 58.0335 110.212C57.7455 109.876 57.3375 109.708 56.8095 109.708C56.2335 109.708 55.7775 109.912 55.4535 110.308C55.1175 110.716 54.9615 111.256 54.9615 111.94V115H53.9775V108.88H54.8295L54.9615 109.708C55.4175 109.108 56.0895 108.808 56.9775 108.808C57.7215 108.808 58.3095 109.036 58.7655 109.48ZM61.352 109.78H60.248V108.88H61.352V107.164H62.336V108.88H63.884V109.78H62.336V113.392C62.336 113.656 62.384 113.836 62.48 113.944C62.576 114.052 62.756 114.1 63.008 114.1H64.076V115H62.948C62.372 115 61.952 114.88 61.712 114.616C61.472 114.364 61.352 113.956 61.352 113.404V109.78ZM65.7841 112.984C65.7961 113.356 65.9521 113.656 66.2641 113.884C66.5761 114.124 66.9721 114.232 67.4641 114.232C67.8961 114.232 68.2441 114.148 68.5081 113.98C68.7721 113.812 68.9161 113.584 68.9161 113.296C68.9161 113.056 68.8441 112.876 68.7241 112.744C68.5921 112.624 68.4241 112.528 68.2201 112.48C68.0161 112.432 67.7281 112.384 67.3561 112.336C66.8281 112.276 66.3961 112.192 66.0601 112.084C65.7241 111.988 65.4481 111.82 65.2441 111.592C65.0281 111.364 64.9321 111.052 64.9321 110.644C64.9321 110.284 65.0281 109.972 65.2321 109.684C65.4361 109.408 65.7121 109.192 66.0721 109.036C66.4201 108.88 66.8161 108.796 67.2601 108.796C67.9801 108.796 68.5561 108.964 69.0121 109.3C69.4681 109.636 69.7201 110.116 69.7681 110.74H68.7841C68.7361 110.428 68.5801 110.164 68.3161 109.948C68.0401 109.744 67.7041 109.636 67.2961 109.636C66.8761 109.636 66.5401 109.732 66.2881 109.9C66.0241 110.068 65.9041 110.296 65.9041 110.572C65.9041 110.788 65.9641 110.944 66.0841 111.052C66.2041 111.172 66.3481 111.244 66.5401 111.28C66.7321 111.328 67.0201 111.364 67.4041 111.412C67.9321 111.484 68.3761 111.568 68.7241 111.676C69.0721 111.796 69.3481 111.976 69.5641 112.216C69.7801 112.468 69.8881 112.804 69.8881 113.224C69.8881 113.596 69.7801 113.92 69.5641 114.196C69.3481 114.484 69.0481 114.7 68.6881 114.844C68.3161 115 67.9081 115.072 67.4641 115.072C66.6601 115.072 66.0121 114.892 65.5321 114.52C65.0521 114.16 64.8001 113.644 64.8001 112.984H65.7841Z" fill="#344054"/>
<rect width="276" height="4" transform="translate(16 122)" fill="#6F00FF"/>
<path d="M308.816 106.6H314.036V107.56H309.86V110.368H313.316V111.328H309.86V115H308.816V106.6ZM320.437 114.1V115H319.897C319.501 115 319.225 114.928 319.057 114.76C318.889 114.604 318.793 114.364 318.793 114.052C318.313 114.736 317.629 115.072 316.741 115.072C316.057 115.072 315.505 114.916 315.097 114.592C314.689 114.28 314.485 113.836 314.485 113.284C314.485 112.672 314.689 112.204 315.109 111.868C315.529 111.544 316.141 111.376 316.945 111.376H318.745V110.956C318.745 110.56 318.601 110.248 318.337 110.02C318.073 109.804 317.701 109.684 317.221 109.684C316.789 109.684 316.441 109.78 316.165 109.972C315.889 110.164 315.721 110.404 315.661 110.716H314.677C314.749 110.116 315.013 109.648 315.469 109.312C315.925 108.976 316.525 108.808 317.269 108.808C318.049 108.808 318.649 109 319.081 109.384C319.513 109.768 319.729 110.308 319.729 111.016V113.656C319.729 113.956 319.861 114.1 320.137 114.1H320.437ZM318.745 112.204H316.849C315.937 112.204 315.481 112.552 315.481 113.224C315.481 113.536 315.601 113.776 315.841 113.956C316.081 114.148 316.405 114.232 316.813 114.232C317.413 114.232 317.881 114.076 318.229 113.764C318.565 113.452 318.745 113.032 318.745 112.504V112.204ZM325.993 114.496C325.513 114.88 324.913 115.072 324.193 115.072C323.593 115.072 323.077 114.94 322.633 114.676C322.177 114.412 321.829 114.052 321.589 113.572C321.337 113.092 321.217 112.552 321.217 111.928C321.217 111.316 321.337 110.776 321.589 110.296C321.841 109.828 322.201 109.468 322.657 109.204C323.113 108.94 323.629 108.808 324.229 108.808C324.949 108.808 325.537 109 326.005 109.384C326.473 109.768 326.773 110.296 326.893 110.968H325.897C325.801 110.584 325.597 110.272 325.297 110.032C324.985 109.804 324.625 109.684 324.193 109.684C323.605 109.684 323.125 109.9 322.765 110.308C322.405 110.728 322.225 111.268 322.225 111.928C322.225 112.6 322.405 113.152 322.765 113.572C323.125 113.992 323.605 114.196 324.193 114.196C324.637 114.196 325.009 114.088 325.321 113.848C325.621 113.62 325.813 113.296 325.909 112.888H326.893C326.761 113.572 326.461 114.112 325.993 114.496ZM328.679 109.78H327.575V108.88H328.679V107.164H329.663V108.88H331.211V109.78H329.663V113.392C329.663 113.656 329.711 113.836 329.807 113.944C329.903 114.052 330.083 114.1 330.335 114.1H331.403V115H330.275C329.699 115 329.279 114.88 329.039 114.616C328.799 114.364 328.679 113.956 328.679 113.404V109.78ZM333.427 114.676C332.971 114.412 332.611 114.052 332.359 113.572C332.095 113.104 331.975 112.564 331.975 111.94C331.975 111.328 332.095 110.788 332.359 110.308C332.611 109.84 332.971 109.468 333.427 109.204C333.883 108.94 334.411 108.808 335.011 108.808C335.599 108.808 336.127 108.94 336.583 109.204C337.039 109.468 337.399 109.84 337.663 110.308C337.915 110.788 338.047 111.328 338.047 111.94C338.047 112.564 337.915 113.104 337.663 113.572C337.399 114.052 337.039 114.412 336.583 114.676C336.127 114.94 335.599 115.072 335.011 115.072C334.411 115.072 333.883 114.94 333.427 114.676ZM336.067 113.908C336.379 113.716 336.619 113.452 336.787 113.104C336.955 112.768 337.039 112.372 337.039 111.94C337.039 111.508 336.955 111.124 336.787 110.776C336.619 110.44 336.379 110.164 336.067 109.972C335.755 109.78 335.407 109.684 335.011 109.684C334.603 109.684 334.255 109.78 333.943 109.972C333.631 110.164 333.403 110.44 333.235 110.776C333.067 111.124 332.983 111.508 332.983 111.94C332.983 112.372 333.067 112.768 333.235 113.104C333.403 113.452 333.631 113.716 333.943 113.908C334.255 114.1 334.603 114.196 335.011 114.196C335.407 114.196 335.755 114.1 336.067 113.908ZM342.523 108.88V109.84H342.031C341.443 109.84 341.023 110.044 340.771 110.428C340.519 110.824 340.399 111.304 340.399 111.88V115H339.415V108.88H340.267L340.399 109.804C340.567 109.528 340.795 109.3 341.083 109.132C341.359 108.964 341.743 108.88 342.247 108.88H342.523ZM344.611 106.696C344.731 106.816 344.791 106.972 344.791 107.152C344.791 107.344 344.731 107.488 344.611 107.608C344.491 107.728 344.335 107.788 344.155 107.788C343.963 107.788 343.819 107.728 343.699 107.608C343.579 107.488 343.519 107.344 343.519 107.152C343.519 106.972 343.579 106.816 343.699 106.696C343.819 106.576 343.963 106.516 344.155 106.516C344.335 106.516 344.491 106.576 344.611 106.696ZM343.663 108.88H344.647V115H343.663V108.88ZM351.023 109.48C351.479 109.936 351.707 110.632 351.707 111.592V115H350.723V111.652C350.723 111.028 350.579 110.548 350.291 110.212C350.003 109.876 349.595 109.708 349.067 109.708C348.491 109.708 348.035 109.912 347.711 110.308C347.375 110.716 347.219 111.256 347.219 111.94V115H346.235V108.88H347.087L347.219 109.708C347.675 109.108 348.347 108.808 349.235 108.808C349.979 108.808 350.567 109.036 351.023 109.48ZM359.009 108.88V114.7C359.009 116.548 357.989 117.472 355.973 117.472C355.181 117.472 354.533 117.292 354.029 116.932C353.525 116.572 353.237 116.068 353.165 115.396H354.173C354.245 115.78 354.449 116.08 354.785 116.284C355.109 116.5 355.529 116.596 356.045 116.596C357.365 116.596 358.025 115.96 358.025 114.664V113.944C357.581 114.7 356.885 115.072 355.925 115.072C355.349 115.072 354.845 114.952 354.401 114.7C353.957 114.46 353.609 114.1 353.357 113.62C353.105 113.152 352.985 112.588 352.985 111.94C352.985 111.328 353.105 110.788 353.357 110.308C353.609 109.84 353.957 109.468 354.413 109.204C354.857 108.94 355.361 108.808 355.925 108.808C356.417 108.808 356.837 108.916 357.197 109.108C357.545 109.3 357.821 109.576 358.025 109.936L358.157 108.88H359.009ZM357.065 113.92C357.377 113.728 357.617 113.464 357.785 113.128C357.953 112.792 358.037 112.396 358.037 111.964C358.037 111.532 357.953 111.136 357.785 110.788C357.617 110.44 357.377 110.164 357.065 109.972C356.753 109.78 356.405 109.684 356.021 109.684C355.409 109.684 354.917 109.9 354.545 110.32C354.173 110.74 353.993 111.28 353.993 111.94C353.993 112.612 354.173 113.152 354.545 113.572C354.917 113.992 355.409 114.196 356.021 114.196C356.405 114.196 356.753 114.112 357.065 113.92Z" fill="#344054"/>
<rect width="168" height="4" transform="translate(308 122)" fill="#873BFF"/>
<path d="M492.816 115V106.6H493.86V114.04H497.688V115H492.816ZM505.459 112.996C505.123 113.644 504.643 114.16 504.043 114.52C503.431 114.892 502.735 115.072 501.967 115.072C501.187 115.072 500.491 114.892 499.891 114.52C499.279 114.16 498.799 113.644 498.463 112.996C498.127 112.348 497.959 111.616 497.959 110.8C497.959 109.984 498.127 109.252 498.463 108.604C498.799 107.956 499.279 107.452 499.891 107.08C500.491 106.72 501.187 106.528 501.967 106.528C502.735 106.528 503.431 106.72 504.043 107.08C504.643 107.452 505.123 107.956 505.459 108.604C505.795 109.252 505.975 109.984 505.975 110.8C505.975 111.616 505.795 112.348 505.459 112.996ZM499.399 112.516C499.639 113.02 499.987 113.404 500.431 113.692C500.875 113.98 501.391 114.112 501.967 114.112C502.543 114.112 503.047 113.98 503.491 113.692C503.935 113.404 504.283 113.02 504.535 112.516C504.775 112.012 504.907 111.448 504.907 110.8C504.907 110.164 504.775 109.6 504.535 109.096C504.283 108.592 503.935 108.208 503.491 107.92C503.047 107.632 502.543 107.488 501.967 107.488C501.391 107.488 500.875 107.632 500.431 107.92C499.987 108.208 499.639 108.592 499.399 109.096C499.147 109.6 499.027 110.164 499.027 110.8C499.027 111.448 499.147 112.012 499.399 112.516ZM507.714 108.568C508.038 107.92 508.506 107.428 509.118 107.068C509.718 106.708 510.426 106.528 511.23 106.528C512.154 106.528 512.934 106.78 513.558 107.284C514.182 107.788 514.578 108.484 514.746 109.348H513.702C513.546 108.772 513.246 108.316 512.802 107.98C512.358 107.656 511.818 107.488 511.182 107.488C510.606 107.488 510.09 107.632 509.658 107.908C509.214 108.196 508.878 108.58 508.638 109.084C508.398 109.588 508.29 110.152 508.29 110.8C508.29 111.448 508.398 112.012 508.638 112.516C508.878 113.02 509.214 113.416 509.658 113.692C510.09 113.98 510.606 114.112 511.182 114.112C511.83 114.112 512.37 113.956 512.802 113.632C513.234 113.308 513.522 112.852 513.69 112.252H514.734C514.566 113.128 514.182 113.812 513.558 114.316C512.934 114.82 512.166 115.072 511.23 115.072C510.426 115.072 509.718 114.904 509.118 114.544C508.506 114.184 508.038 113.692 507.714 113.044C507.378 112.396 507.222 111.652 507.222 110.8C507.222 109.96 507.378 109.216 507.714 108.568Z" fill="#344054"/>
<rect width="52.6667" height="4" transform="translate(492 122)" fill="#BFA6FF"/>
<path d="M561.664 108.568C561.988 107.92 562.456 107.428 563.068 107.068C563.668 106.708 564.376 106.528 565.18 106.528C566.104 106.528 566.884 106.78 567.508 107.284C568.132 107.788 568.528 108.484 568.696 109.348H567.652C567.496 108.772 567.196 108.316 566.752 107.98C566.308 107.656 565.768 107.488 565.132 107.488C564.556 107.488 564.04 107.632 563.608 107.908C563.164 108.196 562.828 108.58 562.588 109.084C562.348 109.588 562.24 110.152 562.24 110.8C562.24 111.448 562.348 112.012 562.588 112.516C562.828 113.02 563.164 113.416 563.608 113.692C564.04 113.98 564.556 114.112 565.132 114.112C565.78 114.112 566.32 113.956 566.752 113.632C567.184 113.308 567.472 112.852 567.64 112.252H568.684C568.516 113.128 568.132 113.812 567.508 114.316C566.884 114.82 566.116 115.072 565.18 115.072C564.376 115.072 563.668 114.904 563.068 114.544C562.456 114.184 561.988 113.692 561.664 113.044C561.328 112.396 561.172 111.652 561.172 110.8C561.172 109.96 561.328 109.216 561.664 108.568ZM573.208 108.88V109.84H572.715C572.127 109.84 571.707 110.044 571.455 110.428C571.203 110.824 571.083 111.304 571.083 111.88V115H570.099V108.88H570.951L571.083 109.804C571.251 109.528 571.479 109.3 571.767 109.132C572.043 108.964 572.427 108.88 572.932 108.88H573.208ZM574.14 110.296C574.38 109.828 574.728 109.468 575.172 109.204C575.604 108.94 576.108 108.808 576.684 108.808C577.236 108.808 577.74 108.928 578.172 109.156C578.604 109.396 578.94 109.732 579.192 110.164C579.432 110.608 579.564 111.124 579.588 111.712C579.588 111.808 579.576 111.94 579.564 112.132H574.812V112.216C574.824 112.816 575.004 113.296 575.364 113.656C575.712 114.016 576.168 114.196 576.744 114.196C577.176 114.196 577.548 114.088 577.86 113.872C578.172 113.656 578.376 113.344 578.484 112.948H579.48C579.36 113.572 579.06 114.088 578.58 114.484C578.1 114.88 577.512 115.072 576.816 115.072C576.204 115.072 575.676 114.952 575.22 114.688C574.764 114.424 574.404 114.064 574.152 113.584C573.9 113.104 573.78 112.564 573.78 111.94C573.78 111.316 573.9 110.776 574.14 110.296ZM578.568 111.316C578.52 110.8 578.316 110.392 577.98 110.104C577.644 109.816 577.212 109.672 576.696 109.672C576.228 109.672 575.82 109.828 575.472 110.128C575.112 110.44 574.92 110.836 574.872 111.316H578.568ZM586.759 106.6V115H585.907L585.775 114.016C585.259 114.724 584.563 115.072 583.675 115.072C583.099 115.072 582.595 114.952 582.151 114.7C581.707 114.46 581.359 114.1 581.107 113.62C580.855 113.152 580.735 112.588 580.735 111.94C580.735 111.328 580.855 110.788 581.107 110.308C581.359 109.84 581.707 109.468 582.163 109.204C582.607 108.94 583.111 108.808 583.675 108.808C584.167 108.808 584.587 108.904 584.947 109.084C585.295 109.264 585.571 109.504 585.775 109.816V106.6H586.759ZM584.815 113.92C585.127 113.728 585.367 113.464 585.535 113.128C585.703 112.792 585.787 112.396 585.787 111.964C585.787 111.532 585.703 111.136 585.535 110.788C585.367 110.44 585.127 110.164 584.815 109.972C584.503 109.78 584.155 109.684 583.771 109.684C583.159 109.684 582.667 109.9 582.295 110.32C581.923 110.74 581.743 111.28 581.743 111.94C581.743 112.612 581.923 113.152 582.295 113.572C582.667 113.992 583.159 114.196 583.771 114.196C584.155 114.196 584.503 114.112 584.815 113.92ZM589.287 106.696C589.407 106.816 589.467 106.972 589.467 107.152C589.467 107.344 589.407 107.488 589.287 107.608C589.167 107.728 589.011 107.788 588.831 107.788C588.639 107.788 588.495 107.728 588.375 107.608C588.255 107.488 588.195 107.344 588.195 107.152C588.195 106.972 588.255 106.816 588.375 106.696C588.495 106.576 588.639 106.516 588.831 106.516C589.011 106.516 589.167 106.576 589.287 106.696ZM588.339 108.88H589.323V115H588.339V108.88ZM591.319 109.78H590.215V108.88H591.319V107.164H592.303V108.88H593.851V109.78H592.303V113.392C592.303 113.656 592.351 113.836 592.447 113.944C592.543 114.052 592.723 114.1 592.975 114.1H594.043V115H592.915C592.339 115 591.919 114.88 591.679 114.616C591.439 114.364 591.319 113.956 591.319 113.404V109.78Z" fill="#344054"/>
<rect width="52.6667" height="4" transform="translate(560.668 122)" fill="#EBE4FF"/>
<path d="M637.336 112.996C637 113.644 636.52 114.16 635.92 114.52C635.308 114.892 634.612 115.072 633.844 115.072C633.064 115.072 632.368 114.892 631.768 114.52C631.156 114.16 630.676 113.644 630.34 112.996C630.004 112.348 629.836 111.616 629.836 110.8C629.836 109.984 630.004 109.252 630.34 108.604C630.676 107.956 631.156 107.452 631.768 107.08C632.368 106.72 633.064 106.528 633.844 106.528C634.612 106.528 635.308 106.72 635.92 107.08C636.52 107.452 637 107.956 637.336 108.604C637.672 109.252 637.852 109.984 637.852 110.8C637.852 111.616 637.672 112.348 637.336 112.996ZM631.276 112.516C631.516 113.02 631.864 113.404 632.308 113.692C632.752 113.98 633.268 114.112 633.844 114.112C634.42 114.112 634.924 113.98 635.368 113.692C635.812 113.404 636.16 113.02 636.412 112.516C636.652 112.012 636.784 111.448 636.784 110.8C636.784 110.164 636.652 109.6 636.412 109.096C636.16 108.592 635.812 108.208 635.368 107.92C634.924 107.632 634.42 107.488 633.844 107.488C633.268 107.488 632.752 107.632 632.308 107.92C631.864 108.208 631.516 108.592 631.276 109.096C631.024 109.6 630.904 110.164 630.904 110.8C630.904 111.448 631.024 112.012 631.276 112.516ZM639.675 109.78H638.571V108.88H639.675V107.164H640.659V108.88H642.207V109.78H640.659V113.392C640.659 113.656 640.707 113.836 640.803 113.944C640.899 114.052 641.079 114.1 641.331 114.1H642.399V115H641.271C640.695 115 640.275 114.88 640.035 114.616C639.795 114.364 639.675 113.956 639.675 113.404V109.78ZM648.139 109.48C648.595 109.936 648.823 110.632 648.823 111.592V115H647.839V111.652C647.839 111.028 647.695 110.548 647.407 110.212C647.119 109.876 646.699 109.708 646.171 109.708C645.595 109.708 645.151 109.912 644.815 110.308C644.479 110.716 644.323 111.256 644.323 111.94V115H643.339V106.6H644.323V109.888C644.515 109.576 644.779 109.312 645.115 109.108C645.451 108.916 645.859 108.808 646.339 108.808C647.083 108.808 647.683 109.036 648.139 109.48ZM650.462 110.296C650.702 109.828 651.05 109.468 651.494 109.204C651.926 108.94 652.43 108.808 653.006 108.808C653.558 108.808 654.062 108.928 654.494 109.156C654.926 109.396 655.262 109.732 655.514 110.164C655.754 110.608 655.886 111.124 655.91 111.712C655.91 111.808 655.898 111.94 655.886 112.132H651.134V112.216C651.146 112.816 651.326 113.296 651.686 113.656C652.034 114.016 652.49 114.196 653.066 114.196C653.498 114.196 653.87 114.088 654.182 113.872C654.494 113.656 654.698 113.344 654.806 112.948H655.802C655.682 113.572 655.382 114.088 654.902 114.484C654.422 114.88 653.834 115.072 653.138 115.072C652.526 115.072 651.998 114.952 651.542 114.688C651.086 114.424 650.726 114.064 650.474 113.584C650.222 113.104 650.102 112.564 650.102 111.94C650.102 111.316 650.222 110.776 650.462 110.296ZM654.89 111.316C654.842 110.8 654.638 110.392 654.302 110.104C653.966 109.816 653.534 109.672 653.018 109.672C652.55 109.672 652.142 109.828 651.794 110.128C651.434 110.44 651.242 110.836 651.194 111.316H654.89ZM660.381 108.88V109.84H659.889C659.301 109.84 658.881 110.044 658.629 110.428C658.377 110.824 658.257 111.304 658.257 111.88V115H657.273V108.88H658.125L658.257 109.804C658.425 109.528 658.653 109.3 658.941 109.132C659.217 108.964 659.601 108.88 660.105 108.88H660.381Z" fill="#344054"/>
<rect width="52.6667" height="4" transform="translate(629.332 122)" fill="#EAECF0"/>
<defs>
<linearGradient id="paint0_linear_5008_143897" x1="323.686" y1="116.751" x2="348.458" y2="421.504" gradientUnits="userSpaceOnUse">
<stop stop-color="#0FBBE6"/>
<stop offset="0.942708" stop-color="#0FBBE6" stop-opacity="0"/>
</linearGradient>
<clipPath id="clip0_5008_143897">
<rect width="623" height="236" fill="white" transform="translate(52 172)"/>
</clipPath>
</defs>
</svg>
