<svg width="16" height="18" viewBox="0 0 16 18" fill="none" xmlns="http://www.w3.org/2000/svg">
<path d="M12.2706 13.5601L10.3906 15.4401" stroke="#F04438" stroke-linecap="round" stroke-linejoin="round"/>
<path d="M12.2706 15.4401L10.3906 13.5601" stroke="#F04438" stroke-linecap="round" stroke-linejoin="round"/>
<path d="M8.10573 8.74659C8.03906 8.73992 7.95906 8.73992 7.88573 8.74659C6.29906 8.69325 5.03906 7.39325 5.03906 5.79325C5.03906 4.15992 6.35906 2.83325 7.99906 2.83325C9.6324 2.83325 10.9591 4.15992 10.9591 5.79325C10.9524 7.39325 9.6924 8.69325 8.10573 8.74659Z" stroke="#F04438" stroke-linecap="round" stroke-linejoin="round"/>
<path d="M8.00313 16.04C6.78979 16.04 5.58313 15.7333 4.66313 15.12C3.04979 14.04 3.04979 12.28 4.66313 11.2066C6.49646 9.97995 9.50313 9.97995 11.3365 11.2066" stroke="#F04438" stroke-linecap="round" stroke-linejoin="round"/>
</svg>
