<svg width="152" height="113" viewBox="0 0 152 113" fill="none" xmlns="http://www.w3.org/2000/svg">
<path d="M62.2266 2.44287L62.2266 87.3418L43.9261 87.3418C20.4819 87.3418 1.47667 68.3365 1.47667 44.8923C1.47667 21.4481 20.4819 2.44287 43.9261 2.44287L62.2266 2.44287Z" fill="#61458D" fill-opacity="0.5" style="mix-blend-mode:hard-light"/>
<rect x="1.00449" y="112.34" width="149.988" height="0.565993" fill="#1D1926" stroke="black" stroke-width="0.188664"/>
<path d="M144.145 28.0494C144.296 28.2444 144.59 28.2444 144.741 28.0494L146.017 26.4033H146.562V61.4138C146.562 64.2719 144.246 66.5888 141.388 66.5888C141.16 66.5888 140.937 66.5742 140.717 66.5458C140.468 66.5742 140.216 66.5888 139.959 66.5888H118.757V26.4033H119.375L120.65 28.0494C120.801 28.2444 121.096 28.2444 121.247 28.0494L122.254 26.7497L123.261 28.0494C123.412 28.2444 123.706 28.2444 123.857 28.0494L124.864 26.7496L125.871 28.0494C126.022 28.2444 126.317 28.2444 126.468 28.0494L127.475 26.7497L128.482 28.0494C128.633 28.2444 128.927 28.2444 129.078 28.0494L130.085 26.7497L131.092 28.0494C131.243 28.2444 131.538 28.2444 131.689 28.0494L132.696 26.7497L133.703 28.0494C133.854 28.2444 134.148 28.2444 134.299 28.0494L135.306 26.7496L136.313 28.0494C136.464 28.2444 136.759 28.2444 136.91 28.0494L137.917 26.7497L138.924 28.0494C139.075 28.2444 139.369 28.2444 139.52 28.0494L140.527 26.7497L141.534 28.0494C141.685 28.2444 141.98 28.2444 142.131 28.0494L143.138 26.7497L144.145 28.0494Z" fill="#5A12DE"/>
<path d="M144.079 26.9807L143.184 28.1361C142.976 28.4042 142.572 28.4042 142.364 28.1361L141.469 26.9807L140.574 28.1361C140.366 28.4042 139.961 28.4042 139.753 28.1361L138.858 26.9808L137.963 28.1361L137.851 28.0494L137.963 28.1361C137.755 28.4042 137.351 28.4042 137.143 28.1361L136.248 26.9807L135.352 28.1361L135.241 28.0494L135.352 28.1361C135.145 28.4042 134.74 28.4042 134.532 28.1361L133.637 26.9807L132.742 28.1361C132.534 28.4042 132.129 28.4042 131.922 28.1361L131.027 26.9808L130.132 28.1361C129.924 28.4042 129.519 28.4042 129.311 28.1361L128.416 26.9807L127.521 28.1361C127.313 28.4042 126.908 28.4042 126.701 28.1361L125.806 26.9807L124.91 28.1361C124.703 28.4042 124.298 28.4042 124.09 28.1361L123.195 26.9808L122.3 28.1361C122.092 28.4042 121.687 28.4042 121.48 28.1361L120.247 26.5448H119.84V66.4473H140.901C141.152 66.4473 141.399 66.433 141.642 66.4052L141.66 66.4032L141.677 66.4055C141.89 66.4331 142.108 66.4473 142.329 66.4473C145.109 66.4473 147.362 64.1937 147.362 61.4138V26.5448H147.027L145.795 28.1361C145.587 28.4042 145.182 28.4042 144.974 28.1361C144.974 28.1361 144.974 28.1361 144.974 28.1361L144.079 26.9807Z" stroke="black" stroke-width="0.282996"/>
<path d="M130.902 50.1748H105.781C101.525 50.1748 98.0748 53.8492 98.0748 58.3817V83.0024H120.422C120.487 83.0024 120.552 83.0012 120.617 82.9987C120.68 83.0012 120.744 83.0024 120.807 83.0024C123.659 83.0024 125.971 80.5406 125.971 77.5038V56.5762H130.902V50.1748Z" fill="#7F42F0"/>
<path d="M120.715 83.0021V83.0027H105.244V72.0875C105.244 69.0507 107.565 66.5889 110.427 66.5889C113.289 66.5889 115.61 69.0507 115.61 72.0875V77.504C115.61 80.5134 117.888 82.9582 120.715 83.0021Z" fill="#4F2AA2"/>
<path d="M106.14 82.8612H119.875C117.75 82.118 116.222 79.9956 116.222 77.504V72.0875C116.222 69.1208 113.957 66.7304 111.181 66.7304C108.405 66.7304 106.14 69.1208 106.14 72.0875V82.8612Z" stroke="black" stroke-width="0.282996"/>
<path d="M141.277 66.588V66.5886H125.807V55.6734C125.807 52.6366 128.127 50.1748 130.989 50.1748C133.852 50.1748 136.172 52.6366 136.172 55.6734V61.09C136.172 64.0994 138.451 66.5441 141.277 66.588Z" fill="#2D185C"/>
<path d="M126.894 66.4471H140.629C138.504 65.704 136.976 63.5815 136.976 61.09V55.6734C136.976 52.7068 134.711 50.3163 131.935 50.3163C129.158 50.3163 126.894 52.7068 126.894 55.6734V66.4471Z" stroke="black" stroke-width="0.282996"/>
<path d="M110.336 66.5943V66.5889H85.2507C80.9747 66.5889 77.5084 70.2606 77.5084 74.79V106.774H77.9119C77.9242 106.727 77.9464 106.681 77.9798 106.638L79.3296 104.895C79.4807 104.7 79.7751 104.7 79.9261 104.895L80.9331 106.195L81.94 104.895C82.0911 104.7 82.3855 104.7 82.5366 104.895L83.5436 106.195L84.5507 104.895C84.7017 104.7 84.9962 104.7 85.1472 104.895L86.1542 106.195L87.1612 104.895C87.3122 104.7 87.6067 104.7 87.7577 104.895L88.7647 106.195L89.7716 104.895C89.9227 104.7 90.2171 104.7 90.3682 104.895L91.3752 106.195L92.3822 104.895C92.5332 104.7 92.8277 104.7 92.9787 104.895L93.9857 106.195L94.9928 104.895C95.1438 104.7 95.4383 104.7 95.5893 104.895L96.5963 106.195L97.6032 104.895C97.7543 104.7 98.0487 104.7 98.1998 104.895L99.2068 106.195L100.214 104.895C100.365 104.7 100.659 104.7 100.81 104.895L101.817 106.195L102.824 104.895C102.975 104.7 103.27 104.7 103.421 104.895L104.771 106.638C104.804 106.681 104.826 106.727 104.839 106.774H105.381V72.0836C105.381 69.1314 107.579 66.723 110.336 66.5943Z" fill="#BFA1F7"/>
<path d="M76.7085 74.79V106.633H76.8741C76.8887 106.605 76.9062 106.577 76.9265 106.551L78.2763 104.809C78.484 104.541 78.8889 104.541 79.0966 104.809L79.9917 105.964L80.8868 104.809C81.0945 104.541 81.4993 104.541 81.707 104.809L82.6022 105.964L83.4974 104.809C83.7051 104.541 84.11 104.541 84.3177 104.809L85.2128 105.964L86.1079 104.809C86.3156 104.541 86.7205 104.541 86.9282 104.809L87.8233 105.964L88.7184 104.809C88.9261 104.541 89.3309 104.541 89.5386 104.809L90.4338 105.964L91.3289 104.809C91.5366 104.541 91.9415 104.541 92.1492 104.809L93.0443 105.964L93.9395 104.809C94.1472 104.541 94.5521 104.541 94.7598 104.809L95.6549 105.964L96.55 104.809C96.7577 104.541 97.1625 104.541 97.3702 104.809L98.2654 105.964L99.1605 104.809C99.3682 104.541 99.7731 104.541 99.9808 104.809L100.876 105.964L101.771 104.809C101.979 104.541 102.384 104.541 102.591 104.809L103.941 106.551C103.961 106.577 103.979 106.605 103.993 106.633H104.298V72.0836C104.298 69.5937 105.827 67.4731 107.954 66.7304H84.3093C80.119 66.7304 76.7085 70.331 76.7085 74.79Z" stroke="black" stroke-width="0.282996"/>
<path d="M76.7085 74.79V106.633H76.8741C76.8887 106.605 76.9062 106.577 76.9265 106.551L78.2763 104.809C78.484 104.541 78.8889 104.541 79.0966 104.809L79.9917 105.964L80.8868 104.809C81.0945 104.541 81.4993 104.541 81.707 104.809L82.6022 105.964L83.4974 104.809C83.7051 104.541 84.11 104.541 84.3177 104.809L85.2128 105.964L86.1079 104.809C86.3156 104.541 86.7205 104.541 86.9282 104.809L87.8233 105.964L88.7184 104.809C88.9261 104.541 89.3309 104.541 89.5386 104.809L90.4338 105.964L91.3289 104.809C91.5366 104.541 91.9415 104.541 92.1492 104.809L93.0443 105.964L93.9395 104.809C94.1472 104.541 94.5521 104.541 94.7598 104.809L95.6549 105.964L96.55 104.809C96.7577 104.541 97.1625 104.541 97.3702 104.809L98.2654 105.964L99.1605 104.809C99.3682 104.541 99.7731 104.541 99.9808 104.809L100.876 105.964L101.771 104.809C101.979 104.541 102.384 104.541 102.591 104.809L103.941 106.551C103.961 106.577 103.979 106.605 103.993 106.633H104.298V72.0836C104.298 69.5937 105.827 67.4731 107.954 66.7304H84.3093C80.119 66.7304 76.7085 70.331 76.7085 74.79Z" stroke="black" stroke-opacity="0.2" stroke-width="0.282996"/>
<rect width="22.6397" height="1.50931" transform="matrix(-1 0 0 1 143.918 32.4404)" fill="#BFA0F7"/>
<rect width="22.6397" height="1.50931" transform="matrix(-1 0 0 1 143.918 35.459)" fill="#BFA0F7"/>
<rect width="11.5085" height="1.50931" transform="matrix(-1 0 0 1 143.918 38.4775)" fill="#BFA0F7"/>
<rect width="8.67856" height="1.50931" transform="matrix(-1 0 0 1 143.918 41.4961)" fill="#BFA0F7"/>
<rect width="22.6397" height="1.50931" transform="matrix(-1 0 0 1 123.168 56.0234)" fill="#BFA0F7"/>
<rect width="11.5085" height="1.50931" transform="matrix(-1 0 0 1 123.168 59.042)" fill="#BFA0F7"/>
<rect width="8.67856" height="1.50931" transform="matrix(-1 0 0 1 123.168 62.0605)" fill="#BFA0F7"/>
<rect width="22.6397" height="1.50931" transform="matrix(-1 0 0 1 102.414 76.7769)" fill="#F9F6FE"/>
<rect width="11.5085" height="1.50931" transform="matrix(-1 0 0 1 102.414 79.7954)" fill="#F9F6FE"/>
<rect width="8.67856" height="1.50931" transform="matrix(-1 0 0 1 102.414 82.814)" fill="#F9F6FE"/>
<rect width="22.6397" height="1.50931" transform="matrix(1 0 0 -1 79.7734 97.7183)" fill="#F9F6FE"/>
<rect width="11.5085" height="1.50931" transform="matrix(1 0 0 -1 79.7734 94.6997)" fill="#F9F6FE"/>
<rect width="8.67856" height="1.50931" transform="matrix(1 0 0 -1 79.7734 91.6812)" fill="#F9F6FE"/>
<path d="M93.5461 51.8731C93.9622 51.8731 94.3008 51.5345 94.3008 51.1184C94.3008 50.7024 93.9622 50.3638 93.5461 50.3638C93.1301 50.3638 92.7915 50.7024 92.7915 51.1184C92.7915 51.5345 93.1301 51.8731 93.5461 51.8731ZM93.5461 50.5695C93.849 50.5695 94.0951 50.8155 94.0951 51.1184C94.0951 51.4209 93.849 51.6669 93.5461 51.6669C93.2437 51.6669 92.9976 51.4209 92.9976 51.1184C92.9972 50.8155 93.2437 50.5695 93.5461 50.5695Z" fill="#C28AFF"/>
<path d="M142.409 69.4192C143.553 69.4192 144.484 68.4878 144.484 67.3433C144.484 66.1988 143.553 65.2686 142.409 65.2686C141.264 65.2686 140.334 66.1999 140.334 67.3433C140.333 68.4878 141.264 69.4192 142.409 69.4192ZM142.409 65.7401C143.292 65.7401 144.012 66.4594 144.012 67.3433C144.012 68.2273 143.292 68.9465 142.409 68.9465C141.525 68.9465 140.805 68.2273 140.805 67.3433C140.805 66.4594 141.525 65.7401 142.409 65.7401Z" fill="#C28AFF"/>
<path d="M90.4339 43.1947C92.1507 43.1947 93.5469 41.7985 93.5469 40.0817C93.5469 38.3649 92.1507 36.9688 90.4339 36.9688C88.7172 36.9688 87.321 38.3649 87.321 40.0817C87.321 41.7985 88.7172 43.1947 90.4339 43.1947ZM90.4339 37.7378C91.7268 37.7378 92.7778 38.7889 92.7778 40.0817C92.7778 41.3745 91.7268 42.4256 90.4339 42.4256C89.1411 42.4256 88.09 41.3745 88.09 40.0817C88.0882 38.7889 89.1411 37.7378 90.4339 37.7378Z" fill="#FCD91E"/>
<path d="M88.7496 40.6478C88.7478 39.3026 89.843 38.2094 91.1878 38.2094C92.5328 38.2094 93.6261 39.3027 93.6261 40.6476C93.6261 41.9926 92.5328 43.0859 91.1878 43.0859C89.8429 43.0859 88.7496 41.9926 88.7496 40.6478ZM88.7496 40.6478L88.8439 40.6476H88.7496C88.7496 40.6477 88.7496 40.6477 88.7496 40.6478ZM91.1878 43.6663C92.8525 43.6663 94.2064 42.3123 94.2064 40.6476C94.2064 38.983 92.8525 37.629 91.1878 37.629C89.5232 37.629 88.1692 38.983 88.1692 40.6476C88.1692 42.3123 89.5232 43.6663 91.1878 43.6663Z" stroke="black" stroke-width="0.188664"/>
<path d="M117.13 90.7378C116.714 90.7378 116.375 91.0763 116.375 91.4924C116.375 91.9085 116.714 92.2471 117.13 92.2471C117.546 92.2471 117.884 91.9085 117.884 91.4924C117.884 91.0763 117.546 90.7378 117.13 90.7378ZM117.13 92.0414C116.827 92.0414 116.581 91.7953 116.581 91.4924C116.581 91.19 116.827 90.9439 117.13 90.9439C117.432 90.9439 117.678 91.19 117.678 91.4924C117.679 91.7953 117.432 92.0414 117.13 92.0414Z" fill="#C28AFF"/>
<path d="M68.2673 73.1917C67.1227 73.1917 66.1914 74.123 66.1914 75.2675C66.1914 76.412 67.1227 77.3423 68.2673 77.3423C69.4118 77.3423 70.342 76.411 70.342 75.2675C70.3431 74.123 69.4118 73.1917 68.2673 73.1917ZM68.2673 76.8707C67.3833 76.8707 66.6641 76.1515 66.6641 75.2675C66.6641 74.3836 67.3833 73.6643 68.2673 73.6643C69.1512 73.6643 69.8704 74.3836 69.8704 75.2675C69.8704 76.1515 69.1512 76.8707 68.2673 76.8707Z" fill="#C28AFF"/>
<path d="M120.242 99.4162C118.525 99.4162 117.129 100.812 117.129 102.529C117.129 104.246 118.525 105.642 120.242 105.642C121.959 105.642 123.355 104.246 123.355 102.529C123.355 100.812 121.959 99.4162 120.242 99.4162ZM120.242 104.873C118.949 104.873 117.898 103.822 117.898 102.529C117.898 101.236 118.949 100.185 120.242 100.185C121.535 100.185 122.586 101.236 122.586 102.529C122.588 103.822 121.535 104.873 120.242 104.873Z" fill="#FCD91E"/>
<path d="M121.926 101.963C121.928 103.308 120.833 104.401 119.488 104.401C118.143 104.401 117.05 103.308 117.05 101.963C117.05 100.618 118.143 99.525 119.488 99.525C120.833 99.525 121.926 100.618 121.926 101.963ZM121.926 101.963L121.832 101.963H121.926C121.926 101.963 121.926 101.963 121.926 101.963ZM119.488 98.9446C117.823 98.9446 116.469 100.299 116.469 101.963C116.469 103.628 117.823 104.982 119.488 104.982C121.153 104.982 122.507 103.628 122.507 101.963C122.507 100.299 121.153 98.9446 119.488 98.9446Z" stroke="black" stroke-width="0.188664"/>
<path d="M93.6383 63.4757L9.39975 50.7409C3.81529 43.2698 9.33686 32.409 12.7957 28.4785L96.2796 50.7409L113.731 61.5891L93.6383 63.4757Z" fill="#F8F5EF"/>
<path d="M93.6383 63.4757L9.39975 50.7409C3.81529 43.2698 9.33686 32.409 12.7957 28.4785L96.2796 50.7409L113.493 61.4412C113.57 61.4889 113.542 61.6068 113.452 61.6153L93.6383 63.4757Z" stroke="black" stroke-width="0.282996"/>
<path d="M107.505 57.7217C108.637 60.363 107.033 61.9037 106.09 62.344L113.545 61.6166C113.635 61.6079 113.662 61.4895 113.585 61.4423L107.505 57.7217Z" fill="#1D1926" stroke="black" stroke-width="0.282996"/>
<circle cx="77.8506" cy="95.9976" r="15.3041" stroke="#FCD91E" stroke-width="1.13199"/>
<circle cx="76.9795" cy="94.1558" r="15.7286" stroke="black" stroke-width="0.282996"/>
<circle cx="76.9809" cy="94.1557" r="14.4526" stroke="black" stroke-width="0.282996"/>
<rect x="59.5859" y="106.774" width="37.5442" height="4.90527" fill="#FCD91E"/>
<rect x="58.9735" y="107.481" width="37.2612" height="4.62227" stroke="black" stroke-width="0.282996"/>
<path d="M35.2482 80.7383H27.513L26.4336 112.623H42.8192C43.1202 103.52 38.0492 87.9285 35.2482 80.7383Z" fill="#485EEA" stroke="black" stroke-width="0.282996"/>
<path d="M4.59012 107.246C2.92987 93.7375 9.93561 81.1787 13.646 76.5879L28.4562 81.5875C29.368 81.3359 30.9843 82.1346 30.1541 87.3418C29.5388 91.2014 30.0257 102.97 30.6006 112.528H5.16799C5.0276 111.015 4.83821 109.264 4.59012 107.246Z" fill="#485EEA" stroke="black" stroke-width="0.282996"/>
<path d="M31.6626 30.2707C45.5483 29.2142 42.4165 13.9827 39.1148 6.49902C38.3602 13.9513 33.4549 16.0266 29.9646 16.2152C27.1723 16.3662 26.4114 18.1648 26.38 19.0452C26.38 22.1393 24.7449 22.9128 23.9273 22.9128C22.8708 17.0265 19.74 18.6679 19.3994 19.8942C18.2674 23.9693 21.9463 25.7428 23.9273 26.1201C29.059 28.9123 25.4366 33.5095 22.984 35.459C29.0967 38.6285 31.8198 38.2889 32.4172 37.723C31.2098 34.4779 31.411 31.4027 31.6626 30.2707Z" fill="#201E25" stroke="black" stroke-width="0.282996"/>
<path d="M84.6782 65.0795C82.0369 64.4757 78.861 65.2052 77.6033 65.6455L77.1316 64.2305C76.9429 64.199 76.7731 63.9852 77.6033 63.3815C78.6409 62.6268 79.9616 61.7778 81.1879 61.2118C82.4142 60.6458 82.5085 60.6459 83.5462 59.7025C84.5838 58.7592 85.1498 57.9102 85.2442 58.8535C85.3385 59.7969 83.2632 61.7778 83.7349 61.7778C84.2065 61.7778 86.8478 62.3438 87.7911 62.9098C88.7345 63.4758 92.2248 63.6645 93.5454 63.0985C94.6019 62.6457 95.0547 62.9098 95.149 63.0985C92.3191 66.2115 87.9798 65.8341 84.6782 65.0795Z" fill="#1D1926" stroke="black" stroke-width="0.188664"/>
<path d="M85.2421 47.7224C81.9216 41.9116 75.4315 43.1001 72.6016 44.4208L75.6202 45.1754C76.3748 45.3956 78.1106 45.9678 79.0161 46.4961C80.1481 47.1564 80.5255 49.5147 81.0915 49.7977C81.5442 50.0241 81.6574 49.3889 81.6574 49.0431C81.7518 49.7034 81.8461 50.3637 82.5064 50.458C83.0347 50.5335 82.8523 48.8544 82.6951 48.0054C82.6951 47.9111 83.0724 49.3261 82.9781 49.7977C82.8838 50.2694 83.1668 50.741 83.8271 49.9864C84.3553 49.3827 84.0472 48.4142 83.8271 48.0054C83.8271 47.9111 83.8271 48.2884 84.5817 48.6657C85.3364 49.0431 85.3364 48.1941 85.2421 47.7224Z" fill="#1D1926" stroke="black" stroke-width="0.188664"/>
<path d="M15.7212 42.8167C17.161 39.3264 22.0415 35.2072 23.6451 35.1758L31.852 36.9681C35.5309 40.0811 39.1156 58.4758 39.2099 64.7017C39.2854 69.6825 42.6373 80.1722 44.3038 84.7945C43.0775 86.0208 34.4933 90.7374 28.173 86.0208C23.1168 82.2475 15.8155 79.166 12.7969 78.0969C11.514 79.8326 9.9355 82.4676 9.30662 83.5682L5.25036 81.0212C4.13475 80.1931 3.26594 79.4057 2.60904 78.6501C-2.12195 73.2079 4.13893 69.4139 8.36332 63.9471C13.1743 57.7212 12.6083 50.3633 15.7212 42.8167Z" fill="#6215DD"/>
<path d="M12.7969 78.0969C11.514 79.8326 9.9355 82.4676 9.30662 83.5682L5.25036 81.0212C-3.89986 74.2293 3.55238 70.173 8.36332 63.9471C13.1743 57.7212 12.6083 50.3633 15.7212 42.8167C17.161 39.3264 22.0415 35.2072 23.6451 35.1758L31.852 36.9681C35.5309 40.0811 39.1156 58.4758 39.2099 64.7017C39.2854 69.6825 42.6373 80.1722 44.3038 84.7945C43.0775 86.0208 34.4933 90.7374 28.173 86.0208C23.1168 82.2475 15.8155 79.166 12.7969 78.0969ZM12.7969 78.0969C9.30662 76.8608 5.86908 74.8908 3.83536 74.3236C2.45195 73.9378 0.156403 75.2541 2.60904 78.6501" stroke="black" stroke-width="0.282996"/>
<path d="M9.21063 83.4739L5.34115 81.0391C4.81313 80.6559 3.55212 79.6485 2.73219 78.6845C0.309603 75.3123 2.57703 74.0052 3.94349 74.3883C5.9523 74.9516 9.15906 76.8695 12.6066 78.097C11.3394 79.8206 9.83181 82.3811 9.21063 83.4739Z" fill="#3B108F"/>
<path d="M44.6818 80.6441C35.475 83.3609 18.8977 55.6147 14.5898 46.2129L31.947 47.0619C32.7645 47.565 34.9656 50.3069 37.2296 57.2498C39.4935 64.1926 43.141 64.2303 44.6818 63.3813C61.2842 56.6649 72.6041 60.2684 77.6037 63.1927L78.3584 65.7396C70.9061 69.4186 53.8886 77.9274 44.6818 80.6441Z" fill="#6215DD"/>
<path d="M16.0977 52.439C21.9462 65.7398 35.4735 83.361 44.6803 80.6443C53.8871 77.9275 70.9046 69.4187 78.3569 65.7398L77.6022 63.1928C72.6026 60.2685 61.2827 56.665 44.6803 63.3815C43.1395 64.2305 39.492 64.1927 37.2281 57.2499" stroke="black" stroke-width="0.282996"/>
<path d="M31.6641 30.2707C45.5498 29.2142 42.4179 13.9827 39.1163 6.49903C38.3617 13.9513 33.4563 16.0266 29.966 16.2152C27.1738 16.3662 26.4129 18.1648 26.3814 19.0452C26.3814 22.1393 24.7463 22.9128 23.9288 22.9128C22.8723 17.0265 19.8201 18.3849 19.4008 19.8942C18.2689 23.9693 21.9478 25.7428 23.9288 26.1201C30.117 29.3651 26.5072 36.025 23.9288 38.9493L17.7028 39.4209C16.7218 38.4399 16.2879 34.7987 16.1935 33.1007C15.6653 35.3647 16.4136 38.2575 16.8538 39.4209H12.6089C12.0806 39.4209 12.0115 36.7796 12.0429 35.459C11.4392 37.3456 11.7914 38.8864 12.0429 39.4209H8.36399C4.21338 31.9498 11.4141 19.0138 15.5332 13.4796C22.7779 -2.51913 32.6388 0.210217 36.6636 3.57473C38.7704 3.13451 43.2668 4.70672 44.3988 14.5173C45.8138 26.7804 49.6814 23.4788 46.6628 33.8553L42.1349 34.7987C42.5436 34.044 43.3234 32.0819 43.1725 30.2707C42.921 31.4342 42.1349 33.9685 41.0029 34.7987L31.998 36.4023C31.2674 33.6712 31.447 31.2475 31.6641 30.2707Z" fill="#F8F5EF" stroke="black" stroke-width="0.282996"/>
<g style="mix-blend-mode:overlay">
<path d="M62.2266 2.44287L62.2266 87.3418L43.9261 87.3418C20.4819 87.3418 1.47667 68.3365 1.47667 44.8923C1.47667 21.4481 20.4819 2.44287 43.9261 2.44287L62.2266 2.44287Z" fill="#61458D" fill-opacity="0.36" style="mix-blend-mode:hard-light"/>
</g>
<path d="M79.7756 14.5029C78.5459 19.4216 81.1264 23.5857 82.5703 25.0529H75.7932C72.6072 22.3141 72.1833 16.8784 72.3696 14.5029H79.7756Z" fill="#119B48"/>
<path d="M78.6584 13.3853C77.4288 18.3039 80.0092 22.468 81.4531 23.9353H74.676C71.49 21.1965 71.0661 15.7608 71.2525 13.3853H78.6584Z" stroke="black" stroke-width="0.377329"/>
<path d="M79.9844 27.5683C76.7425 25.0531 75.28 20.2788 74.9539 18.2061L68.2466 20.5816C69.3645 25.2767 73.1839 28.267 74.9539 29.1753L79.9844 27.5683Z" fill="#119B48"/>
<path d="M78.8672 26.4506C75.6253 23.9354 74.1628 19.1611 73.8367 17.0884L67.1294 19.4639C68.2473 24.159 72.0667 27.1493 73.8367 28.0576L78.8672 26.4506Z" stroke="black" stroke-width="0.377329"/>
<path d="M78.0273 30.0137C75.7357 29.5666 73.8586 25.5888 73.2065 23.6558L69.1542 26.1011C69.9367 30.2373 72.601 32.1097 73.8353 32.5289L78.0273 30.0137Z" fill="#119B48"/>
<path d="M76.9102 28.896C74.6185 28.4489 72.7414 24.4711 72.0893 22.5381L68.037 24.9835C68.8195 29.1196 71.4838 30.9921 72.7181 31.4113L76.9102 28.896Z" stroke="black" stroke-width="0.377329"/>
</svg>
