<svg width="112" height="118" viewBox="0 0 112 118" fill="none" xmlns="http://www.w3.org/2000/svg">
<path d="M4.90147 2.40097C4.68114 2.68536 4.25167 2.68536 4.03133 2.40097L2.17114 0H1.375V51.0661C1.375 55.2348 4.75444 58.6143 8.92318 58.6143C9.25453 58.6143 9.5809 58.5929 9.90098 58.5515C10.2637 58.593 10.6326 58.6143 11.0065 58.6143H41.9324V0H41.0308L39.1706 2.40097C38.9503 2.68536 38.5208 2.68536 38.3005 2.40097L36.8318 0.50528L35.3631 2.40097C35.1427 2.68536 34.7133 2.68536 34.4929 2.40097L33.0241 0.505108L31.5552 2.40097C31.3349 2.68536 30.9054 2.68536 30.6851 2.40097L29.2163 0.505196L27.7475 2.40097C27.5272 2.68536 27.0977 2.68536 26.8774 2.40097L25.4087 0.50528L23.94 2.40097C23.7196 2.68536 23.2902 2.68536 23.0698 2.40097L21.6011 0.505196L20.1323 2.40097C19.9119 2.68536 19.4825 2.68536 19.2621 2.40097L17.7933 0.505108L16.3244 2.40097C16.1041 2.68536 15.6746 2.68536 15.4543 2.40097L13.9856 0.50528L12.5169 2.40097C12.2965 2.68536 11.8671 2.68536 11.6467 2.40097L10.178 0.505196L8.70917 2.40097C8.48884 2.68536 8.05937 2.68536 7.83903 2.40097L6.37026 0.505196L4.90147 2.40097Z" fill="#5A12DE"/>
<path d="M4.99526 0.729852L6.35527 2.48524C6.63069 2.84072 7.16753 2.84072 7.44294 2.48524L8.80296 0.729852L10.163 2.48524L10.2717 2.40097L10.163 2.48524C10.4384 2.84072 10.9752 2.84072 11.2506 2.48524L12.6106 0.729937L13.9705 2.48524L14.0793 2.40097L13.9705 2.48524C14.246 2.84072 14.7828 2.84072 15.0582 2.48524L16.4183 0.729763L17.7784 2.48524C18.0538 2.84072 18.5906 2.84072 18.866 2.48524L20.2261 0.729851L21.5861 2.48524C21.8615 2.84072 22.3983 2.84072 22.6737 2.48524L24.0337 0.729935L25.3936 2.48524C25.6691 2.84072 26.2059 2.84072 26.4813 2.48524L27.8413 0.729851L29.2013 2.48524C29.4768 2.84072 30.0136 2.84072 30.289 2.48524L31.6491 0.729763L33.0092 2.48524C33.2846 2.84072 33.8214 2.84072 34.0968 2.48524L35.4568 0.729938L36.8167 2.48524C37.0922 2.84072 37.629 2.84072 37.9044 2.48524L39.7233 0.137592H40.4198V58.4767H9.63146C9.26284 58.4767 8.89918 58.4557 8.5416 58.4148L8.52495 58.4129L8.50833 58.415C8.19409 58.4557 7.87362 58.4767 7.54818 58.4767C3.45543 58.4767 0.137592 55.1588 0.137592 51.0661V0.137592H0.728689L2.54757 2.48524C2.82299 2.84072 3.35983 2.84072 3.63524 2.48524M4.99526 0.729852L3.63524 2.48524M4.99526 0.729852L3.63524 2.48524M4.99526 0.729852L3.63524 2.48524M3.63524 2.48524L3.63524 2.48524L3.52647 2.40097L3.63524 2.48524Z" stroke="black" stroke-width="0.275184"/>
<path d="M24.2148 34.6733H60.857C67.0646 34.6733 72.0969 40.0327 72.0969 46.6439V82.5554H39.5011C39.406 82.5554 39.3113 82.5536 39.2171 82.55C39.1248 82.5536 39.0322 82.5554 38.9391 82.5554C34.78 82.5554 31.4084 78.9646 31.4084 74.5352V44.0103H24.2148V34.6733Z" fill="#7F42F0"/>
<path d="M39.0742 82.5544V82.5553H61.6393V66.6345C61.6393 62.205 58.2549 58.6143 54.08 58.6143C49.9051 58.6143 46.5207 62.205 46.5207 66.6345V74.535C46.5207 78.9245 43.1971 82.4904 39.0742 82.5544Z" fill="#4F2AA2"/>
<path d="M60.4041 82.4177H39.8541C43.1443 81.4873 45.5606 78.3055 45.5606 74.535V66.6345C45.5606 62.2733 48.891 58.7518 52.9824 58.7518C57.0737 58.7518 60.4041 62.2733 60.4041 66.6345V82.4177Z" stroke="black" stroke-width="0.275184"/>
<path d="M9.08203 58.6135V58.6144H31.6471V42.6936C31.6471 38.2641 28.2627 34.6733 24.0878 34.6733C19.9129 34.6733 16.5285 38.2641 16.5285 42.6936V50.5941C16.5285 54.9836 13.2049 58.5495 9.08203 58.6135Z" fill="#2D185C"/>
<path d="M30.1346 58.4768H9.58453C12.8748 57.5464 15.2911 54.3646 15.2911 50.5941V42.6936C15.2911 38.3323 18.6215 34.8109 22.7128 34.8109C26.8042 34.8109 30.1346 38.3323 30.1346 42.6936V58.4768Z" stroke="black" stroke-width="0.275184"/>
<path d="M54.2109 58.6222V58.6143H90.8001C97.037 58.6143 102.093 63.9699 102.093 70.5764V117.229H101.504C101.486 117.159 101.454 117.092 101.405 117.029L99.4366 114.488C99.2162 114.203 98.7868 114.203 98.5664 114.488L97.0977 116.384L95.629 114.488C95.4087 114.203 94.9792 114.203 94.7589 114.488L93.29 116.384L91.8212 114.488C91.6008 114.203 91.1714 114.203 90.951 114.488L89.4822 116.384L88.0135 114.488C87.7931 114.203 87.3637 114.203 87.1433 114.488L85.6746 116.384L84.2059 114.488C83.9856 114.203 83.5561 114.203 83.3358 114.488L81.867 116.384L80.3982 114.488C80.1779 114.203 79.7484 114.203 79.5281 114.488L78.0592 116.384L76.5904 114.488C76.37 114.203 75.9406 114.203 75.7202 114.488L74.2515 116.384L72.7828 114.488C72.5625 114.203 72.133 114.203 71.9127 114.488L70.4439 116.384L68.9751 114.488C68.7548 114.203 68.3253 114.203 68.105 114.488L66.6362 116.384L65.1674 114.488C64.9471 114.203 64.5176 114.203 64.2973 114.488L62.3284 117.029C62.2798 117.092 62.2474 117.159 62.2294 117.229H61.4384V66.6289C61.4384 62.3228 58.2325 58.8099 54.2109 58.6222Z" fill="#BFA1F7"/>
<path d="M62.951 117.091V66.6289C62.951 62.861 60.5327 59.6818 57.2398 58.7518H92.1751C98.3286 58.7518 103.33 64.0383 103.33 70.5764V117.091H102.977C102.954 117.04 102.925 116.991 102.889 116.945L100.92 114.404C100.645 114.048 100.108 114.048 99.8327 114.404L98.4727 116.159L97.1128 114.404C96.8374 114.048 96.3005 114.048 96.0251 114.404L94.665 116.159L93.3049 114.404C93.0295 114.048 92.4927 114.048 92.2173 114.404L90.8572 116.159L89.4972 114.404C89.2218 114.048 88.685 114.048 88.4096 114.404L87.0496 116.159L85.6897 114.404C85.4142 114.048 84.8774 114.048 84.602 114.404L83.242 116.159L81.882 114.404C81.6065 114.048 81.0697 114.048 80.7943 114.404L79.4342 116.159L78.0741 114.404C77.7987 114.048 77.2619 114.048 76.9865 114.404L75.6265 116.159L74.2666 114.404C73.9911 114.048 73.4543 114.048 73.1789 114.404L71.8189 116.159L70.4589 114.404C70.1834 114.048 69.6466 114.048 69.3712 114.404L68.0112 116.159L66.6512 114.404C66.3757 114.048 65.8389 114.048 65.5635 114.404L63.5947 116.945C63.5586 116.991 63.5296 117.04 63.5072 117.091H62.951Z" stroke="black" stroke-width="0.275184"/>
<path d="M62.951 117.091V66.6289C62.951 62.861 60.5327 59.6818 57.2398 58.7518H92.1751C98.3286 58.7518 103.33 64.0383 103.33 70.5764V117.091H102.977C102.954 117.04 102.925 116.991 102.889 116.945L100.92 114.404C100.645 114.048 100.108 114.048 99.8327 114.404L98.4727 116.159L97.1128 114.404C96.8374 114.048 96.3005 114.048 96.0251 114.404L94.665 116.159L93.3049 114.404C93.0295 114.048 92.4927 114.048 92.2173 114.404L90.8572 116.159L89.4972 114.404C89.2218 114.048 88.685 114.048 88.4096 114.404L87.0496 116.159L85.6897 114.404C85.4142 114.048 84.8774 114.048 84.602 114.404L83.242 116.159L81.882 114.404C81.6065 114.048 81.0697 114.048 80.7943 114.404L79.4342 116.159L78.0741 114.404C77.7987 114.048 77.2619 114.048 76.9865 114.404L75.6265 116.159L74.2666 114.404C73.9911 114.048 73.4543 114.048 73.1789 114.404L71.8189 116.159L70.4589 114.404C70.1834 114.048 69.6466 114.048 69.3712 114.404L68.0112 116.159L66.6512 114.404C66.3757 114.048 65.8389 114.048 65.5635 114.404L63.5947 116.945C63.5586 116.991 63.5296 117.04 63.5072 117.091H62.951Z" stroke="black" stroke-opacity="0.2" stroke-width="0.275184"/>
<rect x="5.23047" y="8.80566" width="33.0221" height="2.20147" fill="#BFA0F7"/>
<rect x="5.23047" y="13.2085" width="33.0221" height="2.20147" fill="#BFA0F7"/>
<rect x="5.23047" y="17.6113" width="16.7862" height="2.20147" fill="#BFA0F7"/>
<rect x="5.23047" y="22.0146" width="12.6585" height="2.20147" fill="#BFA0F7"/>
<rect x="35.5" y="43.2041" width="33.0221" height="2.20147" fill="#BFA0F7"/>
<rect x="35.5" y="47.6069" width="16.7862" height="2.20147" fill="#BFA0F7"/>
<rect x="35.5" y="52.0098" width="12.6585" height="2.20147" fill="#BFA0F7"/>
<rect x="65.7695" y="73.4741" width="33.0221" height="2.20147" fill="#F9F6FE"/>
<rect x="65.7695" y="77.877" width="16.7862" height="2.20147" fill="#F9F6FE"/>
<rect x="65.7695" y="82.2798" width="12.6585" height="2.20147" fill="#F9F6FE"/>
<rect x="98.793" y="104.02" width="33.0221" height="2.20147" transform="rotate(180 98.793 104.02)" fill="#F9F6FE"/>
<rect x="98.793" y="99.6167" width="16.7862" height="2.20147" transform="rotate(180 98.793 99.6167)" fill="#F9F6FE"/>
<rect x="98.793" y="95.2139" width="12.6585" height="2.20147" transform="rotate(180 98.793 95.2139)" fill="#F9F6FE"/>
<path d="M78.7023 48.157C78.0954 48.157 77.6016 47.6632 77.6016 47.0563C77.6016 46.4494 78.0954 45.9556 78.7023 45.9556C79.3092 45.9556 79.803 46.4494 79.803 47.0563C79.803 47.6632 79.3092 48.157 78.7023 48.157ZM78.7023 46.2556C78.2605 46.2556 77.9016 46.6145 77.9016 47.0563C77.9016 47.4974 78.2605 47.8563 78.7023 47.8563C79.1434 47.8563 79.5023 47.4974 79.5023 47.0563C79.503 46.6145 79.1434 46.2556 78.7023 46.2556Z" fill="#C28AFF"/>
<path d="M7.43016 73.7494C5.76078 73.7494 4.40234 72.3909 4.40234 70.7216C4.40234 69.0522 5.76078 67.6953 7.43016 67.6953C9.09954 67.6953 10.4564 69.0537 10.4564 70.7216C10.458 72.3909 9.09954 73.7494 7.43016 73.7494ZM7.43016 68.3832C6.14082 68.3832 5.09177 69.4322 5.09177 70.7216C5.09177 72.0109 6.14082 73.0599 7.43016 73.0599C8.71949 73.0599 9.76854 72.0109 9.76854 70.7216C9.76854 69.4322 8.71949 68.3832 7.43016 68.3832Z" fill="#C28AFF"/>
<path d="M83.2437 35.4986C80.7396 35.4986 78.7031 33.4621 78.7031 30.958C78.7031 28.454 80.7396 26.4175 83.2437 26.4175C85.7477 26.4175 87.7842 28.454 87.7842 30.958C87.7842 33.4621 85.7477 35.4986 83.2437 35.4986ZM83.2437 27.5392C81.3579 27.5392 79.8248 29.0723 79.8248 30.958C79.8248 32.8437 81.3579 34.3768 83.2437 34.3768C85.1294 34.3768 86.6625 32.8437 86.6625 30.958C86.665 29.0723 85.1294 27.5392 83.2437 27.5392Z" fill="#FCD91E"/>
<path d="M85.6985 31.7839C85.7012 29.8219 84.1036 28.2273 82.1421 28.2273C80.1804 28.2273 78.5857 29.822 78.5857 31.7837C78.5857 33.7454 80.1804 35.3401 82.1421 35.3401C84.1037 35.3401 85.6984 33.7455 85.6985 31.7839ZM85.6985 31.7839L85.5609 31.7837H85.6985C85.6985 31.7838 85.6985 31.7838 85.6985 31.7839ZM82.1421 36.1867C79.714 36.1867 77.7392 34.2118 77.7392 31.7837C77.7392 29.3556 79.714 27.3808 82.1421 27.3808C84.5702 27.3808 86.5451 29.3556 86.5451 31.7837C86.5451 34.2118 84.5702 36.1867 82.1421 36.1867Z" stroke="black" stroke-width="0.275184"/>
<path d="M37.7 89.4348C38.3069 89.4348 38.8008 89.9286 38.8008 90.5355C38.8008 91.1424 38.3069 91.6362 37.7 91.6362C37.0932 91.6362 36.5993 91.1424 36.5993 90.5355C36.5993 89.9286 37.0932 89.4348 37.7 89.4348ZM37.7 91.3362C38.1418 91.3362 38.5008 90.9773 38.5008 90.5355C38.5008 90.0944 38.1418 89.7355 37.7 89.7355C37.2589 89.7355 36.9 90.0944 36.9 90.5355C36.8993 90.9773 37.2589 91.3362 37.7 91.3362Z" fill="#C28AFF"/>
<path d="M108.972 63.8424C110.642 63.8424 112 65.2009 112 66.8702C112 68.5396 110.642 69.8965 108.972 69.8965C107.303 69.8965 105.946 68.538 105.946 66.8702C105.944 65.2009 107.303 63.8424 108.972 63.8424ZM108.972 69.2086C110.262 69.2086 111.311 68.1596 111.311 66.8702C111.311 65.5809 110.262 64.5319 108.972 64.5319C107.683 64.5319 106.634 65.5809 106.634 66.8702C106.634 68.1596 107.683 69.2086 108.972 69.2086Z" fill="#C28AFF"/>
<path d="M33.1587 102.093C35.6628 102.093 37.6992 104.13 37.6992 106.634C37.6992 109.138 35.6628 111.174 33.1587 111.174C30.6546 111.174 28.6181 109.138 28.6181 106.634C28.6181 104.13 30.6546 102.093 33.1587 102.093ZM33.1587 110.053C35.0444 110.053 36.5775 108.519 36.5775 106.634C36.5775 104.748 35.0444 103.215 33.1587 103.215C31.273 103.215 29.7399 104.748 29.7399 106.634C29.7373 108.519 31.273 110.053 33.1587 110.053Z" fill="#FCD91E"/>
<path d="M30.7038 105.808C30.7012 107.77 32.2987 109.365 34.2603 109.365C36.222 109.365 37.8167 107.77 37.8167 105.808C37.8167 103.846 36.222 102.252 34.2603 102.252C32.2986 102.252 30.7039 103.846 30.7038 105.808ZM30.7038 105.808L30.8414 105.808H30.7038C30.7038 105.808 30.7038 105.808 30.7038 105.808ZM34.2603 101.405C36.6883 101.405 38.6632 103.38 38.6632 105.808C38.6632 108.236 36.6883 110.211 34.2603 110.211C31.8322 110.211 29.8573 108.236 29.8573 105.808C29.8573 103.38 31.8322 101.405 34.2603 101.405Z" stroke="black" stroke-width="0.275184"/>
</svg>
