<svg width="32" height="32" viewBox="0 0 32 32" fill="none" xmlns="http://www.w3.org/2000/svg">
<rect width="32" height="32" rx="16" fill="#ECEFF3"/>
<path opacity="0.4" d="M9.05859 8.08325V18.0583C9.05859 18.8749 9.44193 19.6499 10.1003 20.1416L14.4419 23.3916C15.3669 24.0832 16.6419 24.0832 17.5669 23.3916L21.9086 20.1416C22.5669 19.6499 22.9502 18.8749 22.9502 18.0583V8.08325H9.05859Z" fill="#667085"/>
<path d="M24.3346 8.70825H7.66797C7.3263 8.70825 7.04297 8.42492 7.04297 8.08325C7.04297 7.74159 7.3263 7.45825 7.66797 7.45825H24.3346C24.6763 7.45825 24.9596 7.74159 24.9596 8.08325C24.9596 8.42492 24.6763 8.70825 24.3346 8.70825Z" fill="#667085"/>
<path d="M19.3346 13.2917H12.668C12.3263 13.2917 12.043 13.0084 12.043 12.6667C12.043 12.3251 12.3263 12.0417 12.668 12.0417H19.3346C19.6763 12.0417 19.9596 12.3251 19.9596 12.6667C19.9596 13.0084 19.6763 13.2917 19.3346 13.2917Z" fill="#667085"/>
<path d="M19.3346 17.4583H12.668C12.3263 17.4583 12.043 17.1749 12.043 16.8333C12.043 16.4916 12.3263 16.2083 12.668 16.2083H19.3346C19.6763 16.2083 19.9596 16.4916 19.9596 16.8333C19.9596 17.1749 19.6763 17.4583 19.3346 17.4583Z" fill="#667085"/>
</svg>
