<svg width="20" height="22" viewBox="0 0 20 22" fill="none" xmlns="http://www.w3.org/2000/svg">
<path d="M12.4993 14.9167C12.4993 17.9083 10.0743 20.3333 7.08268 20.3333C4.09102 20.3333 1.66602 17.9083 1.66602 14.9167C1.66602 11.925 4.09102 9.5 7.08268 9.5C7.22435 9.5 7.37434 9.50834 7.51601 9.51667C10.1577 9.725 12.2744 11.8417 12.4827 14.4833C12.491 14.625 12.4993 14.775 12.4993 14.9167Z" fill="#667085"/>
<path opacity="0.4" d="M18.3333 9.08342C18.3333 12.0751 15.9083 14.5001 12.9167 14.5001C12.775 14.5001 12.625 14.4917 12.4833 14.4834C12.275 11.8417 10.1583 9.72509 7.51666 9.51675C7.50832 9.37509 7.5 9.22508 7.5 9.08342C7.5 6.09175 9.925 3.66675 12.9167 3.66675C15.9083 3.66675 18.3333 6.09175 18.3333 9.08342Z" fill="#667085"/>
<path d="M4.65768 3.66675H2.49935C2.04102 3.66675 1.66602 4.04175 1.66602 4.50008V6.65841C1.66602 7.40008 2.56601 7.77508 3.09101 7.25008L5.24934 5.09175C5.76601 4.56675 5.39935 3.66675 4.65768 3.66675Z" fill="#667085"/>
<path d="M15.3408 20.3335H17.4991C17.9574 20.3335 18.3324 19.9585 18.3324 19.5001V17.3418C18.3324 16.6001 17.4325 16.2251 16.9075 16.7501L14.7491 18.9085C14.2325 19.4335 14.5991 20.3335 15.3408 20.3335Z" fill="#667085"/>
</svg>
