<svg width="20" height="22" viewBox="0 0 20 22" fill="none" xmlns="http://www.w3.org/2000/svg">
<path opacity="0.4" d="M16.6999 7.68324L11.8999 4.32491C10.5915 3.40824 8.5832 3.45824 7.32487 4.43324L3.14987 7.69157C2.31654 8.34157 1.6582 9.67491 1.6582 10.7249V16.4749C1.6582 18.5999 3.3832 20.3332 5.5082 20.3332H14.4915C16.6165 20.3332 18.3415 18.6082 18.3415 16.4832V10.8332C18.3415 9.70824 17.6165 8.32491 16.6999 7.68324Z" fill="#667085"/>
<path d="M14.0254 11.3915C13.9671 11.2499 13.8504 11.1332 13.7087 11.0749C13.6337 11.0415 13.5587 11.0332 13.4837 11.0332H11.9337C11.6087 11.0332 11.3504 11.2915 11.3504 11.6165C11.3504 11.9415 11.6087 12.1999 11.9337 12.1999H12.0837L10.3254 13.9582L9.47539 12.6915C9.37539 12.5499 9.22539 12.4499 9.05039 12.4332C8.86706 12.4165 8.70872 12.4749 8.58372 12.5999L6.10039 15.0832C5.87539 15.3082 5.87539 15.6749 6.10039 15.9082C6.21706 16.0249 6.35872 16.0749 6.50872 16.0749C6.65872 16.0749 6.80872 16.0165 6.91706 15.9082L8.90039 13.9249L9.75039 15.1915C9.85039 15.3332 10.0004 15.4332 10.1754 15.4499C10.3587 15.4665 10.5171 15.4082 10.6421 15.2832L12.9087 13.0165V13.1665C12.9087 13.4915 13.1671 13.7499 13.4921 13.7499C13.8171 13.7499 14.0754 13.4915 14.0754 13.1665V11.6165C14.0671 11.5332 14.0587 11.4582 14.0254 11.3915Z" fill="#667085"/>
</svg>
