<svg width="16" height="18" viewBox="0 0 16 18" fill="none" xmlns="http://www.w3.org/2000/svg">
<path d="M6.33333 10.6667C6.33333 11.3134 6.83334 11.8334 7.44667 11.8334H8.69999C9.23332 11.8334 9.66666 11.3801 9.66666 10.8134C9.66666 10.2067 9.4 9.98673 9.00667 9.84673L6.99999 9.14673C6.60666 9.00673 6.34 8.7934 6.34 8.18006C6.34 7.62006 6.77332 7.16006 7.30666 7.16006H8.55999C9.17333 7.16006 9.67333 7.68006 9.67333 8.32673" stroke="#98A2B3" stroke-linecap="round" stroke-linejoin="round"/>
<path d="M7.99999 6.50006V12.5001" stroke="#98A2B3" stroke-linecap="round" stroke-linejoin="round"/>
<path d="M14.6667 9.50006C14.6667 13.1801 11.68 16.1667 8 16.1667C4.32 16.1667 1.33334 13.1801 1.33334 9.50006C1.33334 5.82006 4.32 2.83339 8 2.83339" stroke="#98A2B3" stroke-linecap="round" stroke-linejoin="round"/>
<path d="M14.6667 5.50006V2.83339H12" stroke="#98A2B3" stroke-linecap="round" stroke-linejoin="round"/>
<path d="M11.3333 6.16672L14.6667 2.83339" stroke="#98A2B3" stroke-linecap="round" stroke-linejoin="round"/>
</svg>
