<svg width="20" height="20" viewBox="0 0 20 20" fill="none" xmlns="http://www.w3.org/2000/svg">
<path opacity="0.4" d="M10.0001 18.3334C14.6025 18.3334 18.3334 14.6025 18.3334 10.0001C18.3334 5.39771 14.6025 1.66675 10.0001 1.66675C5.39771 1.66675 1.66675 5.39771 1.66675 10.0001C1.66675 14.6025 5.39771 18.3334 10.0001 18.3334Z" fill="#667085"/>
<path d="M10.0001 16.4584C6.44175 16.4584 3.54175 13.5584 3.54175 10.0001C3.54175 9.65841 3.82508 9.37508 4.16675 9.37508C4.50841 9.37508 4.79175 9.65841 4.79175 10.0001C4.79175 12.8751 7.12508 15.2084 10.0001 15.2084C12.8751 15.2084 15.2084 12.8751 15.2084 10.0001C15.2084 7.12508 12.8751 4.79175 10.0001 4.79175C9.65841 4.79175 9.37508 4.50841 9.37508 4.16675C9.37508 3.82508 9.65841 3.54175 10.0001 3.54175C13.5584 3.54175 16.4584 6.44175 16.4584 10.0001C16.4584 13.5584 13.5584 16.4584 10.0001 16.4584Z" fill="#667085"/>
<path d="M10 13.9584C9.65833 13.9584 9.375 13.6751 9.375 13.3334C9.375 12.9917 9.65833 12.7084 10 12.7084C11.4917 12.7084 12.7083 11.4917 12.7083 10.0001C12.7083 8.50841 11.4917 7.29175 10 7.29175C9.65833 7.29175 9.375 7.00841 9.375 6.66675C9.375 6.32508 9.65833 6.04175 10 6.04175C12.1833 6.04175 13.9583 7.81675 13.9583 10.0001C13.9583 12.1834 12.1833 13.9584 10 13.9584Z" fill="#667085"/>
</svg>
