<svg width="280" height="40" viewBox="0 0 280 40" fill="none" xmlns="http://www.w3.org/2000/svg">
<rect width="40.0001" height="40" transform="translate(24)" fill="white"/>
<path d="M51.7693 6.66675H36.004C33.9802 6.66675 32.334 8.18028 32.334 10.0411V10.8151C32.334 12.6759 33.9802 14.1894 36.0031 14.1894L44.8958 14.2133C45.0335 14.2139 45.1655 14.2702 45.2627 14.3701C45.36 14.47 45.4146 14.6052 45.4146 14.7462C45.4146 14.8873 45.3598 15.0226 45.2623 15.1224C45.1649 15.2221 45.0327 15.2782 44.8948 15.2782H43.2888V15.2734L42.3868 15.2868C42.1177 15.2818 41.8504 15.3319 41.6006 15.4341C41.3507 15.5363 41.1233 15.6886 40.9317 15.882C40.7401 16.0754 40.5882 16.306 40.485 16.5603C40.3817 16.8146 40.3291 17.0875 40.3302 17.3629V30.7397C40.3302 31.4276 40.5972 32.0873 41.0725 32.5737C41.5477 33.0601 42.1923 33.3334 42.8644 33.3334H45.1482C45.4809 33.3335 45.8104 33.2665 46.1179 33.1363C46.4253 33.0061 46.7047 32.8151 46.9401 32.5743C47.1754 32.3336 47.3621 32.0477 47.4895 31.7331C47.6168 31.4184 47.6824 31.0812 47.6824 30.7407V18.1273C47.6824 17.9862 47.7371 17.8509 47.8346 17.7511C47.9321 17.6514 48.0643 17.5953 48.2021 17.5953H51.2926C52.4528 17.5953 53.5656 17.1236 54.386 16.2839C55.2065 15.4443 55.6674 14.3054 55.6674 13.1179V10.6572C55.6662 9.59944 55.2551 8.58532 54.5244 7.83727C53.7936 7.08921 52.8028 6.66827 51.7693 6.66675ZM44.5237 31.0114H43.6123C43.4793 31.0115 43.3475 30.9848 43.2246 30.9328C43.1016 30.8808 42.9899 30.8045 42.8958 30.7083C42.8017 30.6121 42.7271 30.4978 42.6761 30.372C42.6252 30.2462 42.599 30.1114 42.599 29.9753V18.1273C42.599 17.9862 42.6537 17.8509 42.7512 17.7511C42.8487 17.6514 42.9809 17.5953 43.1187 17.5953H44.8948C45.0327 17.5953 45.1649 17.6514 45.2623 17.7511C45.3598 17.8509 45.4146 17.9862 45.4146 18.1273V30.1006C45.4146 30.2203 45.3915 30.3388 45.3467 30.4494C45.302 30.56 45.2363 30.6604 45.1536 30.745C45.0708 30.8296 44.9726 30.8967 44.8646 30.9424C44.7565 30.9881 44.6407 31.0115 44.5237 31.0114ZM53.3996 13.6049C53.3991 14.0472 53.2272 14.4713 52.9215 14.7841C52.6159 15.0969 52.2015 15.2729 51.7693 15.2734H48.204C48.0659 15.2734 47.9335 15.2172 47.8358 15.1173C47.7382 15.0174 47.6833 14.8818 47.6833 14.7405V13.7685C47.6834 13.5189 47.6355 13.2717 47.5423 13.0411C47.449 12.8104 47.3123 12.6009 47.1399 12.4243C46.9675 12.2478 46.7628 12.1077 46.5375 12.0122C46.3122 11.9166 46.0707 11.8675 45.8268 11.8675H36.004C35.3431 11.8675 34.8056 11.3949 34.8056 10.8151V10.0401C34.8056 9.45941 35.3431 8.98775 36.004 8.98775H51.7693C52.2015 8.98825 52.6159 9.16421 52.9215 9.47701C53.2272 9.7898 53.3991 10.2139 53.3996 10.6563V13.6049Z" fill="#6F00FF"/>
<path d="M68.576 13.2H81.704V15.648H76.52V30H73.76V15.648H68.576V13.2ZM89.1656 17.712V20.136H88.0136C86.9336 20.136 86.1656 20.496 85.6856 21.192C85.2056 21.888 84.9656 22.776 84.9656 23.832V30H82.3736V17.712H84.6776L84.9656 19.56C85.3016 18.984 85.7576 18.552 86.3336 18.216C86.8856 17.88 87.6296 17.712 88.5896 17.712H89.1656ZM102.102 27.744V30H100.734C99.9183 30 99.3423 29.832 99.0063 29.496C98.6463 29.16 98.4783 28.68 98.4783 28.032C97.5423 29.448 96.1983 30.144 94.4223 30.144C93.0303 30.144 91.9263 29.832 91.1103 29.184C90.2703 28.56 89.8623 27.672 89.8623 26.544C89.8623 25.296 90.2943 24.312 91.2063 23.64C92.0943 22.968 93.3903 22.608 95.1183 22.608H98.2143V21.864C98.2143 21.192 97.9743 20.64 97.4943 20.256C97.0143 19.872 96.3423 19.656 95.5023 19.656C94.7343 19.656 94.1103 19.824 93.6303 20.16C93.1503 20.496 92.8623 20.928 92.7663 21.456H90.2223C90.3423 20.232 90.8943 19.272 91.8543 18.6C92.8143 17.928 94.0623 17.568 95.6223 17.568C97.2543 17.568 98.5263 17.952 99.4383 18.72C100.326 19.488 100.782 20.592 100.782 22.032V26.88C100.782 27.456 101.046 27.744 101.598 27.744H102.102ZM98.2143 24.528H94.9983C94.1823 24.528 93.5823 24.696 93.1503 25.008C92.7183 25.32 92.5023 25.776 92.5023 26.376C92.5023 26.904 92.6943 27.336 93.1023 27.648C93.5103 27.984 94.0623 28.128 94.7823 28.128C95.8383 28.128 96.6783 27.84 97.2783 27.264C97.8783 26.688 98.1903 25.92 98.2143 24.96V24.528ZM115.442 13.2V30H113.186L112.874 28.152C111.89 29.496 110.546 30.144 108.866 30.144C107.738 30.144 106.73 29.904 105.866 29.4C104.978 28.896 104.282 28.176 103.802 27.216C103.298 26.256 103.058 25.152 103.058 23.856C103.058 22.608 103.298 21.528 103.802 20.568C104.306 19.608 105.002 18.888 105.89 18.36C106.754 17.832 107.762 17.568 108.866 17.568C109.754 17.568 110.546 17.736 111.218 18.072C111.89 18.408 112.418 18.84 112.85 19.416V13.2H115.442ZM111.89 26.832C112.538 26.088 112.874 25.104 112.874 23.904C112.874 22.68 112.538 21.696 111.89 20.928C111.218 20.16 110.354 19.776 109.298 19.776C108.218 19.776 107.354 20.16 106.706 20.928C106.034 21.696 105.722 22.656 105.722 23.856C105.722 25.08 106.034 26.064 106.706 26.832C107.354 27.6 108.218 27.96 109.298 27.96C110.354 27.96 111.218 27.6 111.89 26.832ZM118.263 20.568C118.767 19.608 119.463 18.888 120.375 18.36C121.287 17.832 122.319 17.568 123.495 17.568C124.671 17.568 125.703 17.808 126.615 18.288C127.527 18.768 128.223 19.464 128.751 20.328C129.279 21.216 129.543 22.248 129.567 23.424C129.567 23.76 129.543 24.072 129.495 24.408H120.231V24.552C120.279 25.632 120.615 26.472 121.239 27.096C121.839 27.72 122.655 28.032 123.663 28.032C124.455 28.032 125.127 27.864 125.679 27.48C126.207 27.096 126.567 26.568 126.759 25.872H129.351C129.111 27.12 128.511 28.152 127.527 28.944C126.543 29.76 125.319 30.144 123.855 30.144C122.559 30.144 121.455 29.904 120.495 29.376C119.535 28.848 118.815 28.128 118.287 27.168C117.759 26.232 117.519 25.128 117.519 23.88C117.519 22.632 117.759 21.528 118.263 20.568ZM126.927 22.512C126.807 21.624 126.447 20.928 125.847 20.424C125.247 19.92 124.503 19.656 123.591 19.656C122.727 19.656 122.007 19.92 121.383 20.448C120.759 20.976 120.423 21.648 120.327 22.512H126.927ZM136.651 13.2H139.579L144.211 26.688L148.891 13.2H151.747L145.867 30H142.555L136.651 13.2ZM163.679 17.712V30H161.399L161.111 28.44C160.175 29.592 158.903 30.144 157.319 30.144C155.879 30.144 154.703 29.712 153.815 28.8C152.903 27.912 152.471 26.472 152.471 24.48V17.712H155.063V24.216C155.063 25.416 155.303 26.328 155.783 26.952C156.263 27.576 156.959 27.888 157.919 27.888C158.903 27.888 159.671 27.528 160.247 26.808C160.799 26.088 161.087 25.08 161.087 23.808V17.712H163.679Z" fill="#344054"/>
</svg>
