<svg width="20" height="22" viewBox="0 0 20 22" fill="none" xmlns="http://www.w3.org/2000/svg">
<path d="M13.4917 3.66675H6.50841C3.47508 3.66675 1.66675 5.47508 1.66675 8.50841V15.4834C1.66675 18.5251 3.47508 20.3334 6.50841 20.3334H13.4834C16.5167 20.3334 18.3251 18.5251 18.3251 15.4917V8.50841C18.3334 5.47508 16.5251 3.66675 13.4917 3.66675ZM14.7417 13.7084C14.7084 13.7834 14.6667 13.8501 14.6084 13.9084L12.1501 16.3667C12.0251 16.4917 11.8667 16.5501 11.7084 16.5501C11.5501 16.5501 11.3917 16.4917 11.2667 16.3667C11.0251 16.1251 11.0251 15.7251 11.2667 15.4834L12.6584 14.0917H5.83341C5.49175 14.0917 5.20841 13.8084 5.20841 13.4667C5.20841 13.1251 5.49175 12.8417 5.83341 12.8417H14.1667C14.2501 12.8417 14.3251 12.8584 14.4084 12.8917C14.5584 12.9584 14.6834 13.0751 14.7501 13.2334C14.8084 13.3834 14.8084 13.5501 14.7417 13.7084ZM14.1667 11.1584H5.83341C5.75008 11.1584 5.67508 11.1417 5.59175 11.1084C5.44175 11.0417 5.31675 10.9251 5.25008 10.7667C5.18341 10.6167 5.18341 10.4417 5.25008 10.2917C5.29175 10.2167 5.33341 10.1501 5.39175 10.0917L7.85008 7.63341C8.09175 7.39175 8.49175 7.39175 8.73341 7.63341C8.97508 7.87508 8.97508 8.27508 8.73341 8.51675L7.34175 9.90841H14.1667C14.5084 9.90841 14.7917 10.1917 14.7917 10.5334C14.7917 10.8751 14.5084 11.1584 14.1667 11.1584Z" fill="#6F00FF"/>
</svg>
