<svg width="20" height="20" viewBox="0 0 20 20" fill="none" xmlns="http://www.w3.org/2000/svg">
<path opacity="0.4" d="M9.99996 18.3334C14.6025 18.3334 18.3333 14.6026 18.3333 10.0001C18.3333 5.39758 14.6025 1.66675 9.99996 1.66675C5.39746 1.66675 1.66663 5.39758 1.66663 10.0001C1.66663 14.6026 5.39746 18.3334 9.99996 18.3334Z" fill="#667085"/>
<path d="M12.3567 9.41083L10.59 7.64333C10.5126 7.56585 10.4207 7.50438 10.3195 7.46245C10.2184 7.42051 10.1099 7.39893 10.0004 7.39893C9.8909 7.39893 9.78246 7.42051 9.6813 7.46245C9.58013 7.50438 9.48823 7.56585 9.41083 7.64333L7.64333 9.41083C7.56585 9.48823 7.50438 9.58013 7.46245 9.6813C7.42051 9.78246 7.39893 9.8909 7.39893 10.0004C7.39893 10.1099 7.42051 10.2184 7.46245 10.3195C7.50438 10.4207 7.56585 10.5126 7.64333 10.59L9.41 12.3567C9.48739 12.4341 9.5793 12.4956 9.68046 12.5375C9.78163 12.5795 9.89007 12.6011 9.99958 12.6011C10.1091 12.6011 10.2175 12.5795 10.3187 12.5375C10.4199 12.4956 10.5118 12.4341 10.5892 12.3567L12.3567 10.59C12.4341 10.5126 12.4956 10.4207 12.5375 10.3195C12.5795 10.2184 12.6011 10.1099 12.6011 10.0004C12.6011 9.8909 12.5795 9.78246 12.5375 9.6813C12.4956 9.58013 12.4341 9.48823 12.3567 9.41083Z" fill="#667085"/>
</svg>
