<svg width="20" height="22" viewBox="0 0 20 22" fill="none" xmlns="http://www.w3.org/2000/svg">
<path d="M16.2584 6.87508L11.3083 4.01675C10.5 3.55008 9.50002 3.55008 8.68335 4.01675L3.74168 6.87508C2.93335 7.34175 2.43335 8.20842 2.43335 9.15008V14.8501C2.43335 15.7834 2.93335 16.6501 3.74168 17.1251L8.69168 19.9834C9.50002 20.4501 10.5 20.4501 11.3167 19.9834L16.2667 17.1251C17.075 16.6584 17.575 15.7917 17.575 14.8501V9.15008C17.5667 8.20842 17.0667 7.35008 16.2584 6.87508ZM10 8.11675C11.075 8.11675 11.9417 8.98342 11.9417 10.0584C11.9417 11.1334 11.075 12.0001 10 12.0001C8.92502 12.0001 8.05835 11.1334 8.05835 10.0584C8.05835 8.99175 8.92502 8.11675 10 8.11675ZM12.2333 15.8834H7.76668C7.09168 15.8834 6.70002 15.1334 7.07502 14.5751C7.64168 13.7334 8.74168 13.1667 10 13.1667C11.2584 13.1667 12.3583 13.7334 12.925 14.5751C13.3 15.1251 12.9 15.8834 12.2333 15.8834Z" fill="#6F00FF"/>
</svg>
