<svg width="20" height="22" viewBox="0 0 20 22" fill="none" xmlns="http://www.w3.org/2000/svg">
<path d="M16.6999 7.68349L11.8999 4.32515C10.5915 3.40848 8.5832 3.45848 7.32487 4.43348L3.14987 7.69182C2.31654 8.34182 1.6582 9.67515 1.6582 10.7252V16.4752C1.6582 18.6002 3.3832 20.3335 5.5082 20.3335H14.4915C16.6165 20.3335 18.3415 18.6085 18.3415 16.4835V10.8335C18.3415 9.70849 17.6165 8.32515 16.6999 7.68349ZM14.0665 13.1668C14.0665 13.4918 13.8082 13.7502 13.4832 13.7502C13.1582 13.7502 12.8999 13.4918 12.8999 13.1668V13.0168L10.6332 15.2835C10.5082 15.4085 10.3415 15.4668 10.1665 15.4502C9.99987 15.4335 9.84154 15.3335 9.74987 15.1918L8.89987 13.9252L6.91654 15.9085C6.79987 16.0252 6.6582 16.0752 6.5082 16.0752C6.3582 16.0752 6.2082 16.0168 6.09987 15.9085C5.87487 15.6835 5.87487 15.3168 6.09987 15.0835L8.5832 12.6002C8.7082 12.4752 8.87487 12.4168 9.04987 12.4335C9.22487 12.4502 9.3832 12.5418 9.47487 12.6918L10.3249 13.9585L12.0832 12.2002H11.9332C11.6082 12.2002 11.3499 11.9418 11.3499 11.6168C11.3499 11.2918 11.6082 11.0335 11.9332 11.0335H13.4832C13.5582 11.0335 13.6332 11.0502 13.7082 11.0752C13.8499 11.1335 13.9665 11.2502 14.0249 11.3918C14.0582 11.4668 14.0665 11.5418 14.0665 11.6168V13.1668Z" fill="#6F00FF"/>
</svg>
