<svg width="20" height="22" viewBox="0 0 20 22" fill="none" xmlns="http://www.w3.org/2000/svg">
<path opacity="0.4" d="M17.5667 9.15011V14.8501C17.5667 15.7834 17.0667 16.6501 16.2584 17.1251L11.3084 19.9834C10.5 20.4501 9.50005 20.4501 8.68338 19.9834L3.73338 17.1251C2.92505 16.6585 2.42505 15.7917 2.42505 14.8501V9.15011C2.42505 8.21678 2.92505 7.35008 3.73338 6.87508L8.68338 4.01675C9.49172 3.55008 10.4917 3.55008 11.3084 4.01675L16.2584 6.87508C17.0667 7.35008 17.5667 8.20844 17.5667 9.15011Z" fill="#667085"/>
<path d="M10 12.0001C11.0724 12.0001 11.9417 11.1308 11.9417 10.0585C11.9417 8.9861 11.0724 8.11682 10 8.11682C8.92766 8.11682 8.05835 8.9861 8.05835 10.0585C8.05835 11.1308 8.92766 12.0001 10 12.0001Z" fill="#667085"/>
<path d="M12.2334 15.8835C12.9084 15.8835 13.3001 15.1335 12.9251 14.5752C12.3584 13.7335 11.2584 13.1669 10.0001 13.1669C8.74172 13.1669 7.64172 13.7335 7.07505 14.5752C6.70005 15.1335 7.09172 15.8835 7.76672 15.8835H12.2334Z" fill="#667085"/>
</svg>
