<svg width="20" height="23" viewBox="0 0 20 23" fill="none" xmlns="http://www.w3.org/2000/svg">
<path opacity="0.4" d="M6.50817 4.16699H13.4832C16.5248 4.16699 18.3332 5.97533 18.3332 9.00866V15.9837C18.3332 19.017 16.5248 20.8253 13.4915 20.8253H6.50817C3.47484 20.8337 1.6665 19.0253 1.6665 15.992V9.00866C1.6665 5.97533 3.47484 4.16699 6.50817 4.16699Z" fill="#667085"/>
<path d="M14.7418 13.7335C14.6752 13.5835 14.5585 13.4585 14.4002 13.3918C14.3252 13.3585 14.2418 13.3418 14.1585 13.3418H5.8335C5.49183 13.3418 5.2085 13.6251 5.2085 13.9668C5.2085 14.3085 5.49183 14.5918 5.8335 14.5918H12.6585L11.2668 15.9835C11.0252 16.2251 11.0252 16.6251 11.2668 16.8668C11.3918 16.9918 11.5502 17.0501 11.7085 17.0501C11.8668 17.0501 12.0252 16.9918 12.1502 16.8668L14.6085 14.4085C14.6668 14.3501 14.7085 14.2835 14.7418 14.2085C14.8085 14.0501 14.8085 13.8835 14.7418 13.7335Z" fill="#667085"/>
<path d="M5.2585 11.2667C5.32516 11.4167 5.44183 11.5417 5.60016 11.6084C5.67516 11.6417 5.75016 11.6584 5.8335 11.6584H14.1668C14.5085 11.6584 14.7918 11.3751 14.7918 11.0334C14.7918 10.6917 14.5085 10.4084 14.1668 10.4084H7.34183L8.7335 9.01673C8.97516 8.77506 8.97516 8.37507 8.7335 8.1334C8.49183 7.89173 8.09183 7.89173 7.85016 8.1334L5.39183 10.5917C5.3335 10.6501 5.29183 10.7167 5.2585 10.7917C5.19183 10.9501 5.19183 11.1167 5.2585 11.2667Z" fill="#667085"/>
</svg>
