<svg width="32" height="32" viewBox="0 0 32 32" fill="none" xmlns="http://www.w3.org/2000/svg">
<rect width="32" height="32" rx="16" fill="#F4F0FF"/>
<path d="M22.6673 23.5V21.8333C22.6673 20.9493 22.3161 20.1014 21.691 19.4763C21.0659 18.8512 20.218 18.5 19.334 18.5H12.6673C11.7833 18.5 10.9354 18.8512 10.3103 19.4763C9.68517 20.1014 9.33398 20.9493 9.33398 21.8333V23.5M19.334 11.8333C19.334 13.6743 17.8416 15.1667 16.0007 15.1667C14.1597 15.1667 12.6673 13.6743 12.6673 11.8333C12.6673 9.99238 14.1597 8.5 16.0007 8.5C17.8416 8.5 19.334 9.99238 19.334 11.8333Z" stroke="#7F56D9" stroke-width="1.66667" stroke-linecap="round" stroke-linejoin="round"/>
</svg>
