<svg width="20" height="20" viewBox="0 0 20 20" fill="none" xmlns="http://www.w3.org/2000/svg">
<path opacity="0.4" d="M9.99935 18.3417C14.6017 18.3417 18.3327 14.6108 18.3327 10.0084C18.3327 5.40601 14.6017 1.67505 9.99935 1.67505C5.39698 1.67505 1.66602 5.40601 1.66602 10.0084C1.66602 14.6108 5.39698 18.3417 9.99935 18.3417Z" fill="#667085"/>
<path d="M10 5.7832C8.275 5.7832 6.875 7.1832 6.875 8.9082C6.875 10.5999 8.2 11.9749 9.95833 12.0249C9.98333 12.0249 10.0167 12.0249 10.0333 12.0249C10.05 12.0249 10.075 12.0249 10.0917 12.0249C10.1 12.0249 10.1083 12.0249 10.1083 12.0249C11.7917 11.9665 13.1167 10.5999 13.125 8.9082C13.125 7.1832 11.725 5.7832 10 5.7832Z" fill="#667085"/>
<path d="M15.6496 16.1333C14.1663 17.5 12.1829 18.3416 9.99961 18.3416C7.81628 18.3416 5.83294 17.5 4.34961 16.1333C4.54961 15.375 5.09128 14.6833 5.88294 14.15C8.15794 12.6333 11.8579 12.6333 14.1163 14.15C14.9163 14.6833 15.4496 15.375 15.6496 16.1333Z" fill="#667085"/>
</svg>
