<svg width="29" height="33" viewBox="0 0 29 33" fill="none" xmlns="http://www.w3.org/2000/svg">
<g clip-path="url(#clip0_228_7346)">
<path d="M23.8635 0.333008H4.50459C2.02046 0.333008 0 2.14682 0 4.37865V5.30838C0 7.54021 2.02046 9.35643 4.50459 9.35643L15.4189 9.38285C15.5878 9.38412 15.7494 9.45193 15.8686 9.57157C15.9877 9.69121 16.0549 9.85302 16.0556 10.0219C16.0556 10.1058 16.039 10.1889 16.0069 10.2664C15.9748 10.344 15.9277 10.4144 15.8684 10.4738C15.8091 10.5331 15.7386 10.5802 15.6611 10.6123C15.5835 10.6444 15.5004 10.6609 15.4165 10.6609H13.4465L12.339 10.6753C12.0086 10.6699 11.6805 10.7305 11.3739 10.8535C11.0673 10.9765 10.7883 11.1596 10.5534 11.3918C10.3184 11.6241 10.1322 11.9009 10.0057 12.2061C9.8791 12.5113 9.81476 12.8387 9.81641 13.169V29.2099C9.81451 29.6193 9.89352 30.0251 10.0489 30.404C10.2043 30.7828 10.433 31.1272 10.7218 31.4174C11.0107 31.7076 11.354 31.9379 11.7322 32.095C12.1103 32.2521 12.5157 32.333 12.9252 32.333H15.7288C16.5551 32.3298 17.3464 31.9994 17.9295 31.414C18.5126 30.8287 18.84 30.0361 18.84 29.2099V14.0748C18.84 13.9053 18.9073 13.7427 19.0272 13.6229C19.147 13.503 19.3096 13.4357 19.4791 13.4357H23.2701C23.9751 13.436 24.6733 13.2974 25.3248 13.0279C25.9762 12.7583 26.5681 12.363 27.0668 11.8646C27.5654 11.3662 27.961 10.7745 28.2308 10.1231C28.5007 9.47184 28.6396 8.77374 28.6396 8.06874V5.11859C28.6383 3.85142 28.1351 2.63638 27.2399 1.73946C26.3448 0.842542 25.1307 0.33682 23.8635 0.333008ZM14.9745 29.5294H13.8549C13.6916 29.5294 13.5299 29.4972 13.3791 29.4346C13.2282 29.3721 13.0912 29.2804 12.9758 29.1648C12.8604 29.0492 12.769 28.912 12.7067 28.761C12.6444 28.61 12.6125 28.4483 12.6129 28.285V14.0772C12.6129 13.9077 12.6802 13.7451 12.8 13.6253C12.9199 13.5054 13.0824 13.4381 13.2519 13.4381H15.4285C15.598 13.4381 15.7606 13.5054 15.8804 13.6253C16.0003 13.7451 16.0676 13.9077 16.0676 14.0772V28.4363C16.0676 28.7262 15.9524 29.0042 15.7474 29.2092C15.5424 29.4142 15.2644 29.5294 14.9745 29.5294ZM25.8672 8.65253C25.8672 9.18328 25.6563 9.69229 25.281 10.0676C24.9057 10.4429 24.3967 10.6537 23.8659 10.6537H19.4911C19.3216 10.6537 19.159 10.5864 19.0392 10.4666C18.9194 10.3467 18.852 10.1842 18.852 10.0147V8.84472C18.852 8.54543 18.793 8.24908 18.6784 7.97261C18.5638 7.69613 18.3958 7.44496 18.1841 7.23345C17.9724 7.02193 17.721 6.85422 17.4444 6.73991C17.1678 6.6256 16.8714 6.56692 16.5721 6.56724H4.50459C3.69257 6.56724 3.03429 6.00028 3.03429 5.30358V4.37385C3.03429 3.67715 3.69257 3.11259 4.50459 3.11259H23.8635C24.3941 3.11322 24.9028 3.32427 25.2779 3.69943C25.6531 4.07459 25.8641 4.58323 25.8648 5.11379L25.8672 8.65253Z" fill="#6F00FF"/>
</g>
<defs>
<clipPath id="clip0_228_7346">
<rect width="28.6396" height="32" fill="white" transform="translate(0 0.333008)"/>
</clipPath>
</defs>
</svg>
