<svg width="40" height="40" viewBox="0 0 40 40" fill="none" xmlns="http://www.w3.org/2000/svg">
<path d="M17.7945 27.5001C18.3821 28.0187 19.154 28.3334 19.9993 28.3334C20.8447 28.3334 21.6166 28.0187 22.2042 27.5001M24.9993 16.6667C24.9993 15.3407 24.4725 14.0689 23.5349 13.1312C22.5972 12.1935 21.3254 11.6667 19.9993 11.6667C18.6732 11.6667 17.4015 12.1935 16.4638 13.1312C15.5261 14.0689 14.9993 15.3407 14.9993 16.6667C14.9993 19.2419 14.3497 21.005 13.624 22.1713C13.0119 23.155 12.7059 23.6468 12.7171 23.784C12.7295 23.936 12.7617 23.9939 12.8841 24.0847C12.9947 24.1667 13.4931 24.1667 14.49 24.1667H25.5086C26.5055 24.1667 27.0039 24.1667 27.1145 24.0847C27.2369 23.9939 27.2691 23.936 27.2816 23.784C27.2928 23.6468 26.9867 23.155 26.3746 22.1713C25.6489 21.005 24.9993 19.2419 24.9993 16.6667Z" stroke="#475467" stroke-width="1.66667" stroke-linecap="round" stroke-linejoin="round"/>
<rect x="0.5" y="0.5" width="39" height="39" rx="19.5" stroke="#D0D5DD"/>
</svg>
