<svg width="200" height="32" viewBox="0 0 200 32" fill="none" xmlns="http://www.w3.org/2000/svg">
<g clip-path="url(#clip0_4942_95463)">
<path d="M23.7206 0.095459H4.47761C2.00836 0.095459 0 1.89844 0 4.11695V5.04113C0 7.25964 2.00836 9.06501 4.47761 9.06501L15.3266 9.09128C15.4944 9.09253 15.655 9.15994 15.7735 9.27886C15.892 9.39779 15.9588 9.55863 15.9594 9.7265C15.9594 9.80992 15.943 9.89252 15.9111 9.96959C15.8791 10.0467 15.8323 10.1167 15.7734 10.1757C15.7144 10.2347 15.6443 10.2814 15.5673 10.3134C15.4902 10.3453 15.4076 10.3617 15.3242 10.3617H13.366L12.2651 10.3761C11.9367 10.3706 11.6106 10.4308 11.3058 10.5531C11.001 10.6754 10.7237 10.8574 10.4902 11.0883C10.2566 11.3191 10.0715 11.5943 9.94573 11.8977C9.81993 12.201 9.75598 12.5265 9.75761 12.8549V28.7999C9.75573 29.2069 9.83426 29.6103 9.98871 29.9869C10.1432 30.3635 10.3705 30.7058 10.6576 30.9943C10.9448 31.2827 11.286 31.5116 11.6619 31.6678C12.0377 31.824 12.4408 31.9044 12.8478 31.9044H15.6346C16.4559 31.9013 17.2425 31.5728 17.8221 30.9909C18.4017 30.4091 18.7272 29.6212 18.7272 28.7999V13.7552C18.7272 13.5867 18.7941 13.4251 18.9132 13.306C19.0324 13.1869 19.1939 13.1199 19.3624 13.1199H23.1308C23.8315 13.1202 24.5255 12.9825 25.1731 12.7145C25.8206 12.4466 26.409 12.0536 26.9047 11.5582C27.4003 11.0628 27.7935 10.4746 28.0617 9.82715C28.33 9.17973 28.4681 8.4858 28.4681 7.78501V4.85247C28.4668 3.59287 27.9665 2.38508 27.0768 1.49352C26.187 0.601951 24.9802 0.0992485 23.7206 0.095459ZM14.8848 29.1175H13.7719C13.6096 29.1175 13.4489 29.0855 13.2989 29.0233C13.149 28.9611 13.0128 28.87 12.8981 28.7551C12.7834 28.6402 12.6925 28.5038 12.6306 28.3537C12.5687 28.2037 12.537 28.0429 12.5373 27.8805V13.7576C12.5373 13.5891 12.6042 13.4275 12.7234 13.3084C12.8425 13.1893 13.0041 13.1223 13.1725 13.1223H15.3361C15.5046 13.1223 15.6662 13.1893 15.7853 13.3084C15.9044 13.4275 15.9713 13.5891 15.9713 13.7576V28.031C15.9713 28.3192 15.8569 28.5955 15.6531 28.7993C15.4493 29.0031 15.173 29.1175 14.8848 29.1175ZM25.7122 8.36531C25.7122 8.89289 25.5027 9.39887 25.1296 9.77192C24.7566 10.145 24.2506 10.3546 23.723 10.3546H19.3743C19.2059 10.3546 19.0443 10.2876 18.9252 10.1685C18.806 10.0494 18.7391 9.88781 18.7391 9.71934V8.55635C18.7391 8.25885 18.6805 7.96427 18.5666 7.68945C18.4526 7.41463 18.2857 7.16495 18.0752 6.9547C17.8647 6.74445 17.6149 6.57774 17.3399 6.46411C17.065 6.35048 16.7703 6.29216 16.4728 6.29247H4.47761C3.67045 6.29247 3.01611 5.72889 3.01611 5.03636V4.11218C3.01611 3.41964 3.67045 2.85845 4.47761 2.85845H23.7206C24.248 2.85908 24.7536 3.06886 25.1265 3.44178C25.4994 3.8147 25.7092 4.32031 25.7099 4.8477L25.7122 8.36531Z" fill="#6F00FF"/>
<path d="M34.2701 10.0667H46.0888V12.8187H41.7794V25H38.5794V12.8187H34.2701V10.0667ZM53.7626 14.0347V16.7653H52.568C51.7146 16.7653 51.0746 17.0213 50.6906 17.5333C50.2853 18.0453 50.0933 18.7493 50.0933 19.624V25H47.0853V14.0347H49.816L50.0933 15.6773C50.4133 15.144 50.8186 14.7387 51.3093 14.4613C51.7786 14.184 52.44 14.0347 53.2506 14.0347H53.7626ZM66.015 22.4613V25H64.479C63.0923 25 62.4096 24.4027 62.4523 23.208C62.047 23.848 61.5563 24.3173 60.9803 24.6373C60.383 24.9787 59.679 25.128 58.8683 25.128C57.631 25.128 56.6496 24.8507 55.903 24.296C55.1563 23.7413 54.7936 22.9307 54.7936 21.9067C54.7936 20.7547 55.2203 19.8587 56.0736 19.2187C56.927 18.5787 58.1856 18.2587 59.8283 18.2587H62.0043V17.7253C62.0043 17.2347 61.8123 16.8507 61.4496 16.552C61.0656 16.2533 60.575 16.104 59.9563 16.104C59.4016 16.104 58.9323 16.232 58.591 16.4667C58.2283 16.7227 58.015 17.0427 57.951 17.448H55.0496C55.135 16.3387 55.647 15.464 56.543 14.8453C57.439 14.2267 58.6123 13.9067 60.1056 13.9067C61.6416 13.9067 62.8363 14.248 63.6896 14.9307C64.543 15.6133 64.9696 16.616 64.9696 17.896V21.7573C64.9696 22.0347 65.0123 22.2267 65.1403 22.312C65.247 22.4187 65.4176 22.4613 65.6736 22.4613H66.015ZM62.0043 20.264H59.807C59.167 20.264 58.6763 20.392 58.335 20.648C57.9936 20.904 57.823 21.2453 57.823 21.6933C57.823 22.0773 57.951 22.3973 58.2496 22.6107C58.5483 22.8453 58.9323 22.952 59.4443 22.952C60.2123 22.952 60.831 22.7387 61.3003 22.2907C61.7483 21.8427 61.983 21.2453 62.0043 20.4773V20.264ZM78.5706 10.0667V25H75.9466L75.648 23.4853C74.7946 24.5947 73.664 25.128 72.2346 25.128C71.2533 25.128 70.4 24.9147 69.632 24.4453C68.864 23.976 68.2453 23.3147 67.8186 22.4613C67.392 21.608 67.1786 20.6267 67.1786 19.496C67.1786 18.3867 67.392 17.4267 67.8186 16.5733C68.2453 15.72 68.864 15.08 69.632 14.6107C70.4 14.1413 71.2746 13.9067 72.256 13.9067C73.664 13.9067 74.7733 14.4187 75.5626 15.4V10.0667H78.5706ZM74.88 21.8213C75.3493 21.2453 75.6053 20.4773 75.6053 19.5387C75.6053 18.6 75.3493 17.832 74.88 17.2347C74.3893 16.6587 73.7493 16.36 72.9386 16.36C72.128 16.36 71.4666 16.6587 70.976 17.2347C70.4853 17.832 70.2506 18.5787 70.2506 19.5173C70.2506 20.456 70.4853 21.224 70.976 21.8C71.4666 22.3973 72.128 22.6747 72.9386 22.6747C73.7493 22.6747 74.3893 22.3973 74.88 21.8213ZM81.3505 16.5733C81.8198 15.72 82.4598 15.08 83.2918 14.6107C84.1238 14.1413 85.0838 13.9067 86.1931 13.9067C87.3025 13.9067 88.2625 14.1413 89.1158 14.568C89.9691 14.9947 90.6305 15.6133 91.0998 16.4027C91.5691 17.192 91.8251 18.1093 91.8465 19.176C91.8465 19.56 91.8038 19.9013 91.7611 20.2H83.8038V20.2853C83.8678 21.096 84.1238 21.7147 84.5718 22.1627C84.9985 22.632 85.6171 22.8453 86.3851 22.8453C86.9825 22.8453 87.4945 22.7173 87.8998 22.4613C88.3051 22.2053 88.5825 21.8 88.7105 21.288H91.6758C91.5478 22.0133 91.2705 22.6747 90.8438 23.2507C90.3958 23.848 89.8198 24.296 89.0945 24.6373C88.3691 24.9787 87.5371 25.128 86.5985 25.128C85.3611 25.128 84.3158 24.9147 83.4198 24.4453C82.5238 23.9973 81.8411 23.3573 81.3718 22.504C80.9025 21.6507 80.6678 20.6693 80.6678 19.5387C80.6678 18.408 80.8811 17.4267 81.3505 16.5733ZM88.8385 18.2373C88.7318 17.576 88.4545 17.064 88.0065 16.7013C87.5585 16.3387 87.0038 16.1467 86.3211 16.1467C85.6598 16.1467 85.1051 16.3387 84.6571 16.7227C84.2091 17.1067 83.9531 17.5973 83.8678 18.2373H88.8385ZM92.4336 14.0347H95.655L98.3003 21.928L100.903 14.0347H104.06L100.114 25H96.3803L92.4336 14.0347ZM115.815 14.0347V25H113.148L112.871 23.6773C112.487 24.1467 112.039 24.488 111.527 24.744C111.015 25 110.375 25.128 109.649 25.128C108.369 25.128 107.324 24.744 106.513 23.9547C105.703 23.1653 105.297 21.8427 105.297 19.9867V14.0347H108.305V19.624C108.305 20.6267 108.476 21.3733 108.817 21.8853C109.159 22.3973 109.713 22.632 110.439 22.632C111.185 22.632 111.761 22.3547 112.188 21.8C112.593 21.2453 112.807 20.456 112.807 19.432V14.0347H115.815Z" fill="#101828"/>
</g>
<defs>
<clipPath id="clip0_4942_95463">
<rect width="117.801" height="32" fill="white"/>
</clipPath>
</defs>
</svg>
