<svg width="98" height="20" viewBox="0 0 98 20" fill="none" xmlns="http://www.w3.org/2000/svg">
<g clip-path="url(#clip0_5392_16684)">
<path d="M14.9145 0H2.81533C1.26277 0 0 1.13364 0 2.52854V3.10962C0 4.50452 1.26277 5.63966 2.81533 5.63966L9.63668 5.65618C9.74222 5.65696 9.8432 5.69935 9.91769 5.77412C9.99218 5.8489 10.0342 5.95003 10.0346 6.05558C10.0346 6.10803 10.0242 6.15996 10.0042 6.20842C9.9841 6.25688 9.95468 6.30091 9.91759 6.338C9.88051 6.37509 9.83648 6.4045 9.78802 6.42457C9.73956 6.44465 9.68762 6.45498 9.63517 6.45498H8.40394L7.71174 6.46399C7.50528 6.46059 7.30022 6.49844 7.10859 6.57534C6.91695 6.65223 6.7426 6.76662 6.59576 6.91179C6.44891 7.05696 6.33253 7.22998 6.25344 7.42072C6.17434 7.61146 6.13413 7.81607 6.13516 8.02255V18.0481C6.13397 18.304 6.18335 18.5576 6.28046 18.7944C6.37757 19.0312 6.5205 19.2464 6.70104 19.4278C6.88158 19.6092 7.09617 19.7531 7.33249 19.8513C7.56881 19.9495 7.8222 20.0001 8.07811 20.0001H9.83037C10.3468 19.9981 10.8413 19.7916 11.2058 19.4257C11.5702 19.0599 11.7748 18.5645 11.7748 18.0481V8.58862C11.7748 8.48269 11.8169 8.3811 11.8918 8.3062C11.9667 8.2313 12.0683 8.18922 12.1742 8.18922H14.5436C14.9842 8.18941 15.4206 8.1028 15.8277 7.93432C16.2349 7.76583 16.6048 7.51878 16.9165 7.20728C17.2281 6.89578 17.4753 6.52593 17.644 6.11886C17.8127 5.71179 17.8995 5.27548 17.8995 4.83485V2.991C17.8987 2.19902 17.5841 1.43962 17.0247 0.879038C16.4652 0.31846 15.7065 0.0023827 14.9145 0ZM9.3589 18.2478H8.65919C8.55712 18.2478 8.45606 18.2277 8.36178 18.1886C8.2675 18.1495 8.18185 18.0922 8.10975 18.0199C8.03765 17.9477 7.9805 17.8619 7.94157 17.7676C7.90265 17.6732 7.88272 17.5721 7.88292 17.47V8.59013C7.88292 8.4842 7.92499 8.38261 7.9999 8.3077C8.0748 8.2328 8.17638 8.19072 8.28231 8.19072H9.64268C9.74861 8.19072 9.8502 8.2328 9.9251 8.3077C10 8.38261 10.0421 8.4842 10.0421 8.59013V17.5646C10.0421 17.7458 9.97011 17.9196 9.84198 18.0477C9.71386 18.1758 9.54009 18.2478 9.3589 18.2478ZM16.1667 5.19972C16.1667 5.53144 16.035 5.84958 15.8004 6.08414C15.5658 6.3187 15.2477 6.45047 14.916 6.45047H12.1817C12.0758 6.45047 11.9742 6.4084 11.8993 6.33349C11.8244 6.25859 11.7823 6.157 11.7823 6.05107V5.31984C11.7823 5.13278 11.7455 4.94756 11.6738 4.77477C11.6022 4.60197 11.4972 4.44499 11.3649 4.31279C11.2325 4.18059 11.0755 4.07577 10.9026 4.00433C10.7297 3.93288 10.5445 3.89621 10.3574 3.89641H2.81533C2.30782 3.89641 1.8964 3.54206 1.8964 3.10662V2.52554C1.8964 2.0901 2.30782 1.73724 2.81533 1.73724H14.9145C15.2461 1.73764 15.564 1.86954 15.7985 2.10402C16.0329 2.3385 16.1648 2.6564 16.1652 2.988L16.1667 5.19972Z" fill="black"/>
<path d="M23.7144 3H34.6544V5.04H30.3344V17H28.0344V5.04H23.7144V3ZM40.4723 6.76V8.78H39.5123C38.6123 8.78 37.9723 9.08 37.5723 9.66C37.1723 10.24 36.9723 10.98 36.9723 11.86V17H34.8123V6.76H36.7323L36.9723 8.3C37.2523 7.82 37.6323 7.46 38.1123 7.18C38.5723 6.9 39.1923 6.76 39.9923 6.76H40.4723ZM50.853 15.12V17H49.713C49.033 17 48.553 16.86 48.273 16.58C47.973 16.3 47.833 15.9 47.833 15.36C47.053 16.54 45.933 17.12 44.453 17.12C43.293 17.12 42.373 16.86 41.693 16.32C40.993 15.8 40.653 15.06 40.653 14.12C40.653 13.08 41.013 12.26 41.773 11.7C42.513 11.14 43.593 10.84 45.033 10.84H47.613V10.22C47.613 9.66 47.413 9.2 47.013 8.88C46.613 8.56 46.053 8.38 45.353 8.38C44.713 8.38 44.193 8.52 43.793 8.8C43.393 9.08 43.153 9.44 43.073 9.88H40.953C41.053 8.86 41.513 8.06 42.313 7.5C43.113 6.94 44.153 6.64 45.453 6.64C46.813 6.64 47.873 6.96 48.633 7.6C49.373 8.24 49.753 9.16 49.753 10.36V14.4C49.753 14.88 49.973 15.12 50.433 15.12H50.853ZM47.613 12.44H44.933C44.253 12.44 43.753 12.58 43.393 12.84C43.033 13.1 42.853 13.48 42.853 13.98C42.853 14.42 43.013 14.78 43.353 15.04C43.693 15.32 44.153 15.44 44.753 15.44C45.633 15.44 46.333 15.2 46.833 14.72C47.333 14.24 47.593 13.6 47.613 12.8V12.44ZM61.5695 3V17H59.6895L59.4295 15.46C58.6095 16.58 57.4895 17.12 56.0895 17.12C55.1495 17.12 54.3095 16.92 53.5895 16.5C52.8495 16.08 52.2695 15.48 51.8695 14.68C51.4495 13.88 51.2495 12.96 51.2495 11.88C51.2495 10.84 51.4495 9.94 51.8695 9.14C52.2895 8.34 52.8695 7.74 53.6095 7.3C54.3295 6.86 55.1695 6.64 56.0895 6.64C56.8295 6.64 57.4895 6.78 58.0495 7.06C58.6095 7.34 59.0495 7.7 59.4095 8.18V3H61.5695ZM58.6095 14.36C59.1495 13.74 59.4295 12.92 59.4295 11.92C59.4295 10.9 59.1495 10.08 58.6095 9.44C58.0495 8.8 57.3295 8.48 56.4495 8.48C55.5495 8.48 54.8295 8.8 54.2895 9.44C53.7295 10.08 53.4695 10.88 53.4695 11.88C53.4695 12.9 53.7295 13.72 54.2895 14.36C54.8295 15 55.5495 15.3 56.4495 15.3C57.3295 15.3 58.0495 15 58.6095 14.36ZM63.5203 9.14C63.9403 8.34 64.5203 7.74 65.2803 7.3C66.0403 6.86 66.9003 6.64 67.8803 6.64C68.8603 6.64 69.7203 6.84 70.4803 7.24C71.2403 7.64 71.8203 8.22 72.2603 8.94C72.7003 9.68 72.9203 10.54 72.9403 11.52C72.9403 11.8 72.9203 12.06 72.8803 12.34H65.1603V12.46C65.2003 13.36 65.4803 14.06 66.0003 14.58C66.5003 15.1 67.1803 15.36 68.0203 15.36C68.6803 15.36 69.2403 15.22 69.7003 14.9C70.1403 14.58 70.4403 14.14 70.6003 13.56H72.7603C72.5603 14.6 72.0603 15.46 71.2403 16.12C70.4203 16.8 69.4003 17.12 68.1803 17.12C67.1003 17.12 66.1803 16.92 65.3803 16.48C64.5803 16.04 63.9803 15.44 63.5403 14.64C63.1003 13.86 62.9003 12.94 62.9003 11.9C62.9003 10.86 63.1003 9.94 63.5203 9.14ZM70.7403 10.76C70.6403 10.02 70.3403 9.44 69.8403 9.02C69.3403 8.6 68.7203 8.38 67.9603 8.38C67.2403 8.38 66.6403 8.6 66.1203 9.04C65.6003 9.48 65.3203 10.04 65.2403 10.76H70.7403ZM73.3266 3H75.7666L79.6266 14.24L83.5266 3H85.9066L81.0066 17H78.2466L73.3266 3ZM95.4494 6.76V17H93.5494L93.3094 15.7C92.5294 16.66 91.4694 17.12 90.1494 17.12C88.9494 17.12 87.9694 16.76 87.2294 16C86.4694 15.26 86.1094 14.06 86.1094 12.4V6.76H88.2694V12.18C88.2694 13.18 88.4694 13.94 88.8694 14.46C89.2694 14.98 89.8494 15.24 90.6494 15.24C91.4694 15.24 92.1094 14.94 92.5894 14.34C93.0494 13.74 93.2894 12.9 93.2894 11.84V6.76H95.4494Z" fill="#101828"/>
</g>
<defs>
<clipPath id="clip0_5392_16684">
<rect width="97.2328" height="20.0001" fill="white"/>
</clipPath>
</defs>
</svg>
