<svg width="20" height="22" viewBox="0 0 20 22" fill="none" xmlns="http://www.w3.org/2000/svg">
<path opacity="0.4" d="M6.50768 3.66675H13.4827C16.5244 3.66675 18.3327 5.47508 18.3327 8.50842V15.4834C18.3327 18.5168 16.5244 20.3251 13.491 20.3251H6.50768C3.47435 20.3334 1.66602 18.5251 1.66602 15.4917V8.50842C1.66602 5.47508 3.47435 3.66675 6.50768 3.66675Z" fill="#667085"/>
<path d="M14.7423 13.2335C14.6757 13.0835 14.559 12.9585 14.4007 12.8918C14.3257 12.8585 14.2423 12.8418 14.159 12.8418H5.83398C5.49232 12.8418 5.20898 13.1251 5.20898 13.4668C5.20898 13.8085 5.49232 14.0918 5.83398 14.0918H12.659L11.2673 15.4835C11.0257 15.7251 11.0257 16.1251 11.2673 16.3668C11.3923 16.4918 11.5507 16.5501 11.709 16.5501C11.8673 16.5501 12.0257 16.4918 12.1507 16.3668L14.609 13.9085C14.6673 13.8501 14.709 13.7835 14.7423 13.7085C14.809 13.5501 14.809 13.3835 14.7423 13.2335Z" fill="#667085"/>
<path d="M5.25898 10.7667C5.32565 10.9167 5.44232 11.0417 5.60065 11.1084C5.67565 11.1417 5.75065 11.1584 5.83398 11.1584H14.1673C14.509 11.1584 14.7923 10.8751 14.7923 10.5334C14.7923 10.1917 14.509 9.9084 14.1673 9.9084H7.34232L8.73398 8.51673C8.97565 8.27507 8.97565 7.87507 8.73398 7.6334C8.49232 7.39173 8.09232 7.39173 7.85065 7.6334L5.39232 10.0917C5.33398 10.1501 5.29232 10.2167 5.25898 10.2917C5.19232 10.4501 5.19232 10.6167 5.25898 10.7667Z" fill="#667085"/>
</svg>
