<svg width="88" height="20" viewBox="0 0 88 20" fill="none" xmlns="http://www.w3.org/2000/svg">
<path d="M3.33329 14.8333C3.29026 14.8333 3.24986 14.8185 3.21566 14.7843C3.1525 14.7211 3.1525 14.6122 3.21566 14.549L12.549 5.21566C12.6122 5.1525 12.7211 5.1525 12.7843 5.21566C12.8474 5.27882 12.8474 5.38777 12.7843 5.45093L3.45093 14.7843C3.41673 14.8185 3.37633 14.8333 3.33329 14.8333Z" fill="white" stroke="white" stroke-width="0.666667"/>
<path d="M3.49998 14.1667V14.5001H3.83331H10.18C10.2692 14.5001 10.3466 14.5775 10.3466 14.6667C10.3466 14.756 10.2692 14.8334 10.18 14.8334H3.33331C3.24407 14.8334 3.16665 14.756 3.16665 14.6667V7.82007C3.16665 7.73083 3.24407 7.6534 3.33331 7.6534C3.42255 7.6534 3.49998 7.73083 3.49998 7.82007V14.1667Z" fill="white" stroke="white" stroke-width="0.666667"/>
<path d="M13.6666 17.8334H2.33331C2.24407 17.8334 2.16665 17.756 2.16665 17.6667C2.16665 17.5775 2.24407 17.5001 2.33331 17.5001H13.6666C13.7559 17.5001 13.8333 17.5775 13.8333 17.6667C13.8333 17.756 13.7559 17.8334 13.6666 17.8334Z" fill="white" stroke="white" stroke-width="0.666667"/>
<path d="M20.952 6.2H22.17V16H20.952V6.2ZM29.3472 9.56C29.8792 10.092 30.1452 10.904 30.1452 12.024V16H28.9972V12.094C28.9972 11.366 28.8292 10.806 28.4932 10.414C28.1572 10.022 27.6812 9.826 27.0652 9.826C26.3932 9.826 25.8612 10.064 25.4832 10.526C25.0912 11.002 24.9092 11.632 24.9092 12.43V16H23.7612V8.86H24.7552L24.9092 9.826C25.4412 9.126 26.2252 8.776 27.2612 8.776C28.1292 8.776 28.8152 9.042 29.3472 9.56ZM31.9448 8.86V8.062C31.9448 7.432 32.0848 6.97 32.3788 6.662C32.6728 6.354 33.1488 6.2 33.8068 6.2H35.1228V7.25H33.8768C33.5968 7.25 33.3868 7.32 33.2748 7.432C33.1488 7.558 33.0928 7.754 33.0928 8.034V8.86H35.1088V9.91H33.0928V16H31.9448V9.91H30.6568V8.86H31.9448ZM35.7449 6.2H36.8929V16H35.7449V6.2ZM39.7676 15.622C39.2356 15.314 38.8156 14.894 38.5216 14.334C38.2136 13.788 38.0736 13.158 38.0736 12.43C38.0736 11.716 38.2136 11.086 38.5216 10.526C38.8156 9.98 39.2356 9.546 39.7676 9.238C40.2996 8.93 40.9156 8.776 41.6156 8.776C42.3016 8.776 42.9176 8.93 43.4496 9.238C43.9816 9.546 44.4016 9.98 44.7096 10.526C45.0036 11.086 45.1576 11.716 45.1576 12.43C45.1576 13.158 45.0036 13.788 44.7096 14.334C44.4016 14.894 43.9816 15.314 43.4496 15.622C42.9176 15.93 42.3016 16.084 41.6156 16.084C40.9156 16.084 40.2996 15.93 39.7676 15.622ZM42.8476 14.726C43.2116 14.502 43.4916 14.194 43.6876 13.788C43.8836 13.396 43.9816 12.934 43.9816 12.43C43.9816 11.926 43.8836 11.478 43.6876 11.072C43.4916 10.68 43.2116 10.358 42.8476 10.134C42.4836 9.91 42.0776 9.798 41.6156 9.798C41.1396 9.798 40.7336 9.91 40.3696 10.134C40.0056 10.358 39.7396 10.68 39.5436 11.072C39.3476 11.478 39.2496 11.926 39.2496 12.43C39.2496 12.934 39.3476 13.396 39.5436 13.788C39.7396 14.194 40.0056 14.502 40.3696 14.726C40.7336 14.95 41.1396 15.062 41.6156 15.062C42.0776 15.062 42.4836 14.95 42.8476 14.726ZM45.4569 8.86H46.6609L48.4389 14.67L50.3149 8.86H51.3789L53.1569 14.67L55.0189 8.86H56.1809L53.8009 16H52.5409L50.8189 10.694L49.0269 16L47.7669 16.014L45.4569 8.86Z" fill="white"/>
</svg>
