<svg width="88" height="20" viewBox="0 0 88 20" fill="none" xmlns="http://www.w3.org/2000/svg">
<path d="M13.6666 17.8334H2.33331C2.24407 17.8334 2.16665 17.756 2.16665 17.6667C2.16665 17.5775 2.24407 17.5001 2.33331 17.5001H13.6666C13.7559 17.5001 13.8333 17.5775 13.8333 17.6667C13.8333 17.756 13.7559 17.8334 13.6666 17.8334Z" fill="white" stroke="white" stroke-width="0.666667"/>
<path d="M12.6666 14.8333C12.6236 14.8333 12.5832 14.8185 12.549 14.7843L3.21566 5.45093C3.1525 5.38777 3.1525 5.27882 3.21566 5.21566C3.27882 5.1525 3.38777 5.1525 3.45092 5.21566L12.7843 14.549C12.8474 14.6122 12.8474 14.7211 12.7843 14.7843C12.7501 14.8185 12.7097 14.8333 12.6666 14.8333Z" fill="white" stroke="white" stroke-width="0.666667"/>
<path d="M3.83331 5.49992H3.49998V5.83325V12.1799C3.49998 12.2692 3.42255 12.3466 3.33331 12.3466C3.24407 12.3466 3.16665 12.2692 3.16665 12.1799V5.33325C3.16665 5.24401 3.24407 5.16659 3.33331 5.16659H10.18C10.2692 5.16659 10.3466 5.24401 10.3466 5.33325C10.3466 5.42249 10.2692 5.49992 10.18 5.49992H3.83331Z" fill="white" stroke="white" stroke-width="0.666667"/>
<path d="M29.338 13.662C28.946 14.418 28.386 15.02 27.686 15.44C26.972 15.874 26.16 16.084 25.264 16.084C24.354 16.084 23.542 15.874 22.842 15.44C22.128 15.02 21.568 14.418 21.176 13.662C20.784 12.906 20.588 12.052 20.588 11.1C20.588 10.148 20.784 9.294 21.176 8.538C21.568 7.782 22.128 7.194 22.842 6.76C23.542 6.34 24.354 6.116 25.264 6.116C26.16 6.116 26.972 6.34 27.686 6.76C28.386 7.194 28.946 7.782 29.338 8.538C29.73 9.294 29.94 10.148 29.94 11.1C29.94 12.052 29.73 12.906 29.338 13.662ZM22.268 13.102C22.548 13.69 22.954 14.138 23.472 14.474C23.99 14.81 24.592 14.964 25.264 14.964C25.936 14.964 26.524 14.81 27.042 14.474C27.56 14.138 27.966 13.69 28.26 13.102C28.54 12.514 28.694 11.856 28.694 11.1C28.694 10.358 28.54 9.7 28.26 9.112C27.966 8.524 27.56 8.076 27.042 7.74C26.524 7.404 25.936 7.236 25.264 7.236C24.592 7.236 23.99 7.404 23.472 7.74C22.954 8.076 22.548 8.524 22.268 9.112C21.974 9.7 21.834 10.358 21.834 11.1C21.834 11.856 21.974 12.514 22.268 13.102ZM37.3173 8.86V16H36.3233L36.1693 15.048C35.6233 15.748 34.8673 16.084 33.8873 16.084C33.0333 16.084 32.3473 15.832 31.8433 15.3C31.3253 14.782 31.0733 13.956 31.0733 12.836V8.86H32.2213V12.766C32.2213 13.508 32.3753 14.068 32.6973 14.46C33.0193 14.852 33.4813 15.034 34.0833 15.034C34.7273 15.034 35.2453 14.81 35.6093 14.334C35.9733 13.872 36.1693 13.242 36.1693 12.43V8.86H37.3173ZM39.2456 9.91H37.9576V8.86H39.2456V6.858H40.3936V8.86H42.1996V9.91H40.3936V14.124C40.3936 14.432 40.4496 14.642 40.5616 14.768C40.6736 14.894 40.8836 14.95 41.1776 14.95H42.4236V16H41.1076C40.4356 16 39.9456 15.86 39.6656 15.552C39.3856 15.258 39.2456 14.782 39.2456 14.138V9.91ZM43.5343 6.662C43.8283 6.354 44.3043 6.2 44.9623 6.2H46.2783V7.25H45.0323C44.7523 7.25 44.5423 7.32 44.4303 7.432C44.3043 7.558 44.2483 7.754 44.2483 8.034V8.86H46.2643V9.91H44.2483V16H43.1003V8.062C43.1003 7.432 43.2403 6.97 43.5343 6.662ZM46.8978 6.2H48.0458V16H46.8978V6.2ZM50.9205 15.622C50.3885 15.314 49.9685 14.894 49.6745 14.334C49.3665 13.788 49.2265 13.158 49.2265 12.43C49.2265 11.716 49.3665 11.086 49.6745 10.526C49.9685 9.98 50.3885 9.546 50.9205 9.238C51.4525 8.93 52.0685 8.776 52.7685 8.776C53.4545 8.776 54.0705 8.93 54.6025 9.238C55.1345 9.546 55.5545 9.98 55.8625 10.526C56.1565 11.086 56.3105 11.716 56.3105 12.43C56.3105 13.158 56.1565 13.788 55.8625 14.334C55.5545 14.894 55.1345 15.314 54.6025 15.622C54.0705 15.93 53.4545 16.084 52.7685 16.084C52.0685 16.084 51.4525 15.93 50.9205 15.622ZM54.0005 14.726C54.3645 14.502 54.6445 14.194 54.8405 13.788C55.0365 13.396 55.1345 12.934 55.1345 12.43C55.1345 11.926 55.0365 11.478 54.8405 11.072C54.6445 10.68 54.3645 10.358 54.0005 10.134C53.6365 9.91 53.2305 9.798 52.7685 9.798C52.2925 9.798 51.8865 9.91 51.5225 10.134C51.1585 10.358 50.8925 10.68 50.6965 11.072C50.5005 11.478 50.4025 11.926 50.4025 12.43C50.4025 12.934 50.5005 13.396 50.6965 13.788C50.8925 14.194 51.1585 14.502 51.5225 14.726C51.8865 14.95 52.2925 15.062 52.7685 15.062C53.2305 15.062 53.6365 14.95 54.0005 14.726ZM56.6099 8.86H57.8139L59.5919 14.67L61.4679 8.86H62.5319L64.3099 14.67L66.1719 8.86H67.3339L64.9539 16H63.6939L61.9719 10.694L60.1799 16L58.9199 16.014L56.6099 8.86Z" fill="white"/>
</svg>
