<svg width="20" height="22" viewBox="0 0 20 22" fill="none" xmlns="http://www.w3.org/2000/svg">
<path d="M18.3329 11.1415V12.8582C18.3329 13.3165 17.9662 13.6915 17.4995 13.7082H15.8662C14.9662 13.7082 14.1412 13.0498 14.0662 12.1498C14.0162 11.6248 14.2162 11.1332 14.5662 10.7915C14.8745 10.4748 15.2995 10.2915 15.7662 10.2915H17.4995C17.9662 10.3082 18.3329 10.6831 18.3329 11.1415Z" fill="#667085"/>
<path opacity="0.4" d="M14.566 10.7917C14.216 11.1334 14.016 11.6251 14.066 12.1501C14.141 13.0501 14.966 13.7084 15.866 13.7084H17.4993V14.9167C17.4993 17.4167 15.8327 19.0834 13.3327 19.0834H5.83268C3.33268 19.0834 1.66602 17.4167 1.66602 14.9167V9.08341C1.66602 6.81675 3.03268 5.23341 5.15768 4.96675C5.37435 4.93341 5.59935 4.91675 5.83268 4.91675H13.3327C13.5493 4.91675 13.7577 4.92507 13.9577 4.9584C16.1077 5.2084 17.4993 6.80008 17.4993 9.08341V10.2918H15.766C15.2993 10.2918 14.8743 10.4751 14.566 10.7917Z" fill="#667085"/>
<path d="M10.834 10.125H5.83398C5.49232 10.125 5.20898 9.84167 5.20898 9.5C5.20898 9.15833 5.49232 8.875 5.83398 8.875H10.834C11.1757 8.875 11.459 9.15833 11.459 9.5C11.459 9.84167 11.1757 10.125 10.834 10.125Z" fill="#667085"/>
</svg>
