<svg width="20" height="22" viewBox="0 0 20 22" fill="none" xmlns="http://www.w3.org/2000/svg">
<path d="M18.3334 11.1417V12.8584C18.3334 13.3167 17.9667 13.6917 17.5 13.7084H15.8667C14.9667 13.7084 14.1417 13.0501 14.0667 12.1501C14.0167 11.6251 14.2167 11.1334 14.5667 10.7917C14.875 10.4751 15.3 10.2917 15.7667 10.2917H17.5C17.9667 10.3084 18.3334 10.6834 18.3334 11.1417Z" fill="#6F00FF"/>
<path d="M17.0582 14.9584H15.8665C14.2832 14.9584 12.9498 13.7667 12.8165 12.2501C12.7415 11.3834 13.0582 10.5167 13.6915 9.90008C14.2248 9.35008 14.9665 9.04175 15.7665 9.04175H17.0582C17.2998 9.04175 17.4998 8.84175 17.4748 8.60008C17.2915 6.57508 15.9498 5.19175 13.9582 4.95841C13.7582 4.92508 13.5498 4.91675 13.3332 4.91675H5.83317C5.59984 4.91675 5.37484 4.93341 5.15817 4.96675C3.03317 5.23341 1.6665 6.81675 1.6665 9.08342V14.9167C1.6665 17.2167 3.53317 19.0834 5.83317 19.0834H13.3332C15.6665 19.0834 17.2748 17.6251 17.4748 15.4001C17.4998 15.1584 17.2998 14.9584 17.0582 14.9584ZM10.8332 10.1251H5.83317C5.4915 10.1251 5.20817 9.84175 5.20817 9.50008C5.20817 9.15841 5.4915 8.87508 5.83317 8.87508H10.8332C11.1748 8.87508 11.4582 9.15841 11.4582 9.50008C11.4582 9.84175 11.1748 10.1251 10.8332 10.1251Z" fill="#6F00FF"/>
</svg>
