<svg width="24" height="23" viewBox="0 0 24 23" fill="none" xmlns="http://www.w3.org/2000/svg">
<g clip-path="url(#clip0_284_100808)">
<path d="M21.938 1.23287C22.3139 1.23334 22.6743 1.36659 22.9401 1.60338C23.2059 1.84017 23.3555 2.16121 23.356 2.49608V20.2022C23.3555 20.5371 23.2059 20.8581 22.9401 21.0949C22.6743 21.3317 22.3139 21.4649 21.938 21.4654H2.06201C1.6861 21.4649 1.32572 21.3317 1.05991 21.0949C0.7941 20.8581 0.644523 20.5371 0.643994 20.2022V2.49608C0.644523 2.16121 0.7941 1.84017 1.05991 1.60338C1.32572 1.36659 1.6861 1.23334 2.06201 1.23287H21.938ZM21.938 0.65918H2.06201C1.5153 0.659651 0.991126 0.853341 0.604541 1.19772C0.217956 1.5421 0.000529505 2.00905 0 2.49608V20.2022C0.000529505 20.6892 0.217956 21.1562 0.604541 21.5005C0.991126 21.8449 1.5153 22.0386 2.06201 22.0391H21.938C22.4845 22.0382 23.0084 21.8443 23.3949 21.5C23.7813 21.1558 23.9989 20.6891 24 20.2022V2.49608C23.9995 2.00905 23.782 1.5421 23.3955 1.19772C23.0089 0.853341 22.4847 0.659651 21.938 0.65918Z" fill="#CAB99E"/>
<path d="M14.36 5.44632C14.55 5.44632 14.67 5.38218 14.67 5.31091C14.67 5.23965 14.55 5.18799 14.36 5.18799C14.17 5.18799 14.054 5.24678 14.054 5.31626C14.054 5.38575 14.17 5.44632 14.36 5.44632Z" fill="#E31C11"/>
<path d="M21.9379 1.23291H2.06197C1.68605 1.23338 1.32568 1.36663 1.05987 1.60342C0.794057 1.84022 0.644481 2.16125 0.643951 2.49612V20.2022C0.644481 20.5371 0.794057 20.8581 1.05987 21.0949C1.32568 21.3317 1.68605 21.465 2.06197 21.4654H21.9379C22.3139 21.465 22.6742 21.3317 22.94 21.0949C23.2059 20.8581 23.3554 20.5371 23.356 20.2022V2.49612C23.3554 2.16125 23.2059 1.84022 22.94 1.60342C22.6742 1.36663 22.3139 1.23338 21.9379 1.23291ZM18.504 13.8542C18.19 14.0163 17.9859 13.9807 17.8299 13.8542L16.952 13.9023C17.064 13.986 17.2159 14.0306 17.3279 14.1161C17.7819 14.0003 18.018 14.1553 18.098 14.4867C18.1627 14.6157 18.1849 14.7584 18.162 14.8983C18.1286 14.7703 18.0413 14.6586 17.918 14.5865C17.518 14.6773 17.3599 14.5312 17.3379 14.3156C17.1379 14.1731 16.85 14.1375 16.654 13.9985C16.426 14.0626 16.3159 14.1036 16.0879 14.1767C16.0059 14.3976 15.822 14.4849 15.522 14.4279C15.166 14.4386 15.228 14.5686 15.2 14.6738C15.1723 14.6395 15.1535 14.6001 15.1448 14.5586C15.1362 14.5171 15.138 14.4744 15.15 14.4335C15.162 14.3927 15.184 14.3547 15.2145 14.3223C15.2449 14.2899 15.2829 14.2639 15.3259 14.2462C15.3359 14.2002 15.3586 14.1572 15.3919 14.121C15.4252 14.0848 15.4682 14.0566 15.5168 14.0389C15.5655 14.0212 15.6183 14.0146 15.6705 14.0197C15.7227 14.0248 15.7728 14.0414 15.816 14.068C16.034 14.0128 16.092 13.9344 16.31 13.8791C15.76 13.7223 15.368 13.6867 14.818 13.5228C14.68 13.6386 14.5719 13.7206 14.4319 13.8239C14.3599 13.8631 14.29 13.8738 14.246 13.8239C13.902 13.3803 13.7479 12.9883 13.4279 12.6961C13.3134 12.5543 13.1588 12.4418 12.9799 12.3701C12.9351 12.3584 12.8876 12.3575 12.8423 12.3675C12.797 12.3776 12.7555 12.3981 12.722 12.4271C12.6776 12.4783 12.6459 12.5374 12.629 12.6003C12.6121 12.6633 12.6104 12.7287 12.624 12.7923C12.6445 12.9665 12.7065 13.1348 12.806 13.2858C12.883 13.4179 12.9777 13.5411 13.0879 13.6529C13.266 13.8405 13.48 13.9985 13.72 14.1197C14.038 14.2978 14.174 14.223 14.42 14.2123C14.738 14.2444 14.82 14.3905 14.562 14.5686C14.3674 14.6654 14.1416 14.7 13.922 14.6666C13.768 14.6417 13.59 14.4653 13.462 14.3709C13.318 14.223 13.082 14.3994 13.244 14.5704C13.538 14.8822 13.832 15.0871 14.196 15.0835C14.578 15.1299 14.506 15.3205 14.252 15.4132C13.796 15.5806 13.3839 15.2671 13.1759 15.0568C13.0139 14.9 12.8999 14.8929 12.9279 15.137C13.0879 15.5788 13.308 15.7481 13.666 15.7712C13.954 15.7463 13.958 15.9494 13.746 16.0813C13.262 16.3788 12.914 15.871 12.746 15.5646C12.63 15.2884 12.4519 15.4203 12.4319 15.6483C12.4319 15.953 12.584 16.2006 12.998 16.5124C12.682 16.9614 12.312 17.4175 11.998 17.8683C11.682 17.4175 11.312 16.9614 10.998 16.5124C11.412 16.2006 11.566 15.953 11.564 15.6483C11.546 15.4203 11.364 15.292 11.25 15.5646C11.086 15.871 10.736 16.3788 10.25 16.0813C10.038 15.9459 10.0499 15.7463 10.3299 15.7712C10.6879 15.7481 10.908 15.5788 11.068 15.137C11.096 14.8929 10.982 14.9 10.82 15.0568C10.62 15.2635 10.1979 15.5771 9.74195 15.4132C9.48995 15.3205 9.41796 15.1299 9.79996 15.0835C10.164 15.0835 10.458 14.8822 10.752 14.5704C10.914 14.3922 10.6759 14.2141 10.5339 14.3709C10.4059 14.4653 10.228 14.6417 10.074 14.6666C9.85435 14.7 9.62847 14.6654 9.43394 14.5686C9.17394 14.378 9.25793 14.2408 9.57593 14.2123C9.82193 14.223 9.95793 14.305 10.2759 14.1197C10.5156 13.9989 10.729 13.8408 10.906 13.6529C11.0168 13.5415 11.1115 13.4182 11.1879 13.2858C11.289 13.1353 11.3518 12.9668 11.372 12.7923C11.3856 12.7287 11.3838 12.6633 11.3669 12.6003C11.35 12.5374 11.3184 12.4783 11.274 12.4271C11.2405 12.3981 11.1989 12.3776 11.1536 12.3675C11.1083 12.3575 11.0608 12.3584 11.016 12.3701C10.8371 12.4418 10.6825 12.5543 10.568 12.6961C10.248 12.9883 10.094 13.3803 9.74796 13.8239C9.70596 13.8738 9.63597 13.8631 9.56197 13.8239C9.42397 13.7206 9.31594 13.6457 9.17794 13.5228C8.62794 13.6778 8.23594 13.7134 7.68594 13.8791C7.90394 13.9344 7.96194 14.0128 8.17994 14.068C8.22315 14.0414 8.27316 14.0248 8.3254 14.0197C8.37763 14.0146 8.43046 14.0212 8.47911 14.0389C8.52775 14.0566 8.57069 14.0848 8.60401 14.121C8.63733 14.1572 8.66002 14.2002 8.66998 14.2462C8.71298 14.2639 8.75104 14.2899 8.78145 14.3223C8.81187 14.3547 8.83387 14.3927 8.8459 14.4335C8.85794 14.4744 8.85972 14.5171 8.85108 14.5586C8.84245 14.6001 8.82362 14.6395 8.79595 14.6738C8.76795 14.5686 8.82998 14.4386 8.47398 14.4279C8.17398 14.4849 7.98996 14.3976 7.90797 14.1767C7.67997 14.1125 7.56795 14.0716 7.34195 13.9985C7.14195 14.1428 6.85196 14.1767 6.65797 14.3156C6.63597 14.5312 6.48394 14.672 6.07794 14.5865C5.95465 14.6586 5.86728 14.7703 5.83394 14.8983C5.81126 14.7586 5.83274 14.6161 5.89595 14.4867C5.97595 14.1553 6.21397 14.0003 6.66797 14.1161C6.77997 14.0306 6.93195 13.986 7.04195 13.9023L6.16597 13.8542C6.00997 13.9807 5.80595 14.0163 5.49195 13.8542C5.41595 13.7847 5.30794 13.8043 5.13394 13.8667C5.16099 13.8066 5.20813 13.7554 5.26895 13.72C5.32977 13.6847 5.40138 13.6668 5.47398 13.6689C5.68398 13.448 5.91997 13.4319 6.21397 13.7134L7.04796 13.7366C6.88196 13.6119 6.79394 13.5157 6.62794 13.391C6.37394 13.464 6.12397 13.4391 6.01597 13.1861C5.96946 13.1367 5.91029 13.0979 5.84346 13.0731C5.77664 13.0483 5.70408 13.0382 5.63194 13.0435C5.7008 12.9823 5.79167 12.9447 5.88858 12.9372C5.9855 12.9297 6.0823 12.9528 6.16197 13.0026C6.54997 12.8476 6.58396 13.0685 6.65196 13.2128C6.91596 13.366 7.12995 13.4979 7.39195 13.6511C7.92995 13.5121 8.36396 13.4337 8.90196 13.2948C8.78596 13.1861 8.66796 13.0899 8.55196 12.9812C8.52196 12.8903 8.57397 12.844 8.66197 12.8297C9.52997 12.6747 10.0259 12.3683 10.3279 11.595C10.4539 11.2708 10.1819 11.1746 10.0879 11.3723C9.96932 11.6982 9.73749 11.9821 9.42593 12.183C9.29193 12.265 8.89194 12.199 9.12794 12.0048C9.36394 11.8106 9.47796 11.7554 9.59996 11.3278C9.59996 11.1104 9.34596 11.0142 9.19996 11.2209C9.04996 11.6467 9.03397 11.8302 8.75997 12.1117C8.60732 12.2865 8.39078 12.4082 8.14796 12.4556C7.90596 12.4556 7.66394 12.2258 7.98594 12.0601C8.45994 11.8961 8.63396 11.6699 8.70396 11.4543C8.77996 11.0784 8.70394 10.8966 8.43594 11.0819C8.06794 11.4383 7.36395 12.126 6.99595 12.4431C6.81954 12.5775 6.59506 12.6513 6.36295 12.6513C6.13084 12.6513 5.90635 12.5775 5.72994 12.4431C5.51394 12.2258 5.58994 11.9924 5.92994 12.044C6.69394 12.0993 7.27396 11.7679 7.90596 10.877C8.03196 10.6739 8.06595 10.3853 7.78995 10.6009C7.48269 10.9689 7.06748 11.2543 6.58995 11.4258C6.15995 11.5612 5.76197 11.5149 5.66597 11.3688C5.50797 11.1265 5.54394 10.8592 5.83194 10.9483C6.13169 11.0332 6.45509 11.0238 6.74796 10.9216C7.18501 10.7448 7.56125 10.4674 7.83795 10.118C7.96795 9.87396 7.92597 9.66729 7.66197 9.79379C7.03397 10.257 6.22397 10.6329 5.80997 10.4067C5.50797 10.241 5.50194 9.81696 5.88594 9.84368C6.66394 9.93811 6.95796 9.78666 7.70396 9.21119C7.87596 9.10072 7.86395 8.82277 7.59395 9.00094C6.96595 9.35727 6.10798 9.49091 5.77198 9.3074C5.46798 9.14171 5.51398 8.6375 6.02398 8.81566C6.42398 9.03303 6.88194 9.0259 7.78594 8.45933C8.01394 8.29364 7.84396 8.07806 7.65596 8.1707C6.92996 8.52704 5.87195 8.68559 5.59595 7.95332C5.48995 7.67182 5.68197 7.50971 5.96798 7.70391C6.59197 8.20634 7.29795 7.95869 7.69395 7.70391C7.79795 7.70391 8.01796 7.34757 7.64996 7.40458C6.70396 7.59344 5.76996 7.42952 5.59996 6.84692C5.49996 6.65628 5.69595 6.32311 6.03995 6.60283C6.49395 6.9948 6.97594 7.00727 7.57994 7.00371C7.88994 6.94848 7.89194 6.64738 7.63394 6.60818C7.16476 6.59373 6.70786 6.47094 6.30797 6.25185C6.12328 6.17403 5.95905 6.06242 5.82603 5.92427C5.69301 5.78613 5.59417 5.62456 5.53594 5.45011C5.47594 5.12941 5.82995 4.7891 6.04595 5.12761C6.23927 5.41127 6.50113 5.65298 6.81251 5.83512C7.12388 6.01727 7.47693 6.13528 7.84595 6.18058C7.88595 6.12179 7.98797 5.97036 8.11397 6.01312C8.6669 6.20534 9.20531 6.42911 9.72593 6.68302C9.83993 6.74004 9.70594 7.00905 9.68194 7.11239C9.66595 7.20637 9.67171 7.30229 9.69888 7.39421C9.72606 7.48613 9.77407 7.57211 9.83995 7.64688C9.90646 7.69957 9.98532 7.73842 10.0708 7.76061C10.1562 7.7828 10.2461 7.78775 10.3339 7.77516C10.6219 7.70746 10.7759 7.48475 10.7339 7.08744C10.6999 6.90865 10.609 6.74232 10.472 6.60818C10.3215 6.44137 10.136 6.30219 9.92593 6.19839C9.5615 6.06013 9.17928 5.96259 8.78795 5.90798C8.49795 5.8581 8.34994 5.76012 8.33194 5.65678C8.47194 5.68529 8.69996 5.7904 8.84996 5.76368C8.9552 5.74178 9.0536 5.69915 9.13795 5.63895C8.97483 5.62826 8.81107 5.62826 8.64796 5.63895C8.49855 5.63451 8.34993 5.61783 8.20396 5.58908C8.09962 5.58137 7.99908 5.55062 7.91143 5.49961C7.82378 5.44859 7.75179 5.37891 7.70196 5.29689C7.65796 5.10268 7.80395 5.06882 7.93995 5.19354C8.00513 5.26285 8.076 5.32777 8.15196 5.38775C8.23964 5.43869 8.33735 5.47436 8.43995 5.49286C8.63208 5.53438 8.83206 5.53802 9.02593 5.50354C8.95627 5.4339 8.8754 5.37386 8.78594 5.32538C8.70726 5.2764 8.61146 5.25428 8.51597 5.26302C8.4739 5.27311 8.4345 5.29061 8.40015 5.31448C8.3658 5.33835 8.33719 5.3681 8.31597 5.402C8.27797 5.1882 8.34595 4.94946 8.99595 5.04567C8.99595 4.88532 9.37397 4.81583 9.60797 4.81939C9.81625 4.83989 10.0191 4.8917 10.208 4.97261C10.5253 5.06015 10.8527 5.11574 11.1839 5.13832C11.0375 5.24484 10.8846 5.34417 10.7259 5.43586C10.9942 5.52683 11.2274 5.68451 11.398 5.89017C11.2433 5.87974 11.0878 5.88874 10.9359 5.9169C11.3219 6.01667 11.496 6.07369 11.7 6.25542C11.6237 6.26609 11.5482 6.28096 11.474 6.29996C11.428 6.316 11.448 6.33738 11.474 6.36766C11.562 6.41755 11.9 6.7721 12 6.85405C12.1 6.7721 12.4379 6.41755 12.5259 6.36766C12.5579 6.33738 12.5779 6.316 12.5259 6.29996C12.4524 6.28075 12.3776 6.26587 12.302 6.25542C12.502 6.07725 12.68 6.01667 13.066 5.9169C12.9141 5.88874 12.7586 5.87974 12.604 5.89017C12.7745 5.68451 13.0077 5.52683 13.2759 5.43586C13.1173 5.34417 12.9645 5.24484 12.818 5.13832C13.1486 5.11595 13.4753 5.06036 13.7919 4.97261C13.981 4.89208 14.1838 4.84029 14.3919 4.81939C14.624 4.81939 15.012 4.88532 15.004 5.04567C15.654 4.94589 15.7199 5.18464 15.6819 5.402C15.6608 5.36804 15.6322 5.33823 15.5979 5.31435C15.5635 5.29047 15.5241 5.27301 15.4819 5.26302C15.3865 5.25428 15.2907 5.2764 15.212 5.32538C15.1225 5.37386 15.0416 5.4339 14.972 5.50354C15.1659 5.53802 15.3658 5.53438 15.558 5.49286C15.6599 5.47435 15.757 5.43868 15.844 5.38775C15.9212 5.32839 15.9928 5.26342 16.058 5.19354C16.194 5.06882 16.34 5.10268 16.294 5.29689C16.2446 5.37888 16.173 5.44857 16.0857 5.49961C15.9983 5.55064 15.898 5.5814 15.794 5.58908C15.648 5.61783 15.4994 5.63451 15.35 5.63895C15.1868 5.62826 15.0231 5.62826 14.86 5.63895C14.9443 5.69915 15.0427 5.74178 15.148 5.76368C15.298 5.7904 15.526 5.68529 15.664 5.65678C15.648 5.76012 15.5 5.8581 15.208 5.90798C14.8174 5.96287 14.4358 6.06041 14.072 6.19839C13.8619 6.30219 13.6764 6.44137 13.5259 6.60818C13.3889 6.74232 13.298 6.90865 13.264 7.08744C13.216 7.48475 13.37 7.70746 13.664 7.77516C13.7518 7.78775 13.8417 7.7828 13.9272 7.76061C14.0126 7.73842 14.0915 7.69957 14.158 7.64688C14.2238 7.57211 14.2719 7.48613 14.299 7.39421C14.3262 7.30229 14.332 7.20637 14.316 7.11239C14.292 7.00905 14.158 6.74004 14.272 6.68302C14.7924 6.42878 15.3309 6.205 15.8839 6.01312C16.0099 5.97036 16.112 6.12179 16.152 6.18058C16.521 6.13528 16.874 6.01727 17.1854 5.83512C17.4968 5.65298 17.7586 5.41127 17.952 5.12761C18.168 4.7891 18.522 5.12763 18.462 5.45011C18.4035 5.6242 18.3048 5.78548 18.1722 5.92355C18.0396 6.06163 17.876 6.17346 17.6919 6.25185C17.2911 6.47049 16.8337 6.59323 16.364 6.60818C16.106 6.65094 16.108 6.94848 16.418 7.00371C17.018 7.00371 17.504 7.00371 17.958 6.60283C18.302 6.32311 18.496 6.65628 18.398 6.84692C18.228 7.42952 17.294 7.59344 16.346 7.40458C15.98 7.35113 16.2 7.70035 16.304 7.70391C16.704 7.9569 17.4059 8.20456 18.0299 7.70391C18.3159 7.50971 18.508 7.67182 18.402 7.95332C18.126 8.68559 17.0679 8.53238 16.3399 8.1707C16.1539 8.07806 15.984 8.29364 16.212 8.45933C17.116 9.02055 17.566 9.02768 17.974 8.81566C18.484 8.6375 18.5299 9.14171 18.2259 9.3074C17.8899 9.48557 17.026 9.35371 16.404 9.00094C16.134 8.82277 16.122 9.10072 16.2919 9.21119C17.0399 9.78666 17.334 9.93811 18.11 9.84368C18.496 9.81696 18.4899 10.241 18.1879 10.4067C17.7739 10.6329 16.9639 10.257 16.3359 9.79379C16.0719 9.66729 16.028 9.87396 16.16 10.118C16.4367 10.4674 16.8129 10.7448 17.25 10.9216C17.5428 11.0238 17.8662 11.0332 18.166 10.9483C18.454 10.8592 18.4899 11.1265 18.3319 11.3688C18.2359 11.5149 17.838 11.5612 17.408 11.4258C16.931 11.2535 16.516 10.9683 16.208 10.6009C15.934 10.3853 15.968 10.6739 16.094 10.877C16.726 11.7679 17.306 12.0993 18.068 12.044C18.406 11.9924 18.484 12.2222 18.268 12.4431C18.0916 12.5775 17.8671 12.6513 17.635 12.6513C17.4029 12.6513 17.1784 12.5775 17.002 12.4431C16.634 12.126 15.93 11.4454 15.56 11.0819C15.3 10.9038 15.218 11.0819 15.294 11.4543C15.364 11.6699 15.538 11.8961 16.01 12.0601C16.334 12.2258 16.092 12.452 15.848 12.4556C15.6055 12.4073 15.3893 12.2859 15.2359 12.1117C14.9639 11.8374 14.948 11.6538 14.798 11.2209C14.656 11.0142 14.398 11.1104 14.398 11.3278C14.52 11.7554 14.624 11.832 14.87 12.0066C15.116 12.1812 14.706 12.2685 14.572 12.1848C14.2607 11.9829 14.029 11.6986 13.91 11.3723C13.816 11.1746 13.544 11.2708 13.67 11.595C13.972 12.3683 14.4699 12.6747 15.3339 12.8297C15.4219 12.844 15.476 12.8903 15.446 12.9812C15.33 13.0899 15.212 13.1861 15.096 13.2948C15.632 13.4337 16.068 13.5121 16.606 13.6511C16.868 13.4961 17.082 13.366 17.344 13.2128C17.414 13.0685 17.4459 12.8565 17.8359 13.0026C17.9158 12.9532 18.0125 12.9302 18.1093 12.9377C18.2061 12.9452 18.2969 12.9826 18.366 13.0435C18.2936 13.0385 18.2209 13.0487 18.1538 13.0735C18.0867 13.0983 18.0271 13.1369 17.9799 13.1861C17.8719 13.4391 17.624 13.464 17.368 13.391C17.202 13.5157 17.114 13.6119 16.948 13.7366L17.7819 13.7134C18.0779 13.4319 18.312 13.448 18.524 13.6689C18.5964 13.6667 18.6677 13.6845 18.7283 13.7199C18.7888 13.7553 18.8355 13.8066 18.862 13.8667C18.688 13.8043 18.578 13.7847 18.504 13.8542Z" fill="#E31C11"/>
<path d="M9.63799 5.18799C9.44999 5.18799 9.32999 5.24143 9.32999 5.31091C9.32999 5.3804 9.44999 5.44632 9.63799 5.44632C9.82599 5.44632 9.946 5.38753 9.946 5.31626C9.946 5.245 9.82799 5.18799 9.63799 5.18799Z" fill="#E31C11"/>
<path d="M18.5221 13.6651C18.3101 13.4441 18.076 13.4281 17.78 13.7096L16.946 13.7328C17.112 13.6081 17.2001 13.5118 17.3661 13.3871C17.6221 13.4602 17.87 13.4352 17.978 13.1822C18.0252 13.133 18.0848 13.0944 18.1518 13.0697C18.2189 13.0449 18.2916 13.0346 18.3641 13.0397C18.295 12.9788 18.2042 12.9414 18.1074 12.9339C18.0106 12.9264 17.9138 12.9493 17.834 12.9987C17.434 12.8437 17.412 13.0646 17.342 13.209C17.08 13.3622 16.866 13.4923 16.604 13.6473C16.066 13.5083 15.63 13.4299 15.094 13.2909C15.21 13.1822 15.328 13.086 15.444 12.9774C15.474 12.8865 15.42 12.8402 15.332 12.8259C14.466 12.6709 13.9701 12.3645 13.6681 11.5912C13.5421 11.267 13.814 11.1707 13.908 11.3685C14.027 11.6947 14.2588 11.9791 14.5701 12.181C14.7041 12.2611 15.1041 12.1952 14.8681 12.0028C14.6321 11.8104 14.518 11.7516 14.396 11.324C14.396 11.1066 14.65 11.0104 14.796 11.2171C14.946 11.6429 14.962 11.8264 15.234 12.1079C15.3873 12.282 15.6036 12.4035 15.846 12.4517C16.09 12.4517 16.332 12.2219 16.008 12.0562C15.536 11.8923 15.362 11.666 15.292 11.4505C15.216 11.0745 15.292 10.8928 15.558 11.0781C15.928 11.4344 16.632 12.1222 17 12.4393C17.1764 12.5737 17.4009 12.6475 17.633 12.6475C17.8652 12.6475 18.0896 12.5737 18.2661 12.4393C18.4821 12.2219 18.4041 11.9885 18.0661 12.0402C17.3041 12.0954 16.724 11.764 16.092 10.8732C15.966 10.6701 15.932 10.3815 16.206 10.5971C16.514 10.9644 16.929 11.2497 17.406 11.422C17.836 11.5574 18.234 11.511 18.33 11.3649C18.488 11.1226 18.4521 10.8554 18.1641 10.9445C17.8643 11.0294 17.5409 11.0199 17.248 10.9177C16.811 10.741 16.4347 10.4636 16.158 10.1142C16.026 9.87013 16.07 9.66346 16.334 9.78996C16.962 10.2532 17.772 10.6291 18.186 10.4028C18.488 10.2371 18.494 9.81313 18.108 9.83985C17.332 9.93428 17.038 9.78283 16.29 9.20735C16.12 9.09689 16.132 8.81896 16.402 8.99713C17.03 9.35346 17.8881 9.48708 18.2241 9.30357C18.5281 9.13788 18.4821 8.63367 17.9721 8.81183C17.5721 9.02919 17.114 9.02207 16.21 8.4555C15.982 8.28981 16.152 8.07423 16.338 8.16687C17.066 8.5232 18.124 8.68178 18.4 7.94951C18.506 7.66801 18.314 7.50588 18.028 7.70008C17.404 8.20251 16.696 7.95485 16.302 7.70008C16.198 7.70008 15.978 7.34374 16.344 7.40075C17.292 7.58961 18.226 7.42569 18.396 6.84309C18.494 6.65245 18.3 6.31928 17.956 6.599C17.502 6.99097 17.0201 7.00344 16.4161 6.99988C16.1061 6.94464 16.104 6.64355 16.362 6.60435C16.8318 6.5894 17.2892 6.46666 17.69 6.24802C17.8741 6.16963 18.0376 6.0578 18.1703 5.91972C18.3029 5.78164 18.4016 5.62037 18.46 5.44627C18.52 5.12558 18.166 4.78529 17.95 5.12381C17.7567 5.40746 17.4949 5.64915 17.1835 5.83129C16.8721 6.01344 16.5191 6.13145 16.15 6.17675C16.11 6.11796 16.008 5.96652 15.882 6.00928C15.3289 6.20117 14.7905 6.42495 14.2701 6.67919C14.1561 6.7362 14.2901 7.00522 14.3141 7.10855C14.33 7.20254 14.3243 7.29845 14.2971 7.39038C14.2699 7.4823 14.2219 7.56828 14.156 7.64305C14.0895 7.69573 14.0107 7.73459 13.9253 7.75678C13.8398 7.77896 13.7499 7.78394 13.662 7.77135C13.374 7.70365 13.22 7.48094 13.262 7.08363C13.2961 6.90484 13.3871 6.73849 13.5241 6.60435C13.6745 6.43754 13.86 6.29835 14.0701 6.19456C14.4339 6.05658 14.8154 5.95904 15.206 5.90415C15.498 5.85426 15.646 5.75629 15.662 5.65295C15.524 5.68146 15.296 5.78657 15.146 5.75985C15.0408 5.73795 14.9424 5.69534 14.858 5.63514C15.0212 5.62445 15.1849 5.62445 15.348 5.63514C15.4974 5.6307 15.6461 5.614 15.792 5.58525C15.8961 5.57757 15.9964 5.54681 16.0837 5.49577C16.1711 5.44474 16.2427 5.37505 16.292 5.29305C16.338 5.09885 16.192 5.06501 16.056 5.18973C15.9908 5.25961 15.9193 5.32456 15.842 5.38392C15.7551 5.43485 15.658 5.47052 15.556 5.48903C15.3639 5.53055 15.1639 5.53421 14.9701 5.49973C15.0397 5.43009 15.1206 5.37005 15.21 5.32157C15.2887 5.27259 15.3845 5.25044 15.48 5.25919C15.5221 5.26918 15.5616 5.28664 15.5959 5.31052C15.6303 5.3344 15.6589 5.36421 15.68 5.39817C15.718 5.18437 15.652 4.94562 15.002 5.04183C15.002 4.88148 14.622 4.812 14.39 4.81556C14.1818 4.83646 13.979 4.88825 13.79 4.96878C13.4734 5.05653 13.1467 5.11212 12.8161 5.13448C12.9625 5.24101 13.1154 5.34034 13.2741 5.43203C13.0058 5.52299 12.7726 5.68068 12.602 5.88634C12.7567 5.87591 12.9122 5.88491 13.0641 5.91307C12.6781 6.01284 12.504 6.06986 12.3 6.25159C12.3757 6.26204 12.4506 6.27692 12.5241 6.29613C12.5721 6.31216 12.5521 6.33354 12.5241 6.36383C12.4361 6.41372 12.098 6.76827 11.998 6.85022C11.898 6.76827 11.5601 6.41372 11.4721 6.36383C11.4401 6.33354 11.4201 6.31216 11.4721 6.29613C11.5463 6.27713 11.6217 6.26225 11.698 6.25159C11.498 6.07342 11.32 6.01284 10.934 5.91307C11.0859 5.88491 11.2414 5.87591 11.396 5.88634C11.2255 5.68068 10.9923 5.52299 10.7241 5.43203C10.8827 5.34034 11.0355 5.24101 11.182 5.13448C10.8508 5.11191 10.5234 5.05632 10.206 4.96878C10.0172 4.88787 9.81433 4.83606 9.60604 4.81556C9.37204 4.81556 8.98603 4.88148 8.99403 5.04183C8.34403 4.94206 8.27605 5.1808 8.31405 5.39817C8.33527 5.36427 8.36388 5.33452 8.39823 5.31065C8.43258 5.28678 8.47198 5.26928 8.51405 5.25919C8.60953 5.25044 8.70534 5.27259 8.78402 5.32157C8.87348 5.37005 8.9544 5.43009 9.02406 5.49973C8.83018 5.53421 8.63016 5.53055 8.43802 5.48903C8.33543 5.47053 8.23771 5.43486 8.15004 5.38392C8.07408 5.32394 8.00321 5.25904 7.93802 5.18973C7.80202 5.06501 7.65604 5.09885 7.70004 5.29305C7.74987 5.37508 7.82186 5.44476 7.90951 5.49577C7.99716 5.54679 8.0977 5.57754 8.20204 5.58525C8.348 5.614 8.49663 5.6307 8.64603 5.63514C8.80915 5.62445 8.97291 5.62445 9.13602 5.63514C9.05168 5.69534 8.95328 5.73795 8.84803 5.75985C8.69803 5.78657 8.47002 5.68146 8.33002 5.65295C8.34802 5.75629 8.49602 5.85426 8.78602 5.90415C9.17735 5.95876 9.55963 6.0563 9.92406 6.19456C10.1341 6.29835 10.3196 6.43754 10.4701 6.60435C10.6071 6.73849 10.698 6.90484 10.732 7.08363C10.78 7.48094 10.626 7.70365 10.332 7.77135C10.2442 7.78394 10.1543 7.77896 10.0688 7.75678C9.98339 7.73459 9.90453 7.69573 9.83803 7.64305C9.77215 7.56828 9.72413 7.4823 9.69696 7.39038C9.66979 7.29845 9.66402 7.20254 9.68002 7.10855C9.70402 7.00522 9.83806 6.7362 9.72406 6.67919C9.20344 6.42528 8.66497 6.20151 8.11205 6.00928C7.98605 5.96652 7.88403 6.11796 7.84403 6.17675C7.47501 6.13145 7.12196 6.01344 6.81058 5.83129C6.49921 5.64915 6.23735 5.40746 6.04403 5.12381C5.82803 4.78529 5.47402 5.12379 5.53402 5.44627C5.59225 5.62073 5.69109 5.7823 5.82411 5.92044C5.95713 6.05858 6.12135 6.1702 6.30604 6.24802C6.70593 6.46711 7.16283 6.5899 7.63202 6.60435C7.89002 6.64711 7.88802 6.94464 7.57802 6.99988C6.97802 6.99988 6.49202 6.99988 6.03802 6.599C5.69402 6.31928 5.49803 6.65245 5.59803 6.84309C5.76803 7.42569 6.70203 7.58961 7.64803 7.40075C8.01603 7.3473 7.79603 7.69651 7.69203 7.70008C7.29203 7.95307 6.59005 8.20072 5.96605 7.70008C5.68005 7.50588 5.48803 7.66801 5.59403 7.94951C5.87003 8.68178 6.92804 8.52855 7.65404 8.16687C7.84204 8.07423 8.01202 8.28981 7.78402 8.4555C6.88002 9.01672 6.42806 9.02385 6.02206 8.81183C5.51206 8.63367 5.46606 9.13788 5.77006 9.30357C6.10606 9.48174 6.97003 9.3499 7.59203 8.99713C7.86203 8.81896 7.87404 9.09689 7.70204 9.20735C6.95604 9.78283 6.66202 9.93428 5.88402 9.83985C5.50002 9.81313 5.50604 10.2371 5.80804 10.4028C6.22204 10.6291 7.03205 10.2532 7.66005 9.78996C7.92405 9.66346 7.96602 9.87013 7.83602 10.1142C7.55932 10.4636 7.18308 10.741 6.74603 10.9177C6.45316 11.0199 6.12976 11.0294 5.83002 10.9445C5.54202 10.8554 5.50605 11.1226 5.66405 11.3649C5.76005 11.511 6.15802 11.5574 6.58802 11.422C7.06555 11.2505 7.48077 10.9651 7.78802 10.5971C8.06402 10.3815 8.03004 10.6701 7.90404 10.8732C7.27204 11.764 6.69202 12.0954 5.92802 12.0402C5.59002 11.9885 5.51402 12.2184 5.72802 12.4393C5.90442 12.5737 6.12891 12.6475 6.36102 12.6475C6.59313 12.6475 6.81762 12.5737 6.99403 12.4393C7.36203 12.1222 8.06602 11.4416 8.43402 11.0781C8.69602 10.8999 8.77804 11.0781 8.70204 11.4505C8.63204 11.666 8.45802 11.8923 7.98402 12.0562C7.66202 12.2219 7.90403 12.4482 8.14603 12.4517C8.38886 12.4043 8.6054 12.2827 8.75804 12.1079C9.03204 11.8335 9.04803 11.65 9.19803 11.2171C9.34003 11.0104 9.59803 11.1066 9.59803 11.324C9.47603 11.7516 9.37201 11.8282 9.12601 12.001C8.88001 12.1738 9.29006 12.2647 9.42406 12.1792C9.73561 11.9783 9.9674 11.6944 10.086 11.3685C10.18 11.1707 10.452 11.267 10.326 11.5912C10.024 12.3645 9.52605 12.6709 8.66005 12.8259C8.57205 12.8402 8.52004 12.8865 8.55004 12.9774C8.66604 13.086 8.78404 13.1822 8.90004 13.2909C8.36204 13.4299 7.92803 13.5083 7.39003 13.6473C7.12803 13.494 6.91404 13.3622 6.65004 13.209C6.58204 13.0646 6.54805 12.8526 6.16005 12.9987C6.08038 12.949 5.98357 12.9259 5.88666 12.9334C5.78974 12.9408 5.69888 12.9785 5.63002 13.0397C5.70216 13.0343 5.77472 13.0445 5.84154 13.0693C5.90837 13.0941 5.96753 13.1328 6.01405 13.1822C6.12205 13.4352 6.37201 13.4602 6.62601 13.3871C6.79201 13.5118 6.88003 13.6081 7.04603 13.7328L6.21205 13.7096C5.91805 13.4281 5.68206 13.4441 5.47206 13.6651C5.39946 13.663 5.32785 13.6808 5.26703 13.7162C5.20621 13.7516 5.15907 13.8028 5.13202 13.8628C5.30602 13.8005 5.41403 13.7809 5.49003 13.8504C5.80403 14.0125 6.00805 13.9769 6.16405 13.8504L7.04003 13.8985C6.93003 13.9822 6.77805 14.0267 6.66605 14.1123C6.21205 13.9965 5.97403 14.1515 5.89403 14.4828C5.83082 14.6122 5.80934 14.7548 5.83202 14.8944C5.86536 14.7664 5.95273 14.6548 6.07601 14.5826C6.47601 14.6735 6.63404 14.5274 6.65604 14.3118C6.85604 14.1693 7.14403 14.1336 7.34003 13.9947C7.56603 14.0588 7.67804 14.0998 7.90604 14.1728C7.98804 14.3938 8.17206 14.4811 8.47206 14.4241C8.82806 14.4347 8.76603 14.5648 8.79403 14.6699C8.82169 14.6356 8.84052 14.5963 8.84916 14.5548C8.85779 14.5133 8.85602 14.4706 8.84398 14.4297C8.83195 14.3889 8.80994 14.3509 8.77953 14.3185C8.74911 14.2861 8.71106 14.2601 8.66805 14.2423C8.65809 14.1964 8.63541 14.1533 8.60209 14.1172C8.56876 14.081 8.52583 14.0527 8.47719 14.0351C8.42854 14.0174 8.37571 14.0108 8.32347 14.0159C8.27124 14.0209 8.22123 14.0375 8.17802 14.0642C7.96002 14.0089 7.90202 13.9305 7.68402 13.8753C8.23402 13.7185 8.62601 13.6829 9.17601 13.519C9.31401 13.6348 9.42205 13.7167 9.56005 13.8201C9.63405 13.8593 9.70403 13.87 9.74603 13.8201C10.092 13.3764 10.2461 12.9845 10.5661 12.6923C10.6806 12.5504 10.8351 12.4379 11.0141 12.3662C11.0589 12.3546 11.1064 12.3537 11.1517 12.3637C11.197 12.3737 11.2386 12.3943 11.2721 12.4233C11.3164 12.4745 11.3481 12.5336 11.365 12.5965C11.3819 12.6595 11.3836 12.7249 11.3701 12.7885C11.3499 12.963 11.2871 13.1314 11.186 13.282C11.1096 13.4144 11.0149 13.5377 10.904 13.649C10.727 13.8369 10.5137 13.995 10.2741 14.1158C9.95606 14.294 9.82006 14.2192 9.57406 14.2085C9.25606 14.2406 9.17402 14.3867 9.43202 14.5648C9.62654 14.6616 9.85242 14.6962 10.0721 14.6628C10.2261 14.6379 10.404 14.4615 10.532 14.367C10.674 14.2192 10.912 14.3956 10.75 14.5666C10.456 14.8784 10.162 15.0833 9.79803 15.0797C9.41603 15.126 9.48803 15.3167 9.74003 15.4093C10.196 15.5768 10.6081 15.2632 10.8181 15.053C10.9801 14.8962 11.0941 14.8891 11.0661 15.1332C10.9061 15.575 10.686 15.7443 10.328 15.7674C10.04 15.7425 10.036 15.9456 10.248 16.0774C10.73 16.375 11.08 15.8672 11.248 15.5608C11.364 15.2846 11.544 15.4164 11.562 15.6445C11.562 15.9492 11.41 16.1968 10.996 16.5086C11.312 16.9576 11.682 17.4137 11.996 17.8644C12.312 17.4137 12.682 16.9576 12.996 16.5086C12.582 16.1968 12.428 15.9492 12.43 15.6445C12.45 15.4164 12.63 15.2882 12.744 15.5608C12.908 15.8672 13.256 16.375 13.744 16.0774C13.956 15.942 13.9441 15.7425 13.6641 15.7674C13.3061 15.7443 13.086 15.575 12.926 15.1332C12.898 14.8891 13.0121 14.8962 13.1741 15.053C13.3741 15.2597 13.794 15.5732 14.25 15.4093C14.504 15.3167 14.576 15.126 14.194 15.0797C13.83 15.0797 13.536 14.8784 13.242 14.5666C13.08 14.3884 13.316 14.2102 13.46 14.367C13.588 14.4615 13.7661 14.6379 13.9201 14.6628C14.1397 14.6962 14.3655 14.6616 14.56 14.5648C14.82 14.3742 14.7361 14.237 14.4181 14.2085C14.1721 14.2192 14.0361 14.3011 13.7181 14.1158C13.4781 13.9947 13.2641 13.8367 13.086 13.649C12.9757 13.5373 12.8811 13.414 12.804 13.282C12.7046 13.1309 12.6426 12.9627 12.6221 12.7885C12.6085 12.7249 12.6102 12.6595 12.6271 12.5965C12.644 12.5336 12.6757 12.4745 12.7201 12.4233C12.7536 12.3943 12.7951 12.3737 12.8404 12.3637C12.8857 12.3537 12.9332 12.3546 12.978 12.3662C13.1569 12.4379 13.3114 12.5504 13.426 12.6923C13.746 12.9845 13.9 13.3764 14.244 13.8201C14.288 13.87 14.358 13.8593 14.43 13.8201C14.57 13.7167 14.6781 13.6419 14.8161 13.519C15.3661 13.674 15.758 13.7096 16.308 13.8753C16.09 13.9305 16.0321 14.0089 15.8141 14.0642C15.7708 14.0375 15.7208 14.0209 15.6686 14.0159C15.6164 14.0108 15.5635 14.0174 15.5149 14.0351C15.4662 14.0527 15.4233 14.081 15.39 14.1172C15.3567 14.1533 15.334 14.1964 15.3241 14.2423C15.2811 14.2601 15.243 14.2861 15.2125 14.3185C15.1821 14.3509 15.1601 14.3889 15.1481 14.4297C15.136 14.4706 15.1343 14.5133 15.1429 14.5548C15.1515 14.5963 15.1704 14.6356 15.198 14.6699C15.226 14.5648 15.1641 14.4347 15.5201 14.4241C15.8201 14.4811 16.004 14.3938 16.086 14.1728C16.314 14.1087 16.424 14.0677 16.652 13.9947C16.852 14.139 17.142 14.1728 17.336 14.3118C17.358 14.5274 17.5101 14.6681 17.9161 14.5826C18.0393 14.6548 18.1267 14.7664 18.16 14.8944C18.183 14.7546 18.1608 14.6118 18.096 14.4828C18.016 14.1515 17.78 13.9965 17.326 14.1123C17.214 14.0267 17.062 13.9822 16.95 13.8985L17.828 13.8504C17.984 13.9769 18.188 14.0125 18.502 13.8504C18.576 13.7809 18.686 13.8005 18.858 13.8628C18.8317 13.8031 18.7853 13.752 18.7252 13.7166C18.665 13.6812 18.5941 13.6632 18.5221 13.6651ZM14.36 5.18438C14.55 5.18438 14.6701 5.23781 14.6701 5.3073C14.6701 5.37678 14.55 5.44271 14.36 5.44271C14.17 5.44271 14.054 5.38392 14.054 5.31265C14.054 5.24138 14.17 5.18794 14.36 5.18794V5.18438ZM9.63802 5.44271C9.45003 5.44271 9.33002 5.37857 9.33002 5.3073C9.33002 5.23603 9.45003 5.18438 9.63802 5.18438C9.82603 5.18438 9.94603 5.24317 9.94603 5.31265C9.94603 5.38213 9.82802 5.44627 9.63802 5.44627V5.44271Z" fill="#010102"/>
</g>
<defs>
<clipPath id="clip0_284_100808">
<rect width="24" height="21.3799" fill="white" transform="translate(0 0.65918)"/>
</clipPath>
</defs>
</svg>
