<svg width="24" height="23" viewBox="0 0 24 23" fill="none" xmlns="http://www.w3.org/2000/svg">
<g clip-path="url(#clip0_284_100798)">
<path d="M21.938 1.23287C22.3139 1.23334 22.6743 1.36659 22.9401 1.60338C23.2059 1.84017 23.3555 2.16121 23.356 2.49608V20.2022C23.3555 20.5371 23.2059 20.8581 22.9401 21.0949C22.6743 21.3317 22.3139 21.4649 21.938 21.4654H2.06201C1.6861 21.4649 1.32572 21.3317 1.05991 21.0949C0.7941 20.8581 0.644523 20.5371 0.643994 20.2022V2.49608C0.644523 2.16121 0.7941 1.84017 1.05991 1.60338C1.32572 1.36659 1.6861 1.23334 2.06201 1.23287H21.938ZM21.938 0.65918H2.06201C1.5153 0.659651 0.991126 0.853341 0.604541 1.19772C0.217956 1.5421 0.000529505 2.00905 0 2.49608V20.2022C0.000529505 20.6892 0.217956 21.1562 0.604541 21.5005C0.991126 21.8449 1.5153 22.0386 2.06201 22.0391H21.938C22.4845 22.0382 23.0084 21.8443 23.3949 21.5C23.7813 21.1558 23.9989 20.6891 24 20.2022V2.49608C23.9995 2.00905 23.782 1.5421 23.3955 1.19772C23.0089 0.853341 22.4847 0.659651 21.938 0.65918Z" fill="#CAB99E"/>
<path d="M21.9379 1.23291H2.06194C1.68602 1.23338 1.32565 1.36663 1.05984 1.60342C0.794027 1.84022 0.64445 2.16125 0.643921 2.49612V7.77516H23.3559V2.49612C23.3554 2.16125 23.2058 1.84022 22.94 1.60342C22.6742 1.36663 22.3138 1.23338 21.9379 1.23291Z" fill="#0099C6"/>
<path d="M0.643921 14.9123H23.3559V7.78564H0.643921V14.9123ZM15.2439 9.5673L15.6279 10.5258L16.6599 10.0876L16.1699 11.0087L17.2479 11.349L16.1719 11.691L16.6619 12.6104L15.6299 12.1739L15.2479 13.1324L14.8639 12.1739L13.8319 12.6122L14.3219 11.691L13.2459 11.3507L14.3219 11.0087L13.8299 10.0893L14.8619 10.5258L15.2439 9.5673ZM11.2439 8.14198C11.8371 8.141 12.4213 8.27061 12.9447 8.51927C13.4681 8.76794 13.9144 9.12794 14.2439 9.5673C13.8375 9.1665 13.3043 8.88481 12.7145 8.75936C12.1248 8.63391 11.5062 8.67059 10.9404 8.86456C10.3745 9.05853 9.88792 9.4007 9.5447 9.84595C9.20148 10.2912 9.01775 10.8186 9.01775 11.3588C9.01775 11.8989 9.20148 12.4263 9.5447 12.8716C9.88792 13.3168 10.3745 13.659 10.9404 13.853C11.5062 14.0469 12.1248 14.0836 12.7145 13.9582C13.3043 13.8327 13.8375 13.551 14.2439 13.1502C13.8968 13.6084 13.4225 13.9789 12.8673 14.2257C12.312 14.4725 11.6945 14.5872 11.0748 14.5588C10.4551 14.5304 9.85411 14.3597 9.33025 14.0633C8.80639 13.767 8.37741 13.3551 8.08494 12.8675C7.79247 12.38 7.64643 11.8333 7.66101 11.2807C7.67559 10.728 7.85033 10.1881 8.16819 9.71335C8.48605 9.23857 8.93626 8.84505 9.47517 8.57097C10.0141 8.29689 10.6234 8.15158 11.2439 8.14911V8.14198Z" fill="#E41128"/>
<path d="M11.24 14.5563C11.8331 14.5573 12.4174 14.4277 12.9408 14.179C13.4641 13.9304 13.9104 13.5704 14.24 13.131C13.8335 13.5318 13.3003 13.8135 12.7106 13.9389C12.1208 14.0644 11.5023 14.0277 10.9364 13.8337C10.3705 13.6398 9.88397 13.2976 9.54075 12.8524C9.19753 12.4071 9.0138 11.8797 9.0138 11.3395C9.0138 10.7994 9.19753 10.272 9.54075 9.82671C9.88397 9.38145 10.3705 9.03931 10.9364 8.84534C11.5023 8.65137 12.1208 8.61469 12.7106 8.74014C13.3003 8.86559 13.8335 9.14728 14.24 9.54808C13.8928 9.08988 13.4186 8.71941 12.8633 8.47261C12.308 8.22581 11.6906 8.11106 11.0708 8.1395C10.4511 8.16795 9.85016 8.33863 9.3263 8.63496C8.80244 8.93129 8.37346 9.34322 8.08099 9.83077C7.78852 10.3183 7.64248 10.865 7.65706 11.4176C7.67164 11.9703 7.84638 12.5102 8.16424 12.985C8.4821 13.4597 8.93231 13.8533 9.47122 14.1273C10.0101 14.4014 10.6194 14.5467 11.24 14.5492V14.5563Z" fill="white"/>
<path d="M14.3181 11L13.2401 11.342L14.3181 11.6841L13.828 12.6035L14.8601 12.1652L15.2441 13.1237L15.626 12.1652L16.6581 12.6017L16.1681 11.6823L17.2441 11.3403L16.1661 11L16.6561 10.0806L15.6241 10.5171L15.2401 9.55859L14.8581 10.5171L13.826 10.0806L14.3181 11Z" fill="white"/>
<path d="M0.643921 20.2023C0.64445 20.5372 0.794027 20.8582 1.05984 21.095C1.32565 21.3318 1.68602 21.4651 2.06194 21.4655H21.9379C22.3138 21.4651 22.6742 21.3318 22.94 21.095C23.2058 20.8582 23.3554 20.5372 23.3559 20.2023V14.9126H0.643921V20.2023Z" fill="#009551"/>
</g>
<defs>
<clipPath id="clip0_284_100798">
<rect width="24" height="21.3799" fill="white" transform="translate(0 0.65918)"/>
</clipPath>
</defs>
</svg>
