<svg width="24" height="23" viewBox="0 0 24 23" fill="none" xmlns="http://www.w3.org/2000/svg">
<g clip-path="url(#clip0_284_100827)">
<path d="M21.938 1.23287C22.3139 1.23334 22.6743 1.36659 22.9401 1.60338C23.2059 1.84017 23.3555 2.16121 23.356 2.49608V20.2022C23.3555 20.5371 23.2059 20.8581 22.9401 21.0949C22.6743 21.3317 22.3139 21.4649 21.938 21.4654H2.06201C1.6861 21.4649 1.32572 21.3317 1.05991 21.0949C0.7941 20.8581 0.644523 20.5371 0.643994 20.2022V2.49608C0.644523 2.16121 0.7941 1.84017 1.05991 1.60338C1.32572 1.36659 1.6861 1.23334 2.06201 1.23287H21.938ZM21.938 0.65918H2.06201C1.5153 0.659651 0.991126 0.853341 0.604541 1.19772C0.217956 1.5421 0.000529505 2.00905 0 2.49608V20.2022C0.000529505 20.6892 0.217956 21.1562 0.604541 21.5005C0.991126 21.8449 1.5153 22.0386 2.06201 22.0391H21.938C22.4845 22.0382 23.0084 21.8443 23.3949 21.5C23.7813 21.1558 23.9989 20.6891 24 20.2022V2.49608C23.9995 2.00905 23.782 1.5421 23.3955 1.19772C23.0089 0.853341 22.4847 0.659651 21.938 0.65918Z" fill="#CAB99E"/>
<path d="M5.05397 13.1949H4.82794V12.8528H4.60197V12.5107H4.37594V12.8528H4.14796V13.1949H3.92198V13.537H3.69596V13.8773H3.46998V14.2193H3.24396V14.5614H3.46998V14.9035H3.69596V15.2456H4.37594V14.9035H3.92198V14.5614H4.14796V14.2193H4.37594V13.8773H4.60197V14.2193H4.82794V14.5614H5.05397V14.9035H5.27994V14.7895V14.2193H5.05397V13.8773H5.27994V13.537H5.05397V13.1949Z" fill="white"/>
<path d="M5.054 10.4603H4.82798V10.8023H4.602V11.1444H4.37598V11.2816V11.3493V11.4865H4.602V11.8286H4.82798V12.1689H5.054V12.5109H5.27998V10.1182H5.054V10.4603Z" fill="white"/>
<path d="M5.05397 8.06892H4.82794V8.40922H4.60197V8.75131H4.37594V8.40922H4.14796V8.06892H3.92198V7.72685H4.37594V7.38477H3.69596V7.72685H3.46998V8.06892H3.24396V8.40922H3.46998V8.75131H3.69596V9.09337H3.92198V9.43546H4.14796V9.77754H4.37594V10.1178H4.60197V9.77754H4.82794V9.43546H5.05397V9.09337H5.27994V8.75131H5.05397V8.40922H5.27994V7.72685H5.05397V8.06892Z" fill="white"/>
<path d="M0.757935 11.4864H0.983911V11.3492V11.2815V11.1443H0.757935V10.8022H0.643921V11.8285H0.757935V11.4864Z" fill="white"/>
<path d="M0.757935 10.1178H0.983911V9.77754H1.20994V9.43546H1.43591V9.09337H1.66194V8.75131H1.88792V8.40922H2.11394V8.06892H1.88792V7.72685H1.66194V7.38477H0.983911V7.72685H1.43591V8.06892H1.20994V8.40922H0.983911V8.75131H0.757935V8.40922H0.643921V9.77754H0.757935V10.1178Z" fill="white"/>
<path d="M0.757935 13.8773H0.983911V14.2193H1.20994V14.5614H1.43591V14.9035H0.983911V15.2456H1.66194V14.9035H1.88792V14.5614H2.11394V14.2193H1.88792V13.8773H1.66194V13.537H1.43591V13.1949H1.20994V12.8528H0.983911V12.5107H0.757935V12.8528H0.643921V14.2193H0.757935V13.8773Z" fill="white"/>
<path d="M0.757983 6.0183H0.98396V5.67623H1.20999V5.33414H1.43596V5.67623H1.66199V6.0183H1.88796V6.36038H2.11399V6.70247H2.33997V7.04453H2.56599V7.38662H2.79998V7.04453H3.02595V6.70247H3.25198V6.36038H3.47795V6.02008H3.70398V5.67801H3.93196V5.33593H4.15598V5.67801H4.38396V6.02008H4.59998V6.36038H4.82595V6.70247H5.05198V7.04453H5.27795V6.36038H5.05198V6.02008H5.27795V4.99384H5.05198V5.33593H4.82595V5.67801H4.59998V5.33593H4.374V4.99384H4.14597V4.65178H4.374V4.31147H4.59998V3.96939H4.82595V4.31147H5.05198V4.65178H5.27795V3.62732H5.05198V3.28524H5.27795V2.60109H5.05198V2.94315H4.82595V3.28524H4.59998V3.62732H4.374V3.96939H4.14597V4.31147H3.922V3.96939H3.69397V3.62732H3.46799V3.28524H3.24197V2.94315H3.01599V2.60109H2.79998V2.26257H3.02595V1.92048H3.25198V1.57841H3.47795V1.23633H2.79998V1.57841H2.574V1.23633H2.07C2.01183 1.23723 1.95373 1.24081 1.89597 1.24703V1.57841H2.122V1.92048H2.34797V2.26257H2.574V2.60287H2.34797V2.94493H2.122V3.28702H1.89597V3.62911H1.67V3.97117H1.44397V4.31326H1.21799V3.97117H0.991968V3.62911H0.765991V3.28702H0.651978V3.97117H0.765991V4.31326H0.991968V4.65356H1.21799V4.99563H0.991968V5.33771H0.765991V5.6798H0.651978V6.36038H0.765991L0.757983 6.0183ZM2.79998 6.36038H2.574V5.67801H2.79998V6.36038ZM3.02595 4.65178V4.31147H3.25198V3.96939H3.47795V4.31147H3.70398V4.65178H3.93196V4.99384H3.70398V5.33593H3.47795V5.67801H3.25198V5.33593H3.02595V4.99384H2.79998V4.65178H3.02595ZM2.574 3.28524H2.79998V3.96939H2.574V3.28524ZM1.44397 4.65178H1.67V4.31147H1.89597V3.96939H2.122V4.31147H2.34797V4.65178H2.574V4.99384H2.34797V5.33593H2.122V5.67801H1.89597V5.33593H1.67V4.99384H1.44397V4.65178Z" fill="white"/>
<path d="M3.47 21.3961V21.054H3.24397V20.7137H3.01799V20.3716H2.79998V20.0295H3.02595V19.6875H3.25198V19.3454H3.47795V19.0104H3.70398V18.6701H3.93196V18.3281H4.15598V18.6701H4.38396V19.0104H4.59998V19.3525H4.82595V19.6946H5.05198V20.0367H5.27795V19.3525H5.05198V19.0104H5.27795V17.986H5.05198V18.3281H4.82595V18.6701H4.59998V18.3281H4.374V17.986H4.14597V17.6439H4.374V17.3018H4.59998V16.9615H4.82595V17.3018H5.05198V17.6439H5.27795V16.6194H5.05198V16.2774H5.27795V15.5932H5.05198V15.9353H4.82595V16.2774H4.59998V16.6194H4.374V16.9615H4.14597V17.3018H3.922V16.9615H3.69397V16.6194H3.46799V16.2774H3.24197V15.9353H3.01599V15.5932H2.79998V15.2529H2.574V15.5932H2.34797V15.9353H2.122V16.2774H1.89597V16.6194H1.67V16.9615H1.44397V17.3018H1.21799V16.9615H0.991968V16.6194H0.765991V16.2774H0.651978V16.9615H0.765991V17.3018H0.991968V17.6439H1.21799V17.986H0.991968V18.3281H0.765991V18.6701H0.651978V19.3525H0.765991V19.0104H0.991968V18.6701H1.21799V18.3281H1.44397V18.6701H1.67V19.0104H1.89597V19.3525H2.122V19.6946H2.34797V20.0367H2.574V20.3788H2.34797V20.7208H2.122V21.0611H1.89597V21.4032H1.67V21.421C1.80004 21.4545 1.93463 21.4719 2.07 21.4727H2.574V21.0611H2.79998V21.4727H3.70398V21.4032L3.47 21.3961ZM3.01799 17.6368V17.2947H3.24397V16.9544H3.47V17.2947H3.69597V17.6368H3.924V17.9789H3.69597V18.3209H3.47V18.663H3.24397V18.3209H3.01799V17.9789H2.79998V17.6368H3.01799ZM2.56599 16.2703H2.79998V16.9544H2.574L2.56599 16.2703ZM2.33997 17.9789V18.3209H2.11399V18.663H1.88796V18.3209H1.66199V17.9789H1.43596V17.6368H1.66199V17.2947H1.88796V16.9544H2.11399V17.2947H2.33997V17.6368H2.56599V17.9789H2.33997ZM2.70198 19.3454H2.56599V18.663H2.79998V19.3454H2.70198Z" fill="white"/>
<path d="M2.11399 13.1947H2.33997V13.5368H2.56599V13.8771H2.79998V13.5368H3.02595V13.1947H3.25198V12.8527H3.47795V12.5106H3.70398V12.1685H3.93196V10.4581H3.70398V10.116H3.47795V9.77575H3.25198V9.43366H3.02595V9.09158H2.79998V8.74951H2.574V9.09158H2.34797V9.43366H2.122V9.77575H1.89597V10.116H1.67V10.4581H1.44397V12.1667H1.67V12.5088H1.89597V12.8509H2.122L2.11399 13.1947ZM3.47 11.3489V11.1441H3.69597V11.4861H3.47V11.3489ZM1.88796 11.2812V11.4861H1.66199V11.1441H1.88796V11.2812ZM2.79197 13.1947H2.56599V12.8527H2.79998L2.79197 13.1947ZM2.56599 9.43545H2.79998V9.77753H2.574L2.56599 9.43545ZM2.11399 11.8282H2.33997V11.4861H2.56599V11.1441H2.33997V10.802H2.11399V10.1178H2.33997V10.4581H2.56599V10.8002H2.79998V10.4581H3.02595V10.116H3.25198V10.8002H3.02595V11.1423H2.79998V11.4844H3.02595V11.8264H3.25198V12.5088H3.02595V12.1667H2.79998V11.8264H2.574V12.1667H2.34797V12.5088H2.122L2.11399 11.8282Z" fill="white"/>
<path d="M5.054 21.396V21.0539H5.27998V20.3716H5.054V20.7137H4.82798V21.0539H4.602V21.396H4.37598V21.4655H5.27998V21.396H5.054Z" fill="white"/>
<path d="M4.82791 1.575V1.91708H5.05393V2.25915H5.27991V1.575H5.05393V1.23291H4.60193V1.575H4.82791Z" fill="white"/>
<path d="M0.757935 5.33431H0.983911V4.99223H1.20994V4.65016H0.983911V4.30986H0.757935V3.96777H0.643921V5.6764H0.757935V5.33431Z" fill="#E6303C"/>
<path d="M0.757935 3.62558H0.983911V3.96765H1.20994V4.30973H1.43591V3.96765H1.66194V3.62558H1.88792V3.28349H2.11394V2.94143H2.33992V2.59934H2.56594V2.26261H2.33992V1.92052H2.11394V1.57846H1.88792V1.24707C1.54583 1.28475 1.23088 1.43213 1.00193 1.66167C0.772974 1.8912 0.645692 2.18717 0.643921 2.49423V3.28171H0.757935V3.62558Z" fill="#E6303C"/>
<path d="M1.66194 5.33431H1.88792V5.6764H2.11394V5.33431H2.33992V4.99223H2.56594V4.65016H2.33992V4.30986H2.11394V3.96777H1.88792V4.30986H1.66194V4.65016H1.43591V4.99223H1.66194V5.33431Z" fill="#E6303C"/>
<path d="M1.66199 11.2812V11.3489V11.4861H1.88796V11.3489V11.2812V11.144H1.66199V11.2812Z" fill="#E6303C"/>
<path d="M5.05408 4.30986H4.82805V3.96777H4.60208V4.30986H4.37605V4.65016H4.14807V4.99223H4.37605V5.33431H4.60208V5.6764H4.82805V5.33431H5.05408V4.99223H5.28005V4.65016H5.05408V4.30986Z" fill="#E6303C"/>
<path d="M3.24399 1.575V1.91708H3.01802V2.25915H2.79199V2.59945H3.01802V2.94154H3.24399V3.2836H3.47002V3.62569H3.696V3.96775H3.92202V4.30984H4.148V3.96775H4.37598V3.62569H4.602V3.2836H4.82798V2.94154H5.054V2.59945H5.27998V2.25915H5.054V1.91708H4.82798V1.575H4.602V1.23291H4.37598H3.696H3.47002V1.575H3.24399Z" fill="#E6303C"/>
<path d="M5.27999 1.23291H5.05402V1.575H5.27999V1.23291Z" fill="#E6303C"/>
<path d="M5.27999 3.28369H5.05402V3.62578H5.27999V3.28369Z" fill="#E6303C"/>
<path d="M2.79199 4.99223H3.01802V5.33431H3.24399V5.6764H3.47002V5.33431H3.696V4.99223H3.92202V4.65016H3.696V4.30986H3.47002V3.96777H3.24399V4.30986H3.01802V4.65016H2.79199V4.99223Z" fill="#E6303C"/>
<path d="M5.27999 6.01855H5.05402V6.36064H5.27999V6.01855Z" fill="#E6303C"/>
<path d="M2.65603 5.67627H2.56604V6.35864H2.65603H2.70203H2.79202V5.67627H2.70203H2.65603Z" fill="#E6303C"/>
<path d="M2.65603 1.575H2.70203H2.79202V1.23291H2.56604V1.575H2.65603Z" fill="#E6303C"/>
<path d="M2.70203 3.96784H2.79202V3.28369H2.70203H2.65603H2.56604V3.96784H2.65603H2.70203Z" fill="#E6303C"/>
<path d="M5.27999 8.40918H5.05402V8.75127H5.27999V8.40918Z" fill="#E6303C"/>
<path d="M2.34005 12.1689H2.56608V11.8286H2.65607H2.70206H2.79205V12.1689H3.01808V12.5109H3.24406V11.8286H3.01808V11.4865H2.79205V11.3493V11.2816V11.1444H3.01808V10.8023H3.24406V10.1182H3.01808V10.4603H2.79205V10.8023H2.70206H2.65607H2.56608V10.4603H2.34005V10.1182H2.11407V10.8023H2.34005V11.1444H2.56608V11.2816V11.3493V11.4865H2.34005V11.8286H2.11407V12.5109H2.34005V12.1689Z" fill="#E6303C"/>
<path d="M0.757983 16.6121H0.98396V16.9541H1.20999V17.2944H1.43596V16.9541H1.66199V16.6121H1.88796V16.27H2.11399V15.9279H2.33997V15.5858H2.56599V15.2455H2.79998V15.5858H3.02595V15.9279H3.25198V16.27H3.47795V16.6121H3.70398V16.9541H3.93196V17.2944H4.15598V16.9541H4.38396V16.6121H4.59998V16.27H4.82595V15.9279H5.05198V15.5858H5.27795V14.9124H5.05198V14.556H4.82595V14.2139H4.59998V13.8719H4.374V14.2139H4.14597V14.556H3.922V14.9124H4.374V15.2544H3.69397V14.9124H3.46799V14.556H3.24197V14.2139H3.46799V13.8719H3.69397V13.5316H3.922V13.1895H4.14597V12.8474H4.374V12.5053H4.59998V12.8474H4.82595V13.1895H5.05198V13.5316H5.27795V12.5053H5.05198V12.1632H4.82595V11.823H4.59998V11.4809H4.374V11.1388H4.59998V10.7967H4.82595V10.4582H5.05198V10.1161H5.27795V9.09167H5.05198V9.43375H4.82595V9.77584H4.59998V10.1161H4.374V9.77584H4.14597V9.43375H3.922V9.09167H3.69397V8.7496H3.46799V8.40752H3.24197V8.06721H3.46799V7.72515H3.69397V7.38306H4.374V7.72515H3.922V8.06721H4.14597V8.40752H4.374V8.7496H4.59998V8.40752H4.82595V8.06721H5.05198V7.72515H5.27795V7.04098H5.05198V6.69891H4.82595V6.36039H4.59998V6.02009H4.374V5.67802H4.14597V5.33594H3.922V5.67802H3.69397V6.02009H3.46799V6.36039H3.24197V6.70248H3.01599V7.04454H2.79998V7.38663H2.574V7.04454H2.34797V6.70248H2.122V6.36039H1.89597V6.02009H1.67V5.67802H1.44397V5.33594H1.21799V5.67802H0.991968V6.02009H0.765991V6.36039H0.651978V8.41108H0.765991V8.75317H0.991968V8.41108H1.21799V8.07078H1.44397V7.72872H0.991968V7.38663H1.67V7.72872H1.89597V8.07078H2.122V8.41108H1.89597V8.75317H1.67V9.09523H1.44397V9.43732H1.21799V9.77939H0.991968V10.1197H0.765991V9.77939H0.651978V10.8038H0.765991V11.1459H0.991968V11.488H0.765991V11.8301H0.651978V12.8545H0.765991V12.5125H0.991968V12.8545H1.21799V13.1966H1.44397V13.5387H1.67V13.879H1.89597V14.2211H2.122V14.556H1.89597V14.9124H1.67V15.2544H0.991968V14.9124H1.44397V14.556H1.21799V14.2139H0.991968V13.8719H0.765991V14.2139H0.651978V16.2646H0.765991L0.757983 16.6121ZM1.88796 12.8527V12.5107H1.66199V12.1686H1.43596V10.4582H1.66199V10.1161H1.88796V9.77584H2.11399V9.43375H2.33997V9.09167H2.56599V8.7496H2.79998V9.09167H3.02595V9.43375H3.25198V9.77584H3.47795V10.1161H3.70398V10.4582H3.93196V12.1668H3.70398V12.5089H3.47795V12.851H3.25198V13.1931H3.02595V13.5351H2.79998V13.8754H2.574V13.5351H2.34797V13.1931H2.122V12.851L1.88796 12.8527Z" fill="#E6303C"/>
<path d="M2.70203 9.77763H2.79202V9.43555H2.70203H2.65603H2.56604V9.77763H2.65603H2.70203Z" fill="#E6303C"/>
<path d="M0.757935 18.3206H0.983911V17.9786H1.20994V17.6383H0.983911V17.2962H0.757935V16.9541H0.643921V18.6627H0.757935V18.3206Z" fill="#E6303C"/>
<path d="M2.79202 18.6631H2.70203H2.65603H2.56604V19.3455H2.65603H2.70203H2.79202V18.6631Z" fill="#E6303C"/>
<path d="M1.88792 21.3961V21.0541H2.11394V20.7138H2.33992V20.3717H2.56594V20.0296H2.33992V19.6875H2.11394V19.3454H1.88792V19.0105H1.66194V18.6702H1.43591V18.3281H1.20994V18.6702H0.983911V19.0105H0.757935V19.3526H0.643921V20.2095C0.644333 20.4823 0.743674 20.7476 0.927124 20.9659C1.11057 21.1842 1.36833 21.3439 1.66194 21.4211V21.4033L1.88792 21.3961Z" fill="#E6303C"/>
<path d="M2.56594 17.6383H2.33992V17.2962H2.11394V16.9541H1.88792V17.2962H1.66194V17.6383H1.43591V17.9786H1.66194V18.3206H1.88792V18.6627H2.11394V18.3206H2.33992V17.9786H2.56594V17.6383Z" fill="#E6303C"/>
<path d="M4.602 21.3959V21.0539H4.82798V20.7136H5.054V20.3715H5.27998V20.0294H5.054V19.6873H4.82798V19.3453H4.602V19.0032H4.37598V18.6629H4.148V18.3208H3.92202V18.6629H3.696V19.0032H3.47002V19.3453H3.24399V19.6873H3.01802V20.0294H2.79199V20.3715H3.01802V20.7136H3.24399V21.0539H3.47002V21.3959H3.696V21.4654H4.37598V21.3959H4.602Z" fill="#E6303C"/>
<path d="M5.27999 19.0029H5.05402V19.345H5.27999V19.0029Z" fill="#E6303C"/>
<path d="M5.27999 21.0537H5.05402V21.3958H5.27999V21.0537Z" fill="#E6303C"/>
<path d="M2.79199 17.9786H3.01802V18.3206H3.24399V18.6627H3.47002V18.3206H3.696V17.9786H3.92202V17.6383H3.696V17.2962H3.47002V16.9541H3.24399V17.2962H3.01802V17.6383H2.79199V17.9786Z" fill="#E6303C"/>
<path d="M5.27999 16.27H5.05402V16.6121H5.27999V16.27Z" fill="#E6303C"/>
<path d="M5.05408 17.2962H4.82805V16.9541H4.60208V17.2962H4.37605V17.6383H4.14807V17.9786H4.37605V18.3206H4.60208V18.6627H4.82805V18.3206H5.05408V17.9786H5.28005V17.6383H5.05408V17.2962Z" fill="#E6303C"/>
<path d="M2.70203 21.0537H2.65603H2.56604V21.4653H2.79202V21.0537H2.70203Z" fill="#E6303C"/>
<path d="M2.70203 16.9542H2.79202V16.27H2.70203H2.65603H2.56604V16.9542H2.65603H2.70203Z" fill="#E6303C"/>
<path d="M3.69601 11.3489V11.2812V11.144H3.47003V11.2812V11.3489V11.4861H3.69601V11.3489Z" fill="#E6303C"/>
<path d="M5.27999 13.8774H5.05402V14.2195H5.27999V13.8774Z" fill="#E6303C"/>
<path d="M2.65603 12.853H2.56604V13.1951H2.65603H2.70203H2.79202V12.853H2.70203H2.65603Z" fill="#E6303C"/>
<path d="M21.938 1.23291H5.27997V14.7896H23.356V2.49612C23.3555 2.16125 23.2059 1.84022 22.9401 1.60342C22.6743 1.36663 22.3139 1.23338 21.938 1.23291Z" fill="#E6303C"/>
<path d="M5.27997 14.9124V21.4742H21.938C22.3139 21.4737 22.6743 21.3405 22.9401 21.1037C23.2059 20.8669 23.3555 20.5459 23.356 20.211V14.7983H5.27997V14.9124Z" fill="#009E4D"/>
</g>
<defs>
<clipPath id="clip0_284_100827">
<rect width="24" height="21.3799" fill="white" transform="translate(0 0.65918)"/>
</clipPath>
</defs>
</svg>
