<svg width="24" height="22" viewBox="0 0 24 22" fill="none" xmlns="http://www.w3.org/2000/svg">
<g clip-path="url(#clip0_284_100795)">
<path d="M21.938 0.992634C22.3139 0.993106 22.6743 1.12635 22.9401 1.36315C23.2059 1.59994 23.3555 1.92097 23.356 2.25585V19.962C23.3555 20.2968 23.2059 20.6179 22.9401 20.8547C22.6743 21.0914 22.3139 21.2247 21.938 21.2252H2.06201C1.6861 21.2247 1.32572 21.0914 1.05991 20.8547C0.7941 20.6179 0.644523 20.2968 0.643994 19.962V2.25585C0.644523 1.92097 0.7941 1.59994 1.05991 1.36315C1.32572 1.12635 1.6861 0.993106 2.06201 0.992634H21.938ZM21.938 0.418945H2.06201C1.5153 0.419417 0.991126 0.613107 0.604541 0.957488C0.217956 1.30187 0.000529505 1.76882 0 2.25585V19.962C0.000529505 20.449 0.217956 20.9159 0.604541 21.2603C0.991126 21.6047 1.5153 21.7984 2.06201 21.7989H21.938C22.4845 21.7979 23.0084 21.6041 23.3949 21.2598C23.7813 20.9155 23.9989 20.4488 24 19.962V2.25585C23.9995 1.76882 23.782 1.30187 23.3955 0.957488C23.0089 0.613107 22.4847 0.419417 21.938 0.418945Z" fill="#CAB99E"/>
<path d="M21.9379 0.992676H2.06197C1.68605 0.993147 1.32568 1.12639 1.05987 1.36319C0.794057 1.59998 0.644481 1.92101 0.643951 2.25589V7.53492H23.356V2.25589C23.3554 1.92101 23.2059 1.59998 22.94 1.36319C22.6742 1.12639 22.3139 0.993147 21.9379 0.992676Z" fill="white"/>
<path d="M23.356 7.53467H0.643951V14.6667H23.356V7.53467Z" fill="#00956C"/>
<path d="M0.643951 19.9621C0.644481 20.297 0.794057 20.618 1.05987 20.8548C1.32568 21.0916 1.68605 21.2248 2.06197 21.2253H21.9379C22.3139 21.2248 22.6742 21.0916 22.94 20.8548C23.2059 20.618 23.3554 20.297 23.356 19.9621V14.6724H0.643951V19.9621Z" fill="#E4290F"/>
</g>
<defs>
<clipPath id="clip0_284_100795">
<rect width="24" height="21.3799" fill="white" transform="translate(0 0.418945)"/>
</clipPath>
</defs>
</svg>
