<svg width="24" height="22" viewBox="0 0 24 22" fill="none" xmlns="http://www.w3.org/2000/svg">
<g clip-path="url(#clip0_284_100804)">
<path d="M21.938 0.992634C22.3139 0.993106 22.6743 1.12635 22.9401 1.36315C23.2059 1.59994 23.3555 1.92097 23.356 2.25585V19.962C23.3555 20.2968 23.2059 20.6179 22.9401 20.8547C22.6743 21.0914 22.3139 21.2247 21.938 21.2252H2.06201C1.6861 21.2247 1.32572 21.0914 1.05991 20.8547C0.7941 20.6179 0.644523 20.2968 0.643994 19.962V2.25585C0.644523 1.92097 0.7941 1.59994 1.05991 1.36315C1.32572 1.12635 1.6861 0.993106 2.06201 0.992634H21.938ZM21.938 0.418945H2.06201C1.5153 0.419417 0.991126 0.613107 0.604541 0.957488C0.217956 1.30187 0.000529505 1.76882 0 2.25585V19.962C0.000529505 20.449 0.217956 20.9159 0.604541 21.2603C0.991126 21.6047 1.5153 21.7984 2.06201 21.7989H21.938C22.4845 21.7979 23.0084 21.6041 23.3949 21.2598C23.7813 20.9155 23.9989 20.4488 24 19.962V2.25585C23.9995 1.76882 23.782 1.30187 23.3955 0.957488C23.0089 0.613107 22.4847 0.419417 21.938 0.418945Z" fill="#CAB99E"/>
<path d="M21.9379 0.992676H2.06194C1.68602 0.993147 1.32565 1.12639 1.05984 1.36319C0.794027 1.59998 0.64445 1.92101 0.643921 2.25589V19.962C0.64445 20.2969 0.794027 20.6179 1.05984 20.8547C1.32565 21.0915 1.68602 21.2247 2.06194 21.2252H21.9379C22.3138 21.2247 22.6742 21.0915 22.94 20.8547C23.2058 20.6179 23.3554 20.2969 23.3559 19.962V2.25589C23.3554 1.92101 23.2058 1.59998 22.94 1.36319C22.6742 1.12639 22.3138 0.993147 21.9379 0.992676ZM4.57395 13.4643C4.59115 13.4616 4.6087 13.4616 4.6259 13.4643C4.71701 13.4714 4.80357 13.5031 4.87395 13.5552C4.96645 13.6147 5.05336 13.6809 5.13391 13.7529C5.23525 13.8429 5.33141 13.9375 5.42195 14.0362C5.43195 14.054 5.52192 14.1983 5.59392 14.3409C5.62877 14.4064 5.65562 14.4751 5.67395 14.5458C5.68107 14.5667 5.68107 14.589 5.67395 14.6099C5.67027 14.6159 5.6647 14.6209 5.65793 14.6242C5.65279 14.6259 5.64706 14.6259 5.64192 14.6242C5.48478 14.5848 5.33513 14.5248 5.19793 14.446C5.02617 14.3639 4.86965 14.2588 4.73391 14.1342C4.63351 14.0128 4.57889 13.8663 4.57791 13.7155C4.56834 13.6297 4.56705 13.5432 4.57395 13.4572V13.4643ZM5.50393 15.1408C5.35443 15.1414 5.20517 15.1301 5.05793 15.107C4.98457 15.09 4.91701 15.0573 4.86121 15.0117C4.8054 14.966 4.76305 14.9088 4.73792 14.8451C4.70351 14.7738 4.67934 14.699 4.66594 14.6224C5.19794 14.6348 5.44794 14.7738 5.56594 14.8878C5.63705 14.9555 5.68189 15.0417 5.69392 15.1337C5.69392 15.1337 5.61993 15.1337 5.50593 15.1337L5.50393 15.1408ZM6.05793 14.6473C6.01513 14.5993 5.97506 14.5493 5.93792 14.4977C5.87314 14.4243 5.83111 14.337 5.81594 14.2447C5.81594 14.1734 5.79791 14.022 5.78591 13.9382C5.77391 13.8545 5.75793 13.7405 5.75593 13.7333C5.84636 13.7609 5.92586 13.8113 5.98479 13.8783C6.04372 13.9454 6.07953 14.0262 6.08791 14.111C6.08592 14.3694 6.05793 14.6384 6.05793 14.6402V14.6473ZM6.2759 14.9431C6.53132 15.1433 6.72833 15.3958 6.84993 15.6789C6.68185 15.6385 6.52048 15.5786 6.36995 15.5007C6.22942 15.4337 6.10854 15.3381 6.01716 15.2217C5.92579 15.1053 5.86645 14.9714 5.84392 14.8308H5.89592H5.90994C6.04134 14.8306 6.16943 14.8673 6.2759 14.9359V14.9431ZM6.05593 15.4776C6.06815 15.4908 6.07606 15.5068 6.07888 15.5237C6.0817 15.5407 6.07933 15.558 6.07195 15.5738C6.05195 15.6023 6.00391 15.6166 5.92991 15.6166C5.87401 15.6225 5.81744 15.613 5.76775 15.5894C5.71806 15.5658 5.67764 15.5293 5.65193 15.4847C5.63253 15.4424 5.62496 15.3966 5.62991 15.3511C5.6613 15.3441 5.69354 15.3405 5.7259 15.3404C5.78883 15.3379 5.85157 15.3488 5.90891 15.372C5.96626 15.3952 6.01662 15.4302 6.05593 15.474V15.4776ZM7.04192 16.1136C6.88341 16.1474 6.72093 16.1642 6.55793 16.1635C6.39682 16.1639 6.23624 16.1465 6.07991 16.1118C5.91247 16.0902 5.76 16.014 5.65193 15.898C5.63079 15.8708 5.61648 15.8398 5.60994 15.8072C5.6082 15.7948 5.6082 15.7822 5.60994 15.7698C5.74667 15.7392 5.88694 15.7231 6.02791 15.7217H6.05793C6.17282 15.7208 6.28748 15.731 6.39993 15.752C6.65488 15.7985 6.88265 15.9249 7.04192 16.1083V16.1136ZM6.37791 14.6081C6.41445 14.5931 6.45376 14.584 6.49392 14.5814H6.5259C6.68302 14.5972 6.82677 14.6676 6.9259 14.7774C7.15886 15.0358 7.32793 15.3351 7.42195 15.6557C7.28471 15.6001 7.15733 15.5269 7.04392 15.4384C6.75007 15.212 6.52163 14.9261 6.37791 14.6046V14.6081ZM8.47395 16.4361C7.84395 16.4165 7.51793 16.2579 7.35393 16.1279C7.2847 16.0727 7.22711 16.0069 7.18391 15.9337C7.169 15.9056 7.15696 15.8764 7.14792 15.8464C7.19842 15.8323 7.25102 15.8251 7.30393 15.825H7.31794C7.53194 15.8214 7.96395 15.9016 8.47395 16.4325V16.4361ZM7.53591 15.4829C7.55554 15.4754 7.57657 15.4712 7.59792 15.4704C7.64656 15.4752 7.69263 15.4923 7.73059 15.5198C7.76855 15.5473 7.79682 15.584 7.81194 15.6254C7.82959 15.6595 7.83314 15.698 7.82195 15.7341C7.81367 15.7493 7.80048 15.7621 7.78411 15.7706C7.76773 15.7792 7.74886 15.7832 7.72991 15.7822C7.70612 15.7829 7.68247 15.7792 7.66042 15.7712C7.63838 15.7632 7.61844 15.7512 7.60193 15.7359C7.57353 15.7064 7.55423 15.6708 7.54592 15.6326C7.5333 15.5823 7.52991 15.5306 7.53591 15.4794V15.4829ZM10.1839 17.008C10.0308 17.0269 9.87652 17.037 9.72195 17.0383C9.48863 17.0517 9.25593 17.0047 9.05193 16.9029C8.9879 16.8671 8.93658 16.8158 8.90393 16.755C8.89297 16.7321 8.8849 16.7082 8.87991 16.6838C8.97911 16.6477 9.0848 16.6277 9.19192 16.625H9.23792C9.41586 16.6297 9.59102 16.6657 9.75334 16.7308C9.91567 16.7959 10.062 16.8889 10.1839 17.0044V17.008ZM9.41594 16.1778C9.43593 16.1713 9.45673 16.1671 9.47791 16.1653C9.52646 16.1702 9.57245 16.1875 9.61038 16.2149C9.6483 16.2424 9.67658 16.279 9.69192 16.3203C9.70957 16.3543 9.71312 16.3928 9.70193 16.429C9.69383 16.4448 9.6805 16.4581 9.6637 16.467C9.6469 16.4759 9.62744 16.4801 9.60793 16.4789C9.58432 16.4792 9.5609 16.4751 9.53918 16.4668C9.51747 16.4585 9.49794 16.4462 9.48191 16.4308C9.45324 16.4018 9.43333 16.3669 9.42395 16.3292C9.41319 16.2781 9.41049 16.226 9.41594 16.1742V16.1778ZM11.1459 17.1612C10.4519 17.0722 10.1579 16.8495 10.0319 16.6766C9.95206 16.5721 9.91531 16.4462 9.92791 16.3203C9.96259 16.3128 9.99821 16.3092 10.0339 16.3096C10.2199 16.3096 10.6919 16.3916 11.1459 17.1577V17.1612ZM9.15794 16.3791C8.79812 16.3452 8.46321 16.1995 8.21194 15.9675C8.12174 15.8771 8.05363 15.7709 8.01194 15.6557C8.06317 15.6455 8.11546 15.6402 8.16794 15.6397H8.21194C8.46594 15.6397 8.92794 15.7466 9.16594 16.3791H9.15794ZM7.27395 16.5252C7.25489 16.5255 7.23595 16.522 7.21863 16.5149C7.20131 16.5079 7.18605 16.4973 7.17395 16.4842C7.15153 16.4581 7.1364 16.4275 7.12991 16.3951C7.12012 16.3518 7.11613 16.3075 7.11794 16.2633C7.13262 16.2561 7.14917 16.2524 7.16594 16.2526C7.20521 16.2539 7.24242 16.2686 7.26995 16.2936C7.30071 16.3198 7.32399 16.3522 7.33791 16.388C7.3495 16.4186 7.3495 16.4518 7.33791 16.4824C7.33222 16.4952 7.32231 16.5062 7.30945 16.5138C7.29658 16.5215 7.2814 16.5254 7.26594 16.5252H7.27395ZM8.67395 16.9171C8.56515 16.9719 8.44056 16.9967 8.31594 16.9884H8.29192C7.92547 16.9938 7.56957 16.8791 7.29192 16.6659C7.49613 16.6238 7.70445 16.5994 7.91394 16.5929H7.97195C8.20678 16.5785 8.44064 16.6309 8.63992 16.7425C8.68129 16.7658 8.71237 16.801 8.72791 16.8423C8.72622 16.858 8.71974 16.8729 8.70916 16.8855C8.69857 16.898 8.68433 16.9078 8.66794 16.9136L8.67395 16.9171ZM9.17791 17.3252C9.16963 17.3404 9.15649 17.3531 9.14011 17.3616C9.12374 17.3702 9.10487 17.3743 9.08591 17.3733C9.06244 17.3738 9.03911 17.37 9.01741 17.362C8.9957 17.354 8.97614 17.3421 8.95994 17.3269C8.93154 17.2974 8.91223 17.2618 8.90393 17.2236C8.8904 17.1747 8.88566 17.1242 8.88992 17.0739C8.90955 17.0664 8.93058 17.0622 8.95193 17.0615C9.00065 17.066 9.04683 17.0831 9.08484 17.1106C9.12285 17.1381 9.15104 17.1749 9.16594 17.2165C9.18132 17.2499 9.18344 17.287 9.17195 17.3216L9.17791 17.3252ZM10.2599 17.6066C9.97809 17.6047 9.70193 17.5358 9.45994 17.4071C9.48967 17.3636 9.52912 17.326 9.5759 17.2966C9.70619 17.2185 9.86099 17.1792 10.0179 17.1844C10.3584 17.2017 10.6906 17.2844 10.9919 17.4267C10.7672 17.5448 10.5108 17.6064 10.2499 17.6049L10.2599 17.6066ZM12.7299 17.8775C12.7299 17.8775 12.6459 17.9398 12.5639 18.0057C12.5279 18.036 12.4819 18.0735 12.4479 18.1055C12.4351 18.118 12.4231 18.1311 12.4119 18.1447C12.4078 18.1503 12.4044 18.1562 12.4019 18.1625L12.4379 18.1429L12.4759 18.1697H12.3979C12.3979 18.1697 12.3879 18.1697 12.3839 18.1607C12.3719 18.1501 12.3499 18.1305 12.3219 18.102C12.2939 18.0735 12.1959 17.9683 12.1339 17.8988C12.0079 17.7617 11.9059 17.6423 11.8859 17.6191L11.8539 17.5835L11.824 17.6191C11.804 17.6423 11.6999 17.7617 11.5759 17.8988C11.5139 17.9683 11.4419 18.0485 11.3879 18.102C11.3339 18.1554 11.3379 18.1501 11.3259 18.1607C11.3259 18.1607 11.3259 18.1608 11.3119 18.1697H11.2339L11.2719 18.1429L11.3079 18.1625C11.3087 18.1566 11.3087 18.1506 11.3079 18.1447C11.296 18.1311 11.2833 18.118 11.2699 18.1055C11.2379 18.0735 11.1919 18.036 11.1559 18.0057C11.0739 17.9398 10.9919 17.8792 10.9899 17.8775L11.5639 17.5015L11.3379 17.4071L11.4579 17.286L11.874 17.4445L12.2919 17.286L12.4119 17.4071L12.1859 17.5015L12.7599 17.8775H12.7299ZM13.6499 16.6766C13.5259 16.8548 13.2319 17.0722 12.5379 17.1612C12.9919 16.3951 13.4639 16.3132 13.6499 16.3132C13.6856 16.3127 13.7212 16.3163 13.7559 16.3239C13.7635 16.4482 13.7241 16.5711 13.6439 16.6731L13.6499 16.6766ZM14.4499 16.6232H14.4959C14.603 16.626 14.7087 16.6459 14.8079 16.682C14.8029 16.7065 14.7949 16.7304 14.7839 16.7533C14.7513 16.814 14.6999 16.8653 14.6359 16.9011C14.4313 17.0031 14.1979 17.0502 13.9639 17.0365C13.81 17.0352 13.6564 17.0251 13.5039 17.0062C13.7464 16.7724 14.0829 16.6334 14.4399 16.6196L14.4499 16.6232ZM13.9899 16.3203C14.005 16.2788 14.0333 16.2422 14.0713 16.2147C14.1092 16.1872 14.1553 16.17 14.2039 16.1653C14.2258 16.1671 14.2473 16.1712 14.2679 16.1778C14.2711 16.2286 14.2663 16.2795 14.2539 16.3292C14.2437 16.3666 14.2239 16.4014 14.1959 16.4308C14.1798 16.4461 14.1603 16.4583 14.1386 16.4666C14.1169 16.4749 14.0935 16.4791 14.0699 16.4789C14.0504 16.4801 14.031 16.4759 14.0142 16.467C13.9974 16.4581 13.984 16.4448 13.9759 16.429C13.9618 16.3924 13.9632 16.3525 13.9799 16.3167L13.9899 16.3203ZM16.3679 15.825H16.3819C16.4348 15.8251 16.4874 15.8323 16.5379 15.8464C16.5287 15.8766 16.516 15.9058 16.4999 15.9337C16.4583 16.0073 16.4013 16.0733 16.3319 16.1279C16.1679 16.2579 15.8419 16.4165 15.2119 16.4361C15.7139 15.9016 16.1459 15.8214 16.3579 15.8214L16.3679 15.825ZM15.8719 15.6254C15.8871 15.584 15.9153 15.5473 15.9532 15.5198C15.9912 15.4923 16.0373 15.4752 16.0859 15.4704C16.1073 15.4712 16.1283 15.4754 16.1479 15.4829C16.1512 15.5332 16.1465 15.5835 16.1339 15.6326C16.1256 15.6708 16.1063 15.7064 16.0779 15.7359C16.0614 15.7512 16.0415 15.7632 16.0195 15.7712C15.9974 15.7792 15.9737 15.7829 15.9499 15.7822C15.931 15.7832 15.9121 15.7792 15.8957 15.7706C15.8794 15.7621 15.8662 15.7493 15.8579 15.7341C15.8439 15.6975 15.8453 15.6576 15.8619 15.6219L15.8719 15.6254ZM15.4719 15.9675C15.2207 16.1995 14.8857 16.3452 14.5259 16.3791C14.7639 15.7466 15.2259 15.6433 15.4799 15.6397H15.524C15.5758 15.6403 15.6273 15.6456 15.6779 15.6557C15.6338 15.7712 15.5614 15.8765 15.4659 15.964L15.4719 15.9675ZM14.2259 17.4071C13.9836 17.5352 13.7076 17.604 13.4259 17.6066C13.165 17.6081 12.9086 17.5466 12.6839 17.4285C12.9852 17.2862 13.3175 17.2035 13.6579 17.1862C13.8155 17.1811 13.9709 17.2204 14.1019 17.2984C14.1487 17.3278 14.1882 17.3654 14.2179 17.4089L14.2259 17.4071ZM14.7879 17.2289C14.7796 17.2671 14.7603 17.3027 14.7319 17.3323C14.7153 17.3474 14.6953 17.3593 14.6733 17.3672C14.6513 17.3752 14.6277 17.3791 14.6039 17.3786C14.5847 17.3797 14.5655 17.3757 14.5488 17.3672C14.5321 17.3586 14.5186 17.3459 14.5099 17.3305C14.4986 17.2942 14.5029 17.2555 14.5219 17.2218C14.5364 17.18 14.5644 17.143 14.6025 17.1154C14.6406 17.0878 14.687 17.0709 14.7359 17.0668C14.7573 17.0675 14.7783 17.0718 14.7979 17.0793C14.8005 17.1267 14.7951 17.1741 14.7819 17.22L14.7879 17.2289ZM16.4079 16.6713C16.1273 16.8841 15.7683 16.9971 15.3999 16.9884H15.374C15.25 16.9965 15.1261 16.9717 15.0179 16.9171C15.0037 16.909 14.992 16.8976 14.9843 16.8841C14.9766 16.8707 14.973 16.8556 14.974 16.8405C14.9895 16.7992 15.0206 16.764 15.0619 16.7408C15.2612 16.6292 15.4951 16.5768 15.7299 16.5911H15.7879C15.9968 16.5973 16.2045 16.6218 16.4079 16.6642V16.6713ZM16.5539 16.4005C16.5474 16.4329 16.5324 16.4634 16.5099 16.4895C16.4978 16.5027 16.4825 16.5132 16.4652 16.5203C16.4479 16.5274 16.429 16.5309 16.4099 16.5305C16.3945 16.5305 16.3795 16.5265 16.3667 16.5189C16.3539 16.5113 16.3438 16.5004 16.3379 16.4878C16.3274 16.457 16.3274 16.4241 16.3379 16.3934C16.3518 16.3575 16.3752 16.3251 16.4059 16.2989C16.4328 16.2742 16.4693 16.2596 16.5079 16.2579C16.5247 16.2581 16.5411 16.2617 16.5559 16.2686C16.5583 16.3097 16.5556 16.351 16.5479 16.3916L16.5539 16.4005ZM16.2579 15.6611C16.3519 15.3404 16.521 15.0411 16.7539 14.7827C16.8531 14.673 16.9968 14.6026 17.1539 14.5867H17.1859C17.226 14.5897 17.2652 14.5988 17.3019 14.6135C17.1565 14.9341 16.9267 15.2188 16.6319 15.4437C16.5169 15.5288 16.389 15.599 16.2519 15.6522L16.2579 15.6611ZM17.8999 13.94C17.8879 14.0237 17.8699 14.1752 17.8699 14.2464C17.8548 14.3388 17.8127 14.4261 17.7479 14.4994C17.7108 14.5511 17.6707 14.601 17.6279 14.6491C17.6279 14.6491 17.5999 14.3783 17.5999 14.1146C17.6083 14.0298 17.6441 13.949 17.7031 13.8819C17.762 13.8149 17.8415 13.7645 17.9319 13.7369C17.9319 13.7369 17.9079 13.8242 17.8939 13.9311L17.8999 13.94ZM17.9519 15.3457C17.9843 15.3458 18.0165 15.3494 18.0479 15.3564C18.0529 15.4019 18.0453 15.4477 18.0259 15.49C18.0002 15.5346 17.9598 15.5712 17.9101 15.5948C17.8604 15.6183 17.8038 15.6278 17.7479 15.6219C17.6739 15.6219 17.6259 15.6076 17.6059 15.5791C17.5986 15.5633 17.5961 15.546 17.599 15.5291C17.6018 15.5121 17.6097 15.4962 17.6219 15.4829C17.6592 15.4375 17.7079 15.4006 17.7642 15.3752C17.8205 15.3498 17.8828 15.3367 17.9459 15.3368L17.9519 15.3457ZM17.774 14.8112H17.7879H17.8399C17.8169 14.9517 17.7574 15.0854 17.6661 15.2017C17.5748 15.3181 17.4542 15.4137 17.3139 15.4811C17.1636 15.5594 17.0021 15.6193 16.8339 15.6593C16.9555 15.3762 17.1525 15.1237 17.4079 14.9235C17.5113 14.8521 17.6373 14.8116 17.7679 14.8077L17.774 14.8112ZM18.0739 15.8072C18.0674 15.8398 18.053 15.8708 18.0319 15.898C17.9238 16.014 17.7714 16.0902 17.6039 16.1118C17.4476 16.1465 17.287 16.1639 17.1259 16.1635C16.9629 16.1642 16.8004 16.1474 16.6419 16.1136C16.8012 15.9303 17.029 15.8038 17.2839 15.7573C17.3964 15.7364 17.511 15.7262 17.6259 15.727H17.6559C17.7963 15.7283 17.9359 15.7444 18.0719 15.7751C18.0719 15.7847 18.0706 15.7943 18.0679 15.8036L18.0739 15.8072ZM18.9459 14.8415C18.9208 14.9052 18.8784 14.9624 18.8226 15.0081C18.7668 15.0538 18.6993 15.0865 18.6259 15.1034C18.4787 15.1265 18.3294 15.1378 18.1799 15.1373C18.0659 15.1373 17.9919 15.1373 17.9919 15.1373C18.0028 15.0449 18.0479 14.9585 18.1199 14.8914C18.2379 14.7774 18.4879 14.6384 19.0199 14.6259C19.003 14.6992 18.9761 14.7704 18.9399 14.838L18.9459 14.8415ZM19.1139 13.7155C19.113 13.8663 19.0583 14.0128 18.9579 14.1342C18.8222 14.2588 18.6657 14.3639 18.4939 14.446C18.3567 14.5248 18.2071 14.5848 18.0499 14.6242C18.0441 14.6258 18.0378 14.6258 18.0319 14.6242C18.0258 14.6207 18.021 14.6157 18.0179 14.6099C18.0108 14.589 18.0108 14.5667 18.0179 14.5458C18.0363 14.4751 18.0631 14.4064 18.0979 14.3409C18.1699 14.1983 18.2599 14.054 18.2699 14.0362C18.3605 13.9375 18.4566 13.8429 18.5579 13.7529C18.638 13.6805 18.725 13.6143 18.8179 13.5552C18.8883 13.5031 18.9748 13.4714 19.0659 13.4643C19.0831 13.4616 19.1007 13.4616 19.1179 13.4643C19.1222 13.5469 19.1188 13.6298 19.1079 13.7119L19.1139 13.7155ZM22.9539 3.82552V3.84333L22.9039 3.87363L22.8839 3.89857L22.8639 3.92174L22.8419 4.0215L22.8039 4.06247V4.21571V4.22639L22.7659 4.2834L22.7219 4.30301H22.6879L22.5099 4.32972L22.4619 4.39388L22.3719 4.38318L21.7559 4.65756H21.7379L21.5799 4.75732L21.5679 4.78049L21.5279 4.85711H21.4839L21.4299 5.01033L21.3879 5.05843L21.1879 5.19563L20.9619 5.27758L20.7619 5.39339L20.6519 5.49137L20.4519 5.68023L19.6519 5.99913L19.5619 6.04724L19.3859 6.14168L19.024 6.37685L18.8639 6.50871L18.6519 6.72607L18.6159 6.78842L18.5959 6.84366L18.5359 7.02183L18.5079 7.06102L18.4539 7.09129L18.3359 7.12337H18.2659H18.2359H18.0799L17.9159 7.07705L17.8219 7.08951L17.724 7.10199L17.6059 7.16435H17.5939L17.5299 7.21959L17.4619 7.30867L17.3819 7.44762L17.3099 7.50108L17.1919 7.71309V7.75052L17.124 8.06588V8.13713L17.2079 8.3545L17.1899 8.3937H17.1459L17.1059 8.42932H17.1879L17.2279 8.44892L17.2539 8.48278L17.4199 8.68411L17.4999 8.76249L17.5979 8.83019L17.6559 8.93887L17.674 8.97809L17.6859 9.00125L17.7819 9.11349L17.9139 9.23285L17.9439 9.25423L18.0299 9.31658L18.2779 9.49475L18.4679 9.7531L18.5059 9.80478L18.524 9.82437L18.6319 9.94373L18.5639 10.0097L18.6359 10.1201L18.7159 10.1344L18.7339 10.1575L18.6919 10.2057H18.6559L18.6299 10.1736L18.5899 10.1843H18.5639H18.5319L18.3059 10.0667H18.2419L18.1319 9.99719L18.0299 10.0079H17.974L17.9039 9.98294L17.8159 9.99719L17.6919 9.958H17.6399L17.5839 10.015H17.5719L17.5479 10.0257L17.3379 10.0364L17.1599 10.0987L17.1399 10.1255L17.0879 10.195L16.9959 10.2395L16.9279 10.2894L16.8399 10.3321H16.7759H16.7539L16.6779 10.3036L16.6559 10.284L16.5379 10.1825L16.4259 10.1059L16.3299 10.0774H16.3099L16.0259 10.0328H15.7999H15.4639H15.4379H15.424L15.3259 10.0489L15.2579 10.0756L15.1199 10.1575L15.0359 10.2377L14.9399 10.439L14.9199 10.5976L14.9379 10.7544L14.9119 10.8417V10.9753L14.7579 11.1749L14.6999 11.2069L14.6459 11.3851L14.6139 11.4029L14.3719 11.3762L14.1719 11.3869L14.1079 11.419L14.0619 11.4777L14.0079 11.5472L13.9319 11.5757L13.8659 11.6417L13.7559 11.6559L13.7059 11.7307L13.4499 11.7468L13.3519 11.7699L13.2639 11.8109L13.1599 11.8822L12.9979 11.9588H12.9839L12.9419 11.9784L12.7839 12.0194L12.6199 12.1245L12.5859 12.1352H12.5019L12.3659 12.2011H12.2999L12.2059 12.2474L12.1479 12.2349L12.0059 12.2029H11.9539L11.8459 12.2456H11.8339L11.8159 12.2617L11.7819 12.3454L11.7459 12.3543L10.7459 12.292L10.5979 12.3151L10.2659 12.4149H10.2499V12.4292L10.1199 12.479L9.99192 12.5539L9.83191 12.6804L9.68391 12.7677L9.62791 12.8336V12.8514L9.60793 12.9209L9.57991 12.953L9.56794 13.042V13.1097V13.2077L9.59793 13.2861L9.63992 13.3396L9.74192 13.4447L9.78591 13.491V13.5266L9.77195 13.5569L9.74993 13.5712H9.68791L9.56794 13.5231L9.5259 13.5053H9.4259L9.33391 13.4696L9.2759 13.4946L9.18992 13.5338H9.13591H9.05393H9.00593L8.96794 13.5534H8.94792L8.93791 13.5302V13.5088L8.99192 13.4732V13.4162L8.95793 13.3307L8.90794 13.2701L8.84192 13.0919V13.0741L8.75193 12.9512L8.64993 12.8585L8.68191 12.8104H8.59792L8.52791 12.7409L8.46794 12.7017L8.23591 12.6554L8.12991 12.6893L8.00994 12.6608L7.83191 12.7285L7.76394 12.7089L7.5259 12.7356L7.45393 12.7659L7.43591 12.7908L7.33591 12.8461L7.27395 12.855L7.20793 12.8407H7.13191L7.05193 12.9013H6.99993L6.92395 12.8764L6.81794 12.8425L6.70393 12.8175L6.49192 12.7463L6.45193 12.732L6.39792 12.7214L6.30193 12.7L6.18792 12.6572L6.12991 12.6162L6.08791 12.5842L6.01594 12.545L5.84392 12.4505L5.75994 12.4309L5.55994 12.3775H5.46995L5.40193 12.3365L5.36794 12.3151H5.28591L5.21194 12.3597L5.16394 12.3151L5.1259 12.2991L5.07395 12.2742L4.83591 12.0853L4.78792 12.0639H4.71194L4.63191 11.957L4.56794 11.9089H4.5259L4.46394 11.9214L4.40593 11.8733L4.42991 11.729L4.41594 11.6737L4.37195 11.6042V11.4974L4.29792 11.3192V11.1802L4.25793 11.1339L4.20994 11.1125L4.17791 11.0982L4.12991 11.0555H4.07991L4.04792 11.0323L3.98992 11.0448L3.93992 11.0056L3.87395 10.8595L3.74993 10.7615L3.67791 10.7027V10.6582L3.69392 10.6421L3.75593 10.5816L3.79392 10.4729L3.75994 10.3963L3.60193 10.2181V10.1647L3.65393 10.129L3.63391 10.0685L3.6759 9.97759L3.61594 9.81724L3.58992 9.77627L3.55193 9.72102V9.70856L3.49792 9.59097L3.32195 9.37183L3.30793 9.27918V9.26493L3.33391 9.03866L3.34392 8.99946L3.35593 8.95492L3.3759 8.92284H3.43191L3.50393 8.9656L3.53591 8.98341L3.76794 9.18653L3.92791 9.30234L4.07395 9.38253L4.20593 9.41993L4.35393 9.43596H4.43191L4.59192 9.40745L4.77991 9.3451L4.97991 9.20969L5.06594 9.1509L5.16194 9.05647L5.18992 9.02796L5.28191 8.90681L5.42991 8.60749L5.48591 8.53445L5.56394 8.47208L5.64392 8.41151L5.66794 8.36162V8.27967L5.69392 8.26186H5.74392L5.77395 8.27788L5.83191 8.30818H5.86394H5.88992H5.90393H5.92791L5.9759 8.28858L6.02991 8.26899L6.07195 8.25294H6.15593L6.19592 8.23513V8.22445L6.25193 8.14961H6.29993L6.36995 8.17456L6.42395 8.15139L6.52991 8.10685H6.63191L6.70593 8.12288L6.84792 8.17991H6.99993H7.02991L7.07395 8.19237L7.19192 8.22445H7.27791L7.31995 8.26721L7.47791 8.34915L7.62195 8.37588L7.74993 8.45783L7.84993 8.481L7.94993 8.5291H8.02991H8.15994L8.20994 8.51129L8.36995 8.42932L8.58591 8.29748L8.68191 8.23869L8.72195 8.19058L8.86394 7.80574L8.89993 7.65965L8.93992 7.50287L8.95193 7.45654L8.98391 7.15188V6.96124L8.96394 6.77239L8.93391 6.7029L8.86594 6.6352L8.84793 6.58531V6.65479V6.56393L8.83591 6.46417L8.79993 6.36438V6.33409L8.87195 6.34479L9.06194 6.42674L9.34392 6.58352L9.56194 6.68687H9.59793L9.71794 6.67617L9.77195 6.68687L9.91594 6.74923L10.0559 6.78129H10.1759L10.2639 6.76169L10.3659 6.72785L10.4339 6.68331H10.4879L10.8299 6.77239L10.9319 6.79912L11.3079 6.75458L11.3759 6.80623L11.4859 6.8205L11.5339 6.85434L11.5839 6.86504L11.6719 6.83653H11.7119L11.8179 6.87037H11.8619L11.9219 6.84009L12.0539 6.87394L12.1119 6.88996L12.3639 6.91491L12.5339 6.96659L12.6379 6.94699L12.8519 6.96837L13.3219 6.95056H13.3359L13.3919 6.9648L13.5519 6.94699L13.6339 6.92561H13.7639L13.9379 6.87572L14.2879 6.84542L14.5999 6.75458L14.6519 6.76704H14.7379L14.8919 6.74566L14.9379 6.73318L15.0039 6.71536V6.78664L15.2039 6.73318L15.3639 6.65836L15.4679 6.57463L15.7799 6.43922L15.9659 6.36082L16.0639 6.343H16.2199L16.4439 6.36617L16.5319 6.33765L16.6759 6.35192L16.9879 6.26638L17.0319 6.2557H17.0439L17.2659 6.19513L17.5179 6.11316L17.6579 6.09357L17.7559 6.06505L18.2359 5.85305L18.5399 5.71942L18.6559 5.63391L18.8219 5.58937L18.9819 5.51631L19.1699 5.33815L19.2699 5.22412L19.2819 5.20987L19.3699 5.16355L19.4159 5.10654L19.4299 5.03706H19.4759L19.5359 5.062L19.6159 5.09406H19.6799L19.7279 5.06911L19.7559 5.1083L19.8279 5.0816L19.8879 5.09228H19.8979L19.9479 5.06555L19.9799 5.04952L19.9919 5.03884L20.0579 4.9836L20.2139 4.97114L20.2979 4.93014H20.3999L20.4619 4.90165L20.5339 4.84819L20.6219 4.82146L20.6539 4.79119L20.6679 4.71635H20.7019L20.7439 4.73059H20.7839L20.8539 4.66646L20.9199 4.54888L20.9599 4.52394H21.0939L21.1639 4.46334L21.2099 4.4491H21.3219H21.3499L21.4339 4.41348L21.5979 4.2834L21.6759 4.2549L21.8419 4.29588L21.9699 4.23709L22.1199 4.22283L22.1639 4.1961L22.1999 4.14623L22.2119 4.07852L22.2499 4.06247L22.3159 4.08742L22.3859 4.07139L22.5759 3.95558L22.6839 3.91103H22.7979L22.8339 3.89679L22.9279 3.86471L22.9539 3.82552Z" fill="white"/>
<path d="M5.89594 14.8075H5.84393C5.86646 14.9481 5.9258 15.082 6.01718 15.1984C6.10855 15.3148 6.22943 15.4104 6.36996 15.4774C6.52049 15.5553 6.68186 15.6152 6.84994 15.6556C6.72834 15.3725 6.53134 15.12 6.27592 14.9198C6.1727 14.8429 6.04431 14.7979 5.90995 14.7915L5.89594 14.8075Z" fill="#3B511C"/>
<path d="M7.42601 15.652C7.332 15.3313 7.16298 15.032 6.93002 14.7736C6.83088 14.6639 6.68713 14.5935 6.53002 14.5776H6.49803C6.45788 14.5802 6.41856 14.5893 6.38202 14.6044C6.52745 14.9249 6.75725 15.2097 7.05204 15.4346C7.16545 15.5231 7.29278 15.5964 7.43002 15.652H7.42601Z" fill="#3B511C"/>
<path d="M5.72601 15.337C5.69364 15.3371 5.66141 15.3407 5.63001 15.3477C5.62506 15.3931 5.63264 15.439 5.65203 15.4813C5.67775 15.5259 5.71816 15.5624 5.76785 15.586C5.81754 15.6096 5.87411 15.619 5.93001 15.6131C6.00401 15.6131 6.05205 15.5989 6.07205 15.5704C6.07943 15.5545 6.0818 15.5372 6.07899 15.5203C6.07617 15.5033 6.06825 15.4874 6.05604 15.4742C6.01795 15.4306 5.96904 15.3956 5.91317 15.3718C5.85729 15.348 5.79595 15.3361 5.73402 15.337H5.72601Z" fill="#3B511C"/>
<path d="M5.75403 13.7261C5.75403 13.7261 5.77001 13.8241 5.78401 13.931C5.79801 14.0379 5.81404 14.1662 5.81404 14.2374C5.8292 14.3298 5.87124 14.417 5.93601 14.4904C5.97316 14.5421 6.01323 14.592 6.05603 14.6401C6.05603 14.6401 6.08401 14.3693 6.08401 14.1056C6.07615 14.0206 6.04078 13.9396 5.9822 13.8722C5.92362 13.8049 5.84437 13.7541 5.75403 13.7261Z" fill="#3B511C"/>
<path d="M7.30603 15.8213C7.25312 15.8214 7.20052 15.8286 7.15002 15.8427C7.15906 15.8727 7.1711 15.9019 7.18601 15.93C7.22921 16.0032 7.2868 16.069 7.35603 16.1242C7.52003 16.2542 7.846 16.4128 8.476 16.4324C7.966 15.8979 7.53405 15.8213 7.32205 15.8213H7.30603Z" fill="#3B511C"/>
<path d="M5.69399 15.1266C5.68197 15.0345 5.63712 14.9483 5.56602 14.8807C5.44802 14.7667 5.19802 14.6277 4.66602 14.6152C4.67942 14.6919 4.70358 14.7667 4.73799 14.8379C4.76312 14.9016 4.80547 14.9588 4.86128 15.0045C4.91708 15.0502 4.98465 15.0829 5.05801 15.0998C5.20525 15.1229 5.3545 15.1342 5.504 15.1337C5.618 15.1337 5.69199 15.1337 5.69199 15.1337L5.69399 15.1266Z" fill="#3B511C"/>
<path d="M5.19997 14.4422C5.33718 14.521 5.48683 14.581 5.64397 14.6204C5.64911 14.6222 5.65484 14.6222 5.65998 14.6204C5.66675 14.6171 5.67227 14.6122 5.67595 14.6061C5.68307 14.5852 5.68307 14.5629 5.67595 14.542C5.65762 14.4713 5.63081 14.4026 5.59597 14.3371C5.52397 14.1946 5.434 14.0503 5.424 14.0324C5.33346 13.9337 5.2373 13.8392 5.13596 13.7491C5.05541 13.6771 4.96845 13.611 4.87595 13.5514C4.80557 13.4993 4.71906 13.4677 4.62795 13.4605C4.61075 13.4578 4.59315 13.4578 4.57595 13.4605C4.56795 13.5453 4.56795 13.6305 4.57595 13.7153C4.57693 13.8661 4.63155 14.0126 4.73196 14.134C4.8692 14.2576 5.02708 14.3616 5.19997 14.4422Z" fill="#3B511C"/>
<path d="M6.4 15.7413C6.28755 15.7203 6.17289 15.7101 6.058 15.711H6.02797C5.88701 15.7124 5.74674 15.7285 5.61001 15.7591C5.60827 15.7715 5.60827 15.7841 5.61001 15.7965C5.61655 15.8291 5.63086 15.8601 5.652 15.8874C5.76007 16.0033 5.91254 16.0795 6.07998 16.1012C6.23631 16.1359 6.39689 16.1532 6.558 16.1529C6.721 16.1535 6.88347 16.1368 7.04199 16.103C6.88371 15.9176 6.65582 15.7892 6.4 15.7413Z" fill="#3B511C"/>
<path d="M8.94799 17.0581C8.92664 17.0588 8.90561 17.0631 8.88597 17.0706C8.88172 17.1208 8.88646 17.1713 8.89999 17.2202C8.90829 17.2584 8.92759 17.294 8.95599 17.3236C8.9722 17.3387 8.99176 17.3507 9.01346 17.3586C9.03517 17.3666 9.0585 17.3704 9.08197 17.3699C9.10093 17.3709 9.11979 17.3668 9.13617 17.3583C9.15255 17.3497 9.16574 17.337 9.17401 17.3218C9.18521 17.2856 9.18165 17.2471 9.164 17.2131C9.14897 17.1713 9.12046 17.1343 9.08207 17.1068C9.04367 17.0792 8.99706 17.0623 8.94799 17.0581Z" fill="#3B511C"/>
<path d="M10.0221 17.1806C9.8651 17.1754 9.7103 17.2147 9.58002 17.2929C9.53324 17.3222 9.49378 17.3598 9.46405 17.4033C9.70604 17.5321 9.9822 17.601 10.2641 17.6029C10.5249 17.6044 10.7814 17.5428 11.006 17.4247C10.7019 17.2806 10.3661 17.1973 10.0221 17.1806Z" fill="#3B511C"/>
<path d="M8.62405 16.7369C8.42477 16.6253 8.19087 16.5729 7.95603 16.5873H7.89802C7.68853 16.5937 7.48021 16.6182 7.276 16.6603C7.55365 16.8735 7.90955 16.9882 8.276 16.9828H8.30002C8.42464 16.9911 8.54923 16.9663 8.65803 16.9115C8.67231 16.9034 8.6839 16.892 8.69163 16.8785C8.69936 16.8651 8.70295 16.85 8.70203 16.8349C8.68869 16.7956 8.66133 16.7612 8.62405 16.7369Z" fill="#3B511C"/>
<path d="M11.422 17.2822L11.3019 17.4034L11.5279 17.4978L11.8379 17.4408L11.422 17.2822Z" fill="#3B511C"/>
<path d="M11.838 17.5834L11.87 17.6191C11.89 17.6422 11.992 17.7616 12.118 17.8988C12.18 17.9683 12.252 18.0484 12.306 18.1019C12.36 18.1553 12.356 18.15 12.368 18.1607C12.368 18.1607 12.368 18.1607 12.382 18.1696H12.46L12.422 18.1429L12.386 18.1625C12.3885 18.1562 12.3919 18.1502 12.396 18.1446C12.4072 18.131 12.4192 18.1179 12.432 18.1054C12.466 18.0734 12.512 18.036 12.548 18.0057C12.63 17.9397 12.712 17.8792 12.714 17.8774L12.14 17.5015L11.838 17.5834Z" fill="#3B511C"/>
<path d="M7.34605 16.4789C7.35763 16.4482 7.35763 16.4151 7.34605 16.3844C7.33213 16.3486 7.3088 16.3162 7.27803 16.29C7.2505 16.265 7.21334 16.2504 7.17408 16.249C7.1573 16.2488 7.14071 16.2525 7.12603 16.2597C7.12422 16.3039 7.12826 16.3482 7.13804 16.3916C7.14454 16.424 7.15962 16.4545 7.18204 16.4807C7.19414 16.4938 7.20944 16.5043 7.22676 16.5114C7.24409 16.5185 7.26297 16.522 7.28204 16.5216C7.29611 16.5205 7.3096 16.5159 7.3209 16.5084C7.33221 16.5008 7.3409 16.4906 7.34605 16.4789Z" fill="#3B511C"/>
<path d="M8.2 15.6362H8.15601C8.10352 15.6367 8.05123 15.6421 8 15.6523C8.04169 15.7674 8.1098 15.8736 8.2 15.964C8.45127 16.196 8.78618 16.3417 9.146 16.3756C8.92 15.7414 8.458 15.6398 8.2 15.6362Z" fill="#3B511C"/>
<path d="M7.73396 15.7786C7.75292 15.7796 7.77178 15.7755 7.78816 15.767C7.80454 15.7584 7.81768 15.7457 7.82595 15.7305C7.83715 15.6943 7.83364 15.6558 7.81599 15.6218C7.80087 15.5803 7.77261 15.5437 7.73464 15.5162C7.69668 15.4887 7.65062 15.4715 7.60198 15.4668C7.58063 15.4675 7.5596 15.4718 7.53997 15.4793C7.53571 15.5295 7.54045 15.58 7.55398 15.6289C7.56228 15.6671 7.58159 15.7027 7.60999 15.7323C7.62603 15.7471 7.64531 15.7589 7.66663 15.7668C7.68795 15.7748 7.71084 15.7788 7.73396 15.7786Z" fill="#3B511C"/>
<path d="M9.20001 16.6214C9.0929 16.6242 8.9872 16.6441 8.888 16.6802C8.89299 16.7047 8.90106 16.7286 8.91202 16.7515C8.94467 16.8122 8.99599 16.8635 9.06002 16.8993C9.26402 17.0011 9.49667 17.0481 9.72999 17.0347C9.88456 17.0335 10.0389 17.0233 10.192 17.0045C10.0706 16.8879 9.92447 16.7939 9.76212 16.7279C9.59977 16.6618 9.42438 16.6251 9.24601 16.6196L9.20001 16.6214Z" fill="#3B511C"/>
<path d="M11.146 17.1557C10.692 16.3896 10.22 16.3077 10.034 16.3077C9.99833 16.3072 9.96271 16.3108 9.92802 16.3183C9.91543 16.4442 9.95218 16.5702 10.032 16.6747C10.158 16.8528 10.452 17.0702 11.146 17.1593V17.1557Z" fill="#3B511C"/>
<path d="M9.61401 16.4752C9.63351 16.4764 9.65297 16.4723 9.66977 16.4633C9.68657 16.4544 9.6999 16.4412 9.708 16.4253C9.7192 16.3892 9.71564 16.3507 9.69799 16.3166C9.68265 16.2753 9.65437 16.2387 9.61645 16.2113C9.57853 16.1838 9.53254 16.1666 9.48398 16.1616C9.4628 16.1634 9.442 16.1676 9.42201 16.1741C9.4189 16.2249 9.42358 16.2759 9.43598 16.3255C9.44536 16.3632 9.46532 16.3982 9.49399 16.4271C9.50933 16.4419 9.52786 16.4538 9.54848 16.462C9.5691 16.4703 9.5914 16.4748 9.61401 16.4752Z" fill="#3B511C"/>
<path d="M17.6 14.1041C17.6 14.3696 17.628 14.6386 17.628 14.6386C17.6708 14.5905 17.7108 14.5406 17.748 14.4889C17.8127 14.4155 17.8548 14.3283 17.87 14.2359C17.87 14.1647 17.888 14.0132 17.9 13.9295C17.912 13.8457 17.928 13.7317 17.93 13.7246C17.8396 13.7526 17.7604 13.8034 17.7018 13.8707C17.6432 13.9381 17.6078 14.0192 17.6 14.1041Z" fill="#3B511C"/>
<path d="M17.622 15.4738C17.6098 15.4871 17.6018 15.503 17.599 15.52C17.5962 15.5369 17.5986 15.5542 17.606 15.5701C17.626 15.5986 17.674 15.6128 17.748 15.6128C17.8039 15.6187 17.8605 15.6092 17.9102 15.5857C17.9599 15.5621 18.0002 15.5256 18.0259 15.481C18.0453 15.4387 18.0529 15.3928 18.048 15.3474C18.0166 15.3403 17.9843 15.3367 17.952 15.3367C17.8887 15.3346 17.8258 15.346 17.7684 15.3699C17.711 15.3937 17.6609 15.4293 17.622 15.4738Z" fill="#3B511C"/>
<path d="M15.7799 16.5873H15.722C15.4871 16.5729 15.2532 16.6253 15.054 16.7369C15.0126 16.7602 14.9815 16.7954 14.966 16.8367C14.965 16.8518 14.9686 16.8668 14.9764 16.8803C14.9841 16.8938 14.9957 16.9052 15.01 16.9133C15.1181 16.9678 15.242 16.9926 15.366 16.9846H15.3919C15.7618 16.9922 16.1217 16.8773 16.4019 16.6621C16.1979 16.619 15.9895 16.5939 15.7799 16.5873Z" fill="#3B511C"/>
<path d="M16.56 16.2597C16.5452 16.2528 16.5287 16.2492 16.512 16.249C16.4734 16.2506 16.4369 16.2653 16.41 16.29C16.3792 16.3162 16.3559 16.3486 16.342 16.3844C16.3315 16.4152 16.3315 16.4481 16.342 16.4789C16.3479 16.4915 16.3579 16.5023 16.3708 16.5099C16.3836 16.5176 16.3986 16.5216 16.414 16.5216C16.4331 16.522 16.452 16.5185 16.4693 16.5114C16.4866 16.5043 16.5019 16.4938 16.514 16.4806C16.5364 16.4545 16.5515 16.424 16.558 16.3916C16.5678 16.3482 16.5718 16.3039 16.57 16.2597H16.56Z" fill="#3B511C"/>
<path d="M17.3 14.6044C17.2634 14.5897 17.2241 14.5806 17.184 14.5776H17.152C16.9949 14.5935 16.8512 14.6639 16.752 14.7736C16.5191 15.032 16.3501 15.3313 16.256 15.652C16.393 15.5959 16.5202 15.5227 16.634 15.4346C16.9274 15.2093 17.1558 14.9246 17.3 14.6044Z" fill="#3B511C"/>
<path d="M18.112 14.8805C18.0399 14.9476 17.9949 15.034 17.984 15.1264C17.984 15.1264 18.06 15.1264 18.174 15.1264C18.3235 15.1269 18.4728 15.1156 18.62 15.0925C18.6934 15.0756 18.761 15.0428 18.8168 14.9972C18.8726 14.9515 18.9149 14.8943 18.94 14.8306C18.9744 14.7594 18.9986 14.6845 19.012 14.6079C18.48 14.6275 18.23 14.7665 18.112 14.8805Z" fill="#3B511C"/>
<path d="M19.052 13.4498C18.9609 13.4569 18.8744 13.4886 18.804 13.5406C18.7111 13.5998 18.6241 13.6659 18.544 13.7384C18.4426 13.8284 18.3465 13.923 18.256 14.0217C18.246 14.0395 18.156 14.1838 18.084 14.3264C18.0491 14.3919 18.0223 14.4606 18.004 14.5312C17.9969 14.5521 17.9969 14.5745 18.004 14.5954C18.007 14.6012 18.0119 14.6062 18.018 14.6096C18.0239 14.6113 18.0301 14.6113 18.036 14.6096C18.1931 14.5703 18.3428 14.5102 18.48 14.4315C18.6517 14.3494 18.8082 14.2443 18.944 14.1197C19.0444 13.9983 19.099 13.8517 19.1 13.701C19.108 13.6162 19.108 13.531 19.1 13.4462C19.0839 13.4451 19.0677 13.4463 19.052 13.4498Z" fill="#3B511C"/>
<path d="M16.8279 15.6718C16.9962 15.6318 17.1576 15.5718 17.308 15.4936C17.4482 15.4262 17.5688 15.3305 17.6601 15.2142C17.7514 15.0979 17.811 14.9642 17.8339 14.8237H17.7819H17.768C17.6336 14.8301 17.5052 14.8751 17.402 14.952C17.1489 15.1477 16.9521 15.3945 16.8279 15.6718Z" fill="#3B511C"/>
<path d="M18.068 15.7659C17.9312 15.7354 17.7909 15.7192 17.6499 15.7178H17.62C17.5051 15.717 17.3904 15.7272 17.2779 15.7481C17.023 15.7947 16.7952 15.9211 16.6359 16.1044C16.7944 16.1383 16.957 16.155 17.12 16.1543C17.2811 16.1547 17.4416 16.1374 17.5979 16.1027C17.7654 16.081 17.9178 16.0048 18.0259 15.8888C18.047 15.8616 18.0614 15.8306 18.068 15.798C18.0702 15.7856 18.0702 15.773 18.068 15.7606V15.7659Z" fill="#3B511C"/>
<path d="M14.1039 17.2929C13.9729 17.2148 13.8175 17.1755 13.6599 17.1806C13.3195 17.198 12.9872 17.2806 12.6859 17.4229C12.9106 17.541 13.167 17.6026 13.4279 17.6011C13.7096 17.5985 13.9856 17.5296 14.2279 17.4015C14.1956 17.3579 14.1534 17.3209 14.1039 17.2929Z" fill="#3B511C"/>
<path d="M13.494 17.0046C13.6464 17.0235 13.8001 17.0336 13.954 17.0349C14.1879 17.0486 14.4213 17.0015 14.6259 16.8995C14.69 16.8637 14.7413 16.8124 14.774 16.7517C14.7849 16.7288 14.793 16.7049 14.798 16.6804C14.6988 16.6443 14.5931 16.6244 14.4859 16.6216H14.44C14.2616 16.627 14.0862 16.6638 13.9238 16.7299C13.7615 16.7959 13.6154 16.8899 13.494 17.0064V17.0046Z" fill="#3B511C"/>
<path d="M14.064 16.4752C14.0876 16.4754 14.111 16.4712 14.1327 16.463C14.1544 16.4547 14.1739 16.4425 14.19 16.4271C14.2179 16.3977 14.2378 16.3629 14.248 16.3255C14.2604 16.2759 14.2651 16.2249 14.262 16.1741C14.2413 16.1676 14.2198 16.1634 14.198 16.1616C14.1493 16.1664 14.1033 16.1835 14.0653 16.211C14.0274 16.2385 13.9991 16.2752 13.984 16.3166C13.9663 16.3507 13.9628 16.3892 13.974 16.4253C13.9819 16.4406 13.9945 16.4534 14.0105 16.4623C14.0265 16.4712 14.0452 16.4757 14.064 16.4752Z" fill="#3B511C"/>
<path d="M12.376 17.4034L12.256 17.2822L11.838 17.4408L11.528 17.4978L10.954 17.8737C10.954 17.8737 11.038 17.9361 11.12 18.002C11.156 18.0323 11.202 18.0697 11.234 18.1018C11.2474 18.1143 11.2601 18.1274 11.272 18.141C11.2727 18.1469 11.2727 18.1529 11.272 18.1588L11.236 18.1392L11.198 18.1659H11.276C11.276 18.1659 11.286 18.1659 11.29 18.157C11.302 18.1463 11.324 18.1267 11.352 18.0982C11.38 18.0697 11.478 17.9646 11.54 17.8951C11.664 17.7579 11.768 17.6386 11.788 17.6154L11.818 17.5797L12.13 17.4942L12.376 17.4034Z" fill="#3B511C"/>
<path d="M13.7501 16.3183C13.7154 16.3108 13.6798 16.3072 13.6441 16.3077C13.4581 16.3077 12.986 16.3896 12.532 17.1557C13.226 17.0666 13.5201 16.8439 13.6441 16.6711C13.7239 16.5665 13.7613 16.4408 13.7501 16.3148V16.3183Z" fill="#3B511C"/>
<path d="M15.944 15.7786C15.9678 15.7793 15.9915 15.7755 16.0136 15.7675C16.0356 15.7596 16.0556 15.7475 16.0721 15.7323C16.1005 15.7027 16.1197 15.6671 16.128 15.6289C16.1406 15.5799 16.1453 15.5295 16.142 15.4793C16.1224 15.4718 16.1014 15.4675 16.08 15.4668C16.0314 15.4715 15.9853 15.4887 15.9474 15.5162C15.9094 15.5437 15.8812 15.5803 15.8661 15.6218C15.8517 15.6569 15.8517 15.6954 15.8661 15.7305C15.8733 15.7438 15.8842 15.7553 15.8979 15.7637C15.9116 15.7722 15.9275 15.7773 15.944 15.7786Z" fill="#3B511C"/>
<path d="M14.7339 17.0581C14.6851 17.0622 14.6386 17.0791 14.6005 17.1066C14.5624 17.1342 14.5344 17.1713 14.52 17.2131C14.5009 17.2467 14.4967 17.2855 14.508 17.3218C14.5166 17.3372 14.5301 17.3499 14.5468 17.3585C14.5636 17.367 14.5827 17.371 14.602 17.3699C14.6257 17.3704 14.6493 17.3665 14.6713 17.3585C14.6934 17.3506 14.7133 17.3387 14.7299 17.3236C14.7583 17.294 14.7776 17.2584 14.7859 17.2202C14.7995 17.1713 14.8042 17.1208 14.8 17.0706C14.7791 17.0626 14.7566 17.0584 14.7339 17.0581Z" fill="#3B511C"/>
<path d="M15.496 15.6343H15.474C15.22 15.6343 14.758 15.7412 14.52 16.3737C14.8798 16.3397 15.2147 16.194 15.466 15.9621C15.5562 15.8716 15.6243 15.7655 15.666 15.6503C15.6148 15.6403 15.5625 15.6349 15.51 15.6343H15.496Z" fill="#3B511C"/>
<path d="M15.2 16.4324C15.83 16.4128 16.156 16.2542 16.32 16.1242C16.3894 16.0696 16.4464 16.0036 16.488 15.93C16.5041 15.9022 16.5168 15.8729 16.526 15.8427C16.4755 15.8286 16.4229 15.8214 16.37 15.8213H16.356C16.146 15.8213 15.714 15.9015 15.2 16.4324Z" fill="#3B511C"/>
<path d="M22.818 3.86816H22.704L22.596 3.91271L22.406 4.02852L22.336 4.04455L22.27 4.0196L22.2319 4.03565L22.22 4.10336L22.1839 4.15323L22.14 4.17995L21.99 4.1942L21.862 4.25301L21.696 4.21203L21.618 4.24052L21.454 4.3706L21.37 4.40623H21.342H21.2299L21.1839 4.42047L21.114 4.48107H20.9799L20.94 4.50599L20.874 4.62359L20.804 4.68772H20.764L20.722 4.67348H20.688L20.674 4.74832L20.642 4.77859L20.554 4.80532L20.4819 4.85878L20.42 4.88727H20.318L20.2339 4.92826L20.0779 4.94073L20.012 4.99595L20 5.00665L19.968 5.02268L19.918 5.04941H19.908L19.848 5.03873L19.7759 5.06543L19.748 5.02624L19.7 5.05119H19.636L19.556 5.01911L19.496 4.99418H19.45L19.4359 5.06365L19.39 5.12068L19.302 5.167L19.29 5.18125L19.19 5.29527L19.002 5.47344L18.842 5.5465L18.6759 5.59104L18.56 5.67655L18.256 5.81018L17.7759 6.02218L17.6779 6.0507L17.538 6.07029L17.2859 6.15226L17.064 6.21283H17.052L17.008 6.22351L16.696 6.30905L16.552 6.29478L16.464 6.3233L16.24 6.30013H16.0839L15.9859 6.31795L15.8 6.39635L15.488 6.53176L15.3839 6.61549L15.224 6.69031L15.024 6.74376V6.67249L14.958 6.69031L14.912 6.70279L14.758 6.72417H14.672L14.62 6.71169L14.308 6.80255L13.958 6.83285L13.7839 6.88274H13.654L13.572 6.90412L13.412 6.92193L13.356 6.90769H13.342L12.872 6.9255L12.658 6.90412L12.554 6.92371L12.3839 6.87204L12.1319 6.84709L12.074 6.83106L11.942 6.79722L11.8819 6.8275H11.838L11.7319 6.79366H11.692L11.604 6.82215L11.554 6.81147L11.506 6.77761L11.396 6.76336L11.3279 6.71169L10.952 6.75623L10.85 6.72952L10.508 6.64044H10.454L10.3859 6.68498L10.2839 6.71882L10.196 6.73841H10.0759L9.93595 6.70636L9.79196 6.64398L9.73795 6.6333L9.61798 6.64398H9.58195L9.36398 6.54065L9.08195 6.38387L8.89196 6.30192L8.81998 6.29122V6.32151L8.85597 6.42127L8.86798 6.52106V6.61192V6.66893L8.88595 6.71882L8.95397 6.78652L8.98395 6.85601L9.00397 7.04485V7.2355L8.97198 7.54016L8.95997 7.58649L8.91998 7.74327L8.88395 7.88938L8.74196 8.2742L8.70197 8.32231L8.60597 8.3811L8.38995 8.51296L8.22994 8.59491L8.17994 8.61272H8.04996H7.96998L7.86998 8.56462L7.76998 8.54145L7.64196 8.4595L7.49796 8.43277L7.33995 8.35083L7.29796 8.30807H7.21198L7.09396 8.27599L7.04996 8.26353H7.01998H6.86798L6.72594 8.2065L6.65197 8.19047H6.54996L6.44396 8.23501L6.38995 8.25818L6.31998 8.23323H6.27198L6.21598 8.30807V8.31875L6.17594 8.33656H6.09196L6.04996 8.35261L5.99596 8.3722L5.94796 8.3918H5.92399H5.90997H5.88395H5.85197L5.79396 8.3615L5.76398 8.34548H5.71398L5.68795 8.36329V8.44526L5.66398 8.49513L5.58395 8.55572L5.50597 8.61807L5.44996 8.69113L5.30197 8.99044L5.20997 9.1116L5.18195 9.14009L5.08595 9.23452L4.99996 9.29333L4.79996 9.42872L4.61198 9.49109L4.45197 9.51958H4.37399L4.22594 9.50355L4.09396 9.46615L3.94796 9.38596L3.78795 9.27017L3.55597 9.06706L3.52399 9.04922L3.45197 9.00646H3.39596L3.37594 9.03854L3.36398 9.08308L3.35397 9.12228L3.32794 9.34855V9.3628L3.34196 9.45545L3.51798 9.67459L3.57198 9.79218V9.80467L3.60997 9.85989L3.63595 9.90086L3.69596 10.0612L3.65397 10.1521L3.67399 10.2127L3.62198 10.2483V10.3017L3.77994 10.4799L3.81398 10.5565L3.77594 10.6652L3.71398 10.7258L3.69796 10.7418V10.7863L3.76998 10.8451L3.89396 10.9431L3.95997 11.0892L4.00997 11.1284L4.06798 11.116L4.09996 11.1391H4.14996L4.19796 11.1819L4.22994 11.1961L4.27794 11.2175L4.31798 11.2638V11.4028L4.39196 11.581V11.6879L4.43595 11.7574L4.44996 11.8126L4.42594 11.9569L4.48395 12.005L4.54596 11.9925H4.58795L4.65197 12.0406L4.73195 12.1475H4.80797L4.85597 12.1689L5.09396 12.3578L5.14596 12.3827L5.18395 12.3988L5.23195 12.4433L5.30597 12.3988H5.38795L5.42198 12.4201L5.48995 12.4611H5.57994L5.77994 12.5146L5.86398 12.5342L6.03595 12.6286L6.10797 12.6678L6.14996 12.6999L6.20797 12.7408L6.32199 12.7836L6.41798 12.805L6.47198 12.8157L6.51198 12.8299L6.72399 12.9012L6.83795 12.9261L6.94396 12.96L7.01998 12.9849H7.07794L7.15797 12.9243H7.23395L7.29996 12.9386L7.36198 12.9297L7.46198 12.8745L7.47994 12.8495L7.55197 12.8192L7.78995 12.7925L7.85797 12.8121L8.03595 12.7444L8.15597 12.7729L8.26198 12.7391L8.49396 12.7854L8.55397 12.8246L8.62399 12.8941H8.70797L8.67594 12.9422L8.77794 13.0348L8.86798 13.1577V13.1756L8.93395 13.3537L8.98395 13.4143L9.01798 13.4998V13.5568L8.96398 13.5925V13.6139L8.97399 13.637H8.99396L9.03195 13.6174H9.07994H9.16198H9.21598L9.30197 13.5782L9.35997 13.5533L9.45197 13.5889H9.55197L9.59396 13.6067L9.71398 13.6548H9.77594L9.79796 13.6406L9.81198 13.6103V13.5746L9.76798 13.5283L9.66598 13.4232L9.62399 13.3697L9.59396 13.2914V13.1934V13.1257L9.60597 13.0366L9.63395 13.0045L9.65397 12.935V12.9172L9.70997 12.8513L9.85797 12.764L10.018 12.6375L10.146 12.5627L10.2759 12.5128V12.5342H10.292L10.624 12.4344L10.772 12.4112L11.772 12.4736L11.808 12.4647L11.842 12.3809L11.86 12.3649H11.872L11.9799 12.3222H12.0319L12.174 12.3542L12.2319 12.3667L12.3259 12.3204H12.392L12.5279 12.2544H12.612L12.646 12.2437L12.81 12.1386L12.968 12.0977L13.01 12.078H13.024L13.186 12.0014L13.29 11.9302L13.3779 11.8892L13.4759 11.866L13.7319 11.85L13.7819 11.7752L13.892 11.7609L13.958 11.695L14.0339 11.6665L14.088 11.597L14.1339 11.5382L14.198 11.5061L14.398 11.4955L14.64 11.5222L14.672 11.5044L14.7259 11.3262L14.7839 11.2941L14.938 11.0946V10.961L14.964 10.8737L14.946 10.7169L14.966 10.5583L15.062 10.357L15.146 10.2768L15.2839 10.1948L15.352 10.1681L15.45 10.1521H15.464H15.49H15.8259H16.062L16.346 10.1966H16.366L16.462 10.2251L16.574 10.3017L16.692 10.4033L16.714 10.4229L16.79 10.4514H16.812H16.8759L16.964 10.4086L17.0319 10.3588L17.124 10.3142L17.1759 10.2447L17.196 10.218L17.374 10.1556L17.5839 10.1449L17.608 10.1343H17.62L17.6759 10.0772H17.7279L17.852 10.1165L17.94 10.1022L18.01 10.1271H18.066L18.168 10.1165L18.2779 10.1859H18.342L18.568 10.3035H18.6H18.6259L18.666 10.2928L18.692 10.3249H18.7279L18.77 10.2768L18.752 10.2536L18.672 10.2394L18.6 10.1289L18.668 10.063L18.56 9.94362L18.542 9.92402L18.504 9.87237L18.314 9.61402L18.066 9.43585L17.9799 9.3735L17.95 9.35212L17.818 9.23274L17.722 9.12049L17.71 9.09733L17.692 9.05814L17.6339 8.94946L17.5359 8.88176L17.456 8.80337L17.29 8.60205L17.264 8.56818L17.224 8.54859H17.142L17.1819 8.51296H17.2259L17.244 8.47375L17.16 8.25639V8.18512L17.2279 7.86976V7.83236L17.346 7.62035L17.418 7.56689L17.498 7.42792L17.566 7.33883L17.6299 7.28361H17.642L17.76 7.22126L17.858 7.20878L17.952 7.19631L18.116 7.24264H18.272H18.302H18.372L18.49 7.21056L18.544 7.18026L18.572 7.14107L18.6319 6.96291L18.652 6.90769L18.688 6.84531L18.9 6.62795L19.06 6.49611L19.422 6.26094L19.598 6.16651L19.688 6.1184L20.488 5.79948L20.688 5.61063L20.798 5.51263L20.998 5.39682L21.224 5.31487L21.424 5.17768L21.466 5.12957L21.52 4.97635H21.564L21.604 4.89975L21.616 4.87659L21.774 4.77681H21.792L22.408 4.50245L22.498 4.51312L22.546 4.44899L22.724 4.42226H22.758L22.802 4.40266L22.84 4.34566V4.33496V4.18174L22.8779 4.14076L22.9 4.04098L22.92 4.01782L22.94 3.99289L22.99 3.9626V3.94478L22.896 3.97684L22.818 3.86816Z" fill="#ED7A00"/>
</g>
<defs>
<clipPath id="clip0_284_100804">
<rect width="24" height="21.3799" fill="white" transform="translate(0 0.418945)"/>
</clipPath>
</defs>
</svg>
