<svg width="24" height="22" viewBox="0 0 24 22" fill="none" xmlns="http://www.w3.org/2000/svg">
<g clip-path="url(#clip0_284_100810)">
<path d="M21.938 0.752888C22.3139 0.75336 22.6743 0.886607 22.9401 1.1234C23.2059 1.36019 23.3555 1.68122 23.356 2.0161V19.7222C23.3555 20.0571 23.2059 20.3781 22.9401 20.6149C22.6743 20.8517 22.3139 20.985 21.938 20.9854H2.06201C1.6861 20.985 1.32572 20.8517 1.05991 20.6149C0.7941 20.3781 0.644523 20.0571 0.643994 19.7222V2.0161C0.644523 1.68122 0.7941 1.36019 1.05991 1.1234C1.32572 0.886607 1.6861 0.75336 2.06201 0.752888H21.938ZM21.938 0.179199H2.06201C1.5153 0.179671 0.991126 0.373361 0.604541 0.717742C0.217956 1.06212 0.000529505 1.52907 0 2.0161V19.7222C0.000529505 20.2092 0.217956 20.6762 0.604541 21.0206C0.991126 21.365 1.5153 21.5586 2.06201 21.5591H21.938C22.4845 21.5582 23.0084 21.3643 23.3949 21.02C23.7813 20.6758 23.9989 20.2091 24 19.7222V2.0161C23.9989 1.52922 23.7813 1.06254 23.3949 0.718264C23.0084 0.373984 22.4845 0.180141 21.938 0.179199Z" fill="#CAB99E"/>
<path d="M9.49392 0.75293H2.06194C1.68602 0.753401 1.32565 0.886649 1.05984 1.12344C0.794027 1.36023 0.64445 1.68127 0.643921 2.01614V4.29132C1.02898 4.34407 1.41683 4.37912 1.80593 4.39641C1.77521 3.91785 1.7084 3.44166 1.60593 2.97109C2.11058 3.02811 2.62126 3.02811 3.1259 2.97109C3.0268 3.44187 2.96333 3.91805 2.93591 4.39641C3.47324 4.37011 4.00786 4.31058 4.53591 4.21825C4.47391 4.66851 4.47391 5.12385 4.53591 5.57411C4.00786 5.48177 3.47324 5.42223 2.93591 5.39594C2.96312 5.87433 3.02659 6.35052 3.1259 6.82127C2.62113 6.76604 2.1107 6.76604 1.60593 6.82127C1.70861 6.35072 1.77543 5.87453 1.80593 5.39594C1.41793 5.41376 1.03059 5.44822 0.643921 5.49929V8.74191H9.49392V0.75293Z" fill="white"/>
<path d="M14.37 20.9856H21.938C22.3139 20.9851 22.6743 20.8519 22.9401 20.6151C23.2059 20.3783 23.3555 20.0573 23.356 19.7224V17.5844C22.9269 17.5221 22.4942 17.4811 22.06 17.4615C22.0862 17.9399 22.1497 18.4162 22.25 18.8868C21.7445 18.8316 21.2334 18.8316 20.728 18.8868C20.8316 18.4164 20.8984 17.9401 20.928 17.4615C20.3909 17.4848 19.8562 17.5414 19.328 17.6307C19.392 17.1806 19.392 16.725 19.328 16.2749C19.8559 16.3681 20.3905 16.4277 20.928 16.4531C20.8984 15.9744 20.8316 15.4981 20.728 15.0277C21.2333 15.0848 21.7447 15.0848 22.25 15.0277C22.1497 15.4984 22.0862 15.9746 22.06 16.4531C22.4943 16.4343 22.927 16.3932 23.356 16.3301V13.1089H14.37V20.9856Z" fill="white"/>
<path d="M0.643921 13.1017V16.3425C1.02901 16.3947 1.41687 16.4292 1.80593 16.4459C1.77543 15.9673 1.70861 15.4911 1.60593 15.0205C2.11058 15.0776 2.62126 15.0776 3.1259 15.0205C3.02659 15.4913 2.96312 15.9675 2.93591 16.4459C3.47333 16.4205 4.00802 16.3609 4.53591 16.2677C4.47391 16.718 4.47391 17.1733 4.53591 17.6235C4.00762 17.5342 3.473 17.4776 2.93591 17.4543C2.96312 17.9327 3.02659 18.4088 3.1259 18.8796C2.62113 18.8244 2.1107 18.8244 1.60593 18.8796C1.70861 18.4091 1.77543 17.9329 1.80593 17.4543C1.41793 17.4721 1.03059 17.5065 0.643921 17.5576V19.7134C0.64445 20.0483 0.794027 20.3693 1.05984 20.6061C1.32565 20.8429 1.68602 20.9761 2.06194 20.9766H9.49392V13.0928L0.643921 13.1017Z" fill="white"/>
<path d="M23.356 8.75798V5.53498C22.9269 5.47271 22.4942 5.43168 22.06 5.41206C22.0862 5.89051 22.1497 6.36677 22.25 6.83739C21.7445 6.78215 21.2334 6.78215 20.728 6.83739C20.8316 6.36698 20.8984 5.89072 20.928 5.41206C20.3906 5.43835 19.856 5.49788 19.328 5.59022C19.392 5.14007 19.392 4.68451 19.328 4.23436C19.856 4.32669 20.3906 4.38623 20.928 4.41253C20.8982 3.93388 20.8314 3.45764 20.728 2.9872C21.2333 3.04422 21.7447 3.04422 22.25 2.9872C22.1499 3.45785 22.0864 3.93409 22.06 4.41253C22.4942 4.39291 22.9269 4.35188 23.356 4.2896V2.03221C23.3555 1.69734 23.2059 1.37635 22.9401 1.13956C22.6743 0.902762 22.3139 0.769514 21.938 0.769043H14.37V8.77403L23.356 8.75798Z" fill="white"/>
<path d="M14.3699 8.75791V0.75293H9.49392V8.75791H0.643921V13.1016H9.49392V20.9855H14.3699V13.1016H23.3559V8.75791H14.3699Z" fill="#E4171E"/>
<path d="M1.616 6.83554C2.12077 6.78031 2.6312 6.78031 3.13597 6.83554C3.03666 6.36478 2.97319 5.88859 2.94598 5.41021C3.48331 5.4365 4.01793 5.49603 4.54598 5.58838C4.48398 5.13812 4.48398 4.68277 4.54598 4.23251C4.01793 4.32485 3.48331 4.38438 2.94598 4.41068C2.9734 3.93231 3.03687 3.45613 3.13597 2.98535C2.63133 3.04237 2.12065 3.04237 1.616 2.98535C1.71847 3.45593 1.78528 3.93211 1.816 4.41068C1.42691 4.39339 1.03905 4.35829 0.653992 4.30555V5.52422C1.04066 5.47314 1.428 5.43868 1.816 5.42087C1.78496 5.89587 1.71814 6.36851 1.616 6.83554Z" fill="#E4171E"/>
<path d="M22.25 15.022C21.7446 15.079 21.2333 15.079 20.7279 15.022C20.8316 15.4924 20.8984 15.9686 20.9279 16.4473C20.3905 16.4219 19.8558 16.3624 19.3279 16.2691C19.3919 16.7193 19.3919 17.1748 19.3279 17.625C19.8562 17.5356 20.3909 17.4791 20.9279 17.4557C20.8984 17.9344 20.8316 18.4106 20.7279 18.881C21.2334 18.8258 21.7445 18.8258 22.25 18.881C22.1497 18.4104 22.0862 17.9342 22.06 17.4557C22.4942 17.4753 22.9269 17.5164 23.356 17.5786V16.3155C22.927 16.3786 22.4943 16.4196 22.06 16.4384C22.0866 15.9629 22.1501 15.4897 22.25 15.022Z" fill="#E4171E"/>
<path d="M22.25 2.97119C21.7446 3.02821 21.2333 3.02821 20.7279 2.97119C20.8314 3.44163 20.8982 3.91787 20.9279 4.39652C20.3906 4.37022 19.856 4.31069 19.3279 4.21835C19.3919 4.6685 19.3919 5.12407 19.3279 5.57421C19.856 5.48187 20.3906 5.42234 20.9279 5.39605C20.8984 5.87471 20.8316 6.35097 20.7279 6.82138C21.2334 6.76614 21.7445 6.76614 22.25 6.82138C22.1497 6.35076 22.0862 5.8745 22.06 5.39605C22.4942 5.41567 22.9269 5.4567 23.356 5.51897V4.27716C22.9269 4.33944 22.4942 4.38047 22.06 4.40009C22.0862 3.92045 22.1497 3.44301 22.25 2.97119Z" fill="#E4171E"/>
<path d="M1.616 18.8864C2.12077 18.8312 2.6312 18.8312 3.13597 18.8864C3.03666 18.4157 2.97319 17.9395 2.94598 17.4611C3.48307 17.4844 4.01769 17.541 4.54598 17.6303C4.48398 17.1801 4.48398 16.7248 4.54598 16.2745C4.01809 16.3677 3.4834 16.4273 2.94598 16.4527C2.97319 15.9743 3.03666 15.4981 3.13597 15.0273C2.63133 15.0844 2.12065 15.0844 1.616 15.0273C1.71868 15.4979 1.7855 15.9741 1.816 16.4527C1.42694 16.436 1.03908 16.4015 0.653992 16.3493V17.5733C1.04066 17.5222 1.428 17.4878 1.816 17.47C1.78505 17.9456 1.71823 18.4188 1.616 18.8864Z" fill="#E4171E"/>
</g>
<defs>
<clipPath id="clip0_284_100810">
<rect width="24" height="21.3799" fill="white" transform="translate(0 0.179199)"/>
</clipPath>
</defs>
</svg>
