<svg width="24" height="22" viewBox="0 0 24 22" fill="none" xmlns="http://www.w3.org/2000/svg">
<g clip-path="url(#clip0_284_100790)">
<path d="M21.938 0.752888C22.3139 0.75336 22.6743 0.886607 22.9401 1.1234C23.2059 1.36019 23.3555 1.68122 23.356 2.0161V19.7222C23.3555 20.0571 23.2059 20.3781 22.9401 20.6149C22.6743 20.8517 22.3139 20.985 21.938 20.9854H2.06201C1.6861 20.985 1.32572 20.8517 1.05991 20.6149C0.7941 20.3781 0.644523 20.0571 0.643994 19.7222V2.0161C0.644523 1.68122 0.7941 1.36019 1.05991 1.1234C1.32572 0.886607 1.6861 0.75336 2.06201 0.752888H21.938ZM21.938 0.179199H2.06201C1.5153 0.179671 0.991126 0.373361 0.604541 0.717742C0.217956 1.06212 0.000529505 1.52907 0 2.0161V19.7222C0.000529505 20.2092 0.217956 20.6762 0.604541 21.0206C0.991126 21.365 1.5153 21.5586 2.06201 21.5591H21.938C22.4845 21.5582 23.0084 21.3643 23.3949 21.02C23.7813 20.6758 23.9989 20.2091 24 19.7222V2.0161C23.9995 1.52907 23.782 1.06212 23.3955 0.717742C23.0089 0.373361 22.4847 0.179671 21.938 0.179199Z" fill="#CAB99E"/>
<path d="M10.666 13.2479H10.902C10.822 13.2141 10.744 13.1802 10.666 13.1499V13.2479Z" fill="white"/>
<path d="M21.9379 0.75301H2.06194C1.68602 0.753482 1.32565 0.886729 1.05984 1.12352C0.794027 1.36032 0.64445 1.68135 0.643921 2.01622V14.4968H11.5299V14.3186C11.528 14.302 11.528 14.2853 11.5299 14.2687H8.48191V14.0228H5.03992V13.4883V13.4776H5.05593L5.85593 13.0126V8.36247H5.48992V7.98657H5.03792V7.07077H5.53792V7.55181H6.24592V7.07077H6.79993V4.16491H6.59993V3.76578H6.24792V2.95694H6.91995V3.34712H7.48591V2.95694H8.46794V3.34712H9.03391V2.95694H9.58792V3.76578H9.38792V4.16491H9.19993V7.07077H9.29392V7.55181H10.0939V7.07077H10.3619V3.38631H10.0659V2.85181H9.70393V2.19261H10.324V2.5311H10.924V2.19261H11.7079V2.5311H12.3079V2.19261H13.0919V2.5311H13.6919V2.19261H14.3099V2.85181H13.9499V3.38631H13.6539V7.07077H13.9219V7.55181H14.7219V7.07077H14.8159V4.16491H14.6339V3.76578H14.4339V2.95694H14.9899V3.34712H15.5539V2.95694H16.5379V3.34712H17.1019V2.95694H17.7759V3.76578H17.424V4.16491H17.224V7.07077H17.7699V7.55181H18.4779V7.07077H18.9779V7.98657H18.5259V8.36247H18.1599V13.0073L18.9599 13.4723H18.9759V13.483V14.0175H15.5339V14.2633H12.5339V14.4878H23.374V2.00731C23.3724 1.84088 23.3339 1.67635 23.2609 1.52318C23.1878 1.37 23.0815 1.23121 22.9481 1.11469C22.8147 0.998173 22.6568 0.906242 22.4835 0.844181C22.3101 0.782121 22.1247 0.751129 21.9379 0.75301Z" fill="white"/>
<path d="M12.2799 14.3717C12.2067 14.3952 12.1284 14.4034 12.0511 14.3957C11.9738 14.388 11.8995 14.3645 11.8339 14.3271C11.8088 14.3207 11.786 14.3084 11.7679 14.2915V14.4964H12.2799V14.3717Z" fill="white"/>
<path d="M13.162 13.2496H13.334V13.1641L13.162 13.2496Z" fill="white"/>
<path d="M11.9579 16.1642L12.9059 15.6742L12.4539 15.4408C12.4128 15.5083 12.3522 15.5649 12.2783 15.6046C12.2045 15.6444 12.1202 15.6659 12.0339 15.6671H11.9999C11.9059 15.663 11.8153 15.6346 11.7392 15.5852C11.6632 15.5358 11.605 15.4677 11.5719 15.3892L11.0179 15.676L11.9579 16.1642Z" fill="#FD0005"/>
<path d="M11.6999 20.8019H10.0779V20.0893H10.5999V20.426H11.1999V20.0893H11.7079V19.879H11.1999V19.5423H10.5999V19.879H10.0779V19.1664H11.6999V16.4476L10.6159 15.8881H10.3379V15.473H10.6159L11.5299 15.0008V14.502H0.643921V19.7276C0.64445 20.0624 0.794027 20.3835 1.05984 20.6203C1.32565 20.8571 1.68602 20.9903 2.06194 20.9908H11.6999V20.8126V20.8019Z" fill="#FD0005"/>
<path d="M11.774 15.2787C11.7825 15.3181 11.8033 15.3545 11.834 15.3838C11.8549 15.4047 11.8804 15.4216 11.909 15.4332C11.9376 15.4449 11.9686 15.4511 12 15.4515H12.034C12.0788 15.4512 12.1228 15.4399 12.1609 15.4188C12.199 15.3978 12.2298 15.3678 12.25 15.3321L11.958 15.1807L11.774 15.2787Z" fill="#FD0005"/>
<path d="M12.516 14.7674V15.0631L13.298 15.4676H13.576V15.8827H13.298L12.216 16.4421V20.9854H21.938C22.3139 20.9849 22.6743 20.8517 22.9401 20.6149C23.2059 20.3781 23.3555 20.057 23.356 19.7222V14.4966H12.516C12.516 14.5874 12.518 14.6783 12.516 14.7674Z" fill="#FD0005"/>
<path d="M12.2799 14.942V14.4966H11.7679C11.7679 14.6177 11.7679 14.7371 11.7679 14.8529V14.8707L11.9679 14.7727L12.2799 14.942Z" fill="#FD0005"/>
<path d="M11.67 13.2477H12.47C12.516 13.2192 12.564 13.1907 12.614 13.1639C12.6154 13.1611 12.6176 13.1586 12.6204 13.1567C12.6232 13.1549 12.6265 13.1537 12.63 13.1533L12.84 13.0375C12.8419 13.0348 12.8446 13.0326 12.8477 13.031C12.8509 13.0295 12.8544 13.0286 12.858 13.0286L12.906 13.0018L12.994 12.9573L13.064 12.9217C13.064 12.9192 13.0645 12.9167 13.0656 12.9144C13.0668 12.9121 13.0685 12.9101 13.0705 12.9084C13.0726 12.9067 13.075 12.9054 13.0777 12.9047C13.0804 12.9039 13.0832 12.9036 13.086 12.9038C13.164 12.8646 13.24 12.8272 13.32 12.7916V11.564C13.3406 11.3141 13.2608 11.0658 13.0948 10.8634C12.9288 10.6611 12.6875 10.5179 12.414 10.4594C12.2746 10.4249 12.1306 10.4075 11.986 10.4077C11.8418 10.4073 11.6981 10.4222 11.558 10.4523C10.984 10.5788 10.652 10.9743 10.652 11.564V12.7898C10.9627 12.9085 11.2653 13.0435 11.558 13.1943L11.67 13.2477Z" fill="black"/>
<path d="M8.01002 10.9316C7.7596 10.9372 7.52152 11.0298 7.34664 11.1895C7.17177 11.3493 7.07396 11.5636 7.07404 11.7868V13.0073H8.94401V11.7922C8.94639 11.681 8.92408 11.5704 8.87838 11.4669C8.83268 11.3634 8.76448 11.269 8.6777 11.189C8.59091 11.1091 8.48725 11.0451 8.37267 11.001C8.25808 10.9568 8.13486 10.9333 8.01002 10.9316Z" fill="black"/>
<path d="M5.09003 13.9833H8.48402V13.6501L8.69403 13.561L8.78802 13.52H5.09003V13.9833Z" fill="#FD0005"/>
<path d="M5.88599 13.0444L5.146 13.4774H8.88799L9.41401 13.2529V13.0444H5.88599Z" fill="#FD0005"/>
<path d="M5.14597 13.4776L5.88596 13.0447H9.41399V13.0429H8.94397V13.002H7.074V13.0429H5.85398V13.0127L5.05798 13.4776H5.14597Z" fill="black"/>
<path d="M8.48398 13.9836H5.08999V13.5203H5.04199V13.4883V14.0263H8.48398V13.9836Z" fill="black"/>
<path d="M8.85598 8.74717V8.3623H5.90198V12.9946H7.02595V11.7813C7.02592 11.5475 7.12912 11.3231 7.31321 11.1564C7.4973 10.9898 7.74755 10.8943 8.00999 10.8905C8.27207 10.8947 8.52183 10.9904 8.70549 11.157C8.88915 11.3236 8.99201 11.5478 8.99197 11.7813V13.0071H9.41399V8.75426L8.85598 8.74717Z" fill="#FD0005"/>
<path d="M5.854 13.0429H7.07402V11.7958C7.07395 11.5726 7.17175 11.3583 7.34663 11.1985C7.52151 11.0387 7.75958 10.9462 8.01001 10.9406C8.26109 10.9439 8.50043 11.0358 8.67554 11.1961C8.85064 11.3565 8.9472 11.5721 8.94399 11.7958V13.0429H9.41401V13.0073H9V11.794C9.00004 11.5605 8.89714 11.3363 8.71348 11.1697C8.52982 11.0031 8.2801 10.9074 8.01802 10.9032C7.75558 10.9069 7.50528 11.0024 7.32119 11.1691C7.1371 11.3357 7.03395 11.5602 7.03398 11.794V13.0073H5.91001V8.375H5.86201V13.0554L5.854 13.0429Z" fill="black"/>
<path d="M8.60009 7.55151V7.07047V6.28299C8.60009 6.1384 8.53561 5.99972 8.42084 5.89747C8.30607 5.79523 8.15039 5.73779 7.98808 5.73779H7.95609C7.80333 5.74868 7.66103 5.81123 7.55839 5.91261C7.45575 6.01399 7.40054 6.14651 7.40409 6.28299V7.55151H8.60009Z" fill="black"/>
<path d="M7.36001 7.59436V7.11328H6.78999H6.29199V7.59436H5.48799V7.11328H5.08398V7.94356H5.48799V7.94H8.602V7.59436H7.36001Z" fill="#FD0005"/>
<path d="M5.53595 7.98633V8.31948H5.85397H8.60197V7.98633H5.53595Z" fill="#FD0005"/>
<path d="M5.90197 8.3625H8.60197V8.31975H5.85397H5.53595V7.9866H8.60197V7.94027H5.48795V7.94384H5.08395V7.11356H5.48795V7.59464H6.29196V7.11356H6.78995V7.0708H6.24396V7.55184H5.53595V7.0708H5.03595V7.9866H5.48795V8.3625H5.85397H5.90197Z" fill="black"/>
<path d="M8.60198 7.59436V7.57296V7.55156H7.40798V7.11328H7.35999V7.59436H8.60198Z" fill="black"/>
<path d="M9.14602 4.16455H6.83801V7.0704H7.36003V6.28292C7.35348 6.1344 7.41269 5.98951 7.52493 5.87953C7.63717 5.76954 7.79344 5.70327 7.96003 5.69497H7.99402C8.16906 5.69497 8.33694 5.75691 8.46072 5.86718C8.58449 5.97744 8.65403 6.12699 8.65403 6.28292V7.0704H9.14802L9.14602 4.16455Z" fill="#FD0005"/>
<path d="M6.79999 7.11316H7.39999V6.28292C7.39643 6.14644 7.45164 6.01392 7.55428 5.91254C7.65693 5.81117 7.79923 5.74861 7.95199 5.73773H7.98397C8.14628 5.73773 8.30196 5.79516 8.41674 5.89741C8.53151 5.99965 8.59598 6.13833 8.59598 6.28292V7.0704H8.64398V6.28292C8.64398 6.12699 8.57445 5.97744 8.45067 5.86718C8.3269 5.75691 8.15902 5.69497 7.98397 5.69497H7.94999C7.78339 5.70327 7.62712 5.76954 7.51488 5.87953C7.40264 5.98951 7.34343 6.1344 7.34999 6.28292V7.0704H6.82797V4.16455H6.79999V7.11316Z" fill="black"/>
<path d="M9.19399 4.16455H9.146V7.0704H9.19399V4.16455Z" fill="black"/>
<path d="M9.32802 3.76562H6.63202V4.12196H9.32802V3.76562Z" fill="#FD0005"/>
<path d="M6.83799 4.16476H9.146H9.19399H9.37598V3.76562H9.32798V4.12196H6.63198V3.76562H6.58398V4.16476H6.78999H6.83799Z" fill="black"/>
<path d="M9.37596 3.72283H9.52401V2.99951H9.066V3.38968H8.40399V2.99951H7.51801V3.38968H6.85599V2.99951H6.27997V3.72283H6.58397H9.37596Z" fill="#FD0005"/>
<path d="M6.63206 3.76587H9.57209V2.95703H9.01809V3.3472H8.45208V2.95703H7.47009V3.3472H6.90408V2.95703H6.23206V3.76587H6.63206ZM6.28005 2.99979H6.85608V3.3864H7.51809V2.99622H8.40007V3.3864H9.06208V2.99622H9.52009V3.71959H6.28005V2.99979Z" fill="black"/>
<path d="M5.08999 13.5203H8.78799L8.88799 13.4775H5.146H5.05801H5.04199V13.4882V13.5203H5.08999Z" fill="black"/>
<path d="M11.436 13.6841H8.53204V14.2293H11.5061H11.53V13.6841H11.436Z" fill="#FD0005"/>
<path d="M11.436 13.6415H11.53V13.5542C11.352 13.458 11.1741 13.376 10.9981 13.2905H9.43204L8.99606 13.4687L8.94606 13.4901L8.89606 13.5115L8.80206 13.5524L8.61407 13.6326L11.436 13.6415Z" fill="#FD0005"/>
<path d="M12.476 13.2476H11.67L12.476 13.2496V13.2476Z" fill="black"/>
<path d="M11.506 14.2292H8.53198V13.684H8.50601V13.6412H8.61401L8.802 13.561L8.896 13.52L8.946 13.4987L8.996 13.4773L9.43198 13.2991H11L10.952 13.2777L10.904 13.2563H10.668V13.276C10.6671 13.2812 10.6642 13.286 10.6599 13.2895C10.6555 13.2931 10.6499 13.2952 10.644 13.2956H9.44399C9.43892 13.2954 9.43401 13.2939 9.42979 13.2914C9.42556 13.2889 9.42219 13.2854 9.42002 13.2813V13.2599L8.89399 13.4844L8.79399 13.5272L8.7 13.5681L8.5 13.6572V14.279H11.522L11.506 14.2292Z" fill="black"/>
<path d="M11.436 13.6844V13.6416H8.61405H8.50604V13.6844H8.53202H11.436Z" fill="black"/>
<path d="M16.9239 11.7868C16.924 11.5639 16.8265 11.3499 16.652 11.1901C16.4776 11.0304 16.24 10.9377 15.9899 10.9316C15.7388 10.9349 15.4995 11.0268 15.3244 11.1871C15.1493 11.3475 15.0527 11.5631 15.0559 11.7868V13.0073H16.9239V11.7868Z" fill="black"/>
<path d="M15.114 13.4774H18.854L18.114 13.0444H14.5859V13.2511L15.114 13.4774Z" fill="#FD0005"/>
<path d="M15.5161 13.9833H18.91V13.52H15.2141L15.5161 13.6501V13.9833Z" fill="#FD0005"/>
<path d="M18.91 13.5203V13.9836H15.516V14.0263H18.958V13.4883V13.5203H18.91Z" fill="black"/>
<path d="M18.1459 13.0429H16.924V13.002H15.056V13.0429H14.5859V13.0447H18.114L18.854 13.4776H18.9419L18.1459 13.0127V13.0429Z" fill="black"/>
<path d="M14.5859 8.74738V13.0073H15V11.794C14.9999 11.5605 15.1028 11.3363 15.2865 11.1697C15.4701 11.0031 15.7198 10.9074 15.9819 10.9032C16.2435 10.9092 16.4924 11.0054 16.6759 11.1715C16.8595 11.3377 16.9635 11.5609 16.966 11.794V13.0073H18.0899V8.375H15.1359V8.75982L14.5859 8.74738Z" fill="#FD0005"/>
<path d="M18.0979 8.3623V12.9946H16.974V11.7813C16.9715 11.5482 16.8675 11.3251 16.6839 11.1589C16.5004 10.9927 16.2516 10.8965 15.9899 10.8905C15.7279 10.8947 15.4781 10.9904 15.2944 11.157C15.1108 11.3236 15.0079 11.5478 15.008 11.7813V13.0071H14.5859V13.0499H15.056V11.8027C15.0528 11.579 15.1493 11.3633 15.3244 11.203C15.4995 11.0427 15.7389 10.9508 15.9899 10.9475C16.24 10.9535 16.4776 11.0463 16.6521 11.206C16.8265 11.3658 16.9241 11.5798 16.924 11.8027V13.0499H18.1459V8.36944L18.0979 8.3623Z" fill="black"/>
<path d="M16.6 7.11323V6.28299C16.6035 6.14622 16.548 6.01347 16.445 5.91204C16.3419 5.81062 16.1991 5.74825 16.046 5.73779H16C15.8377 5.73779 15.682 5.79523 15.5672 5.89747C15.4525 5.99972 15.388 6.1384 15.388 6.28299V7.07047V7.55151H16.588L16.6 7.11323Z" fill="black"/>
<path d="M18.4641 8.31948V7.98633H15.3981V8.31948H18.1461H18.4641Z" fill="#FD0005"/>
<path d="M18.5121 7.94356H18.9161V7.11328H18.5121V7.59436H17.7081V7.11328H17.2101H16.6401V7.59436H15.3981V7.94H18.5121V7.94356Z" fill="#FD0005"/>
<path d="M16.6401 7.11328H16.5921V7.55156H15.3981V7.59436H16.6401V7.11328Z" fill="black"/>
<path d="M17.2101 7.11356H17.7081V7.59464H18.5121V7.11356H18.9161V7.94384H18.5121V7.94027H15.3981V7.9866H18.4641V8.31975H18.1461H15.3981V8.3625H18.0981H18.1461H18.5121V7.9866H18.9641V7.0708H18.4641V7.55184H17.7561V7.0708H17.2101V7.11356Z" fill="black"/>
<path d="M16 5.70234H16.034C16.2006 5.71063 16.3569 5.77691 16.4691 5.8869C16.5814 5.99688 16.6406 6.14177 16.634 6.29029V7.07777H17.156V4.17188H14.848V7.07777H15.342V6.29029C15.342 6.13467 15.4113 5.98536 15.5346 5.87515C15.658 5.76494 15.8253 5.70281 16 5.70234Z" fill="#FD0005"/>
<path d="M17.162 4.16455V7.0704H16.64V6.28292C16.6466 6.1344 16.5874 5.98951 16.4751 5.87953C16.3629 5.76954 16.2066 5.70327 16.04 5.69497H16C15.825 5.69497 15.6571 5.75691 15.5333 5.86718C15.4096 5.97744 15.34 6.12699 15.34 6.28292V7.0704H15.388V6.28292C15.388 6.13833 15.4525 5.99965 15.5673 5.89741C15.682 5.79516 15.8377 5.73773 16 5.73773H16.03C16.1831 5.74818 16.3259 5.81056 16.429 5.91198C16.5321 6.0134 16.5875 6.14616 16.584 6.28292V7.11316H17.202V4.16455H17.162Z" fill="black"/>
<path d="M14.854 4.16455H14.806V7.0704H14.854V4.16455Z" fill="black"/>
<path d="M17.3681 3.76562H14.6721V4.12196H17.3681V3.76562Z" fill="#FD0005"/>
<path d="M14.854 4.16476H17.162H17.21H17.416V3.76562H17.368V4.12196H14.672V3.76562H14.624V4.16476H14.806H14.854Z" fill="black"/>
<path d="M17.416 3.72283H17.72V2.99951H17.142V3.38968H16.482V2.99951H15.594V3.38968H14.934V2.99951H14.476V3.72283H14.624H17.416Z" fill="#FD0005"/>
<path d="M14.672 3.76587H17.768V2.95703H17.094V3.3472H16.53V2.95703H15.546V3.3472H14.982V2.95703H14.426V3.76587H14.672ZM14.472 2.99979H14.93V3.3864H15.59V2.99622H16.478V3.3864H17.138V2.99622H17.716V3.71959H14.472V2.99979Z" fill="black"/>
<path d="M18.8541 13.4775H15.1141L15.2141 13.5203H18.9101H18.9581V13.4882V13.4775H18.9421H18.8541Z" fill="black"/>
<path d="M12.562 13.6844H12.424C12.4155 13.6913 12.4061 13.6973 12.396 13.7022C12.422 13.7236 12.446 13.7468 12.47 13.7699L12.484 13.786C12.5322 13.8383 12.5628 13.9018 12.572 13.969C12.5812 14.0362 12.5687 14.1043 12.536 14.1654C12.528 14.1835 12.518 14.2009 12.506 14.2171C12.5069 14.2206 12.5069 14.2243 12.506 14.2278H15.464V13.6826L12.562 13.6844Z" fill="#FD0005"/>
<path d="M12.504 13.6308L12.488 13.6415H15.384L14.568 13.2852H13.082C12.906 13.3778 12.752 13.4633 12.61 13.556L12.504 13.6308Z" fill="#FD0005"/>
<path d="M11.692 13.6412L11.544 13.561H11.53V13.6483L11.692 13.6412Z" fill="#FD0005"/>
<path d="M11.64 14.0104C11.6391 13.9521 11.6543 13.8945 11.6843 13.8426C11.7143 13.7907 11.7582 13.7462 11.812 13.7129L11.77 13.688H11.534V14.2331C11.5488 14.1578 11.5854 14.0872 11.64 14.0283C11.64 14.0283 11.642 14.0158 11.64 14.0104Z" fill="#FD0005"/>
<path d="M11.75 13.2905L11.784 13.3083L11.838 13.3386C11.926 13.3885 12.016 13.4384 12.104 13.4936C12.198 13.4259 12.304 13.3582 12.406 13.2905H11.75Z" fill="#FD0005"/>
<path d="M11.538 14.2295H11.506V14.2723H11.532C11.533 14.2579 11.5351 14.2436 11.538 14.2295Z" fill="black"/>
<path d="M12.4 13.2902L12.422 13.276H12.436L12.47 13.2563H11.67L11.71 13.2777L11.75 13.2991H12.4V13.2902Z" fill="black"/>
<path d="M11.4359 13.6416V13.6844H11.7659H11.7539L11.7299 13.6701L11.6919 13.6487H11.4359V13.6416Z" fill="black"/>
<path d="M12.562 13.6412H12.486L12.47 13.6537H12.456L12.424 13.6751H15.492V13.6323H12.562V13.6412Z" fill="black"/>
<path d="M13.116 13.2353L13.334 13.1248V12.8291C13.26 12.8612 13.188 12.8968 13.116 12.9342V13.2353Z" fill="#FFD800"/>
<path d="M13.068 12.959L13.02 12.9857L12.932 13.0302L12.89 13.0516V13.3634L13.01 13.2975L13.05 13.2761H13.068V12.959Z" fill="#FFD800"/>
<path d="M12.842 13.0786C12.78 13.1107 12.7201 13.1445 12.6641 13.1784V13.4884L12.844 13.3815L12.842 13.0786Z" fill="#FFD800"/>
<path d="M12.616 13.2051L12.542 13.2496L12.508 13.2692L12.492 13.2781L12.472 13.2906L12.438 13.312V13.6327L12.472 13.6095H12.482L12.548 13.5667L12.624 13.5187C12.6225 13.5146 12.6225 13.5102 12.624 13.5062L12.616 13.2051Z" fill="#FFD800"/>
<path d="M11.844 13.7305C11.7955 13.7595 11.7552 13.798 11.7261 13.8431C11.6969 13.8882 11.6798 13.9387 11.676 13.9906C11.7445 13.9255 11.8351 13.8823 11.934 13.8677H12.06C12 13.8196 11.916 13.775 11.844 13.7305Z" fill="#FFD800"/>
<path d="M12.388 13.6452V13.3423C12.3 13.3993 12.216 13.4563 12.134 13.5205C12.16 13.5347 12.184 13.5525 12.208 13.5686C12.2471 13.5933 12.2845 13.6201 12.32 13.6488L12.348 13.6701L12.368 13.6862L12.394 13.6701C12.3898 13.6673 12.3869 13.6632 12.3858 13.6586C12.3847 13.6541 12.3855 13.6493 12.388 13.6452Z" fill="#FFD800"/>
<path d="M12.658 13.162C12.6589 13.164 12.6594 13.1661 12.6594 13.1682C12.6594 13.1704 12.6589 13.1725 12.658 13.1744C12.714 13.1406 12.774 13.1067 12.836 13.0747V13.0462C12.8348 13.0421 12.8348 13.0378 12.836 13.0337L12.626 13.1495C12.629 13.1484 12.6322 13.1478 12.6355 13.1478C12.6388 13.1478 12.642 13.1484 12.645 13.1496C12.648 13.1508 12.6507 13.1525 12.6529 13.1546C12.6552 13.1567 12.6569 13.1593 12.658 13.162Z" fill="black"/>
<path d="M13.116 12.9182V12.936C13.188 12.8986 13.26 12.8629 13.334 12.8309V12.7935C13.254 12.8291 13.178 12.8665 13.1 12.9057C13.1036 12.9064 13.107 12.9079 13.1098 12.9101C13.1126 12.9123 13.1147 12.9151 13.116 12.9182Z" fill="black"/>
<path d="M13.334 13.1245L13.116 13.235V13.2564C13.1171 13.2605 13.1171 13.2647 13.116 13.2688C13.1105 13.2748 13.1026 13.2786 13.094 13.2795C13.0918 13.2804 13.0894 13.2808 13.087 13.2808C13.0846 13.2808 13.0822 13.2804 13.08 13.2795H13.062L13.022 13.3009L12.902 13.3668V13.3864C12.9007 13.3913 12.8977 13.3957 12.8934 13.3989C12.889 13.4021 12.8836 13.404 12.878 13.4042C12.8746 13.4036 12.8715 13.4023 12.8687 13.4005C12.8659 13.3986 12.8637 13.3962 12.862 13.3935L12.682 13.5005V13.5129C12.6831 13.5158 12.6831 13.5189 12.682 13.5218C12.6803 13.5248 12.6777 13.5274 12.6746 13.5293C12.6714 13.5312 12.6678 13.5323 12.664 13.5325C12.6612 13.5338 12.6581 13.5344 12.655 13.5344C12.6519 13.5344 12.6488 13.5338 12.646 13.5325L12.57 13.5806L12.504 13.6234H12.494L12.46 13.6466V13.6572C12.46 13.6629 12.4575 13.6684 12.453 13.6724C12.4485 13.6764 12.4424 13.6786 12.436 13.6786H12.422L12.396 13.6947L12.41 13.7053C12.4201 13.7004 12.4295 13.6945 12.438 13.6875L12.47 13.6661H12.484L12.5 13.6537L12.516 13.643L12.622 13.5735C12.764 13.4844 12.918 13.3953 13.094 13.3027L13.136 13.2813L13.174 13.2617L13.346 13.1762L13.334 13.1245Z" fill="black"/>
<path d="M12.886 13.0357C12.8871 13.0404 12.8871 13.0453 12.886 13.05L12.928 13.0286L13.016 12.9841L13.064 12.9573V12.9199L12.994 12.9555L12.906 13.0001L12.858 13.0268C12.8632 13.0256 12.8686 13.0258 12.8736 13.0274C12.8786 13.029 12.8829 13.0319 12.886 13.0357Z" fill="black"/>
<path d="M11.844 13.7306H11.828L11.812 13.7217C11.7582 13.7549 11.7143 13.7995 11.6843 13.8513C11.6543 13.9032 11.6391 13.9609 11.64 14.0192C11.64 14.0192 11.64 14.0299 11.64 14.0335L11.672 14.0032C11.6741 13.9488 11.6908 13.8957 11.7208 13.8483C11.7507 13.8008 11.7929 13.7605 11.844 13.7306Z" fill="black"/>
<path d="M12.388 13.3419V13.317C12.3885 13.3115 12.3912 13.3063 12.3956 13.3023C12.4 13.2984 12.4058 13.296 12.412 13.2956C12.4174 13.296 12.4225 13.2979 12.4265 13.3011C12.4305 13.3043 12.4331 13.3087 12.434 13.3134L12.468 13.2921L12.488 13.2796L12.504 13.2707L12.538 13.2511L12.612 13.2065V13.1762C12.612 13.1762 12.612 13.1673 12.612 13.1655C12.562 13.1923 12.514 13.2208 12.468 13.2493L12.434 13.2689H12.42L12.398 13.2831C12.29 13.3508 12.198 13.4185 12.096 13.4862L12.11 13.4952L12.126 13.5059C12.208 13.4488 12.292 13.3918 12.38 13.3277L12.388 13.3419Z" fill="black"/>
<path d="M12.434 13.3137C12.4331 13.3089 12.4305 13.3046 12.4265 13.3014C12.4225 13.2981 12.4174 13.2962 12.412 13.2959C12.4058 13.2963 12.4 13.2987 12.3956 13.3026C12.3912 13.3065 12.3885 13.3117 12.388 13.3173V13.6451C12.3867 13.6476 12.3861 13.6503 12.3861 13.6531C12.3861 13.6559 12.3867 13.6586 12.388 13.6611H12.402C12.4084 13.6611 12.4145 13.6588 12.419 13.6548C12.4235 13.6508 12.426 13.6454 12.426 13.6397V13.3083L12.434 13.3137Z" fill="black"/>
<path d="M12.6641 13.1854C12.665 13.1835 12.6655 13.1814 12.6655 13.1792C12.6655 13.1771 12.665 13.1749 12.6641 13.1729C12.6583 13.1709 12.6518 13.1709 12.6461 13.1729C12.6426 13.1733 12.6393 13.1745 12.6364 13.1764C12.6336 13.1783 12.6314 13.1808 12.63 13.1836C12.63 13.1836 12.63 13.1837 12.63 13.1943V13.5204C12.6285 13.5244 12.6285 13.5288 12.63 13.5328C12.6328 13.5341 12.636 13.5348 12.6391 13.5348C12.6422 13.5348 12.6453 13.5341 12.6481 13.5328C12.6518 13.5326 12.6555 13.5315 12.6587 13.5296C12.6618 13.5278 12.6644 13.5252 12.6661 13.5221C12.6672 13.5193 12.6672 13.5162 12.6661 13.5133V13.1854H12.6641Z" fill="black"/>
<path d="M13.116 12.9252C13.1147 12.9221 13.1126 12.9193 13.1098 12.9171C13.107 12.9149 13.1036 12.9134 13.1 12.9127C13.0972 12.9124 13.0944 12.9127 13.0917 12.9135C13.089 12.9143 13.0866 12.9156 13.0845 12.9173C13.0825 12.9189 13.0808 12.921 13.0797 12.9233C13.0785 12.9255 13.0779 12.928 13.0779 12.9305V13.269C13.0802 13.2698 13.0826 13.2703 13.085 13.2703C13.0874 13.2703 13.0897 13.2698 13.092 13.269C13.1005 13.2681 13.1084 13.2642 13.114 13.2583C13.1151 13.2542 13.1151 13.25 13.114 13.2459V12.9145L13.116 12.9252Z" fill="black"/>
<path d="M10.914 12.9447C10.9127 12.9425 10.9121 12.9401 10.9121 12.9376C10.9121 12.9352 10.9127 12.9327 10.914 12.9305C10.828 12.8931 10.744 12.8592 10.66 12.8271V13.114C10.744 13.1461 10.828 13.1817 10.914 13.2191C10.912 13.2145 10.912 13.2095 10.914 13.2049V12.9447Z" fill="#FFD800"/>
<path d="M11.2 13.084C11.2004 13.0797 11.2021 13.0756 11.2049 13.0722C11.2077 13.0687 11.2116 13.066 11.216 13.0644L10.954 12.9468V13.2052C10.954 13.2108 10.9515 13.2162 10.947 13.2202C10.9425 13.2243 10.9364 13.2265 10.93 13.2265L10.976 13.2479L11.024 13.2693L11.07 13.2907L11.2 13.3512V13.084Z" fill="#FFD800"/>
<path d="M11.504 13.2226C11.5039 13.2191 11.5048 13.2157 11.5065 13.2126C11.5083 13.2095 11.5108 13.2069 11.514 13.2048C11.428 13.1603 11.342 13.1193 11.258 13.0801V13.3634C11.2594 13.3668 11.2594 13.3706 11.258 13.3741L11.51 13.5024L11.504 13.2226Z" fill="#FFD800"/>
<path d="M12.5161 13.9675C12.5199 13.9677 12.5237 13.9686 12.5271 13.9702C12.5305 13.9717 12.5336 13.9738 12.536 13.9765C12.5332 13.9198 12.5101 13.8656 12.4701 13.8215L12.4581 13.809C12.4301 13.7805 12.4001 13.7538 12.3701 13.7271L12.2061 13.9301C12.2256 13.9465 12.2407 13.9666 12.25 13.9889L12.5161 13.9675Z" fill="#FFD800"/>
<path d="M12.334 13.6968L12.32 13.6843L12.292 13.6629L12.264 13.6416C12.226 13.6131 12.186 13.5864 12.146 13.5614L12.104 13.5347L12.026 13.7984L12.114 13.8607L12.128 13.8714L12.15 13.8874L12.17 13.9017L12.334 13.6968Z" fill="#FFD800"/>
<path d="M12.46 14.2081L12.4759 14.1796L12.494 14.1457C12.5159 14.0982 12.5275 14.0475 12.5279 13.9961C12.5255 13.9972 12.5228 13.9977 12.52 13.9977C12.5172 13.9977 12.5145 13.9972 12.512 13.9961L12.2359 14.0192C12.2325 14.0326 12.2265 14.0452 12.218 14.0566C12.2132 14.0618 12.2078 14.0666 12.202 14.0709L12.446 14.1867L12.46 14.2081Z" fill="#FFD800"/>
<path d="M11.7999 13.3636C11.7989 13.3595 11.7989 13.3552 11.7999 13.3511L11.764 13.3315L11.6779 13.2852L11.6379 13.2638L11.5959 13.2424L11.572 13.2299L11.5519 13.2192V13.5115L11.5759 13.5221L11.62 13.5471C11.668 13.572 11.716 13.6005 11.764 13.6272L11.7999 13.3636Z" fill="#FFD800"/>
<path d="M11.8 14.2723C11.8144 14.2848 11.8324 14.2934 11.852 14.2972C11.9279 14.34 12.0162 14.3623 12.106 14.3614H12.136C12.136 14.3614 12.136 14.3614 12.136 14.3507L12.116 14.1298C12.1163 14.1243 12.1186 14.119 12.1226 14.1148C12.1266 14.1107 12.132 14.1077 12.138 14.1066C12.1411 14.1063 12.1443 14.1067 12.1474 14.1075C12.1504 14.1084 12.1531 14.1098 12.1556 14.1116C12.158 14.1134 12.16 14.1156 12.1614 14.1181C12.1629 14.1207 12.1637 14.1234 12.164 14.1262L12.184 14.3471C12.1848 14.3506 12.1848 14.3543 12.184 14.3578C12.2229 14.3525 12.2611 14.3435 12.298 14.3311H12.312L12.332 14.3204L12.36 14.3061C12.3899 14.2889 12.4174 14.2686 12.442 14.2456L12.198 14.128C12.198 14.128 12.198 14.1173 12.198 14.1084C12.198 14.0995 12.188 14.1084 12.182 14.1084C12.1599 14.1146 12.1361 14.1146 12.114 14.1084C12.1154 14.1108 12.1161 14.1136 12.1161 14.1164C12.1161 14.1192 12.1154 14.1219 12.114 14.1244L11.882 14.2776H11.866C11.8624 14.2774 11.859 14.2765 11.8558 14.275C11.8527 14.2735 11.8501 14.2713 11.848 14.2687C11.8457 14.2668 11.844 14.2644 11.8428 14.2618C11.8415 14.2592 11.8409 14.2564 11.8409 14.2536C11.8409 14.2508 11.8415 14.248 11.8428 14.2454C11.844 14.2428 11.8457 14.2404 11.848 14.2384L12.072 14.0924H12.06C12.0061 14.0911 11.9533 14.1061 11.9101 14.1349C11.867 14.1636 11.8359 14.2045 11.822 14.2509C11.8169 14.2529 11.8122 14.2558 11.8084 14.2595C11.8046 14.2632 11.8018 14.2676 11.8 14.2723Z" fill="#FFD800"/>
<path d="M12.0539 13.508C11.9839 13.4635 11.9119 13.4225 11.8379 13.3833L11.8099 13.6559C11.811 13.6606 11.811 13.6654 11.8099 13.6701L11.8339 13.6844H11.8499L11.8659 13.6933L11.9719 13.761L12.0539 13.508Z" fill="#FFD800"/>
<path d="M12.28 14.3399V14.3438C12.284 14.3426 12.2881 14.3413 12.292 14.3399H12.28Z" fill="black"/>
<path d="M12.506 14.217C12.518 14.2008 12.528 14.1835 12.536 14.1654C12.5687 14.1042 12.5812 14.0361 12.572 13.9689C12.5628 13.9017 12.5322 13.8382 12.484 13.7859L12.47 13.7698C12.446 13.7467 12.422 13.7235 12.396 13.7021L12.382 13.6915L12.362 13.6754L12.334 13.654C12.2985 13.6254 12.2611 13.5986 12.222 13.5738C12.198 13.5578 12.174 13.54 12.148 13.5257L12.132 13.5151L12.118 13.5062C12.03 13.4509 11.94 13.401 11.852 13.3511L11.798 13.3209L11.764 13.303L11.724 13.2817L11.684 13.2603L11.586 13.2086C11.2933 13.0579 10.9907 12.9229 10.68 12.8042V12.8398C10.764 12.8719 10.848 12.9057 10.934 12.9431C10.9392 12.9415 10.9448 12.9415 10.95 12.9431C10.9562 12.9435 10.9621 12.9459 10.9665 12.9499C10.9709 12.9538 10.9736 12.959 10.974 12.9645L11.236 13.0821C11.2411 13.0823 11.246 13.084 11.25 13.0869C11.2539 13.0898 11.2567 13.0937 11.258 13.0982C11.342 13.1374 11.428 13.1783 11.514 13.2229C11.5186 13.2219 11.5234 13.2219 11.528 13.2229C11.5345 13.2233 11.5407 13.226 11.5451 13.2303C11.5496 13.2346 11.552 13.2402 11.552 13.246L11.572 13.2567L11.596 13.2692L11.638 13.2906L11.678 13.3119L11.764 13.3583L11.8 13.3779C11.8031 13.3766 11.8066 13.3759 11.81 13.3759C11.8135 13.3759 11.8169 13.3766 11.82 13.3779C11.8231 13.3781 11.8261 13.3788 11.8288 13.3802C11.8315 13.3815 11.834 13.3833 11.8359 13.3855C11.8377 13.3876 11.8391 13.3902 11.8398 13.3929C11.8405 13.3955 11.8406 13.3983 11.84 13.401C11.914 13.4402 11.986 13.4812 12.056 13.5257C12.0569 13.5235 12.0583 13.5214 12.0601 13.5197C12.0619 13.5179 12.064 13.5165 12.0665 13.5155C12.0689 13.5145 12.0715 13.514 12.0742 13.5139C12.0768 13.5138 12.0795 13.5142 12.082 13.5151C12.085 13.5159 12.0879 13.5172 12.0903 13.519C12.0927 13.5208 12.0948 13.523 12.0963 13.5255C12.0977 13.528 12.0986 13.5307 12.0989 13.5335C12.0992 13.5363 12.0989 13.5391 12.098 13.5418L12.14 13.5685C12.18 13.5934 12.22 13.6202 12.258 13.6487L12.286 13.6701L12.314 13.6915L12.328 13.7039C12.33 13.702 12.3326 13.7004 12.3353 13.6994C12.3381 13.6983 12.341 13.6978 12.344 13.6978C12.347 13.6978 12.35 13.6983 12.3527 13.6994C12.3555 13.7004 12.358 13.702 12.36 13.7039C12.3623 13.7059 12.364 13.7083 12.3652 13.7109C12.3665 13.7135 12.3671 13.7163 12.3671 13.7191C12.3671 13.7219 12.3665 13.7247 12.3652 13.7273C12.364 13.7299 12.3623 13.7322 12.36 13.7342V13.7431C12.39 13.7698 12.42 13.7966 12.448 13.8251L12.46 13.8375C12.5 13.8816 12.5231 13.9359 12.526 13.9926C12.526 13.9926 12.526 13.9926 12.526 14.0033C12.528 14.0085 12.528 14.0141 12.526 14.0193C12.5255 14.0706 12.514 14.1214 12.492 14.1689L12.474 14.2028L12.49 14.2224C12.49 14.2224 12.49 14.2313 12.49 14.2348L12.506 14.217Z" fill="black"/>
<path d="M12.354 14.3008L12.326 14.315L12.354 14.3008Z" fill="black"/>
<path d="M12.076 14.1016C12.0981 14.1082 12.1219 14.1082 12.144 14.1016C12.1241 14.1006 12.1046 14.0968 12.086 14.0903H12.058C12.0617 14.0909 12.0652 14.0922 12.0683 14.0941C12.0714 14.096 12.074 14.0986 12.076 14.1016Z" fill="black"/>
<path d="M12.118 13.8733L12.104 13.8626L12.016 13.8002C12.016 13.8002 12.006 13.8127 12 13.8127C11.994 13.8127 12 13.8127 12 13.8127C11.9969 13.8123 11.9939 13.8113 11.9912 13.8098C11.9886 13.8083 11.9864 13.8063 11.9846 13.8039C11.9829 13.8015 11.9818 13.7989 11.9814 13.7961C11.9809 13.7933 11.9811 13.7904 11.982 13.7877L11.876 13.72L11.86 13.7111H11.844L11.82 13.6969C11.8149 13.6987 11.8092 13.6987 11.804 13.6969C11.8009 13.6967 11.7978 13.6959 11.795 13.6946C11.7922 13.6933 11.7897 13.6915 11.7876 13.6894C11.7856 13.6872 11.784 13.6847 11.7831 13.682C11.7821 13.6793 11.7817 13.6765 11.782 13.6737C11.734 13.647 11.686 13.6185 11.638 13.5936L11.594 13.5686L11.572 13.5579C11.5708 13.5619 11.5682 13.5653 11.5646 13.5679C11.561 13.5704 11.5566 13.5719 11.552 13.5722C11.5457 13.5722 11.5395 13.5699 11.535 13.5659C11.5305 13.5619 11.528 13.5565 11.528 13.5508V13.5347L11.276 13.4065C11.2736 13.4094 11.2707 13.4118 11.2673 13.4136C11.2638 13.4154 11.26 13.4167 11.256 13.4172C11.2497 13.4172 11.2435 13.4149 11.239 13.4109C11.2345 13.4069 11.232 13.4014 11.232 13.3958V13.3851L11.102 13.3245L11.056 13.3031L11.008 13.2818L10.962 13.2604C10.9595 13.2613 10.9568 13.2619 10.954 13.2619C10.9513 13.2619 10.9485 13.2613 10.946 13.2604C10.86 13.2229 10.776 13.1873 10.692 13.1553V13.1909C10.77 13.2212 10.848 13.255 10.928 13.2889L10.976 13.3103L11.024 13.3317C11.2 13.4118 11.378 13.4991 11.556 13.5953H11.57L11.718 13.6755L11.756 13.6969L11.78 13.7111H11.792L11.834 13.7361L11.85 13.745H11.866C11.938 13.7895 12.012 13.8341 12.082 13.8857H12.14L12.118 13.8733Z" fill="black"/>
<path d="M11.8119 13.6522L11.8399 13.3796C11.8405 13.3769 11.8404 13.3741 11.8397 13.3715C11.839 13.3688 11.8376 13.3662 11.8358 13.3641C11.8339 13.3619 11.8315 13.3601 11.8287 13.3588C11.826 13.3574 11.823 13.3567 11.8199 13.3564C11.8168 13.3552 11.8134 13.3545 11.8099 13.3545C11.8065 13.3545 11.8031 13.3552 11.7999 13.3564C11.7989 13.3606 11.7989 13.3648 11.7999 13.3689L11.7719 13.6433C11.7717 13.6461 11.772 13.6489 11.773 13.6516C11.7739 13.6543 11.7755 13.6568 11.7775 13.659C11.7796 13.6611 11.7821 13.6629 11.7849 13.6642C11.7877 13.6655 11.7908 13.6662 11.7939 13.6665C11.7997 13.6685 11.8062 13.6685 11.8119 13.6665C11.813 13.6618 11.813 13.6569 11.8119 13.6522Z" fill="black"/>
<path d="M12.084 13.4934C12.0815 13.4925 12.0789 13.4921 12.0762 13.4922C12.0735 13.4923 12.0709 13.4929 12.0685 13.4939C12.066 13.4948 12.0639 13.4963 12.0621 13.498C12.0603 13.4998 12.0589 13.5018 12.058 13.5041L11.98 13.7695C11.9791 13.7722 11.9789 13.7751 11.9794 13.7778C11.9798 13.7806 11.9809 13.7833 11.9826 13.7857C11.9843 13.788 11.9866 13.79 11.9892 13.7915C11.9919 13.7931 11.9949 13.7941 11.998 13.7945C11.998 13.7945 12.01 13.7945 12.014 13.782C12.014 13.782 12.018 13.7695 12.014 13.782L12.092 13.5183C12.0939 13.514 12.0942 13.5091 12.0927 13.5046C12.0913 13.5001 12.0882 13.4962 12.084 13.4934Z" fill="black"/>
<path d="M12.3701 13.7196V13.7107C12.3723 13.7087 12.3741 13.7064 12.3753 13.7038C12.3765 13.7012 12.3771 13.6984 12.3771 13.6956C12.3771 13.6928 12.3765 13.69 12.3753 13.6874C12.3741 13.6848 12.3723 13.6824 12.3701 13.6804C12.368 13.6785 12.3655 13.6769 12.3627 13.6759C12.36 13.6748 12.357 13.6743 12.354 13.6743C12.351 13.6743 12.3481 13.6748 12.3453 13.6759C12.3425 13.6769 12.3401 13.6785 12.338 13.6804L12.1721 13.8871L12.204 13.9139L12.3701 13.7196Z" fill="black"/>
<path d="M12.186 14.1208L12.43 14.2383C12.438 14.2287 12.4454 14.2186 12.452 14.2081L12.208 14.0923C12.1994 14.1013 12.1872 14.107 12.174 14.1083C12.176 14.1101 12.178 14.1172 12.186 14.1208Z" fill="black"/>
<path d="M12.52 14.0102C12.5225 14.0113 12.5252 14.0119 12.528 14.0119C12.5308 14.0119 12.5335 14.0113 12.536 14.0102C12.538 14.005 12.538 13.9994 12.536 13.9942C12.536 13.9942 12.536 13.9942 12.536 13.9835C12.5335 13.9809 12.5305 13.9788 12.5271 13.9772C12.5236 13.9757 12.5199 13.9748 12.516 13.9746L12.242 13.9978C12.246 14.0118 12.246 14.0265 12.242 14.0406L12.52 14.0102Z" fill="black"/>
<path d="M12.16 14.1296C12.1597 14.1267 12.1589 14.124 12.1574 14.1215C12.156 14.119 12.154 14.1168 12.1516 14.1149C12.1491 14.1131 12.1464 14.1118 12.1433 14.1109C12.1403 14.11 12.1371 14.1097 12.134 14.1099C12.128 14.1111 12.1226 14.114 12.1186 14.1182C12.1146 14.1224 12.1123 14.1276 12.112 14.1331L12.132 14.354C12.132 14.354 12.132 14.3541 12.132 14.3647C12.1339 14.3674 12.1366 14.3696 12.1397 14.3712C12.1429 14.3727 12.1464 14.3736 12.15 14.3736C12.1575 14.3716 12.1639 14.3672 12.168 14.3612C12.1689 14.3577 12.1689 14.354 12.168 14.3505L12.16 14.1296Z" fill="black"/>
<path d="M11.8 14.2348C11.7978 14.2368 11.796 14.2391 11.7948 14.2417C11.7936 14.2443 11.793 14.2472 11.793 14.25C11.793 14.2528 11.7936 14.2555 11.7948 14.2581C11.796 14.2607 11.7978 14.2631 11.8 14.2651C11.8021 14.2677 11.8048 14.2698 11.8079 14.2714C11.811 14.2729 11.8145 14.2738 11.8181 14.274H11.834L12.0661 14.1208C12.0675 14.1183 12.0682 14.1156 12.0682 14.1128C12.0682 14.11 12.0675 14.1072 12.0661 14.1047C12.0677 14.1001 12.0677 14.0951 12.0661 14.0905C12.0555 14.089 12.0446 14.089 12.034 14.0905L11.8 14.2348Z" fill="black"/>
<path d="M10.962 13.2048V12.9464C10.9615 12.9409 10.9588 12.9357 10.9544 12.9317C10.95 12.9278 10.9442 12.9255 10.938 12.9251C10.9328 12.9234 10.9272 12.9234 10.922 12.9251C10.9208 12.9273 10.9201 12.9297 10.9201 12.9322C10.9201 12.9347 10.9208 12.9371 10.922 12.9393V13.1994C10.92 13.204 10.92 13.2091 10.922 13.2137C10.9245 13.2146 10.9272 13.2152 10.93 13.2152C10.9327 13.2152 10.9355 13.2146 10.938 13.2137C10.9425 13.2144 10.9472 13.2139 10.9515 13.2124C10.9557 13.2108 10.9594 13.2082 10.962 13.2048Z" fill="black"/>
<path d="M11.552 13.2246C11.5521 13.2187 11.5496 13.2131 11.5451 13.2088C11.5407 13.2045 11.5346 13.2019 11.528 13.2014C11.5234 13.2004 11.5186 13.2004 11.514 13.2014C11.5109 13.2034 11.5083 13.2061 11.5066 13.2092C11.5048 13.2123 11.504 13.2157 11.504 13.2192V13.5132C11.504 13.5189 11.5066 13.5243 11.5111 13.5283C11.5156 13.5323 11.5216 13.5346 11.528 13.5346C11.5326 13.5344 11.537 13.5329 11.5406 13.5303C11.5442 13.5278 11.5468 13.5242 11.548 13.5203L11.552 13.2246Z" fill="black"/>
<path d="M11.2559 13.0839C11.2547 13.0795 11.2518 13.0755 11.2479 13.0727C11.2439 13.0698 11.239 13.0681 11.2339 13.0679C11.2295 13.0695 11.2257 13.0722 11.2228 13.0757C11.22 13.0791 11.2183 13.0832 11.218 13.0874V13.3636C11.218 13.3693 11.2205 13.3747 11.225 13.3787C11.2295 13.3828 11.2356 13.385 11.2419 13.385C11.2457 13.3848 11.2494 13.3836 11.2525 13.3817C11.2557 13.3799 11.2582 13.3773 11.2599 13.3743C11.2613 13.3709 11.2613 13.3671 11.2599 13.3636L11.2559 13.0839Z" fill="black"/>
<path d="M10.1279 19.8325H10.552V19.4958H11.2399V19.8325H11.6979V19.2036H10.1279V19.8325Z" fill="#FFD800"/>
<path d="M11.2399 20.4652H10.552V20.1284H10.1279V20.7591H11.6979V20.1284H11.2399V20.4652Z" fill="#FFD800"/>
<path d="M11.698 20.7589H10.1279V20.1282H10.552V20.465H11.24V20.1282H11.698V20.0854H11.194V20.4222H10.6V20.0854H10.0779V20.8017H11.698V20.7589Z" fill="black"/>
<path d="M11.698 19.8328H11.24V19.4961H10.552V19.8328H10.1279V19.2039H11.698V19.1611H10.0779V19.8756H10.6V19.5388H11.194V19.8756H11.698V19.8328Z" fill="black"/>
<path d="M12.1681 20.9731H11.748V20.9838H12.1681V20.9731Z" fill="#FFD800"/>
<path d="M12.1681 16.747V16.4673L11.9581 16.576L11.748 16.4673V16.747H12.1681Z" fill="#FFD800"/>
<path d="M12.216 20.9731H12.168V20.9838H12.216V20.9731Z" fill="black"/>
<path d="M11.7481 16.747V16.4673L11.6981 16.4424V16.747H11.7481Z" fill="black"/>
<path d="M11.748 20.9731H11.7V20.9838H11.748V20.9731Z" fill="black"/>
<path d="M12.168 16.4673V16.747H12.216V16.4424L12.168 16.4673Z" fill="black"/>
<path d="M12.1681 16.7896H11.748V20.9301H12.1681V16.7896Z" fill="#FFD800"/>
<path d="M12.168 16.7485H11.7V20.9746H12.216V16.7485H12.168ZM12.168 20.9319H11.748V16.7913H12.168V20.9319Z" fill="black"/>
<path d="M10.3859 15.5103V15.8381H10.6299L11.9579 16.5241L13.2839 15.8381H13.5279V15.5103H13.2839L12.518 15.1148L12.2799 14.9919L11.9579 14.8262L11.7579 14.9242V15.2306L11.9579 15.1326L12.27 15.2948L12.4519 15.3909L13.0019 15.676L11.9559 16.2105L10.9099 15.676L11.5439 15.3464C11.5355 15.319 11.5302 15.291 11.5279 15.2627V15.0471L10.6279 15.5121L10.3859 15.5103Z" fill="#FFD800"/>
<path d="M12.518 15.115L13.284 15.5105H13.528V15.8383H13.284L11.958 16.5243L10.63 15.8383H10.386V15.5105H10.63L11.53 15.0455V14.9956L10.616 15.4678H10.338V15.8829H10.616L11.7 16.4423L11.748 16.4673L11.958 16.576L12.168 16.4673L12.216 16.4423L13.298 15.8829H13.576V15.4678H13.298L12.516 15.0633V15.115H12.518Z" fill="black"/>
<path d="M11.958 16.2142L13.004 15.6797L12.454 15.3946L12.476 15.4071V15.425L12.462 15.4463L12.914 15.6797L11.966 16.1697L11.018 15.6797L11.572 15.3929L11.554 15.3501L10.92 15.6797L11.958 16.2142Z" fill="black"/>
<path d="M11.766 15.2308C11.764 15.2468 11.764 15.2629 11.766 15.2789L11.95 15.1827L12.242 15.3342L12.254 15.3163V15.295L11.942 15.1328L11.766 15.2308Z" fill="black"/>
<path d="M12.28 14.9918V14.9419L11.958 14.7744L11.758 14.8724V14.9241L11.958 14.8261L12.28 14.9918Z" fill="black"/>
<path d="M12.33 14.365V14.9671L12.468 15.0384V14.7676C12.468 14.6037 12.468 14.4398 12.468 14.2759C12.427 14.3113 12.3805 14.3413 12.33 14.365Z" fill="#FFD800"/>
<path d="M11.5779 14.6766C11.5779 14.8672 11.5779 15.065 11.5779 15.2592C11.5866 15.3532 11.6334 15.4413 11.7096 15.5069C11.7858 15.5725 11.8861 15.611 11.992 15.6155H12.0319C12.1099 15.615 12.1863 15.5959 12.2531 15.5602C12.3199 15.5244 12.3748 15.4734 12.412 15.4124L12.294 15.35C12.2654 15.3961 12.2224 15.4339 12.1702 15.4586C12.118 15.4832 12.0588 15.4938 12 15.489C11.962 15.4879 11.9247 15.4799 11.8903 15.4655C11.8559 15.4511 11.8252 15.4306 11.8 15.4053C11.7717 15.3782 11.7502 15.3461 11.7367 15.3111C11.7233 15.2761 11.7183 15.239 11.722 15.2022V14.8459C11.722 14.657 11.722 14.4628 11.722 14.2722C11.7281 14.2039 11.764 14.1406 11.8219 14.0956C11.8799 14.0507 11.9552 14.0277 12.0319 14.0316C12.0612 14.0292 12.0906 14.0328 12.118 14.0423C12.1326 14.048 12.1481 14.0516 12.164 14.053C12.164 14.053 12.18 14.053 12.188 14.0388C12.22 13.9978 12.188 13.9675 12.12 13.9176H12.108C12.0754 13.9148 12.0426 13.9148 12.01 13.9176H11.942C11.8372 13.9355 11.7431 13.9864 11.677 14.061C11.6109 14.1356 11.5772 14.2288 11.5819 14.3238L11.5779 14.6766Z" fill="#FFD800"/>
<path d="M11.53 14.9956V15.2611C11.5322 15.2894 11.5376 15.3175 11.546 15.3448L11.564 15.3876C11.5971 15.4661 11.6552 15.5342 11.7313 15.5836C11.8073 15.633 11.898 15.6615 11.992 15.6655H12.034C12.1202 15.6644 12.2046 15.6429 12.2784 15.6031C12.3522 15.5633 12.4128 15.5068 12.454 15.4392L12.468 15.4179V15.4L12.446 15.3876L12.264 15.2914V15.3127L12.252 15.3306C12.2318 15.3662 12.2009 15.3963 12.1628 15.4173C12.1247 15.4384 12.0808 15.4496 12.036 15.4499H12C11.9686 15.4496 11.9376 15.4433 11.909 15.4317C11.8804 15.42 11.8548 15.4032 11.834 15.3823C11.8032 15.353 11.7824 15.3165 11.774 15.2771C11.7721 15.2611 11.7721 15.245 11.774 15.229V14.8531C11.774 14.7355 11.774 14.6161 11.774 14.4968V14.2812C11.7761 14.2683 11.7801 14.2557 11.786 14.2438C11.7999 14.1973 11.8309 14.1565 11.8741 14.1277C11.9173 14.0989 11.9701 14.084 12.024 14.0852H12.042C12.0532 14.0835 12.0647 14.0835 12.076 14.0852H12.104C12.1226 14.0913 12.1422 14.0949 12.162 14.0959C12.162 14.0959 12.162 14.0959 12.178 14.0959C12.1912 14.0946 12.2034 14.0889 12.212 14.0799C12.2178 14.0756 12.2231 14.0708 12.228 14.0656C12.2364 14.0542 12.2426 14.0415 12.246 14.0282C12.25 14.0141 12.25 13.9995 12.246 13.9854C12.2366 13.9631 12.2215 13.9429 12.202 13.9266L12.17 13.8999L12.15 13.8856L12.128 13.8696H12.07H11.944C11.8452 13.8842 11.7545 13.9274 11.686 13.9926L11.654 14.0228C11.5994 14.0818 11.5628 14.1524 11.548 14.2277C11.547 14.242 11.547 14.2563 11.548 14.2705C11.546 14.2871 11.546 14.3038 11.548 14.3204V14.9938L11.53 14.9956ZM11.93 13.916H11.998C12.0306 13.9132 12.0634 13.9132 12.096 13.916H12.108C12.178 13.9658 12.208 13.9961 12.176 14.0371C12.176 14.0496 12.162 14.0514 12.152 14.0514C12.1361 14.0499 12.1206 14.0463 12.106 14.0407C12.0787 14.0312 12.0492 14.0275 12.02 14.03C11.9433 14.026 11.8679 14.049 11.8099 14.0939C11.752 14.1389 11.7161 14.2023 11.71 14.2705C11.71 14.4611 11.71 14.6553 11.71 14.8442V15.2005C11.7063 15.2374 11.7113 15.2744 11.7247 15.3094C11.7382 15.3444 11.7597 15.3765 11.788 15.4036C11.8132 15.4289 11.8439 15.4494 11.8783 15.4638C11.9127 15.4782 11.95 15.4862 11.988 15.4873C12.0468 15.4922 12.106 15.4816 12.1582 15.4569C12.2105 15.4322 12.2534 15.3945 12.282 15.3484L12.4 15.4107C12.3628 15.4718 12.3079 15.5228 12.2411 15.5585C12.1743 15.5942 12.0979 15.6133 12.02 15.6138H11.98C11.8741 15.6094 11.7738 15.5708 11.6976 15.5052C11.6214 15.4396 11.5746 15.3516 11.566 15.2575C11.566 15.0633 11.566 14.8656 11.566 14.6749V14.3186C11.5626 14.2227 11.5985 14.129 11.6669 14.0549C11.7354 13.9809 11.8317 13.9315 11.938 13.916H11.93Z" fill="black"/>
<path d="M12.514 14.2542C12.5149 14.2459 12.5149 14.2376 12.514 14.2293C12.5149 14.2258 12.5149 14.2221 12.514 14.2186C12.514 14.2186 12.514 14.2097 12.514 14.2061L12.498 14.1865L12.482 14.215C12.4754 14.2255 12.4681 14.2356 12.46 14.2453C12.4355 14.2683 12.4079 14.2887 12.378 14.3059L12.35 14.3201L12.33 14.3308H12.316H12.304V14.9829L12.542 15.1058V14.7584C12.542 14.6693 12.542 14.5803 12.542 14.4876V14.2631C12.5319 14.2625 12.5223 14.2594 12.514 14.2542ZM12.468 14.7673V15.0381L12.33 14.9669V14.3647C12.3798 14.3409 12.4256 14.3109 12.466 14.2756C12.468 14.4324 12.468 14.6105 12.468 14.7673Z" fill="black"/>
<path d="M12 5.40288C11.9082 5.39458 11.8155 5.40367 11.728 5.42955C11.6404 5.45543 11.56 5.49751 11.492 5.55304C11.424 5.60856 11.37 5.67628 11.3334 5.75173C11.2969 5.82719 11.2787 5.90867 11.28 5.99084V7.55153H12.72V5.99084C12.7213 5.90867 12.7031 5.82719 12.6665 5.75173C12.63 5.67628 12.576 5.60856 12.508 5.55304C12.44 5.49751 12.3596 5.45543 12.272 5.42955C12.1845 5.40367 12.0918 5.39458 12 5.40288Z" fill="black"/>
<path d="M10.4 3.38623V7.06534H11.226V5.98569C11.24 5.81277 11.327 5.65097 11.4695 5.53288C11.612 5.41478 11.7994 5.34914 11.994 5.34914C12.1886 5.34914 12.376 5.41478 12.5185 5.53288C12.661 5.65097 12.748 5.81277 12.762 5.98569V7.06534H13.6V3.38623H10.4ZM11.382 4.98972H11.06V4.01516H11.382V4.98972ZM12.154 5.08059H11.834V3.76396H12.154V5.08059ZM12.606 4.98972V4.01516H12.926V4.98972H12.606Z" fill="#FD0005"/>
<path d="M11.066 4.9897H11.388V4.01514H11.066V4.9897ZM11.116 4.05789H11.34V4.94872H11.116V4.05789Z" fill="black"/>
<path d="M12 5.36008C11.9017 5.35125 11.8025 5.36104 11.7089 5.38888C11.6153 5.41671 11.5293 5.46194 11.4567 5.52155C11.3841 5.58115 11.3266 5.6538 11.2879 5.73469C11.2491 5.81557 11.23 5.90287 11.2319 5.9908V7.07045H11.2799V5.9908C11.2935 5.82895 11.3753 5.67763 11.5088 5.56722C11.6423 5.45681 11.8178 5.39545 12 5.39545C12.1822 5.39545 12.3576 5.45681 12.4911 5.56722C12.6247 5.67763 12.7064 5.82895 12.72 5.9908V7.07045H12.768V5.9908C12.7696 5.90296 12.7503 5.81578 12.7114 5.73503C12.6726 5.65428 12.615 5.58175 12.5425 5.5222C12.47 5.46265 12.3842 5.41743 12.2907 5.38949C12.1972 5.36155 12.0981 5.35154 12 5.36008Z" fill="black"/>
<path d="M11.84 5.08425H12.16V3.76758H11.84V5.08425ZM11.888 3.81034H12.11V5.04149H11.888V3.81034Z" fill="black"/>
<path d="M10.406 7.07069V3.39158H13.594V7.07069H13.642V3.38623H10.358V7.07069H10.406Z" fill="black"/>
<path d="M12.612 4.0187V4.9897H12.932V4.01514L12.612 4.0187ZM12.884 4.95051H12.66V4.05968H12.884V4.95051Z" fill="black"/>
<path d="M11.342 4.06152H11.116V4.95057H11.342V4.06152Z" fill="black"/>
<path d="M12.11 3.81006H11.888V5.04121H12.11V3.81006Z" fill="black"/>
<path d="M12.8859 4.06152H12.66V4.95057H12.8859V4.06152Z" fill="black"/>
<path d="M13.89 2.85693H10.11V3.34511H13.89V2.85693Z" fill="#FD0005"/>
<path d="M13.642 3.38608H13.938V2.85693H13.89V3.34332H10.11V2.85693H10.062V3.38608H10.358H13.642Z" fill="black"/>
<path d="M13.938 2.81441H14.2521V2.24072H13.728V2.57922H13.034V2.24072H12.346V2.57922H11.6541V2.24072H10.9661V2.57922H10.2721V2.24072H9.74805V2.81441H10.0621H13.938Z" fill="#FD0005"/>
<path d="M10.11 2.85159H14.298V2.19238H13.68V2.53088H13.08V2.19238H12.296V2.53088H11.696V2.19238H10.912V2.53088H10.312V2.19238H9.69202V2.85159H10.102H10.11ZM9.74802 2.23514H10.272V2.57364H10.966V2.23514H11.654V2.57364H12.346V2.23514H13.034V2.57364H13.728V2.23514H14.25V2.80883H9.74802V2.23514Z" fill="black"/>
<path d="M9.43798 8.70263H14.562H15.096V8.3623H14.366H14.318H9.68197H9.65599H9.63197H8.90399V8.70263H9.43798Z" fill="#FD0005"/>
<path d="M9.41409 8.74736V8.73131C9.41455 8.72578 9.4172 8.72058 9.42161 8.71665C9.42601 8.71273 9.43185 8.71032 9.43806 8.70991H8.90408V8.36963H8.85608V8.75445L9.41409 8.74736Z" fill="black"/>
<path d="M14.562 8.70263C14.5682 8.70304 14.5741 8.7054 14.5785 8.70933C14.5829 8.71325 14.5855 8.71845 14.586 8.72399V8.74717H15.144V8.3623H15.096V8.70263H14.562Z" fill="black"/>
<path d="M9.19402 7.11328H8.65002V7.94V8.31947H8.76804H8.79202H8.85603H9.68201H14.318H15.144H15.182H15.232H15.35V7.11328H14.806H14.76V7.59436H13.862V7.11328H12.768V7.11685V7.59436H11.232V7.11685V7.11328H10.138V7.59436H9.24001V7.11328H9.19402Z" fill="#FD0005"/>
<path d="M9.14597 7.0708H8.59998V8.3625H15.4V7.0708H14.714V7.55184H13.914V7.0708H12.714V7.55184H11.274V7.0708H10.074V7.55184H9.274V7.0708H9.13196H9.14597ZM10.146 7.59464V7.11356H11.24V7.59464H12.776V7.11356H13.87V7.59464H14.768V7.11356H15.358V8.31975H8.65798V7.11356H9.24797V7.59464H10.146Z" fill="black"/>
<path d="M10.618 12.8092V11.562C10.618 10.9563 10.974 10.5394 11.572 10.4075C11.7122 10.3775 11.8559 10.3625 12 10.363C12.1445 10.363 12.2884 10.3798 12.428 10.4129C12.7149 10.4713 12.9688 10.6194 13.1438 10.8301C13.3188 11.0409 13.4033 11.3006 13.382 11.562V13.2422H14.538V8.7417H9.46204V13.2422H10.618V12.8092Z" fill="#FD0005"/>
<path d="M10.666 13.1143V11.566C10.666 10.9762 10.998 10.5807 11.572 10.4542C11.7122 10.4242 11.8559 10.4092 12 10.4097C12.1447 10.4094 12.2886 10.4268 12.428 10.4613C12.7015 10.5198 12.9428 10.663 13.1088 10.8654C13.2748 11.0677 13.3546 11.316 13.334 11.566V13.2675C13.334 13.2702 13.3346 13.2729 13.3359 13.2754C13.3371 13.2779 13.3389 13.2801 13.3411 13.282C13.3434 13.2838 13.3461 13.2852 13.349 13.2861C13.3519 13.287 13.355 13.2873 13.358 13.2871H14.558C14.5629 13.287 14.5676 13.2855 14.5715 13.283C14.5754 13.2804 14.5784 13.2769 14.58 13.2728V13.0501V8.73136C14.5795 8.72583 14.5769 8.72063 14.5725 8.7167C14.5681 8.71278 14.5622 8.71037 14.556 8.70996H9.43199C9.42578 8.71037 9.41994 8.71278 9.41554 8.7167C9.41113 8.72063 9.40848 8.72583 9.40802 8.73136V13.0501V13.2799C9.41019 13.284 9.41356 13.2875 9.41779 13.29C9.42201 13.2925 9.42692 13.294 9.43199 13.2942H10.632C10.6379 13.2939 10.6435 13.2917 10.6479 13.2882C10.6522 13.2846 10.6551 13.2798 10.656 13.2746V13.1214L10.666 13.1143ZM10.618 13.2461H9.46202V8.74563H14.538V13.2461H13.382V11.566C13.4033 11.3045 13.3188 11.0449 13.1438 10.8341C12.9688 10.6233 12.7149 10.4753 12.428 10.4168C12.2884 10.3837 12.1445 10.3669 12 10.3669C11.8559 10.3664 11.7122 10.3814 11.572 10.4115C10.972 10.5433 10.618 10.9602 10.618 11.566V13.2461Z" fill="black"/>
</g>
<defs>
<clipPath id="clip0_284_100790">
<rect width="24" height="21.3799" fill="white" transform="translate(0 0.179199)"/>
</clipPath>
</defs>
</svg>
