<svg width="24" height="22" viewBox="0 0 24 22" fill="none" xmlns="http://www.w3.org/2000/svg">
<g clip-path="url(#clip0_284_100847)">
<path d="M21.938 0.752888C22.3139 0.75336 22.6743 0.886607 22.9401 1.1234C23.2059 1.36019 23.3555 1.68122 23.356 2.0161V19.7222C23.3555 20.0571 23.2059 20.3781 22.9401 20.6149C22.6743 20.8517 22.3139 20.985 21.938 20.9854H2.06201C1.6861 20.985 1.32572 20.8517 1.05991 20.6149C0.7941 20.3781 0.644523 20.0571 0.643994 19.7222V2.0161C0.644523 1.68122 0.7941 1.36019 1.05991 1.1234C1.32572 0.886607 1.6861 0.75336 2.06201 0.752888H21.938ZM21.938 0.179199H2.06201C1.5153 0.179671 0.991126 0.373361 0.604541 0.717742C0.217956 1.06212 0.000529505 1.52907 0 2.0161V19.7222C0.000529505 20.2092 0.217956 20.6762 0.604541 21.0206C0.991126 21.365 1.5153 21.5586 2.06201 21.5591H21.938C22.4845 21.5582 23.0084 21.3643 23.3949 21.02C23.7813 20.6758 23.9989 20.2091 24 19.7222V2.0161C23.9995 1.52907 23.782 1.06212 23.3955 0.717742C23.0089 0.373361 22.4847 0.179671 21.938 0.179199Z" fill="#CAB99E"/>
<path d="M21.9379 0.75293H2.06194C1.68602 0.753401 1.32565 0.886649 1.05984 1.12344C0.794027 1.36023 0.64445 1.68127 0.643921 2.01614V7.30588H23.3559V2.01614C23.3554 1.68127 23.2058 1.36023 22.94 1.12344C22.6742 0.886649 22.3138 0.753401 21.9379 0.75293Z" fill="#010102"/>
<path d="M23.3559 7.30566H0.643921V14.4323H23.3559V7.30566Z" fill="#E3200F"/>
<path d="M0.643921 19.7224C0.64445 20.0572 0.794027 20.3783 1.05984 20.6151C1.32565 20.8518 1.68602 20.9851 2.06194 20.9856H21.9379C22.3138 20.9851 22.6742 20.8518 22.94 20.6151C23.2058 20.3783 23.3554 20.0572 23.3559 19.7224V14.4326H0.643921V19.7224Z" fill="#FDC700"/>
</g>
<defs>
<clipPath id="clip0_284_100847">
<rect width="24" height="21.3799" fill="white" transform="translate(0 0.179199)"/>
</clipPath>
</defs>
</svg>
