<svg width="24" height="22" viewBox="0 0 24 22" fill="none" xmlns="http://www.w3.org/2000/svg">
<g clip-path="url(#clip0_284_100806)">
<path d="M21.938 0.752888C22.3139 0.75336 22.6743 0.886607 22.9401 1.1234C23.2059 1.36019 23.3555 1.68122 23.356 2.0161V19.7222C23.3555 20.0571 23.2059 20.3781 22.9401 20.6149C22.6743 20.8517 22.3139 20.985 21.938 20.9854H2.06201C1.6861 20.985 1.32572 20.8517 1.05991 20.6149C0.7941 20.3781 0.644523 20.0571 0.643994 19.7222V2.0161C0.644523 1.68122 0.7941 1.36019 1.05991 1.1234C1.32572 0.886607 1.6861 0.75336 2.06201 0.752888H21.938ZM21.938 0.179199H2.06201C1.5153 0.179671 0.991126 0.373361 0.604541 0.717742C0.217956 1.06212 0.000529505 1.52907 0 2.0161V19.7222C0.000529505 20.2092 0.217956 20.6762 0.604541 21.0206C0.991126 21.365 1.5153 21.5586 2.06201 21.5591H21.938C22.4845 21.5582 23.0084 21.3643 23.3949 21.02C23.7813 20.6758 23.9989 20.2091 24 19.7222V2.0161C23.9995 1.52907 23.782 1.06212 23.3955 0.717742C23.0089 0.373361 22.4847 0.179671 21.938 0.179199Z" fill="#CAB99E"/>
<path d="M21.9379 0.75293H2.06194C1.68602 0.753401 1.32565 0.886649 1.05984 1.12344C0.794027 1.36023 0.64445 1.68127 0.643921 2.01614V10.8692H1.24392C1.24392 8.9791 2.08679 7.16642 3.58709 5.82992C5.08738 4.49342 7.12219 3.74256 9.24392 3.74256C11.3657 3.74256 13.4005 4.49342 14.9008 5.82992C16.401 7.16642 17.2439 8.9791 17.2439 10.8692H23.3519V2.01614C23.3514 1.68188 23.2024 1.36139 22.9374 1.1247C22.6725 0.888012 22.3131 0.754342 21.9379 0.75293Z" fill="white"/>
<path d="M9.24807 17.9958C7.12634 17.9958 5.09153 17.2449 3.59124 15.9084C2.09094 14.5719 1.24807 12.7592 1.24807 10.8691H0.648071V19.7222C0.6486 20.0571 0.798177 20.3781 1.06399 20.6149C1.3298 20.8517 1.69017 20.9849 2.06609 20.9854H21.9421C22.318 20.9849 22.6784 20.8517 22.9442 20.6149C23.21 20.3781 23.3596 20.0571 23.3601 19.7222V10.8691H17.2521C17.2521 11.8053 17.045 12.7323 16.6427 13.5972C16.2405 14.4621 15.6508 15.2479 14.9075 15.9097C14.1642 16.5715 13.2818 17.0964 12.3108 17.4543C11.3397 17.8123 10.299 17.9962 9.24807 17.9958Z" fill="#F20531"/>
<path d="M9.24805 17.9958C11.3698 17.9958 13.4046 17.2449 14.9049 15.9084C16.4052 14.5719 17.248 12.7592 17.248 10.8691H1.24805C1.24805 12.7592 2.09092 14.5719 3.59121 15.9084C5.0915 17.2449 7.12632 17.9958 9.24805 17.9958Z" fill="white"/>
<path d="M9.24805 3.74268C7.12632 3.74268 5.0915 4.49353 3.59121 5.83004C2.09092 7.16654 1.24805 8.97921 1.24805 10.8693H17.248C17.248 8.97921 16.4052 7.16654 14.9049 5.83004C13.4046 4.49353 11.3698 3.74268 9.24805 3.74268Z" fill="#F20531"/>
</g>
<defs>
<clipPath id="clip0_284_100806">
<rect width="24" height="21.3799" fill="white" transform="translate(0 0.179199)"/>
</clipPath>
</defs>
</svg>
