<svg width="24" height="23" viewBox="0 0 24 23" fill="none" xmlns="http://www.w3.org/2000/svg">
<g clip-path="url(#clip0_284_100830)">
<path d="M21.938 1.51265C22.3139 1.51313 22.6743 1.64637 22.9401 1.88317C23.2059 2.11996 23.3555 2.44099 23.356 2.77587V20.482C23.3555 20.8169 23.2059 21.1379 22.9401 21.3747C22.6743 21.6115 22.3139 21.7447 21.938 21.7452H2.06201C1.6861 21.7447 1.32572 21.6115 1.05991 21.3747C0.7941 21.1379 0.644523 20.8169 0.643994 20.482V2.77587C0.644523 2.44099 0.7941 2.11996 1.05991 1.88317C1.32572 1.64637 1.6861 1.51313 2.06201 1.51265H21.938ZM21.938 0.938965H2.06201C1.5153 0.939437 0.991126 1.13313 0.604541 1.47751C0.217956 1.82189 0.000529505 2.28884 0 2.77587V20.482C0.000529505 20.969 0.217956 21.436 0.604541 21.7803C0.991126 22.1247 1.5153 22.3184 2.06201 22.3189H21.938C22.4845 22.3179 23.0084 22.1241 23.3949 21.7798C23.7813 21.4355 23.9989 20.9689 24 20.482V2.77587C23.9995 2.28884 23.782 1.82189 23.3955 1.47751C23.0089 1.13313 22.4847 0.939437 21.938 0.938965Z" fill="#CAB99E"/>
<path d="M0.643951 14.0039V20.482C0.644481 20.8169 0.794057 21.1379 1.05987 21.3747C1.32568 21.6115 1.68605 21.7447 2.06197 21.7452H6.89796V14.0039H0.643951Z" fill="#00359A"/>
<path d="M6.89796 1.5127H2.06197C1.68605 1.51317 1.32568 1.64641 1.05987 1.88321C0.794057 2.12 0.644481 2.44103 0.643951 2.77591V9.254H6.89796V1.5127Z" fill="#00359A"/>
<path d="M12.23 21.7452H21.938C22.3139 21.7447 22.6743 21.6115 22.9401 21.3747C23.2059 21.1379 23.3555 20.8169 23.356 20.482V14.0039H12.23V21.7452Z" fill="#00359A"/>
<path d="M21.938 1.5127H12.23V9.254H23.356V2.77591C23.3555 2.44103 23.2059 2.12 22.9401 1.88321C22.6743 1.64641 22.3139 1.51317 21.938 1.5127Z" fill="#00359A"/>
<path d="M10.898 21.7453H12.23V14.004H23.356V12.8174H10.898V21.7453Z" fill="white"/>
<path d="M12.23 1.5127H10.898V10.4406H23.356V9.254H12.23V1.5127Z" fill="white"/>
<path d="M8.22994 1.5127H6.89795V9.254H0.643951V10.4406H8.22994V1.5127Z" fill="white"/>
<path d="M0.643951 12.8174V14.004H6.89795V21.7453H8.22994V12.8174H0.643951Z" fill="white"/>
<path d="M10.898 1.5127H8.22994V10.4406H0.643951V12.8173H8.22994V21.7452H10.898V12.8173H23.356V10.4406H10.898V1.5127Z" fill="#F92323"/>
</g>
<defs>
<clipPath id="clip0_284_100830">
<rect width="24" height="21.3799" fill="white" transform="translate(0 0.938965)"/>
</clipPath>
</defs>
</svg>
