<svg width="24" height="23" viewBox="0 0 24 23" fill="none" xmlns="http://www.w3.org/2000/svg">
<g clip-path="url(#clip0_284_100832)">
<path d="M21.938 1.51265C22.3139 1.51313 22.6743 1.64637 22.9401 1.88317C23.2059 2.11996 23.3555 2.44099 23.356 2.77587V20.482C23.3555 20.8169 23.2059 21.1379 22.9401 21.3747C22.6743 21.6115 22.3139 21.7447 21.938 21.7452H2.06201C1.6861 21.7447 1.32572 21.6115 1.05991 21.3747C0.7941 21.1379 0.644523 20.8169 0.643994 20.482V2.77587C0.644523 2.44099 0.7941 2.11996 1.05991 1.88317C1.32572 1.64637 1.6861 1.51313 2.06201 1.51265H21.938ZM21.938 0.938965H2.06201C1.5153 0.939437 0.991126 1.13313 0.604541 1.47751C0.217956 1.82189 0.000529505 2.28884 0 2.77587V20.482C0.000529505 20.969 0.217956 21.436 0.604541 21.7803C0.991126 22.1247 1.5153 22.3184 2.06201 22.3189H21.938C22.4845 22.3179 23.0084 22.1241 23.3949 21.7798C23.7813 21.4355 23.9989 20.9689 24 20.482V2.77587C23.9995 2.28884 23.782 1.82189 23.3955 1.47751C23.0089 1.13313 22.4847 0.939437 21.938 0.938965Z" fill="#CAB99E"/>
<path d="M21.9379 1.5127H2.06194C1.68602 1.51317 1.32565 1.64641 1.05984 1.88321C0.794027 2.12 0.64445 2.44103 0.643921 2.77591V20.482C0.64445 20.8169 0.794027 21.1379 1.05984 21.3747C1.32565 21.6115 1.68602 21.7448 2.06194 21.7452H21.9379C22.3138 21.7448 22.6742 21.6115 22.94 21.3747C23.2058 21.1379 23.3554 20.8169 23.3559 20.482V2.77591C23.3554 2.44103 23.2058 2.12 22.94 1.88321C22.6742 1.64641 22.3138 1.51317 21.9379 1.5127ZM16.6459 5.40207L16.9699 4.51124L17.2919 5.40207H18.3379L17.4919 5.94905L17.8159 6.83988L16.9699 6.29112L16.1219 6.83988L16.4459 5.94905L15.5999 5.40207H16.6459ZM13.3499 4.88358L13.674 3.99275L13.9959 4.88358H15.0419L14.1959 5.43056L14.5199 6.32139L13.674 5.77441L12.8259 6.32139L13.1499 5.43056L12.3039 4.88358H13.3499ZM10.0039 4.88358L10.3259 3.99275L10.6499 4.88358H11.6959L10.8499 5.43056L11.174 6.32139L10.3259 5.77441L9.47991 6.32139L9.80393 5.43056L8.95593 4.88358H10.0039ZM6.70793 5.40207L7.02991 4.51124L7.35393 5.40207H8.39993L7.55393 5.94905L7.87791 6.83988L7.02991 6.29112L6.18391 6.83988L6.50793 5.94905L5.65994 5.40207H6.70793ZM4.73191 7.85542L3.88591 7.30666L3.03992 7.85542L3.36194 6.96459L2.51594 6.41583H3.56194L3.88591 5.525L4.20994 6.41583H5.25593L4.40793 6.96459L4.73191 7.85542ZM18.9759 12.7318C18.9694 12.7311 18.9629 12.7315 18.9566 12.7331C18.9503 12.7347 18.9445 12.7374 18.9395 12.7411C18.9344 12.7447 18.9302 12.7493 18.9272 12.7544C18.9242 12.7596 18.9224 12.7652 18.9219 12.771C18.9219 12.7959 18.8599 12.8067 18.8599 12.8067L18.8059 12.796C18.7858 12.796 18.7664 12.803 18.7519 12.8155C18.7339 12.8369 18.6959 12.8761 18.7199 12.9117C18.7439 12.9474 18.7459 12.9652 18.7199 12.9813C18.6939 12.9973 18.6839 13.0703 18.6599 13.0561C18.6359 13.0418 18.6059 13.0561 18.5819 13.0703C18.5579 13.0846 18.5619 13.1505 18.6119 13.1754C18.6393 13.1887 18.6606 13.2102 18.6719 13.236L18.7259 13.3108C18.7131 13.322 18.7029 13.3353 18.6959 13.35C18.6839 13.375 18.6479 13.4249 18.6839 13.4338C18.7199 13.4427 18.7019 13.4997 18.6659 13.4997C18.6299 13.4997 18.5879 13.4854 18.5819 13.5246C18.5759 13.5638 18.5559 13.5549 18.5199 13.5496C18.4839 13.5443 18.3919 13.5247 18.3679 13.5639C18.3439 13.6031 18.3379 13.6191 18.2959 13.6137C18.2539 13.6084 18.2719 13.6743 18.2839 13.6993C18.2985 13.7217 18.3167 13.7421 18.3379 13.7598C18.3496 13.7693 18.3589 13.7808 18.3651 13.7937C18.3713 13.8067 18.3743 13.8206 18.374 13.8346C18.374 13.8827 18.3499 13.8792 18.3259 13.8346C18.3019 13.7901 18.2519 13.8044 18.2459 13.8453C18.2399 13.8863 18.2339 13.9451 18.1919 13.9451C18.177 13.9437 18.1619 13.9455 18.1479 13.9505C18.134 13.9555 18.1216 13.9634 18.1119 13.9736C18.0939 13.995 18.0639 14.0289 18.0639 14.0485C18.0639 14.0681 18.0639 14.0894 18.0279 14.0948C17.9919 14.1001 17.9919 14.1536 17.9919 14.1536C17.9919 14.1536 17.9179 14.1643 17.9119 14.1892C17.9059 14.2142 17.9119 14.2533 17.8579 14.2587C17.8342 14.2609 17.8113 14.268 17.7912 14.2795C17.7711 14.2909 17.7542 14.3063 17.7419 14.3246C17.7318 14.3339 17.7261 14.3464 17.7261 14.3593C17.7261 14.3723 17.7318 14.3848 17.7419 14.3941C17.7659 14.419 17.7839 14.4992 17.8159 14.5135C17.8479 14.5277 17.8699 14.5331 17.8639 14.5723C17.8579 14.6115 17.8219 14.6435 17.8639 14.6435C17.9059 14.6435 17.9419 14.6524 17.924 14.6881C17.906 14.7237 17.9059 14.7273 17.8699 14.7433C17.8339 14.7593 17.8159 14.7576 17.8159 14.7985C17.8159 14.8395 17.8279 14.8377 17.7959 14.852C17.7639 14.8663 17.7659 14.8876 17.7659 14.9179C17.7659 14.9482 17.7539 14.9375 17.7179 14.9714C17.7036 14.9853 17.685 14.9953 17.6644 15C17.6438 15.0048 17.6221 15.0041 17.6019 14.9981C17.5719 14.9874 17.5659 14.9874 17.5599 14.9571C17.5539 14.9268 17.4979 14.9268 17.4679 14.9322C17.4417 14.9401 17.4173 14.9521 17.3959 14.9678C17.3959 14.9678 17.3399 14.9981 17.3659 15.023C17.3919 15.048 17.3779 15.0871 17.3339 15.0818C17.2899 15.0765 17.1939 15.1228 17.1639 15.0818C17.1339 15.0408 17.0479 15.007 17.0359 15.0676C17.0239 15.1282 17.0739 15.1228 17.0679 15.1816C17.0619 15.2404 17.048 15.2421 17.024 15.2617C17.0056 15.2778 16.9948 15.2995 16.9939 15.3223C16.9939 15.3473 16.982 15.4025 17.024 15.4221C17.043 15.4335 17.0586 15.4489 17.0694 15.4669C17.0802 15.4849 17.0859 15.505 17.0859 15.5255C17.0859 15.5558 17.0859 15.586 17.1279 15.586C17.1699 15.586 17.2079 15.586 17.2139 15.5468C17.2161 15.5355 17.2231 15.5254 17.2336 15.5187C17.2441 15.512 17.2572 15.5093 17.2699 15.5112C17.2827 15.5131 17.294 15.5194 17.3015 15.5288C17.309 15.5381 17.3121 15.5498 17.3099 15.5611C17.3099 15.6306 17.3099 15.6662 17.3459 15.6965C17.3704 15.726 17.3971 15.754 17.4259 15.7802C17.455 15.8249 17.4772 15.8728 17.4919 15.9228C17.4319 15.9335 17.4159 16.0029 17.3779 16.0172C17.3399 16.0314 17.3339 16.0172 17.3159 16.0297C17.2979 16.0421 17.2999 16.0582 17.2779 16.0671C17.2559 16.076 17.2419 16.0243 17.1879 16.0457C17.1339 16.0671 17.1359 16.117 17.0659 16.0956C17.0299 16.0831 17.0059 15.9566 16.9959 15.9174C16.98 15.8876 16.9612 15.859 16.9399 15.8319C16.8979 15.7767 16.8159 15.8319 16.7899 15.8159C16.7639 15.7998 16.7679 15.7482 16.7059 15.7428C16.5799 15.7428 16.6699 15.8123 16.6159 15.8283C16.5139 15.8622 16.5139 15.7446 16.4379 15.798C16.4099 15.8176 16.4839 15.8301 16.4659 15.8658C16.4479 15.9014 16.3759 15.937 16.3799 15.9709C16.3839 16.0047 16.4419 16.0314 16.4599 16.0706C16.5039 16.1722 16.4279 16.2488 16.3139 16.1633C16.2519 16.1187 16.2379 16.035 16.1399 16.0421C16.1179 16.0421 16.1099 16.0635 16.0859 16.0671C16.0619 16.0706 16.0459 16.0475 16.0219 16.0546C15.9979 16.0617 16.0219 16.0867 16.0099 16.1063C15.9897 16.1201 15.9709 16.1356 15.9539 16.1526C15.9259 16.1846 15.9339 16.2132 15.8959 16.2399C15.8579 16.2666 15.8359 16.2488 15.7999 16.2827C15.7639 16.3165 15.7579 16.3735 15.7099 16.4074C15.6619 16.4412 15.6679 16.3557 15.6379 16.4074L15.6259 16.4252C15.6224 16.4306 15.6206 16.4368 15.6206 16.443C15.6206 16.4493 15.6224 16.4554 15.6259 16.4608C15.6899 16.5713 15.5559 16.6122 15.5159 16.6889C15.4979 16.7209 15.5479 16.7512 15.5279 16.7762C15.5079 16.8011 15.4559 16.8457 15.4499 16.8564C15.4466 16.8728 15.4398 16.8885 15.4299 16.9027C15.4179 16.9116 15.3819 16.9027 15.3779 16.9223C15.3739 16.9419 15.4159 16.9526 15.4279 16.965C15.4399 16.9775 15.4279 16.9971 15.4279 17.0006C15.4959 17.0612 15.4559 17.0434 15.4899 17.0969C15.4899 17.0969 15.516 17.0969 15.524 17.1111C15.5319 17.1254 15.508 17.1272 15.524 17.1485C15.54 17.1699 15.574 17.2109 15.574 17.2127C15.574 17.2145 15.4819 17.2697 15.4599 17.2697C15.4019 17.2697 15.5099 17.1646 15.4159 17.1646C15.3759 17.1646 15.3719 17.2483 15.3619 17.2555C15.3519 17.2626 15.3199 17.2555 15.3099 17.2555C15.2499 17.2555 15.2099 17.3231 15.1859 17.3303C15.1619 17.3374 15.1359 17.3303 15.1099 17.3303C15.0839 17.3303 15.0579 17.3552 15.0339 17.3552C15.0099 17.3552 15.0119 17.3552 14.9999 17.3392C14.9646 17.3278 14.9285 17.3183 14.8919 17.3107C14.8759 17.3107 14.8439 17.3303 14.8319 17.3231C14.8199 17.316 14.8459 17.2804 14.7999 17.259C14.7848 17.2339 14.772 17.2077 14.7619 17.1806C14.7814 17.1327 14.7902 17.0819 14.7879 17.031C14.7879 16.9811 14.6879 16.9365 14.6639 16.8956C14.6399 16.8546 14.6299 16.7815 14.5939 16.7619C14.5553 16.7352 14.5239 16.7011 14.5019 16.6622C14.5019 16.6515 14.5139 16.6336 14.5019 16.6158C14.4899 16.598 14.4579 16.5909 14.4499 16.5659C14.4419 16.541 14.45 16.4804 14.424 16.4662C14.3386 16.4472 14.2516 16.4347 14.1639 16.4287C14.1531 16.4295 14.1422 16.4283 14.1319 16.4252C14.1216 16.4222 14.1121 16.4173 14.1039 16.411C14.1039 16.411 14.0839 16.3789 14.0779 16.3789C14.0586 16.378 14.0393 16.378 14.0199 16.3789C14.0059 16.3789 13.9839 16.3789 13.9719 16.3789C13.9119 16.4163 13.8959 16.4626 13.8399 16.5C13.7839 16.5374 13.7179 16.5392 13.6619 16.5838C13.6059 16.6283 13.5999 16.68 13.5639 16.712C13.5279 16.7441 13.5239 16.712 13.5179 16.712C13.4879 16.7459 13.4459 16.7655 13.4159 16.7976C13.4159 16.7976 13.4159 16.8154 13.4019 16.8207L13.3379 16.835C13.3199 16.835 13.2879 16.835 13.2759 16.835C13.2639 16.835 13.2459 16.8706 13.1419 16.8902L13.1159 16.9009C13.1039 16.9098 13.0939 16.9205 13.0819 16.9276C13.0699 16.9347 13.0519 16.9276 13.0379 16.9276C13.0239 16.9276 12.9959 16.9508 12.9719 16.9525C12.9179 16.9525 12.8299 16.9312 12.7879 16.9525C12.7459 16.9739 12.6899 17.0328 12.6639 17.0399C12.6379 17.047 12.6359 17.0399 12.6179 17.0399C12.6023 17.074 12.5896 17.1091 12.5799 17.145C12.5799 17.145 12.4619 17.2323 12.4519 17.243C12.4419 17.2537 12.4319 17.275 12.4139 17.2911C12.4002 17.3037 12.3816 17.3113 12.3619 17.3124C12.3334 17.3072 12.3053 17.3001 12.2779 17.2911C12.2061 17.2849 12.1338 17.2849 12.0619 17.2911C12.0219 17.2911 12.0339 17.4033 11.9319 17.414C11.8719 17.414 11.8179 17.4301 11.7559 17.4354C11.7323 17.4234 11.7049 17.4184 11.6779 17.4211C11.6526 17.4346 11.6325 17.4544 11.6199 17.4782V17.4995C11.6199 17.4995 11.6319 17.5174 11.6299 17.5191C11.5973 17.546 11.5672 17.5752 11.5399 17.6064C11.5354 17.6145 11.5294 17.6217 11.5219 17.6278C11.4906 17.6404 11.4605 17.6553 11.4319 17.6723C11.4139 17.7098 11.4799 17.7436 11.474 17.7596C11.456 17.8077 11.3819 17.8541 11.3599 17.8986C11.3379 17.9432 11.3839 17.9806 11.3819 18.002C11.3684 18.0649 11.3598 18.1286 11.3559 18.1926C11.3573 18.2185 11.362 18.2442 11.3699 18.2692C11.3699 18.2799 11.3939 18.2852 11.4039 18.2959C11.4396 18.3485 11.471 18.4033 11.4979 18.4599C11.5139 18.5632 11.3439 18.5276 11.4419 18.638C11.4579 18.6541 11.4699 18.6719 11.4859 18.6861C11.5019 18.7004 11.6319 18.7859 11.6339 18.7948C11.6359 18.8037 11.5339 18.8233 11.5159 18.8411C11.4659 18.8821 11.4239 18.9605 11.3779 19.005C11.3319 19.0496 11.3239 19.005 11.2859 19.0656C11.2719 19.0888 11.2859 19.144 11.2679 19.1583C11.2499 19.1725 11.2239 19.1583 11.1999 19.1583C11.1759 19.1583 11.1839 19.1903 11.1719 19.1974C11.0814 19.251 10.9831 19.2935 10.8799 19.3239C10.8679 19.3239 10.8539 19.283 10.8519 19.2723C10.8472 19.2535 10.8369 19.2363 10.8219 19.2224C10.7925 19.1969 10.753 19.1827 10.7119 19.1827C10.6709 19.1827 10.6314 19.1969 10.6019 19.2224C10.5879 19.2367 10.5859 19.2598 10.5659 19.274C10.5459 19.2883 10.4959 19.3222 10.4639 19.3471C10.4319 19.3721 10.4379 19.3703 10.4319 19.3685C10.4259 19.3667 10.3479 19.3061 10.3319 19.2901C10.287 19.2526 10.2486 19.2094 10.2179 19.1618C10.1904 19.0442 10.1439 18.9308 10.0799 18.8251H10.1399C10.2099 18.7841 10.1899 18.6826 10.3119 18.7235C10.3279 18.7039 10.3259 18.6843 10.3559 18.6701C10.3859 18.6558 10.3859 18.6594 10.3919 18.6523C10.448 18.5513 10.4642 18.4364 10.4379 18.3262C10.3999 18.2764 10.3619 18.2781 10.3299 18.1962C10.3299 18.173 10.3299 18.148 10.3299 18.1231C10.3299 18.0982 10.2839 17.9842 10.2779 17.9753C10.2719 17.9663 10.2439 17.9538 10.2419 17.9467C10.2399 17.9396 10.2319 17.8095 10.2419 17.7988C10.2019 17.6991 10.0639 17.6349 10.0559 17.6207C10.0479 17.6064 10.0219 17.5654 10.0039 17.5387C9.98833 17.5148 9.97689 17.489 9.96995 17.4621C9.96995 17.4479 9.94392 17.4372 9.94192 17.4229C9.93992 17.4087 10.0219 17.341 10.0199 17.2946C10.0199 17.2804 9.9659 17.2341 9.9759 17.2109C9.9859 17.1878 10.0399 17.1254 10.0379 17.0969C10.0359 17.0684 9.95592 16.9739 9.94392 16.933C9.93192 16.892 9.97594 16.8973 9.96794 16.8831C9.95994 16.8688 9.87193 16.7975 9.85793 16.7779C9.84394 16.7583 9.88993 16.7423 9.85793 16.7156C9.82593 16.6889 9.85792 16.6978 9.84592 16.6782C9.83392 16.6586 9.80592 16.6336 9.79392 16.6069C9.78192 16.5802 9.70994 16.3521 9.71194 16.3379C9.71394 16.3236 9.67794 16.3094 9.66794 16.2916C9.65794 16.2737 9.65192 16.2453 9.64392 16.2328C9.63592 16.2203 9.56192 16.2096 9.54592 16.1882C9.53589 16.1533 9.52389 16.1188 9.50994 16.0849C9.49794 16.0706 9.48195 16.0742 9.46995 16.0635C9.45795 16.0528 9.45993 16.0421 9.45393 16.0332C9.44793 16.0243 9.37992 16.0332 9.34592 15.921C9.30233 15.8966 9.2615 15.8686 9.22395 15.8373C9.22395 15.8373 9.21193 15.823 9.20193 15.8194C9.16623 15.8127 9.13186 15.8013 9.09993 15.7856C9.06534 15.7885 9.03051 15.7885 8.99592 15.7856C8.98592 15.7856 8.97795 15.75 8.97195 15.7482C8.92005 15.7481 8.86881 15.7377 8.82195 15.7179C8.79395 15.6947 8.78791 15.586 8.73591 15.6021C8.73244 15.6007 8.72871 15.6001 8.72493 15.6001C8.72115 15.6001 8.71742 15.6007 8.71394 15.6021C8.68194 15.5629 8.56594 15.5575 8.51394 15.5326C8.49994 15.5326 8.45593 15.5326 8.45593 15.5201C8.46399 15.5014 8.46741 15.4813 8.46594 15.4613C8.43994 15.4382 8.42393 15.4114 8.40393 15.3954C8.38393 15.3793 8.37793 15.3829 8.34993 15.3687C8.27393 15.3687 8.26594 15.3687 8.21794 15.415C8.20131 15.4229 8.18391 15.4295 8.16594 15.4346C8.13994 15.4471 8.13192 15.488 8.09592 15.4684C8.08522 15.4622 8.07578 15.4543 8.06794 15.4453C8.04594 15.4292 8.03395 15.4453 8.02395 15.4079C7.96195 15.3776 7.78993 15.4809 7.74792 15.4079C7.71992 15.3936 7.69795 15.4079 7.67395 15.3883C7.64995 15.3687 7.70791 15.2529 7.58191 15.2101C7.61191 15.1905 7.64195 15.1763 7.66995 15.1584C7.67297 15.1425 7.67297 15.1263 7.66995 15.1103C7.66995 15.089 7.68595 15.048 7.66995 15.0319C7.65395 15.0159 7.64792 15.0052 7.64192 14.9874C7.63592 14.9696 7.64191 14.9482 7.63191 14.9286C7.62012 14.9202 7.6065 14.9142 7.59192 14.9108C7.55869 14.8918 7.52786 14.8697 7.49993 14.8449C7.49993 14.8449 7.48991 14.827 7.48191 14.8217C7.47391 14.8163 7.38391 14.7861 7.38792 14.7558C7.39192 14.7255 7.40394 14.7433 7.40994 14.7344C7.41594 14.7255 7.40995 14.7059 7.42195 14.6952C7.45595 14.6524 7.53395 14.6702 7.52195 14.5918C7.52195 14.5562 7.48791 14.5277 7.47991 14.4903C7.46591 14.4903 7.46593 14.4654 7.45393 14.4565C7.37793 14.4565 7.38794 14.3816 7.35994 14.3656C7.27994 14.3157 7.21793 14.346 7.30793 14.2498C7.31993 14.2195 7.22994 14.1696 7.21194 14.1518C7.19394 14.134 7.19391 14.0663 7.18191 14.0378C7.16991 14.0093 7.12393 13.9968 7.10593 13.9754C7.08793 13.954 7.08791 13.9362 7.07991 13.9326V13.922C7.09591 13.9113 7.07991 13.8881 7.07991 13.8739C7.07991 13.8596 7.04592 13.8739 7.03792 13.8614C6.96167 13.8077 6.87484 13.7673 6.78191 13.742C6.75591 13.7331 6.76392 13.7153 6.74192 13.7064C6.69136 13.6849 6.63924 13.6665 6.58591 13.6512C6.56991 13.6512 6.55993 13.5959 6.54792 13.5799C6.53508 13.5637 6.52034 13.5487 6.50393 13.5353C6.50393 13.489 6.47191 13.4819 6.43191 13.4569C6.43288 13.4475 6.43288 13.4379 6.43191 13.4285C6.44032 13.3947 6.45104 13.3613 6.46394 13.3287C6.46394 13.3109 6.49592 13.2948 6.49192 13.2752C6.48803 13.2391 6.4807 13.2033 6.46995 13.1683C6.42795 13.0703 6.37993 13.0828 6.40593 12.9563C6.40593 12.9296 6.40595 12.9136 6.42395 12.8904C6.44195 12.8672 6.42391 12.8761 6.43591 12.8743C6.44791 12.8726 6.48792 12.8441 6.49592 12.8369C6.50392 12.8298 6.53194 12.746 6.55994 12.7264C6.58794 12.7069 6.64193 12.6819 6.65393 12.6695C6.66593 12.657 6.67594 12.6285 6.66794 12.616C6.65994 12.6035 6.62593 12.616 6.60393 12.616C6.58193 12.616 6.56992 12.5982 6.54792 12.5946C6.52592 12.591 6.53191 12.5804 6.53191 12.5715H6.52195C6.49687 12.5667 6.47262 12.5589 6.44993 12.5483C6.41841 12.5427 6.3876 12.5344 6.35793 12.5234C6.30993 12.4984 6.25593 12.4307 6.20793 12.42C6.1529 12.4128 6.09696 12.4128 6.04192 12.42C6.00192 12.42 6.00195 12.4022 5.96995 12.3933C5.93795 12.3844 5.95994 12.4129 5.86194 12.3933C5.84994 12.3844 5.86194 12.3541 5.86194 12.3434C5.86194 12.3327 5.82794 12.3434 5.80994 12.3434C5.72994 12.3256 5.75992 12.2615 5.73992 12.2187C5.72992 12.208 5.69591 12.2187 5.68191 12.2098C5.66791 12.2009 5.68191 12.2098 5.68191 12.1991C5.69591 12.1813 5.64792 12.1332 5.64792 12.1278C5.64792 12.1225 5.74994 12.0993 5.76394 12.0975C5.77794 12.0957 5.76393 12.0762 5.75393 12.0655C5.75603 12.0376 5.76415 12.0104 5.77791 11.9853C5.74991 11.971 5.73994 11.9514 5.71594 11.9354C5.69194 11.9194 5.73392 11.9176 5.73792 11.9051C5.78392 11.7893 5.85795 11.882 5.92195 11.7751C5.93314 11.7578 5.94314 11.7399 5.95193 11.7216H5.96394C5.97768 11.725 5.9922 11.725 6.00593 11.7216C6.00593 11.7109 6.03393 11.7073 6.04993 11.7038H6.07195C6.18995 11.6806 6.16391 11.6414 6.23191 11.5987C6.26313 11.5886 6.29524 11.5808 6.32791 11.5755C6.35391 11.5844 6.38991 11.6201 6.43792 11.6379C6.48592 11.6557 6.59394 11.6717 6.61394 11.6824C6.63394 11.6931 6.64394 11.7252 6.66594 11.7359C6.73394 11.7679 6.69594 11.7127 6.75994 11.7252C6.82417 11.7477 6.88578 11.7757 6.94392 11.8089C6.96046 11.8115 6.97739 11.8115 6.99392 11.8089C7.0387 11.8 7.08414 11.794 7.12991 11.7911C7.14353 11.7972 7.1576 11.8025 7.17195 11.8071C7.18795 11.8071 7.19994 11.7822 7.20994 11.7822C7.25594 11.7822 7.25794 11.8053 7.31794 11.8C7.31794 11.8 7.34991 11.6486 7.37991 11.6414C7.40991 11.6343 7.44193 11.6771 7.45593 11.6789C7.46993 11.6806 7.45593 11.6486 7.45593 11.645C7.44076 11.6079 7.42874 11.5697 7.41995 11.531C7.41995 11.531 7.44994 11.531 7.46394 11.531C7.50146 11.524 7.53691 11.51 7.56794 11.49L7.62395 11.4187C7.62395 11.408 7.60995 11.3813 7.62395 11.3724C7.63795 11.3635 7.65995 11.3546 7.67395 11.3421C7.68795 11.3296 7.69595 11.2958 7.72395 11.2833C7.83195 11.2744 7.86994 11.1996 7.96594 11.1889C7.97659 11.1881 7.98728 11.1881 7.99792 11.1889L8.01794 11.2174C8.04206 11.2352 8.06992 11.2485 8.09993 11.2566C8.10993 11.2566 8.11395 11.2424 8.12395 11.2406C8.15557 11.2355 8.184 11.2203 8.20393 11.1978C8.20393 11.1978 8.19193 11.18 8.20393 11.1693C8.23031 11.1484 8.25837 11.1294 8.28792 11.1123C8.31175 11.1087 8.33611 11.1087 8.35994 11.1123C8.37394 11.1123 8.37592 11.1372 8.38992 11.139C8.40392 11.1408 8.43793 11.139 8.44993 11.139C8.46193 11.139 8.46991 11.1159 8.48591 11.1141C8.5124 11.0976 8.54055 11.0833 8.56995 11.0713L8.67395 11.0446C8.6988 11.0322 8.72585 11.0238 8.75393 11.0196C8.79368 11.0257 8.82978 11.044 8.85593 11.0713C8.88843 11.0971 8.92478 11.1186 8.96394 11.1354C8.96394 11.1354 9.02592 11.155 9.03792 11.1354C9.04587 11.1255 9.0564 11.1174 9.06858 11.1119C9.08075 11.1063 9.09424 11.1034 9.10793 11.1034C9.13593 11.1034 9.13992 11.0802 9.13992 11.0624C9.14244 11.0376 9.15448 11.0143 9.17395 10.9965C9.19356 10.98 9.21666 10.9673 9.24192 10.9591C9.24192 10.9591 9.30394 10.9359 9.31194 10.9038C9.31994 10.8717 9.37994 10.8468 9.41394 10.8415C9.44794 10.8361 9.41393 10.8237 9.50593 10.8415C9.59793 10.8593 9.60994 10.8219 9.61394 10.7987C9.61794 10.7756 9.61395 10.7506 9.67195 10.756C9.72995 10.7613 9.75593 10.7559 9.75593 10.7328C9.75593 10.7096 9.80794 10.69 9.71594 10.6687C9.62394 10.6473 9.6319 10.6687 9.6259 10.6241C9.6199 10.5796 9.62594 10.592 9.56394 10.5885C9.50194 10.5849 9.53391 10.5546 9.52991 10.5261C9.52268 10.5043 9.51119 10.4838 9.49592 10.4655C9.48392 10.4459 9.44993 10.4459 9.44993 10.4192C9.44993 10.3925 9.44994 10.3765 9.41194 10.3765C9.37394 10.3765 9.36594 10.3765 9.36594 10.3497C9.36594 10.323 9.36593 10.2981 9.40593 10.2981C9.4131 10.2984 9.42027 10.2972 9.42678 10.2945C9.43329 10.2918 9.43895 10.2877 9.44329 10.2826C9.44763 10.2775 9.45048 10.2715 9.45164 10.2652C9.45279 10.2589 9.45222 10.2525 9.44993 10.2464C9.44774 10.2173 9.44774 10.1882 9.44993 10.1591L9.49592 10.111C9.54873 10.0747 9.59883 10.0355 9.64592 9.99341C9.64964 9.98706 9.65526 9.98172 9.66213 9.97801C9.66901 9.9743 9.6769 9.97236 9.68494 9.97236C9.69298 9.97236 9.70086 9.9743 9.70774 9.97801C9.71461 9.98172 9.72023 9.98706 9.72395 9.99341C9.73793 10.0173 9.75537 10.0395 9.7759 10.0593C9.7919 10.0771 9.84393 10.0593 9.85593 10.0451C9.86598 10.0021 9.8814 9.96024 9.90193 9.92034C9.92835 9.89583 9.94879 9.86671 9.96194 9.83482C9.96194 9.80631 9.98395 9.78136 10.0199 9.78136C10.0559 9.78136 10.0799 9.73862 10.0799 9.71368C10.0799 9.69933 10.0862 9.68554 10.0974 9.67523C10.1086 9.66492 10.1238 9.6589 10.1399 9.65844C10.1839 9.65844 10.2059 9.62815 10.2219 9.65844C10.2379 9.68873 10.2519 9.69586 10.2799 9.70833C10.3079 9.7208 10.3559 9.73863 10.3759 9.72081C10.3959 9.703 10.4099 9.67094 10.4439 9.69054C10.4779 9.71014 10.4979 9.6905 10.5059 9.65487C10.5139 9.61924 10.5199 9.56935 10.5199 9.56935C10.5199 9.56935 10.5199 9.54443 10.5799 9.54443C10.6399 9.54443 10.596 9.51414 10.624 9.49632C10.6519 9.47851 10.6539 9.45888 10.6919 9.47135C10.7299 9.48383 10.7859 9.45532 10.7579 9.42681C10.7299 9.39831 10.6619 9.34844 10.6979 9.30924C10.7339 9.27004 10.7499 9.21302 10.7139 9.20589C10.6779 9.19876 10.6239 9.2059 10.6179 9.17561C10.6119 9.14533 10.5959 9.11506 10.6419 9.10972C10.6879 9.10437 10.7599 9.10969 10.7819 9.08475C10.8039 9.0598 10.8779 9.05446 10.8779 8.99923C10.8779 8.944 10.8999 8.93865 10.9079 8.90837C10.9137 8.8876 10.9146 8.86601 10.9109 8.8449C10.9071 8.82379 10.8986 8.80359 10.8859 8.78544C10.8553 8.75761 10.8279 8.72717 10.8039 8.69457C10.7962 8.67949 10.7848 8.66611 10.7707 8.65534C10.7565 8.64457 10.7399 8.63665 10.7219 8.6322C10.6779 8.61973 10.6399 8.61438 10.6399 8.58409C10.6399 8.5538 10.6699 8.58411 10.6699 8.51106C10.6699 8.43801 10.6099 8.42019 10.6099 8.42019L10.5199 8.3703C10.4543 8.35399 10.3875 8.3415 10.3199 8.33289C10.2779 8.33289 10.2299 8.29368 10.2779 8.26873C10.2985 8.25917 10.3143 8.24304 10.3221 8.22354C10.3299 8.20404 10.3291 8.18265 10.3199 8.16364C10.3131 8.14459 10.3005 8.12754 10.2836 8.11436C10.2667 8.10118 10.2461 8.09234 10.224 8.08878C10.156 8.07453 10.1379 8.05852 10.1679 8.02467C10.1979 7.99082 10.2039 7.9641 10.2419 7.98904C10.2627 8.00266 10.287 8.01129 10.3126 8.0141C10.3381 8.01691 10.3641 8.01377 10.3879 8.00505C10.4359 7.98367 10.4539 7.96945 10.4779 7.98904C10.5019 8.00864 10.5319 8.02999 10.5699 7.9997C10.5881 7.98575 10.6102 7.97654 10.6338 7.97308C10.6575 7.96962 10.6817 7.97207 10.7039 7.98013C10.7456 7.99176 10.7902 7.99176 10.8319 7.98013C10.8559 7.96944 10.9039 7.93378 10.9039 7.91419C10.908 7.89953 10.9154 7.88578 10.9257 7.87382C10.936 7.86186 10.9491 7.85196 10.9639 7.84472C10.9939 7.83047 11.0319 7.77878 11.0619 7.77878C11.0919 7.77878 11.1039 7.75031 11.1039 7.73071C11.1099 7.70464 11.12 7.67942 11.1339 7.65585C11.1488 7.64332 11.1685 7.63637 11.1889 7.63637C11.2094 7.63637 11.2291 7.64332 11.2439 7.65585C11.2729 7.67524 11.3064 7.68863 11.3419 7.69504C11.3716 7.70073 11.4022 7.70073 11.4319 7.69504C11.4498 7.68677 11.4697 7.68247 11.4899 7.68247C11.5101 7.68247 11.53 7.68677 11.5479 7.69504C11.5798 7.71084 11.6155 7.71943 11.6519 7.72001C11.6581 7.70021 11.6622 7.67991 11.6639 7.65942C11.6639 7.63982 11.6759 7.60421 11.6519 7.58995C11.6279 7.5757 11.5959 7.55608 11.6519 7.5258C11.6645 7.51505 11.6798 7.50717 11.6965 7.50283C11.7132 7.49849 11.7309 7.49783 11.7479 7.50087C11.7979 7.50087 11.8279 7.50087 11.8639 7.50087C11.8999 7.50087 11.9619 7.52935 11.9619 7.55964C11.9635 7.57393 11.9693 7.58758 11.9788 7.59918C11.9883 7.61077 12.0011 7.6199 12.0159 7.62558C12.0459 7.63983 12.0839 7.65409 12.0719 7.67904C12.0599 7.70398 12.0579 7.72536 12.0959 7.72001C12.1339 7.71467 12.1439 7.73426 12.1439 7.7592C12.1439 7.78415 12.1559 7.80019 12.1919 7.8091C12.2279 7.818 12.2479 7.83939 12.2479 7.86434C12.242 7.88539 12.242 7.9074 12.2479 7.92845C12.2616 7.95172 12.2776 7.97381 12.2959 7.99439C12.2959 7.99439 12.3639 8.06387 12.2779 8.02824C12.1919 7.9926 12.1739 7.97835 12.1439 7.98369C12.1264 7.98666 12.1099 7.99336 12.0959 8.00327C12.0717 8.00914 12.047 8.01274 12.0219 8.01397C11.9919 8.01397 11.9619 8.06922 12.0099 8.07813C12.0579 8.08704 12.0779 8.09947 12.0779 8.13333C12.0779 8.16718 12.0579 8.15827 12.0339 8.18322C12.0099 8.20816 11.9919 8.19392 11.9499 8.19392C11.9079 8.19392 11.8939 8.22422 11.8939 8.25273C11.8939 8.28123 11.9139 8.27768 11.9319 8.30262C11.936 8.30851 11.9418 8.31334 11.9487 8.31671C11.9555 8.32008 11.9631 8.32184 11.9709 8.32184C11.9787 8.32184 11.9864 8.32008 11.9932 8.31671C12.0001 8.31334 12.0058 8.30851 12.0099 8.30262C12.0399 8.27768 12.0659 8.26342 12.0839 8.30262C12.1019 8.34181 12.1259 8.34716 12.1619 8.34716C12.1896 8.3497 12.2175 8.34472 12.2419 8.33289C12.2719 8.31686 12.3079 8.33289 12.3139 8.37208C12.3199 8.41128 12.3499 8.41664 12.3819 8.43268C12.4139 8.44871 12.4299 8.45762 12.4359 8.48257C12.4419 8.50751 12.4599 8.5164 12.4899 8.50214C12.5199 8.48789 12.5699 8.4772 12.5879 8.50214C12.6059 8.52708 12.6359 8.56273 12.6359 8.56273V8.61263L12.7519 8.64647C12.7587 8.66062 12.7627 8.67567 12.7639 8.69101C12.7639 8.71239 12.7819 8.72128 12.8139 8.71772C12.8418 8.71484 12.87 8.71484 12.8979 8.71772C12.8979 8.71772 12.9399 8.70168 12.9399 8.67139C12.9399 8.6411 12.9579 8.6322 12.9899 8.6322C13.0219 8.6322 13.0859 8.65183 13.1039 8.62154C13.1179 8.60706 13.1366 8.59683 13.1574 8.59236C13.1782 8.58788 13.2001 8.58936 13.2199 8.59657L13.3719 8.65182C13.3719 8.65182 13.3599 8.65183 13.3959 8.70706C13.4078 8.7219 13.4234 8.73408 13.4414 8.74273C13.4595 8.75137 13.4795 8.75622 13.4999 8.75691C13.5026 8.77891 13.5087 8.80051 13.5179 8.82107C13.5302 8.83295 13.5468 8.84055 13.5647 8.84251C13.5827 8.84447 13.6009 8.84067 13.6159 8.83177C13.647 8.80773 13.6852 8.79225 13.7259 8.78722C13.7619 8.78722 13.7859 8.78721 13.7859 8.76761C13.7859 8.74801 13.7499 8.732 13.7499 8.70171C13.7499 8.67142 13.7859 8.67141 13.7919 8.6429C13.7979 8.61439 13.8339 8.64291 13.8579 8.65717C13.8819 8.67142 13.9139 8.69634 13.9139 8.71772C13.926 8.75809 13.9536 8.79342 13.9919 8.8175C14.0239 8.82641 14.1019 8.83174 14.1259 8.8068C14.1499 8.78186 14.2119 8.77119 14.2059 8.83177C14.1999 8.89234 14.1879 8.8959 14.2299 8.91728C14.2399 8.92294 14.2482 8.93055 14.2544 8.93951C14.2606 8.94847 14.2644 8.95854 14.2656 8.969C14.2667 8.97946 14.2652 8.99007 14.2611 8.99993C14.257 9.00979 14.2504 9.01866 14.2419 9.02594C14.2059 9.04554 14.1939 9.0509 14.1939 9.08653C14.1939 9.12216 14.1819 9.16137 14.2119 9.18096C14.2419 9.20056 14.2599 9.21661 14.2599 9.23621C14.2689 9.27318 14.2809 9.30948 14.2959 9.34486C14.304 9.38124 14.308 9.41826 14.3079 9.45535C14.3079 9.47495 14.2899 9.51058 14.3459 9.50524C14.4019 9.49989 14.4119 9.50523 14.4119 9.53908C14.4119 9.57293 14.4299 9.59429 14.3999 9.61033C14.3699 9.62636 14.3519 9.6745 14.3819 9.68519C14.3951 9.68787 14.4075 9.69328 14.4179 9.70102C14.4284 9.70876 14.4366 9.71861 14.4419 9.72973C14.4419 9.74933 14.4979 9.78495 14.5279 9.76535C14.5579 9.74576 14.5639 9.73507 14.5879 9.72973C14.6119 9.72438 14.6299 9.71013 14.6059 9.68519C14.5819 9.66024 14.5759 9.63528 14.6059 9.61925C14.6359 9.60321 14.6439 9.55513 14.6439 9.55513C14.6481 9.54924 14.6538 9.54436 14.6606 9.54099C14.6674 9.53763 14.6751 9.53586 14.6829 9.53586C14.6907 9.53586 14.6984 9.53763 14.7052 9.54099C14.712 9.54436 14.7178 9.54924 14.7219 9.55513C14.7639 9.59967 14.7699 9.5854 14.7999 9.5854C14.8299 9.5854 14.8439 9.61035 14.8439 9.6353C14.8439 9.66024 14.9039 9.65487 14.9039 9.69406C14.9039 9.73326 14.9159 9.82947 14.9159 9.82947C14.9159 9.82947 14.9159 9.88473 14.9539 9.90433C14.9919 9.92393 14.9839 9.92928 14.9659 9.95422C14.9534 9.98124 14.9492 10.0108 14.9539 10.0397C14.9539 10.0593 14.9659 10.0682 14.9359 10.0896C14.9285 10.0926 14.922 10.097 14.9166 10.1024C14.9112 10.1078 14.9072 10.1141 14.9047 10.121C14.9023 10.1279 14.9015 10.1351 14.9024 10.1423C14.9033 10.1495 14.9059 10.1564 14.9099 10.1627C14.9279 10.1929 14.9219 10.2143 14.9719 10.2482C15.0219 10.282 15.0139 10.298 15.0139 10.323C15.0139 10.3479 15.0619 10.3836 15.0619 10.4085C15.0619 10.4335 15.0999 10.4638 15.1299 10.4673C15.1471 10.4738 15.1623 10.484 15.1738 10.4971C15.1854 10.5102 15.193 10.5257 15.1959 10.5421C15.1959 10.5671 15.1959 10.633 15.1959 10.633C15.1959 10.633 15.1959 10.6473 15.2259 10.6473C15.2559 10.6473 15.2879 10.6829 15.2999 10.6473C15.3119 10.6116 15.3479 10.6027 15.3719 10.5938C15.3959 10.5849 15.4459 10.5635 15.4699 10.5778C15.4932 10.5907 15.5206 10.5963 15.5479 10.5938H15.6879C15.6879 10.5938 15.7199 10.5938 15.7379 10.6294C15.7559 10.6651 15.8099 10.7132 15.7799 10.7346C15.7499 10.7559 15.7499 10.7934 15.7799 10.7934C15.8099 10.7934 15.8539 10.7934 15.8539 10.8183C15.8539 10.8432 15.8539 10.8629 15.8899 10.8486C15.9259 10.8344 15.9379 10.829 15.9499 10.8486C15.9619 10.8682 15.9859 10.8682 16.0179 10.8842C16.0499 10.9003 16.0599 10.8842 16.0779 10.8682C16.1056 10.8502 16.1368 10.8369 16.1699 10.829C16.2137 10.8193 16.2589 10.8157 16.3039 10.8183C16.3399 10.829 16.3879 10.8486 16.3879 10.8486C16.4005 10.8737 16.4047 10.9016 16.3999 10.9288C16.3879 10.9591 16.3759 10.9537 16.3879 10.9982C16.3999 11.0428 16.3759 11.0481 16.3519 11.0428C16.3279 11.0374 16.3039 11.0428 16.3039 11.0784C16.3039 11.114 16.2779 11.1283 16.2779 11.1621C16.2779 11.196 16.2779 11.1924 16.2539 11.2085C16.2299 11.2245 16.2239 11.2477 16.2539 11.253C16.2839 11.2584 16.2779 11.2922 16.2779 11.3136C16.2779 11.335 16.2779 11.3778 16.2779 11.3778C16.2779 11.3778 16.2779 11.4027 16.2419 11.4027C16.2059 11.4027 16.1639 11.4027 16.1579 11.4223C16.1519 11.4419 16.1019 11.4882 16.1439 11.5114C16.1859 11.5346 16.1759 11.5523 16.1439 11.563C16.1358 11.5662 16.1289 11.5715 16.1241 11.5782C16.1193 11.5848 16.1167 11.5926 16.1167 11.6005C16.1167 11.6084 16.1193 11.6161 16.1241 11.6227C16.1289 11.6294 16.1358 11.6347 16.1439 11.6379C16.1919 11.6521 16.1859 11.6664 16.1559 11.6878C16.1259 11.7092 16.0639 11.7216 16.0639 11.7519C16.0639 11.7822 16.0519 11.7822 16.0159 11.7875C15.9799 11.7929 15.9599 11.8321 16.0039 11.8819C16.0479 11.9318 16.0579 11.9211 16.0879 11.9211C16.1179 11.9211 16.1179 11.8819 16.1179 11.8819H16.2519C16.2854 11.8846 16.3191 11.8797 16.3499 11.8677C16.3739 11.8535 16.4419 11.8285 16.4419 11.8677C16.4419 11.9069 16.4539 11.9069 16.4839 11.9283C16.5139 11.9496 16.5199 11.9283 16.5439 11.9622C16.5679 11.996 16.5739 11.9621 16.5919 11.9318C16.6099 11.9015 16.6479 11.8624 16.6779 11.9033C16.7079 11.9443 16.7079 11.9318 16.7459 11.9318C16.7839 11.9318 16.7939 11.9479 16.7939 11.9728C16.7939 11.9978 16.8299 11.9978 16.8719 11.9924C16.9139 11.9871 16.9219 12.012 16.9399 12.037C16.9579 12.0619 16.9639 12.0565 16.9879 12.0565C17.0002 12.0582 17.0127 12.0573 17.0245 12.0539C17.0363 12.0505 17.0471 12.0447 17.0559 12.037C17.0739 12.0174 17.0979 11.9924 17.1219 12.0227C17.1269 12.0295 17.134 12.0349 17.1423 12.0382C17.1505 12.0416 17.1597 12.0428 17.1687 12.0417C17.1777 12.0405 17.1862 12.0372 17.1931 12.0319C17.2001 12.0267 17.2052 12.0197 17.2079 12.012C17.2199 11.9782 17.2739 11.9479 17.3039 11.9871C17.3129 12.0003 17.3255 12.0113 17.3406 12.0191C17.3556 12.0269 17.3725 12.0312 17.3899 12.0316C17.4199 12.0316 17.4619 12.0316 17.4799 12.0619C17.4979 12.0922 17.5599 12.126 17.5179 12.1563C17.4759 12.1866 17.4259 12.2276 17.4619 12.2365C17.4951 12.2429 17.5252 12.2585 17.5479 12.281C17.59 12.3049 17.6381 12.319 17.6879 12.322C17.7067 12.3267 17.7265 12.3273 17.7456 12.3239C17.7647 12.3205 17.7826 12.3132 17.7979 12.3024C17.8399 12.2721 17.8819 12.2722 17.8759 12.3114C17.8739 12.3407 17.8801 12.3701 17.8939 12.3969C17.9079 12.4254 17.918 12.4553 17.924 12.486C17.924 12.5109 17.924 12.5162 17.974 12.5465C18.024 12.5768 18.0219 12.5964 18.0639 12.5661C18.1059 12.5358 18.1199 12.5216 18.1199 12.4967V12.4164C18.1491 12.4116 18.1773 12.4032 18.2039 12.3915C18.2279 12.3773 18.3259 12.3309 18.3499 12.3505C18.3614 12.3583 18.3755 12.3625 18.3899 12.3625C18.4044 12.3625 18.4184 12.3583 18.4299 12.3505C18.4612 12.3432 18.4936 12.3402 18.5259 12.3416C18.5675 12.3452 18.6091 12.3344 18.6419 12.3114C18.6899 12.2757 18.6899 12.2864 18.7219 12.3114C18.7347 12.3199 18.7431 12.3325 18.7453 12.3465C18.7476 12.3606 18.7435 12.3748 18.7339 12.3862C18.7297 12.3927 18.7275 12.4001 18.7275 12.4077C18.7275 12.4152 18.7298 12.4226 18.7341 12.4291C18.7383 12.4356 18.7444 12.441 18.7518 12.4447C18.7591 12.4484 18.7674 12.4504 18.7759 12.4503C18.7831 12.4491 18.7906 12.4495 18.7976 12.4513C18.8046 12.4532 18.811 12.4565 18.8163 12.4611C18.8216 12.4656 18.8256 12.4712 18.828 12.4774C18.8303 12.4836 18.831 12.4902 18.8299 12.4967C18.8306 12.5231 18.8347 12.5494 18.8419 12.575C18.8419 12.5964 18.8419 12.6053 18.9159 12.6214C18.9899 12.6374 18.9699 12.6694 18.9819 12.6962C18.9939 12.7229 19.0119 12.7318 18.9759 12.7318ZM20.9599 7.85542L20.1139 7.30666L19.2679 7.85542L19.5899 6.96459L18.7439 6.41583H19.7999L20.124 5.525L20.4479 6.41583H21.4939L20.6479 6.96459L20.9599 7.85542Z" fill="#0049A8"/>
<path d="M18.934 12.6126C18.866 12.5966 18.866 12.5877 18.86 12.5663C18.8528 12.5406 18.8488 12.5143 18.848 12.4879C18.8491 12.4814 18.8484 12.4748 18.8461 12.4686C18.8437 12.4624 18.8397 12.4568 18.8345 12.4523C18.8292 12.4478 18.8227 12.4444 18.8157 12.4426C18.8087 12.4407 18.8012 12.4404 18.794 12.4416C18.7856 12.4416 18.7773 12.4397 18.7699 12.436C18.7626 12.4322 18.7564 12.4269 18.7521 12.4203C18.7479 12.4138 18.7456 12.4064 18.7456 12.3989C18.7456 12.3914 18.7478 12.3839 18.752 12.3774C18.7568 12.3718 18.7602 12.3654 18.7621 12.3586C18.7641 12.3518 18.7645 12.3447 18.7634 12.3378C18.7623 12.3308 18.7597 12.3242 18.7557 12.3181C18.7516 12.3121 18.7463 12.3068 18.74 12.3026C18.708 12.2777 18.708 12.267 18.66 12.3026C18.6272 12.3256 18.5856 12.3365 18.544 12.3329C18.5117 12.3314 18.4793 12.3344 18.448 12.3418C18.4365 12.3496 18.4225 12.3538 18.408 12.3538C18.3936 12.3538 18.3796 12.3496 18.3681 12.3418C18.3441 12.3222 18.2461 12.3685 18.2221 12.3828C18.1955 12.3944 18.1672 12.4029 18.138 12.4077V12.4879C18.138 12.5128 18.126 12.5271 18.082 12.5574C18.038 12.5876 18.046 12.5681 17.992 12.5378C17.938 12.5075 17.942 12.5021 17.942 12.4772C17.9361 12.4465 17.926 12.4166 17.912 12.3881C17.8982 12.3614 17.892 12.332 17.894 12.3026C17.894 12.2634 17.8581 12.2634 17.8161 12.2937C17.8007 12.3044 17.7828 12.3118 17.7637 12.3152C17.7445 12.3186 17.7248 12.318 17.706 12.3133C17.6563 12.3103 17.6081 12.2962 17.5661 12.2723C17.5433 12.2498 17.5132 12.2342 17.48 12.2278C17.444 12.2278 17.492 12.1779 17.536 12.1476C17.58 12.1173 17.518 12.0781 17.498 12.0531C17.478 12.0282 17.438 12.0282 17.408 12.0229C17.3907 12.0224 17.3737 12.0181 17.3587 12.0103C17.3437 12.0026 17.3311 11.9916 17.3221 11.9783C17.2921 11.9391 17.238 11.9783 17.226 12.0033C17.2233 12.011 17.2182 12.0179 17.2113 12.0232C17.2043 12.0284 17.1959 12.0318 17.1869 12.0329C17.1778 12.034 17.1686 12.0328 17.1603 12.0295C17.1521 12.0261 17.145 12.0207 17.14 12.0139C17.116 11.9837 17.0921 12.014 17.0741 12.0282C17.0652 12.036 17.0544 12.0417 17.0426 12.0451C17.0308 12.0485 17.0183 12.0495 17.006 12.0478C16.982 12.0478 16.976 12.0478 16.958 12.0282C16.94 12.0086 16.934 11.9783 16.89 11.9837C16.846 11.989 16.812 11.9837 16.812 11.9641C16.812 11.9445 16.8001 11.9231 16.7641 11.9231C16.7281 11.9231 16.726 11.9338 16.696 11.8946C16.666 11.8554 16.63 11.8946 16.61 11.9231C16.59 11.9516 16.586 11.9837 16.562 11.9534C16.538 11.9231 16.532 11.9391 16.502 11.9195C16.472 11.8999 16.46 11.9035 16.46 11.859C16.46 11.8144 16.3921 11.8394 16.3681 11.859C16.3373 11.871 16.3035 11.8759 16.2701 11.8732H16.136C16.136 11.8732 16.136 11.9124 16.106 11.9124C16.076 11.9124 16.0641 11.9231 16.0221 11.8732C15.9801 11.8233 15.996 11.7824 16.034 11.7788C16.072 11.7752 16.082 11.7788 16.082 11.7431C16.082 11.7075 16.1421 11.6986 16.1741 11.679C16.2061 11.6594 16.21 11.6434 16.162 11.6291C16.1539 11.6259 16.1471 11.6206 16.1422 11.614C16.1374 11.6073 16.1348 11.5996 16.1348 11.5917C16.1348 11.5838 16.1374 11.576 16.1422 11.5694C16.1471 11.5628 16.1539 11.5575 16.162 11.5543C16.188 11.5436 16.2 11.5294 16.162 11.5026C16.124 11.4759 16.162 11.4385 16.176 11.4135C16.19 11.3886 16.218 11.3939 16.26 11.3939C16.302 11.3939 16.296 11.369 16.296 11.369C16.296 11.369 16.296 11.3244 16.296 11.3048C16.296 11.2852 16.3081 11.2496 16.2721 11.2443C16.2361 11.239 16.2421 11.214 16.2721 11.1998C16.3021 11.1855 16.296 11.1891 16.296 11.1534C16.296 11.1178 16.3221 11.1089 16.3221 11.0697C16.3221 11.0305 16.3461 11.0287 16.3701 11.034C16.3941 11.0394 16.418 11.034 16.406 10.9895C16.394 10.9449 16.4061 10.9503 16.4181 10.92C16.4228 10.8928 16.4187 10.865 16.406 10.8399C16.406 10.8399 16.3581 10.8202 16.3221 10.8095C16.277 10.8069 16.2318 10.8105 16.188 10.8202C16.1549 10.8282 16.1237 10.8415 16.096 10.8594C16.078 10.879 16.066 10.8897 16.036 10.8755C16.006 10.8612 15.9801 10.8595 15.9681 10.8399C15.9561 10.8203 15.938 10.8256 15.908 10.8399C15.878 10.8541 15.8721 10.8398 15.8721 10.8095C15.8721 10.7793 15.834 10.7846 15.798 10.7846C15.762 10.7846 15.762 10.7454 15.798 10.7258C15.834 10.7062 15.774 10.6599 15.756 10.6207C15.738 10.5815 15.706 10.585 15.706 10.585H15.5661C15.5388 10.5875 15.5113 10.5819 15.488 10.569C15.464 10.5548 15.414 10.569 15.39 10.585C15.366 10.6011 15.3301 10.5993 15.3181 10.6385C15.3061 10.6777 15.282 10.6385 15.244 10.6385C15.206 10.6385 15.2141 10.6243 15.2141 10.6243C15.2141 10.6243 15.2141 10.5584 15.2141 10.5334C15.2111 10.517 15.2035 10.5014 15.1919 10.4884C15.1804 10.4753 15.1653 10.465 15.148 10.4586C15.118 10.4586 15.08 10.4247 15.08 10.3998C15.08 10.3749 15.032 10.3392 15.032 10.3143C15.032 10.2893 15.032 10.2751 14.99 10.2394C14.948 10.2038 14.946 10.1842 14.928 10.1539C14.9239 10.1477 14.9214 10.1407 14.9205 10.1335C14.9196 10.1264 14.9204 10.1191 14.9228 10.1122C14.9253 10.1053 14.9293 10.099 14.9347 10.0936C14.9401 10.0882 14.9467 10.0839 14.954 10.0809C14.984 10.0595 14.9721 10.0506 14.9721 10.031C14.9673 10.002 14.9714 9.97248 14.984 9.94546C15.002 9.92052 15.0081 9.91517 14.9721 9.89557C14.9361 9.87597 14.934 9.82075 14.934 9.82075C14.934 9.82075 14.9221 9.72632 14.9221 9.68535C14.9221 9.64437 14.862 9.65148 14.862 9.62654C14.862 9.60159 14.8501 9.57665 14.8181 9.57665C14.7861 9.57665 14.782 9.59091 14.74 9.54637C14.7359 9.54048 14.7302 9.5356 14.7233 9.53223C14.7165 9.52887 14.7088 9.5271 14.701 9.5271C14.6932 9.5271 14.6856 9.52887 14.6787 9.53223C14.6719 9.5356 14.6662 9.54048 14.662 9.54637C14.662 9.54637 14.6501 9.59623 14.6241 9.61049C14.5981 9.62474 14.6061 9.65149 14.6241 9.67643C14.6421 9.70137 14.624 9.71563 14.606 9.72097C14.588 9.72632 14.576 9.73521 14.546 9.75659C14.516 9.77797 14.466 9.74057 14.46 9.72097C14.4547 9.70985 14.4465 9.7 14.436 9.69226C14.4256 9.68452 14.4133 9.67911 14.4 9.67643C14.37 9.66574 14.3881 9.61587 14.4181 9.60161C14.4481 9.58736 14.43 9.5713 14.43 9.53032C14.43 9.48934 14.4181 9.49113 14.3641 9.49648C14.3101 9.50182 14.32 9.46619 14.326 9.44659C14.3261 9.4095 14.3221 9.37248 14.3141 9.3361C14.299 9.30072 14.287 9.26442 14.278 9.22745C14.278 9.20785 14.26 9.1918 14.23 9.17221C14.2 9.15261 14.212 9.11162 14.212 9.07777C14.212 9.04392 14.224 9.03682 14.26 9.01722C14.2686 9.00994 14.2751 9.00103 14.2792 8.99117C14.2833 8.98131 14.2848 8.97075 14.2836 8.96029C14.2825 8.94982 14.2787 8.93971 14.2725 8.93075C14.2664 8.92179 14.258 8.91419 14.248 8.90852C14.206 8.88714 14.2181 8.88358 14.2241 8.82301C14.2301 8.76243 14.168 8.77314 14.144 8.79808C14.12 8.82303 14.042 8.81765 14.01 8.80874C13.9717 8.78466 13.9441 8.74938 13.932 8.709C13.932 8.68762 13.902 8.66266 13.876 8.64841C13.85 8.63415 13.816 8.60385 13.81 8.63414C13.804 8.66443 13.7681 8.66266 13.7681 8.69295C13.7681 8.72324 13.804 8.73747 13.804 8.75885C13.804 8.78023 13.78 8.77847 13.744 8.77847C13.7033 8.78349 13.6651 8.79897 13.634 8.82301C13.6189 8.83191 13.6008 8.83571 13.5828 8.83375C13.5648 8.83179 13.5483 8.82419 13.536 8.81231C13.5268 8.79175 13.5208 8.7702 13.5181 8.74819C13.4976 8.74751 13.4775 8.74266 13.4595 8.73401C13.4415 8.72536 13.426 8.71314 13.4141 8.6983C13.3781 8.64841 13.39 8.64306 13.39 8.64306L13.238 8.58782C13.2182 8.5806 13.1963 8.57912 13.1755 8.5836C13.1547 8.58807 13.136 8.5983 13.1221 8.61278C13.1041 8.64307 13.038 8.62344 13.008 8.62344C12.978 8.62344 12.958 8.63417 12.958 8.66268C12.958 8.69118 12.9161 8.709 12.9161 8.709C12.8881 8.70613 12.8599 8.70613 12.832 8.709C12.8 8.709 12.782 8.70897 12.782 8.68225C12.7808 8.66691 12.7768 8.65186 12.7701 8.63771L12.654 8.60387V8.55397C12.654 8.55397 12.624 8.51298 12.606 8.49338C12.588 8.47378 12.54 8.49338 12.508 8.49338C12.476 8.49338 12.46 8.49341 12.454 8.47381C12.448 8.45421 12.43 8.43817 12.4 8.42392C12.37 8.40966 12.338 8.4043 12.332 8.36333C12.326 8.32235 12.29 8.3081 12.26 8.32413C12.2356 8.33596 12.2077 8.34094 12.18 8.3384C12.144 8.3384 12.12 8.3384 12.102 8.29386C12.084 8.24932 12.058 8.26357 12.028 8.29386C12.0239 8.29975 12.0181 8.30459 12.0113 8.30795C12.0045 8.31132 11.9969 8.31309 11.9891 8.31309C11.9813 8.31309 11.9736 8.31132 11.9667 8.30795C11.9599 8.30459 11.9542 8.29975 11.95 8.29386C11.932 8.26892 11.912 8.27426 11.912 8.24397C11.912 8.21368 11.9261 8.18516 11.9681 8.18516C12.0101 8.18516 12.028 8.19945 12.052 8.1745C12.076 8.14956 12.096 8.16024 12.096 8.12461C12.096 8.08898 12.076 8.08006 12.028 8.06937C11.98 8.05868 12.01 8.00521 12.04 8.00521C12.065 8.00398 12.0899 8.00043 12.1141 7.99455C12.128 7.98465 12.1445 7.9779 12.162 7.97494C12.192 7.97494 12.21 7.98563 12.296 8.01948C12.382 8.05333 12.3141 7.98564 12.3141 7.98564C12.2958 7.96505 12.2797 7.94296 12.2661 7.91969C12.2601 7.89864 12.2601 7.87663 12.2661 7.85558C12.2661 7.83064 12.248 7.81103 12.21 7.80034C12.172 7.78965 12.162 7.77539 12.162 7.75044C12.162 7.7255 12.1501 7.70591 12.1141 7.71125C12.0781 7.7166 12.076 7.69522 12.09 7.67028C12.104 7.64534 12.064 7.63107 12.034 7.61682C12.0192 7.61114 12.0064 7.60206 11.9969 7.59046C11.9874 7.57886 11.9816 7.56521 11.98 7.55092C11.98 7.52063 11.918 7.49211 11.882 7.49211C11.846 7.49211 11.8161 7.49211 11.7661 7.49211C11.749 7.48907 11.7313 7.48973 11.7146 7.49407C11.6979 7.49841 11.6826 7.50629 11.6701 7.51704C11.6201 7.54733 11.6521 7.56694 11.6701 7.5812C11.6881 7.59545 11.682 7.63106 11.682 7.65066C11.6802 7.67115 11.6763 7.69146 11.6701 7.71125C11.6336 7.71067 11.5979 7.70212 11.5661 7.68633C11.5481 7.67805 11.5282 7.67372 11.508 7.67372C11.4879 7.67372 11.468 7.67805 11.45 7.68633C11.4204 7.69201 11.3897 7.69201 11.36 7.68633C11.3245 7.67991 11.291 7.66648 11.262 7.64709C11.2472 7.63456 11.2275 7.62761 11.207 7.62761C11.1866 7.62761 11.1669 7.63456 11.152 7.64709C11.1381 7.67066 11.1281 7.69588 11.1221 7.72195C11.1221 7.74155 11.11 7.77006 11.08 7.77006C11.05 7.77006 11.012 7.82171 10.982 7.83596C10.9672 7.8432 10.9542 7.8531 10.9438 7.86506C10.9335 7.87702 10.9261 7.89081 10.9221 7.90547C10.9221 7.92507 10.874 7.96068 10.85 7.97137C10.8084 7.983 10.7637 7.983 10.7221 7.97137C10.6999 7.96332 10.6756 7.96091 10.6519 7.96437C10.6283 7.96782 10.6062 7.97703 10.588 7.99099C10.55 8.02127 10.52 7.99988 10.496 7.98029C10.472 7.96069 10.454 7.9803 10.406 7.99634C10.3822 8.00506 10.3563 8.00815 10.3307 8.00534C10.3051 8.00253 10.2808 7.9939 10.26 7.98029C10.222 7.95534 10.216 7.98028 10.186 8.01591C10.156 8.05154 10.174 8.06582 10.242 8.08007C10.2641 8.08362 10.2847 8.09247 10.3016 8.10565C10.3186 8.11883 10.3311 8.13583 10.338 8.15488C10.3472 8.17389 10.348 8.19528 10.3402 8.21478C10.3324 8.23428 10.3166 8.25046 10.296 8.26002C10.248 8.28496 10.296 8.32413 10.338 8.32413C10.4055 8.33274 10.4723 8.34523 10.538 8.36154L10.628 8.41143C10.628 8.41143 10.688 8.42391 10.688 8.5023C10.688 8.58069 10.658 8.54509 10.658 8.57538C10.658 8.60566 10.696 8.61097 10.74 8.62344C10.758 8.6279 10.7746 8.63581 10.7888 8.64658C10.8029 8.65735 10.8143 8.67073 10.8221 8.68582C10.846 8.71842 10.8734 8.74885 10.904 8.77668C10.9167 8.79483 10.9252 8.81507 10.929 8.83619C10.9328 8.8573 10.9317 8.87884 10.926 8.89961C10.926 8.92989 10.896 8.93524 10.896 8.99047C10.896 9.0457 10.824 9.05639 10.8 9.07599C10.776 9.09559 10.702 9.09383 10.66 9.10096C10.618 9.10808 10.628 9.13122 10.636 9.16686C10.644 9.20249 10.696 9.19183 10.732 9.19717C10.768 9.20252 10.7541 9.26485 10.7161 9.30048C10.6781 9.33611 10.746 9.38781 10.776 9.4181C10.806 9.44839 10.746 9.47511 10.71 9.46264C10.674 9.45017 10.672 9.46262 10.642 9.48756C10.612 9.51251 10.642 9.53567 10.598 9.53567C10.554 9.53567 10.538 9.5606 10.538 9.5606C10.538 9.5606 10.5381 9.60874 10.5241 9.64615C10.5101 9.68357 10.494 9.6996 10.462 9.68178C10.43 9.66396 10.418 9.69246 10.394 9.71205C10.37 9.73165 10.328 9.71204 10.298 9.69957C10.268 9.6871 10.254 9.68709 10.24 9.64968C10.226 9.61226 10.202 9.63899 10.158 9.64968C10.142 9.65014 10.1267 9.6562 10.1155 9.66651C10.1043 9.67682 10.098 9.69058 10.098 9.70492C10.098 9.72986 10.076 9.77265 10.038 9.77265C10 9.77265 9.98602 9.79755 9.98002 9.82606C9.96687 9.85795 9.94648 9.88711 9.92006 9.91162C9.89953 9.95153 9.8841 9.99335 9.87406 10.0363C9.86206 10.0541 9.81003 10.0684 9.79403 10.0506C9.7735 10.0307 9.75601 10.0086 9.74203 9.98465C9.73831 9.97831 9.73269 9.97297 9.72582 9.96925C9.71894 9.96554 9.71105 9.9636 9.70302 9.9636C9.69498 9.9636 9.68714 9.96554 9.68026 9.96925C9.67339 9.97297 9.66777 9.97831 9.66405 9.98465C9.61696 10.0267 9.56686 10.066 9.51405 10.1022L9.46805 10.1503C9.46587 10.1794 9.46587 10.2086 9.46805 10.2376C9.47035 10.2437 9.47092 10.2502 9.46976 10.2565C9.46861 10.2628 9.46575 10.2688 9.46141 10.2739C9.45707 10.279 9.45137 10.283 9.44486 10.2857C9.43835 10.2884 9.43123 10.2896 9.42406 10.2893C9.39006 10.2893 9.38402 10.3143 9.38402 10.341C9.38402 10.3677 9.39602 10.3677 9.43002 10.3677C9.46402 10.3677 9.46805 10.3837 9.46805 10.4105C9.46805 10.4372 9.50205 10.4372 9.51405 10.4568C9.52932 10.475 9.54081 10.4955 9.54804 10.5174C9.54804 10.5459 9.51802 10.5744 9.58202 10.5797C9.64602 10.5851 9.63803 10.5797 9.64403 10.6154C9.65003 10.651 9.64402 10.635 9.73402 10.6599C9.82402 10.6849 9.77406 10.6955 9.77406 10.724C9.77406 10.7525 9.74603 10.7526 9.69003 10.7472C9.63403 10.7419 9.63802 10.7668 9.63202 10.79C9.62602 10.8131 9.61406 10.8416 9.52406 10.8327C9.43406 10.8238 9.46602 10.8327 9.43202 10.8327C9.39802 10.8327 9.33602 10.8612 9.33002 10.8951C9.32402 10.9289 9.26005 10.9503 9.26005 10.9503C9.23479 10.9586 9.21164 10.9713 9.19203 10.9877C9.17255 11.0056 9.16057 11.0289 9.15804 11.0536C9.15804 11.0715 9.15801 11.0946 9.12601 11.0946C9.11232 11.0946 9.09883 11.0975 9.08666 11.1031C9.07448 11.1087 9.064 11.1168 9.05604 11.1267C9.04404 11.1463 8.98202 11.1267 8.98202 11.1267C8.94286 11.1099 8.90656 11.0883 8.87406 11.0626C8.84791 11.0352 8.81181 11.0169 8.77206 11.0109C8.74397 11.015 8.71688 11.0234 8.69203 11.0358L8.58803 11.0626C8.55863 11.0745 8.53053 11.0888 8.50404 11.1053C8.48804 11.1053 8.48205 11.132 8.46805 11.1302C8.45405 11.1285 8.42604 11.1302 8.40805 11.1302C8.39004 11.1302 8.39202 11.1089 8.37802 11.1035C8.35418 11.1 8.32987 11.1 8.30604 11.1035C8.2765 11.1207 8.24844 11.1397 8.22206 11.1606C8.22206 11.1713 8.22206 11.1855 8.22206 11.1891C8.20212 11.2115 8.17365 11.2267 8.14203 11.2318C8.14203 11.2318 8.12805 11.2479 8.11805 11.2479C8.08805 11.2398 8.06014 11.2265 8.03602 11.2086L8.01605 11.1801C8.00541 11.1793 7.99467 11.1793 7.98402 11.1801C7.88802 11.1908 7.85003 11.2657 7.74203 11.2746C7.71403 11.287 7.71203 11.3173 7.69203 11.3334C7.67203 11.3494 7.65003 11.3565 7.64203 11.3637C7.63403 11.3708 7.64203 11.3993 7.64203 11.41L7.58602 11.4812C7.55499 11.5013 7.51954 11.5152 7.48202 11.5222C7.46802 11.5222 7.44003 11.5133 7.43803 11.5222C7.44682 11.561 7.45889 11.5991 7.47406 11.6363C7.47406 11.6363 7.50006 11.6754 7.47406 11.6701C7.44806 11.6648 7.41404 11.6273 7.39804 11.6327C7.38204 11.638 7.34002 11.7912 7.33602 11.7912C7.27602 11.7912 7.27402 11.7806 7.22802 11.7734C7.22802 11.7734 7.20603 11.8019 7.19003 11.7984C7.17568 11.7938 7.16166 11.7885 7.14804 11.7824C7.10227 11.7853 7.05683 11.7912 7.01205 11.8002C6.99551 11.8028 6.97858 11.8028 6.96205 11.8002C6.90391 11.767 6.84225 11.7389 6.77802 11.7164C6.71402 11.7039 6.75202 11.7592 6.68402 11.7271C6.66202 11.7164 6.65802 11.6861 6.63202 11.6737C6.60602 11.6612 6.49204 11.6416 6.45604 11.6291C6.42004 11.6166 6.37203 11.5757 6.34603 11.5667C6.31337 11.5721 6.28126 11.5799 6.25004 11.5899C6.18204 11.6327 6.20803 11.6719 6.09003 11.6951H6.06805C6.05205 11.6951 6.03206 11.695 6.02406 11.7129C6.01032 11.7163 5.99576 11.7163 5.98202 11.7129H5.97006C5.96127 11.7312 5.95122 11.749 5.94003 11.7663C5.87603 11.8732 5.80204 11.7806 5.75604 11.8964C5.75604 11.9088 5.73602 11.916 5.73402 11.9266C5.73202 11.9373 5.76803 11.9623 5.79603 11.9765C5.78228 12.0016 5.77416 12.0288 5.77206 12.0567C5.77206 12.0674 5.78802 12.0781 5.78202 12.0888C5.77602 12.0995 5.67005 12.1048 5.66605 12.1191C5.66205 12.1333 5.71404 12.1725 5.70004 12.1903C5.70004 12.1903 5.70004 12.1992 5.70004 12.201C5.70004 12.2028 5.74804 12.201 5.75804 12.2099C5.77804 12.2527 5.74802 12.3168 5.82802 12.3347C5.84602 12.3347 5.86602 12.3347 5.88002 12.3347C5.89402 12.3347 5.86002 12.3756 5.88002 12.3845C5.97802 12.4113 5.94603 12.3845 5.98803 12.3845C6.03003 12.3845 6.02005 12.4148 6.06005 12.4113C6.11509 12.4041 6.17097 12.4041 6.22601 12.4113C6.27401 12.4219 6.32801 12.4897 6.37601 12.5146C6.40568 12.5256 6.43654 12.534 6.46805 12.5396C6.49075 12.5502 6.51495 12.558 6.54003 12.5627H6.55004C6.55004 12.5627 6.55005 12.5788 6.56605 12.5859C6.58205 12.593 6.61406 12.6073 6.62206 12.6073C6.63006 12.6073 6.66602 12.6073 6.68602 12.6073C6.70602 12.6073 6.68606 12.6518 6.67206 12.6607C6.65806 12.6696 6.60002 12.7017 6.57802 12.7177C6.55602 12.7338 6.53605 12.7997 6.51405 12.8282C6.49205 12.8567 6.46804 12.8549 6.45404 12.8656C6.44004 12.8763 6.43803 12.8799 6.44203 12.8816C6.44603 12.8834 6.43006 12.9208 6.42406 12.9475C6.39806 13.074 6.44603 13.0616 6.48803 13.1596C6.49878 13.1946 6.50616 13.2303 6.51005 13.2665C6.51005 13.2861 6.48802 13.3021 6.48202 13.3199C6.46911 13.3526 6.45845 13.3859 6.45004 13.4197C6.45101 13.4292 6.45101 13.4387 6.45004 13.4482C6.49004 13.4731 6.52406 13.4802 6.52206 13.5266C6.53847 13.54 6.55321 13.5549 6.56605 13.5711C6.57805 13.5871 6.58804 13.6371 6.60404 13.6424C6.65737 13.6577 6.70949 13.6762 6.76005 13.6976C6.78205 13.6976 6.77404 13.7244 6.80004 13.7333C6.89297 13.7585 6.9798 13.799 7.05604 13.8526C7.05604 13.8526 7.08604 13.8526 7.09804 13.8651C7.11004 13.8776 7.11004 13.9025 7.09804 13.9132V13.9239C7.09804 13.9239 7.12006 13.9596 7.12406 13.9667C7.12806 13.9738 7.19404 14.013 7.20004 14.029C7.20604 14.045 7.20002 14.1163 7.23002 14.1431C7.26002 14.1698 7.33801 14.2107 7.32601 14.241C7.23601 14.3372 7.29802 14.307 7.37802 14.3569C7.40602 14.3729 7.39606 14.4424 7.47206 14.4477C7.48406 14.4477 7.48404 14.4727 7.49804 14.4816C7.49804 14.519 7.53403 14.5475 7.54003 14.5831C7.55203 14.6615 7.47403 14.6437 7.44003 14.6864C7.42803 14.6971 7.44002 14.7132 7.42802 14.7256C7.41602 14.7381 7.40804 14.7363 7.40604 14.747C7.40404 14.7577 7.47804 14.7969 7.50004 14.813C7.52204 14.829 7.51205 14.829 7.51805 14.8361C7.54599 14.8609 7.57682 14.8831 7.61005 14.9021C7.62463 14.9054 7.63825 14.9115 7.65004 14.9198C7.66204 14.9394 7.65005 14.9608 7.66005 14.9786C7.67005 14.9965 7.68403 15.0089 7.68803 15.0232C7.69203 15.0374 7.68803 15.0802 7.68803 15.1016C7.69105 15.1175 7.69105 15.1338 7.68803 15.1497C7.66003 15.1675 7.63004 15.1818 7.60004 15.2014C7.72604 15.253 7.68003 15.3795 7.69203 15.3795C7.70403 15.3795 7.73805 15.3795 7.76605 15.3991C7.80805 15.4704 7.98003 15.367 8.04203 15.3991C8.05203 15.4294 8.06402 15.4205 8.08602 15.4365C8.09386 15.4456 8.10334 15.4534 8.11405 15.4597C8.15005 15.4793 8.15802 15.4383 8.18402 15.4258C8.20198 15.4207 8.21939 15.4141 8.23602 15.4062C8.28402 15.3653 8.29205 15.3546 8.36805 15.3599C8.39605 15.3742 8.37806 15.3777 8.42206 15.3867C8.46606 15.3956 8.45802 15.4294 8.48402 15.4526C8.48549 15.4726 8.48212 15.4926 8.47406 15.5114C8.47406 15.5221 8.51802 15.5114 8.53202 15.5238C8.58002 15.5488 8.69602 15.5541 8.73202 15.5933C8.7355 15.592 8.73927 15.5913 8.74305 15.5913C8.74684 15.5913 8.75056 15.592 8.75404 15.5933C8.80604 15.5773 8.81203 15.6859 8.84003 15.7091C8.88689 15.729 8.93812 15.7394 8.99003 15.7394C8.99003 15.7394 9.00405 15.7715 9.01405 15.7768C9.04864 15.7797 9.08346 15.7797 9.11805 15.7768C9.14998 15.7926 9.18436 15.804 9.22006 15.8107C9.23006 15.8107 9.23403 15.8214 9.24203 15.8285C9.27958 15.8598 9.32046 15.8879 9.36405 15.9122C9.39805 16.0227 9.44606 15.996 9.47206 16.0245C9.49806 16.053 9.47203 16.0477 9.48803 16.0548C9.50403 16.0619 9.51602 16.0548 9.52802 16.0761C9.54197 16.11 9.55402 16.1445 9.56405 16.1795C9.58005 16.2009 9.66005 16.2222 9.66205 16.224C9.66405 16.2258 9.67602 16.2668 9.68602 16.2828C9.69602 16.2989 9.71802 16.3131 9.73002 16.3291C9.74202 16.3452 9.80205 16.5786 9.81205 16.5982C9.82205 16.6177 9.85405 16.6445 9.86405 16.6694C9.87405 16.6944 9.84801 16.6819 9.87601 16.7069C9.90401 16.7318 9.86401 16.7532 9.87601 16.7692C9.88801 16.7853 9.97602 16.8565 9.98602 16.8743C9.99602 16.8921 9.95805 16.9046 9.96205 16.9242C9.96605 16.9438 10.054 17.0489 10.056 17.0881C10.058 17.1273 10.006 17.1754 9.99403 17.2022C9.98203 17.2289 10.036 17.2716 10.038 17.2859C10.038 17.3322 9.95605 17.3874 9.96005 17.4142C9.96405 17.4409 9.98403 17.4391 9.98803 17.4534C9.99497 17.4803 10.0065 17.5061 10.0221 17.53C10.0401 17.5567 10.0561 17.5888 10.0741 17.6119C10.0921 17.6351 10.22 17.6868 10.26 17.7901C10.26 17.8008 10.26 17.9273 10.26 17.938C10.26 17.9487 10.288 17.9576 10.296 17.9665C10.304 17.9754 10.342 18.0947 10.348 18.1143C10.354 18.1339 10.348 18.1643 10.348 18.1874C10.38 18.2694 10.418 18.2676 10.456 18.3175C10.4823 18.4277 10.4661 18.5426 10.41 18.6435C10.41 18.6435 10.3841 18.656 10.3741 18.6613C10.3641 18.6667 10.346 18.6952 10.33 18.7148C10.208 18.6738 10.228 18.7754 10.158 18.8164H10.098C10.162 18.9221 10.2085 19.0355 10.236 19.1531C10.2667 19.2006 10.3051 19.2438 10.35 19.2813C10.366 19.2974 10.426 19.3579 10.45 19.3597C10.474 19.3615 10.474 19.3437 10.482 19.3384C10.49 19.333 10.55 19.2903 10.584 19.2653C10.618 19.2404 10.6061 19.2279 10.6201 19.2137C10.6495 19.1882 10.689 19.1739 10.73 19.1739C10.7711 19.1739 10.8105 19.1882 10.84 19.2137C10.855 19.2275 10.8654 19.2448 10.8701 19.2635C10.8701 19.2742 10.886 19.3098 10.898 19.3152C11.0013 19.2848 11.0994 19.2422 11.19 19.1887C11.202 19.1887 11.2081 19.1548 11.2181 19.1495C11.2281 19.1442 11.262 19.1709 11.286 19.1495C11.31 19.1281 11.286 19.08 11.304 19.0568C11.342 18.9945 11.368 19.023 11.396 18.9963C11.424 18.9696 11.484 18.8733 11.534 18.8324C11.552 18.8145 11.654 18.8003 11.652 18.786C11.65 18.7718 11.526 18.6952 11.504 18.6774C11.482 18.6596 11.476 18.6453 11.46 18.6293C11.362 18.5259 11.5321 18.5616 11.5161 18.4511C11.4891 18.3945 11.4577 18.3398 11.4221 18.2872C11.4121 18.2765 11.394 18.2711 11.388 18.2605C11.3801 18.2355 11.3755 18.2098 11.3741 18.1839C11.3779 18.1199 11.3866 18.0562 11.4 17.9932C11.4 17.9718 11.368 17.9095 11.378 17.8899C11.388 17.8703 11.474 17.799 11.492 17.7509C11.492 17.7349 11.432 17.701 11.45 17.6636C11.4786 17.6466 11.5087 17.6317 11.54 17.6191C11.5475 17.613 11.5536 17.6057 11.558 17.5977C11.5854 17.5665 11.6155 17.5373 11.648 17.5104C11.648 17.5104 11.638 17.4943 11.638 17.4908V17.4694C11.6506 17.4457 11.6708 17.4258 11.696 17.4124C11.7231 17.4096 11.7504 17.4146 11.7741 17.4266C11.8361 17.4266 11.89 17.4124 11.95 17.4052C12.052 17.3946 12.04 17.2894 12.08 17.2823C12.1518 17.2761 12.2242 17.2761 12.296 17.2823C12.3234 17.2913 12.3515 17.2985 12.38 17.3037C12.3997 17.3026 12.4182 17.2949 12.432 17.2823C12.45 17.2663 12.4561 17.2485 12.4701 17.2342C12.4841 17.22 12.598 17.138 12.598 17.1362C12.6077 17.1004 12.6204 17.0653 12.636 17.0311C12.654 17.0311 12.666 17.0436 12.682 17.0311C12.698 17.0187 12.78 16.9527 12.806 16.9438C12.832 16.9349 12.936 16.9581 12.99 16.9438C13.014 16.9438 13.03 16.9224 13.056 16.9189C13.082 16.9153 13.092 16.9189 13.1 16.9189C13.108 16.9189 13.122 16.9011 13.134 16.8921L13.16 16.8814C13.264 16.8619 13.262 16.8333 13.294 16.8262C13.326 16.8191 13.338 16.8262 13.356 16.8262L13.4201 16.812C13.4201 16.812 13.42 16.7941 13.434 16.7888C13.464 16.7567 13.506 16.7371 13.536 16.7033C13.536 16.7033 13.566 16.7033 13.582 16.7033C13.598 16.7033 13.642 16.6035 13.68 16.575C13.718 16.5465 13.8 16.5305 13.858 16.4913C13.916 16.4521 13.93 16.4076 13.99 16.3701C14.002 16.3701 14.024 16.3701 14.038 16.3701C14.0573 16.3693 14.0767 16.3693 14.096 16.3701C14.096 16.3701 14.1141 16.3951 14.1221 16.4022C14.1302 16.4086 14.1397 16.4134 14.15 16.4165C14.1603 16.4195 14.1712 16.4207 14.182 16.42C14.2697 16.4259 14.3567 16.4385 14.442 16.4574C14.468 16.4717 14.4621 16.5376 14.4681 16.5572C14.4741 16.5768 14.5041 16.5893 14.5201 16.6071C14.5361 16.6249 14.5201 16.6427 14.5201 16.6534C14.542 16.6923 14.5735 16.7264 14.612 16.7532C14.648 16.7728 14.664 16.8565 14.682 16.8868C14.7 16.9171 14.796 16.9723 14.806 17.0222C14.8083 17.0731 14.7995 17.124 14.78 17.1719C14.7901 17.1989 14.8029 17.2252 14.8181 17.2503C14.8641 17.2716 14.83 17.3037 14.85 17.3144C14.87 17.3251 14.894 17.2966 14.91 17.3019C14.9466 17.3096 14.9827 17.3191 15.0181 17.3304C15.0301 17.3304 15.038 17.3465 15.052 17.3465C15.066 17.3465 15.104 17.3251 15.128 17.3215C15.152 17.318 15.188 17.3304 15.204 17.3215C15.22 17.3126 15.268 17.2467 15.328 17.2467C15.338 17.2467 15.374 17.2467 15.38 17.2467C15.386 17.2467 15.394 17.1558 15.434 17.1558C15.528 17.1558 15.42 17.2627 15.478 17.261C15.5 17.261 15.596 17.2218 15.592 17.2039C15.588 17.1861 15.544 17.1469 15.542 17.1398C15.54 17.1327 15.558 17.1202 15.542 17.1024C15.526 17.0846 15.512 17.1024 15.508 17.0881C15.474 17.0347 15.508 17.0525 15.446 16.9919C15.446 16.9919 15.462 16.9687 15.446 16.9563C15.43 16.9438 15.394 16.9313 15.396 16.9135C15.398 16.8957 15.436 16.9028 15.448 16.8939C15.4579 16.8798 15.4647 16.864 15.4681 16.8476C15.4681 16.8369 15.532 16.787 15.546 16.7674C15.56 16.7478 15.516 16.7122 15.534 16.6801C15.574 16.6035 15.708 16.5625 15.644 16.4521C15.6405 16.4467 15.6387 16.4405 15.6387 16.4343C15.6387 16.428 15.6405 16.4219 15.644 16.4165L15.656 16.3986C15.686 16.3523 15.704 16.4218 15.728 16.3986C15.752 16.3755 15.7801 16.3113 15.8181 16.2739C15.8561 16.2365 15.8801 16.2525 15.9141 16.2312C15.9481 16.2098 15.9441 16.1759 15.9721 16.1439C15.989 16.1269 16.0077 16.1114 16.028 16.0975C16.028 16.0779 16.002 16.0566 16.04 16.0459C16.078 16.0352 16.082 16.0583 16.104 16.0583C16.126 16.0583 16.136 16.0334 16.158 16.0334C16.256 16.0334 16.27 16.11 16.332 16.1545C16.446 16.2347 16.532 16.1634 16.478 16.0619C16.46 16.0227 16.404 16.0085 16.398 15.9621C16.392 15.9158 16.468 15.8855 16.484 15.857C16.5 15.8285 16.428 15.8089 16.456 15.7893C16.532 15.7359 16.532 15.8534 16.634 15.8196C16.688 15.8036 16.5981 15.7269 16.7241 15.7341C16.7861 15.7341 16.768 15.7822 16.808 15.8071C16.848 15.832 16.916 15.7679 16.958 15.8232C16.9794 15.8502 16.9981 15.8788 17.0141 15.9087C17.0141 15.939 17.048 16.0655 17.084 16.0868C17.154 16.1082 17.158 16.0583 17.206 16.0369C17.254 16.0156 17.252 16.0762 17.296 16.0583C17.34 16.0405 17.318 16.0316 17.334 16.0209C17.35 16.0102 17.376 16.0209 17.396 16.0085C17.416 15.996 17.45 15.9247 17.51 15.914C17.4953 15.8641 17.4731 15.8161 17.444 15.7715C17.4152 15.7452 17.3885 15.7173 17.3641 15.6877C17.3341 15.6575 17.334 15.6218 17.328 15.5523C17.3301 15.541 17.3271 15.5294 17.3196 15.52C17.3121 15.5107 17.3008 15.5043 17.288 15.5024C17.2753 15.5006 17.2622 15.5032 17.2517 15.5099C17.2412 15.5166 17.2341 15.5267 17.232 15.5381C17.232 15.5719 17.188 15.5773 17.146 15.5773C17.104 15.5773 17.104 15.547 17.104 15.5167C17.104 15.4963 17.0983 15.4761 17.0875 15.4581C17.0767 15.4401 17.0611 15.4247 17.042 15.4134C17 15.3938 17.006 15.3385 17.012 15.3136C17.0129 15.2907 17.0237 15.269 17.042 15.253C17.066 15.2334 17.08 15.2334 17.086 15.1728C17.092 15.1122 17.042 15.1194 17.054 15.0588C17.066 14.9982 17.152 15.0285 17.182 15.0731C17.212 15.1176 17.31 15.0731 17.352 15.0731C17.394 15.0731 17.408 15.0392 17.384 15.0143C17.36 14.9893 17.4141 14.959 17.4141 14.959C17.4354 14.9434 17.4598 14.9313 17.486 14.9234C17.516 14.9234 17.572 14.9234 17.578 14.9483C17.584 14.9733 17.5901 14.9787 17.6201 14.9893C17.6402 14.9954 17.6619 14.996 17.6825 14.9913C17.703 14.9865 17.7217 14.9766 17.736 14.9626C17.772 14.9287 17.784 14.9394 17.784 14.9091C17.784 14.8789 17.7841 14.8593 17.8141 14.8432C17.8441 14.8272 17.834 14.829 17.834 14.7898C17.834 14.7506 17.852 14.7488 17.888 14.7345C17.924 14.7203 17.924 14.7132 17.942 14.6793C17.96 14.6455 17.93 14.6348 17.882 14.6348C17.834 14.6348 17.87 14.6045 17.882 14.5635C17.894 14.5225 17.864 14.519 17.834 14.5047C17.804 14.4904 17.784 14.4103 17.76 14.3853C17.7499 14.376 17.7442 14.3636 17.7442 14.3506C17.7442 14.3376 17.7499 14.3252 17.76 14.3159C17.7723 14.2976 17.7892 14.2822 17.8093 14.2707C17.8294 14.2593 17.8523 14.2522 17.876 14.2499C17.936 14.2499 17.924 14.2054 17.93 14.1805C17.936 14.1555 18.01 14.1448 18.01 14.1448C18.01 14.1448 18.01 14.0914 18.046 14.086C18.082 14.0807 18.082 14.0611 18.082 14.0397C18.082 14.0183 18.112 13.9863 18.13 13.9649C18.1397 13.9547 18.1521 13.9467 18.1661 13.9418C18.18 13.9368 18.1951 13.9349 18.21 13.9364C18.252 13.9364 18.2581 13.8758 18.2641 13.8366C18.2701 13.7974 18.32 13.7921 18.344 13.8259C18.368 13.8598 18.392 13.8651 18.392 13.8259C18.3924 13.8119 18.3894 13.7979 18.3832 13.785C18.377 13.7721 18.3677 13.7605 18.356 13.7511C18.3348 13.7333 18.3166 13.713 18.302 13.6905C18.29 13.6656 18.2701 13.6014 18.3141 13.605C18.3581 13.6086 18.362 13.605 18.386 13.5551C18.41 13.5052 18.502 13.5355 18.538 13.5408C18.574 13.5462 18.594 13.5551 18.6 13.5159C18.606 13.4767 18.648 13.4909 18.684 13.4909C18.72 13.4909 18.738 13.4357 18.702 13.425C18.666 13.4144 18.7021 13.3663 18.7141 13.3413C18.721 13.3266 18.7312 13.3132 18.744 13.3021L18.69 13.2273C18.6787 13.2014 18.6574 13.1799 18.63 13.1667C18.58 13.1417 18.574 13.0723 18.6 13.0616C18.626 13.0509 18.654 13.0313 18.678 13.0473C18.702 13.0633 18.714 12.9868 18.738 12.9725C18.762 12.9582 18.764 12.9368 18.738 12.903C18.712 12.8691 18.7521 12.8282 18.7701 12.8068C18.7845 12.7943 18.8039 12.7873 18.8241 12.7872L18.878 12.7979C18.878 12.7979 18.934 12.7872 18.94 12.7623C18.9405 12.7565 18.9423 12.7508 18.9453 12.7457C18.9484 12.7405 18.9526 12.736 18.9576 12.7323C18.9627 12.7286 18.9685 12.7259 18.9747 12.7243C18.981 12.7228 18.9876 12.7223 18.994 12.723C19.03 12.723 19.0301 12.7034 19.0181 12.6785C19.0061 12.6536 19 12.6269 18.934 12.6126Z" fill="#DEA748"/>
<path d="M12.826 6.31777L13.674 5.76905L14.52 6.31777L14.196 5.43229L15.042 4.88353H13.996L13.674 3.99805L13.35 4.88353H12.304L13.15 5.43229L12.826 6.31777Z" fill="white"/>
<path d="M16.122 6.83616L16.97 6.28739L17.816 6.83616L17.492 5.94889L18.338 5.40191H17.292L16.97 4.51465L16.646 5.40191H15.6L16.446 5.94889L16.122 6.83616Z" fill="white"/>
<path d="M20.438 6.42112L20.114 5.53564L19.79 6.42112H18.744L19.59 6.96989L19.268 7.85537L20.114 7.3066L20.96 7.85537L20.638 6.96989L21.4839 6.42112H20.438Z" fill="white"/>
<path d="M9.48003 6.31777L10.326 5.76905L11.1721 6.31777L10.85 5.43229L11.696 4.88353H10.65L10.326 3.99805L10.0041 4.88353H8.95605L9.80405 5.43229L9.48003 6.31777Z" fill="white"/>
<path d="M6.18395 6.83616L7.02994 6.28739L7.87794 6.83616L7.55397 5.94889L8.39996 5.40191H7.35397L7.02994 4.51465L6.70797 5.40191H5.65997L6.50797 5.94889L6.18395 6.83616Z" fill="white"/>
<path d="M4.20999 6.42112L3.88596 5.53564L3.56199 6.42112H2.51599L3.36199 6.96989L3.03997 7.85537L3.88596 7.3066L4.73196 7.85537L4.40798 6.96989L5.25598 6.42112H4.20999Z" fill="white"/>
</g>
<defs>
<clipPath id="clip0_284_100832">
<rect width="24" height="21.3799" fill="white" transform="translate(0 0.938965)"/>
</clipPath>
</defs>
</svg>
