<svg width="24" height="23" viewBox="0 0 24 23" fill="none" xmlns="http://www.w3.org/2000/svg">
<g clip-path="url(#clip0_284_100843)">
<path d="M21.938 1.27242C22.3139 1.27289 22.6743 1.40614 22.9401 1.64293C23.2059 1.87972 23.3555 2.20076 23.356 2.53563V20.2417C23.3555 20.5766 23.2059 20.8976 22.9401 21.1344C22.6743 21.3712 22.3139 21.5045 21.938 21.505H2.06201C1.6861 21.5045 1.32572 21.3712 1.05991 21.1344C0.7941 20.8976 0.644523 20.5766 0.643994 20.2417V2.53563C0.644523 2.20076 0.7941 1.87972 1.05991 1.64293C1.32572 1.40614 1.6861 1.27289 2.06201 1.27242H21.938ZM21.938 0.69873H2.06201C1.5153 0.699202 0.991126 0.892892 0.604541 1.23727C0.217956 1.58166 0.000529505 2.0486 0 2.53563V20.2417C0.000529505 20.7288 0.217956 21.1957 0.604541 21.5401C0.991126 21.8845 1.5153 22.0782 2.06201 22.0786H21.938C22.4845 22.0777 23.0084 21.8839 23.3949 21.5396C23.7813 21.1953 23.9989 20.7286 24 20.2417V2.53563C23.9995 2.0486 23.782 1.58166 23.3955 1.23727C23.0089 0.892892 22.4847 0.699202 21.938 0.69873Z" fill="#CAB99E"/>
<path d="M0.643951 20.2419C0.644481 20.5768 0.794057 20.8978 1.05987 21.1346C1.32568 21.3714 1.68605 21.5047 2.06197 21.5051H21.9379C22.3139 21.5047 22.6742 21.3714 22.94 21.1346C23.2059 20.8978 23.3554 20.5768 23.356 20.2419V13.5269H0.643951V20.2419Z" fill="#B72D36"/>
<path d="M21.9379 1.27246H2.06197C1.68605 1.27293 1.32568 1.40618 1.05987 1.64297C0.794057 1.87977 0.644481 2.2008 0.643951 2.53567V9.25074H23.356V2.54459C23.357 2.37802 23.3211 2.2129 23.2503 2.05872C23.1796 1.90454 23.0754 1.7643 22.9436 1.6461C22.8119 1.52791 22.6552 1.43406 22.4826 1.36994C22.31 1.30582 22.1249 1.27269 21.9379 1.27246Z" fill="#B72D36"/>
<path d="M23.356 9.2417H0.643951V13.5212H23.356V9.2417Z" fill="white"/>
</g>
<defs>
<clipPath id="clip0_284_100843">
<rect width="24" height="21.3799" fill="white" transform="translate(0 0.69873)"/>
</clipPath>
</defs>
</svg>
