<svg width="24" height="23" viewBox="0 0 24 23" fill="none" xmlns="http://www.w3.org/2000/svg">
<g clip-path="url(#clip0_284_100816)">
<path d="M21.938 1.27242C22.3139 1.27289 22.6743 1.40614 22.9401 1.64293C23.2059 1.87972 23.3555 2.20076 23.356 2.53563V20.2417C23.3555 20.5766 23.2059 20.8976 22.9401 21.1344C22.6743 21.3712 22.3139 21.5045 21.938 21.505H2.06201C1.6861 21.5045 1.32572 21.3712 1.05991 21.1344C0.7941 20.8976 0.644523 20.5766 0.643994 20.2417V2.53563C0.644523 2.20076 0.7941 1.87972 1.05991 1.64293C1.32572 1.40614 1.6861 1.27289 2.06201 1.27242H21.938ZM21.938 0.69873H2.06201C1.5153 0.699202 0.991126 0.892892 0.604541 1.23727C0.217956 1.58166 0.000529505 2.0486 0 2.53563V20.2417C0.000529505 20.7288 0.217956 21.1957 0.604541 21.5401C0.991126 21.8845 1.5153 22.0782 2.06201 22.0786H21.938C22.4845 22.0777 23.0084 21.8839 23.3949 21.5396C23.7813 21.1953 23.9989 20.7286 24 20.2417V2.53563C23.9995 2.0486 23.782 1.58166 23.3955 1.23727C23.0089 0.892892 22.4847 0.699202 21.938 0.69873Z" fill="#CAB99E"/>
<path d="M11.534 8.16391L9.73401 1.27246H2.06804C1.69213 1.27293 1.33175 1.40618 1.06594 1.64297C0.80013 1.87977 0.650553 2.2008 0.650024 2.53567V4.06078L9.20203 9.30776C9.78948 8.678 10.6225 8.26937 11.534 8.16391Z" fill="#E31C0E"/>
<path d="M8.36794 11.7109L0.643921 12.4004V16.4466L8.73391 12.8423C8.53492 12.4884 8.41088 12.1049 8.36794 11.7109Z" fill="#E31C0E"/>
<path d="M9.20007 13.4697L0.648071 18.7167V20.2418C0.6486 20.5767 0.798177 20.8977 1.06399 21.1345C1.3298 21.3713 1.69017 21.5046 2.06609 21.505H9.73206L11.5321 14.6136C10.6208 14.5074 9.78804 14.0989 9.20007 13.4697Z" fill="#E31C0E"/>
<path d="M23.356 20.2418V18.7167L14.8 13.4697C14.2106 14.1001 13.3754 14.5087 12.462 14.6136L14.262 21.505H21.928C22.115 21.506 22.3003 21.474 22.4734 21.4109C22.6465 21.3479 22.8039 21.2551 22.9366 21.1377C23.0693 21.0203 23.1746 20.8808 23.2466 20.727C23.3186 20.5733 23.3558 20.4084 23.356 20.2418Z" fill="#E31C0E"/>
<path d="M15.266 12.8423L23.356 16.4466V12.4004L15.632 11.7109C15.589 12.1049 15.465 12.4884 15.266 12.8423Z" fill="#E31C0E"/>
<path d="M15.632 11.0644L23.356 10.3767V6.33057L15.266 9.93486C15.4647 10.2882 15.5888 10.6711 15.632 11.0644Z" fill="#E31C0E"/>
<path d="M8.73391 9.93486L0.643921 6.33057V10.3767L8.36794 11.0644C8.41113 10.6711 8.53516 10.2882 8.73391 9.93486Z" fill="#E31C0E"/>
<path d="M14.7999 9.30776L23.3519 4.06078V2.53567C23.3514 2.2008 23.2018 1.87977 22.936 1.64297C22.6702 1.40618 22.3098 1.27293 21.9339 1.27246H14.268L12.468 8.16391C13.3795 8.26937 14.2125 8.678 14.7999 9.30776Z" fill="#E31C0E"/>
<path d="M14.8 13.4697L23.352 18.7167V16.4468L15.262 12.8425C15.461 12.4887 15.585 12.1052 15.6279 11.7112L23.352 12.4007V10.3768L15.6279 11.0645C15.5847 10.6711 15.4607 10.2882 15.262 9.93491L23.352 6.33062V4.06078L14.8 9.30776C14.211 8.67683 13.3756 8.26808 12.462 8.16391L14.262 1.27246H9.71797L11.518 8.16391C10.6043 8.26808 9.76885 8.67683 9.17993 9.30776L0.62793 4.06078V6.33062L8.71797 9.93491C8.51922 10.2882 8.39513 10.6711 8.35195 11.0645L0.62793 10.3768V12.4007L8.35195 11.7112C8.39489 12.1052 8.51898 12.4887 8.71797 12.8425L0.62793 16.4468V18.7167L9.17993 13.4697C9.76937 14.1001 10.6046 14.5087 11.518 14.6135L9.71797 21.505H14.262L12.462 14.6135C13.3754 14.5087 14.2105 14.1001 14.8 13.4697Z" fill="#FFE700"/>
</g>
<defs>
<clipPath id="clip0_284_100816">
<rect width="24" height="21.3799" fill="white" transform="translate(0 0.69873)"/>
</clipPath>
</defs>
</svg>
