<svg width="24" height="23" viewBox="0 0 24 23" fill="none" xmlns="http://www.w3.org/2000/svg">
<g clip-path="url(#clip0_284_100792)">
<path d="M21.938 1.27242C22.3139 1.27289 22.6743 1.40614 22.9401 1.64293C23.2059 1.87972 23.3555 2.20076 23.356 2.53563V20.2417C23.3555 20.5766 23.2059 20.8976 22.9401 21.1344C22.6743 21.3712 22.3139 21.5045 21.938 21.505H2.06201C1.6861 21.5045 1.32572 21.3712 1.05991 21.1344C0.7941 20.8976 0.644523 20.5766 0.643994 20.2417V2.53563C0.644523 2.20076 0.7941 1.87972 1.05991 1.64293C1.32572 1.40614 1.6861 1.27289 2.06201 1.27242H21.938ZM21.938 0.69873H2.06201C1.5153 0.699202 0.991126 0.892892 0.604541 1.23727C0.217956 1.58166 0.000529505 2.0486 0 2.53563V20.2417C0.000529505 20.7288 0.217956 21.1957 0.604541 21.5401C0.991126 21.8845 1.5153 22.0782 2.06201 22.0786H21.938C22.4845 22.0777 23.0084 21.8839 23.3949 21.5396C23.7813 21.1953 23.9989 20.7286 24 20.2417V2.53563C23.9995 2.0486 23.782 1.58166 23.3955 1.23727C23.0089 0.892892 22.4847 0.699202 21.938 0.69873Z" fill="#CAB99E"/>
<path d="M2.06194 1.27246C1.68602 1.27293 1.32565 1.40618 1.05984 1.64297C0.794027 1.87977 0.64445 2.2008 0.643921 2.53567V20.2418C0.64445 20.5767 0.794027 20.8977 1.05984 21.1345C1.32565 21.3713 1.68602 21.5045 2.06194 21.505H11.9999V1.27246H2.06194ZM6.09993 5.27049C6.08798 5.40871 6.0209 5.53859 5.91086 5.63661C5.80083 5.73464 5.65508 5.79435 5.49993 5.80499V7.42454H3.68191V5.80499C3.52675 5.79435 3.38101 5.73464 3.27097 5.63661C3.16093 5.53859 3.09386 5.40871 3.08191 5.27049H1.26394V3.64921H3.08191C3.09346 3.51086 3.16042 3.3808 3.27053 3.2827C3.38065 3.1846 3.52661 3.125 3.68191 3.11471V1.49517H5.49993V3.11471C5.65523 3.125 5.80124 3.1846 5.91135 3.2827C6.02147 3.3808 6.08838 3.51086 6.09993 3.64921H7.91794V5.27049H6.09993Z" fill="white"/>
<path d="M21.938 1.27246H12V21.505H21.938C22.3139 21.5045 22.6743 21.3713 22.9401 21.1345C23.2059 20.8977 23.3555 20.5767 23.356 20.2418V2.53567C23.3555 2.2008 23.2059 1.87977 22.9401 1.64297C22.6743 1.40618 22.3139 1.27293 21.938 1.27246Z" fill="#F00C27"/>
<path d="M6.10002 3.64916C6.08847 3.51081 6.02157 3.38074 5.91145 3.28265C5.80133 3.18455 5.65532 3.12495 5.50002 3.11466V1.49512H3.68201V3.11466C3.52671 3.12495 3.38075 3.18455 3.27063 3.28265C3.16051 3.38074 3.09356 3.51081 3.08201 3.64916H1.26404V5.27044H3.08201C3.09396 5.40866 3.16103 5.53854 3.27107 5.63656C3.38111 5.73459 3.52685 5.79429 3.68201 5.80494V7.42449H5.50002V5.80494C5.65518 5.79429 5.80092 5.73459 5.91096 5.63656C6.021 5.53854 6.08807 5.40866 6.10002 5.27044H7.91804V3.64916H6.10002ZM7.79802 5.16179H5.978C5.98094 5.18845 5.98094 5.21529 5.978 5.24195C6.00151 5.30474 6.00493 5.3721 5.98787 5.43652C5.9708 5.50093 5.93396 5.55984 5.88142 5.60664C5.82889 5.65343 5.76276 5.6863 5.69045 5.7015C5.61815 5.7167 5.54252 5.71365 5.47205 5.69272C5.44208 5.69447 5.41197 5.69447 5.38201 5.69272V7.31226H3.80002V5.69272C3.77006 5.69456 3.74 5.69456 3.71003 5.69272C3.64026 5.7211 3.56193 5.72829 3.48713 5.71316C3.41233 5.69803 3.34519 5.66143 3.29602 5.60898C3.23737 5.56542 3.19655 5.50582 3.17991 5.43943C3.16327 5.37304 3.17175 5.3036 3.20403 5.24195C3.19774 5.21559 3.19438 5.18874 3.19402 5.16179H1.37405V3.75782H3.19402C3.19438 3.73086 3.19774 3.70402 3.20403 3.67765C3.18102 3.61497 3.178 3.54782 3.19529 3.48369C3.21258 3.41957 3.24948 3.36098 3.30193 3.31445C3.35438 3.26791 3.42031 3.23525 3.49236 3.2201C3.56441 3.20495 3.63976 3.20793 3.71003 3.22867C3.73955 3.22237 3.76969 3.21878 3.80002 3.21797V1.59847H5.37405V3.21797C5.40437 3.2189 5.4345 3.22249 5.46404 3.22867C5.53431 3.20793 5.60967 3.20495 5.68171 3.2201C5.75376 3.23525 5.81965 3.26791 5.87209 3.31445C5.92454 3.36098 5.9615 3.41957 5.97878 3.48369C5.99607 3.54782 5.99305 3.61497 5.97004 3.67765C5.97299 3.70431 5.97299 3.73116 5.97004 3.75782H7.79001L7.79802 5.16179Z" fill="#FF052B"/>
<path d="M3.76797 3.28229C3.79757 3.27669 3.8277 3.2737 3.85796 3.27338V1.65209H5.31196V3.27338C5.34156 3.2736 5.37105 3.27659 5.39995 3.28229C5.40699 3.2717 5.41573 3.26211 5.42593 3.2538C5.43651 3.24398 5.44867 3.23555 5.46196 3.22883C5.43243 3.22266 5.40229 3.21907 5.37197 3.21813V1.59863H3.79995V3.21813C3.76962 3.21895 3.73947 3.22254 3.70996 3.22883C3.72325 3.23555 3.73536 3.24398 3.74595 3.2538C3.75538 3.26187 3.76289 3.27155 3.76797 3.28229Z" fill="#9C877D"/>
<path d="M3.26206 5.18679C3.2601 5.16069 3.2601 5.13451 3.26206 5.10841H1.44404V3.81136H3.26206C3.26021 3.78525 3.26021 3.75908 3.26206 3.73298C3.25092 3.72643 3.24021 3.71927 3.23003 3.71158C3.21897 3.70151 3.20957 3.69012 3.20205 3.67773C3.19577 3.7041 3.19241 3.73095 3.19204 3.7579H1.37207V5.16187H3.19204C3.19241 5.18882 3.19577 5.21567 3.20205 5.24204C3.20908 5.2299 3.21855 5.21903 3.23003 5.20998L3.26206 5.18679Z" fill="#9C877D"/>
<path d="M5.96803 3.67773C5.96051 3.69012 5.95106 3.70151 5.94 3.71158C5.92982 3.71927 5.91916 3.72643 5.90802 3.73298C5.9142 3.75876 5.91756 3.785 5.91803 3.81136H7.736V5.10841H5.91803C5.91766 5.13478 5.9143 5.16103 5.90802 5.18679L5.94 5.20998C5.95089 5.21951 5.96034 5.23029 5.96803 5.24204C5.97097 5.21538 5.97097 5.18853 5.96803 5.16187H7.788V3.7579H5.96803C5.97097 3.73124 5.97097 3.7044 5.96803 3.67773Z" fill="#9C877D"/>
<path d="M5.4 5.6377C5.37117 5.64399 5.34168 5.64759 5.31201 5.6484V7.26794H3.85801V5.6484C3.82769 5.64746 3.79755 5.64387 3.76802 5.6377C3.76187 5.64886 3.75374 5.65907 3.74399 5.66797C3.73288 5.67725 3.72084 5.68563 3.70801 5.69294C3.73797 5.69478 3.76803 5.69478 3.798 5.69294V7.31248H5.37202V5.69294C5.40199 5.69469 5.43204 5.69469 5.46201 5.69294C5.44918 5.68563 5.43709 5.67725 5.42598 5.66797C5.41622 5.65866 5.40753 5.64853 5.4 5.6377Z" fill="#9C877D"/>
<path d="M3.51608 4.14264C3.52174 4.12883 3.52174 4.11369 3.51608 4.09988C3.51401 4.09431 3.51061 4.08918 3.50612 4.08487C3.50164 4.08057 3.49614 4.07717 3.49006 4.07491C3.47838 4.07138 3.46574 4.07138 3.45407 4.07491C3.44314 4.08057 3.43466 4.08939 3.43005 4.09988C3.42957 4.107 3.42957 4.11412 3.43005 4.12124L3.51408 4.14977L3.51608 4.14264Z" fill="#CCCCCC"/>
<path d="M3.45599 4.4739C3.48458 4.47706 3.5135 4.47143 3.53798 4.45789C3.54538 4.45356 3.55158 4.44777 3.55609 4.44097C3.5606 4.43418 3.56332 4.42653 3.564 4.41866C3.56471 4.40994 3.56309 4.40122 3.55926 4.39317C3.55544 4.38511 3.5495 4.37799 3.54198 4.37238C3.52135 4.35682 3.49503 4.34855 3.46801 4.34919C3.43876 4.34561 3.409 4.3513 3.38397 4.36524C3.37603 4.36992 3.36951 4.37627 3.36498 4.38373C3.36044 4.39119 3.35806 4.39952 3.358 4.408C3.35751 4.41601 3.35907 4.424 3.36254 4.4314C3.366 4.4388 3.37125 4.44542 3.37797 4.45076C3.39992 4.4667 3.42769 4.47492 3.45599 4.4739Z" fill="#CCCCCC"/>
<path d="M3.69397 5.28125C3.74834 5.32527 3.785 5.38397 3.79836 5.44832C3.81173 5.51268 3.80109 5.57915 3.76799 5.63758C3.79753 5.64376 3.82766 5.64735 3.85798 5.64828V7.26783H5.31199V5.64828C5.34166 5.64747 5.37114 5.64388 5.39998 5.63758C5.36778 5.57884 5.35776 5.51238 5.37146 5.44815C5.38516 5.38393 5.42181 5.32538 5.47595 5.28125C5.23739 5.48793 4.91776 5.60357 4.58499 5.60357C4.25221 5.60357 3.93254 5.48793 3.69397 5.28125Z" fill="#CCCCCC"/>
<path d="M5.70206 4.37767C5.70113 4.39268 5.70689 4.4074 5.71808 4.41865C5.72237 4.42258 5.7275 4.42574 5.73317 4.42787C5.73884 4.43001 5.74488 4.43109 5.75104 4.43109C5.75719 4.43109 5.76329 4.43001 5.76896 4.42787C5.77463 4.42574 5.77976 4.42258 5.78405 4.41865C5.78845 4.41471 5.79183 4.40997 5.79391 4.40473C5.79599 4.39949 5.79671 4.3939 5.79606 4.38838C5.79674 4.38067 5.79674 4.37294 5.79606 4.36523L5.70206 4.37767Z" fill="#CCCCCC"/>
<path d="M4.26804 3.44775L4.25403 3.53327L4.326 3.51548L4.26804 3.44775Z" fill="#CCCCCC"/>
<path d="M5.25995 3.60107L5.17792 3.64562L5.23793 3.68302L5.25995 3.60107Z" fill="#CCCCCC"/>
<path d="M4.85206 4.02887C4.87421 4.01184 4.89495 3.99337 4.91407 3.97363C4.88599 3.98846 4.85458 3.99761 4.82208 4.00038L4.85206 4.02887Z" fill="#CCCCCC"/>
<path d="M4.59995 3.9288C4.59995 3.93949 4.56996 3.96089 4.55396 3.95733H4.54395L4.57793 3.97334V3.96268L4.61396 3.93593L4.62593 3.91992L4.59995 3.9288Z" fill="#CCCCCC"/>
<path d="M4.41202 3.88946H4.42599H4.45001H4.46403C4.45371 3.87828 4.44558 3.86564 4.44 3.85205C4.42109 3.85982 4.40357 3.87005 4.388 3.88237H4.41002L4.41202 3.88946Z" fill="#CCCCCC"/>
<path d="M4.18799 3.85247L4.27598 3.86754C4.24869 3.85688 4.21953 3.85112 4.18999 3.85059L4.18799 3.85247Z" fill="#CCCCCC"/>
<path d="M4.41005 4.35094C4.36412 4.30955 4.3352 4.25554 4.32802 4.19769C4.31277 4.18385 4.30184 4.16675 4.29623 4.14802C4.29062 4.12929 4.29055 4.10958 4.29604 4.09082C4.26392 4.11913 4.22586 4.14151 4.18402 4.15672C4.17026 4.17284 4.15412 4.18722 4.13603 4.19948C4.12765 4.21439 4.12357 4.23092 4.12406 4.24759C4.12686 4.25789 4.134 4.26686 4.14403 4.27255C4.14403 4.27255 4.15603 4.29392 4.14403 4.29926L4.27206 4.37234C4.3082 4.36178 4.34487 4.35283 4.38202 4.34559L4.41005 4.35094Z" fill="#CCCCCC"/>
<path d="M4.58398 4.72188C4.58497 4.72778 4.58497 4.73376 4.58398 4.73967C4.58398 4.74858 4.58399 4.75394 4.59399 4.75572H4.61401C4.65773 4.75695 4.70125 4.75026 4.74199 4.7361C4.77818 4.7558 4.81173 4.77914 4.84199 4.80561C4.87131 4.80771 4.89984 4.81496 4.92598 4.82697C4.91995 4.81721 4.91095 4.8092 4.9 4.80383C4.89721 4.80257 4.89414 4.80191 4.89102 4.80191C4.88789 4.80191 4.88477 4.80257 4.88198 4.80383C4.88198 4.80383 4.88198 4.79134 4.88198 4.78956C4.87232 4.78627 4.86166 4.78627 4.852 4.78956C4.85198 4.78421 4.8507 4.77893 4.84829 4.77403C4.84588 4.76913 4.84238 4.76472 4.83799 4.76107C4.83363 4.75918 4.82887 4.7582 4.82402 4.7582C4.81917 4.7582 4.81437 4.75918 4.81001 4.76107C4.81205 4.75685 4.81309 4.75231 4.81309 4.74772C4.81309 4.74312 4.81205 4.73854 4.81001 4.73432C4.79401 4.7165 4.754 4.71831 4.754 4.71831C4.75165 4.70782 4.74527 4.69835 4.73599 4.69156C4.70746 4.67548 4.67311 4.66977 4.63999 4.67555C4.68548 4.65737 4.73543 4.6498 4.78511 4.65354C4.83479 4.65728 4.8826 4.67219 4.92402 4.69691L4.94399 4.67734C4.93399 4.67734 4.92202 4.67732 4.91602 4.66485H4.904C4.88978 4.66489 4.87587 4.66116 4.86401 4.65415C4.86049 4.6443 4.86049 4.63373 4.86401 4.62388C4.83334 4.60409 4.80514 4.58137 4.77998 4.55615C4.75261 4.57488 4.72313 4.59101 4.69199 4.60426C4.66968 4.61467 4.64516 4.62076 4.62002 4.62209C4.60002 4.63991 4.61198 4.69515 4.58398 4.72188Z" fill="#CCCCCC"/>
<path d="M5.07004 4.77701C5.04982 4.75908 5.03468 4.7371 5.026 4.71289C5.026 4.73249 5.026 4.75031 5.026 4.76457C5.0366 4.77355 5.04664 4.78306 5.05603 4.79306L5.07004 4.77701Z" fill="#CCCCCC"/>
<path d="M4.60007 4.8217C4.62037 4.82247 4.64021 4.82736 4.65808 4.83596L4.72805 4.8217L4.79006 4.80926C4.78072 4.80252 4.77323 4.79397 4.76809 4.78429C4.76809 4.78429 4.76808 4.78429 4.75608 4.78429C4.74408 4.78429 4.75606 4.79321 4.74006 4.79321C4.73219 4.79502 4.72396 4.79502 4.71609 4.79321C4.67784 4.80388 4.63813 4.80989 4.59807 4.81104C4.58617 4.81298 4.57399 4.81298 4.56208 4.81104C4.55196 4.81862 4.53926 4.82297 4.52605 4.82348C4.51953 4.82527 4.51259 4.82527 4.50608 4.82348C4.49608 4.82348 4.49608 4.8021 4.50608 4.78251C4.50811 4.75751 4.50329 4.73246 4.49207 4.70947C4.49308 4.71597 4.49308 4.72259 4.49207 4.72909C4.48636 4.76059 4.46785 4.78912 4.44006 4.80926C4.45496 4.84097 4.48288 4.86643 4.51809 4.88051C4.52584 4.8658 4.53723 4.85285 4.55144 4.84266C4.56565 4.83247 4.58229 4.8253 4.60007 4.8217Z" fill="#CCCCCC"/>
<path d="M5.50604 3.66699C5.73792 3.87921 5.86766 4.16371 5.86766 4.45987C5.86766 4.75602 5.73792 5.04047 5.50604 5.2527C5.55601 5.20501 5.62183 5.17287 5.69384 5.161C5.76584 5.14914 5.84023 5.15814 5.90604 5.18675C5.91233 5.16099 5.91569 5.13473 5.91605 5.10837H7.73402V3.81132H5.91605C5.91558 3.78496 5.91222 3.75871 5.90604 3.73293C5.84037 3.76212 5.7658 3.77145 5.69364 3.75955C5.62148 3.74766 5.55564 3.71517 5.50604 3.66699Z" fill="#CCCCCC"/>
<path d="M5.54403 4.4597C5.54403 4.29056 5.48775 4.12521 5.38226 3.98457C5.27678 3.84394 5.12682 3.73429 4.9514 3.66956C4.77599 3.60484 4.58299 3.58794 4.39676 3.62093C4.21054 3.65393 4.03947 3.73535 3.90521 3.85495C3.77095 3.97455 3.67951 4.12695 3.64247 4.29284C3.60543 4.45873 3.62445 4.63066 3.69711 4.78693C3.76977 4.9432 3.8928 5.07678 4.05067 5.17075C4.20854 5.26472 4.39415 5.31486 4.58402 5.31486C4.83847 5.31439 5.08237 5.22416 5.26229 5.06388C5.44221 4.9036 5.5435 4.68636 5.54403 4.4597ZM4.00604 5.04583L4.22006 5.05653L3.95804 5.01912H4.15804L4.28602 5.0102L4.32601 4.96923L4.42801 4.95853C4.43882 4.94827 4.44824 4.93691 4.45604 4.92469C4.42196 4.90677 4.38354 4.8964 4.34403 4.89441C4.32603 4.89441 4.31404 4.8944 4.30804 4.88193C4.30204 4.86946 4.30804 4.84806 4.30804 4.82312C4.31467 4.79853 4.31467 4.7729 4.30804 4.7483C4.26243 4.73845 4.21972 4.72001 4.1828 4.69419C4.14588 4.66837 4.1156 4.63576 4.09403 4.59863C4.0829 4.60559 4.06964 4.60934 4.05604 4.60933C4.02944 4.60786 4.0038 4.59986 3.98202 4.58619C3.96484 4.57737 3.94574 4.57189 3.92601 4.57014C3.92383 4.56919 3.92146 4.5687 3.91903 4.5687C3.9166 4.5687 3.91423 4.56919 3.91205 4.57014C3.91205 4.57014 3.92803 4.59686 3.94403 4.6129C3.96003 4.62893 3.99003 4.65389 3.99003 4.67705C3.99003 4.70022 3.93806 4.73939 3.92406 4.74295C3.92617 4.75646 3.93317 4.76897 3.94403 4.77858H3.92406C3.92406 4.79105 3.94206 4.81957 3.92406 4.8356C3.90606 4.85164 3.88405 4.85344 3.86805 4.85344C3.86309 4.87459 3.86309 4.8964 3.86805 4.91755C3.86081 4.91599 3.85434 4.91239 3.84965 4.90724C3.84495 4.90209 3.84226 4.89569 3.84203 4.88906C3.84203 4.88906 3.84203 4.88905 3.84203 4.87836C3.83878 4.87931 3.83527 4.87931 3.83202 4.87836L3.81805 4.83917V4.8089L3.79603 4.79641C3.78816 4.78857 3.78383 4.77844 3.78383 4.76792C3.78383 4.7574 3.78816 4.74723 3.79603 4.73939C3.80695 4.73041 3.81902 4.72266 3.83202 4.71625C3.85402 4.70556 3.87401 4.69487 3.87801 4.68062C3.87995 4.67764 3.88099 4.67423 3.88099 4.67079C3.88099 4.66735 3.87995 4.66398 3.87801 4.661C3.84001 4.6129 3.81801 4.52382 3.87801 4.48284C3.88775 4.47627 3.89987 4.47309 3.91205 4.47392C3.94486 4.47689 3.97675 4.48538 4.00604 4.49889C4.03613 4.5122 4.06863 4.52062 4.10204 4.52381H4.11605C4.13139 4.47093 4.16853 4.42514 4.22006 4.39554L4.13002 4.32786H4.12006C4.12006 4.32786 4.10804 4.32786 4.10604 4.32786C4.10105 4.32815 4.09603 4.32729 4.09149 4.32542C4.08695 4.32355 4.08301 4.32073 4.08002 4.31716C4.07571 4.31624 4.07171 4.31449 4.06825 4.31202C4.06479 4.30956 4.06199 4.30643 4.06005 4.30289C4.06005 4.30289 4.06005 4.30288 4.06005 4.29219C4.04405 4.27793 4.02202 4.25477 4.03002 4.24586H4.04003H4.07206C4.07108 4.23103 4.07108 4.21616 4.07206 4.20132C4.05134 4.21468 4.03193 4.22958 4.01405 4.24586C3.98459 4.27637 3.9444 4.2971 3.90004 4.30467C3.8834 4.30335 3.86727 4.29883 3.85277 4.29145C3.83827 4.28407 3.82577 4.27401 3.81605 4.26191C3.82005 4.26152 3.82388 4.26037 3.82733 4.25852C3.83078 4.25668 3.83375 4.25417 3.83602 4.25121C3.83808 4.24481 3.83808 4.23804 3.83602 4.23164C3.81002 4.24055 3.79002 4.23164 3.78002 4.23164C3.77562 4.22391 3.77338 4.21534 3.77338 4.20667C3.77338 4.19801 3.77562 4.18948 3.78002 4.18175C3.78002 4.18175 3.78002 4.17104 3.78002 4.16213C3.78002 4.15322 3.79003 4.07661 3.84403 4.07126C3.83444 4.0495 3.83444 4.02534 3.84403 4.00358C3.84881 3.98952 3.85824 3.97704 3.87108 3.96783C3.88393 3.95861 3.89961 3.95307 3.91605 3.95191C3.92327 3.95025 3.93081 3.95025 3.93802 3.95191C3.9394 3.93727 3.94492 3.92317 3.95404 3.91093C3.99164 3.8947 4.0245 3.87089 4.05004 3.84142C4.05004 3.84142 4.06401 3.84146 4.07601 3.83255C4.10938 3.84548 4.14427 3.85502 4.18002 3.86104C4.19602 3.82541 4.24605 3.82363 4.26005 3.82363C4.26581 3.81353 4.27473 3.80514 4.28573 3.79945C4.29673 3.79376 4.30935 3.79103 4.32206 3.79157C4.33872 3.79213 4.35506 3.79574 4.37006 3.80223C4.38007 3.79618 4.39194 3.79309 4.40404 3.79336H4.43002C4.43748 3.7676 4.45428 3.74471 4.47777 3.72829C4.50127 3.71186 4.53018 3.70282 4.56005 3.70249C4.57798 3.70225 4.59577 3.70519 4.61239 3.71119C4.62901 3.71719 4.64414 3.72612 4.65682 3.73742C4.66951 3.74872 4.67948 3.76215 4.68622 3.77696C4.69296 3.79177 4.6963 3.80766 4.69603 3.82363H4.71805C4.72265 3.82265 4.72742 3.82265 4.73202 3.82363C4.7491 3.81231 4.76798 3.80328 4.78802 3.79688C4.79254 3.81146 4.79254 3.82685 4.78802 3.84142H4.80004C4.83796 3.84269 4.87559 3.84809 4.91205 3.85747C4.93959 3.86379 4.96768 3.86798 4.99603 3.86996C5.0098 3.89026 5.01412 3.91454 5.00804 3.93764C5.00661 3.94099 5.00419 3.94392 5.00101 3.94612C4.99784 3.94832 4.99402 3.94971 4.99003 3.95012C4.97749 3.95849 4.96322 3.96456 4.94803 3.96796C4.92167 3.99488 4.89364 4.02044 4.86405 4.04456C4.90205 4.08553 4.94402 4.13897 4.93402 4.1657C4.96118 4.18556 4.9848 4.20901 5.00404 4.23521C5.05065 4.21335 5.09259 4.18442 5.12801 4.14969C5.1693 4.15463 5.20927 4.16608 5.24603 4.18353C5.27038 4.19406 5.29586 4.2024 5.32206 4.20846L5.43402 4.2904C5.41837 4.29911 5.40045 4.30403 5.38202 4.30467C5.37197 4.30482 5.36212 4.30237 5.3536 4.29763C5.34508 4.29288 5.33827 4.28607 5.33402 4.27796C5.31602 4.2756 5.29889 4.26948 5.28402 4.26013C5.24691 4.23877 5.20417 4.22649 5.16005 4.22451H5.12406C5.11905 4.25141 5.10794 4.27713 5.09144 4.3001C5.07494 4.32307 5.05334 4.34281 5.02801 4.35813H5.06005C5.096 4.35692 5.13173 4.36363 5.16405 4.3777C5.21805 4.41868 5.30004 4.47392 5.30004 4.47392L5.37601 4.58797C5.35536 4.58938 5.33483 4.58424 5.318 4.57349C5.30118 4.56273 5.28914 4.54704 5.28402 4.52916C5.28402 4.53807 5.28406 4.54165 5.27006 4.54165C5.25606 4.54165 5.25803 4.54163 5.24803 4.52025C5.22857 4.48628 5.19878 4.45788 5.16205 4.4383H5.13602C5.12799 4.43867 5.11995 4.43761 5.11239 4.43516C5.10483 4.43272 5.09792 4.42891 5.09203 4.42403L5.04203 4.4383C4.98829 4.45685 4.93161 4.46766 4.87406 4.47035H4.84003L4.81605 4.47927C4.82605 4.49887 4.83403 4.51491 4.84203 4.52738C4.86144 4.54357 4.88217 4.55845 4.90404 4.57192L4.94803 4.60398C4.99803 4.55766 5.06404 4.50602 5.10404 4.50602H5.12206C5.07685 4.5483 5.04686 4.60164 5.03602 4.65922C5.03602 4.65922 5.03603 4.64673 5.04603 4.64317C5.0558 4.63648 5.0677 4.63277 5.08002 4.63251C5.10617 4.63586 5.13022 4.64718 5.14803 4.66457C5.1607 4.67627 5.17654 4.68485 5.19403 4.68949C5.1972 4.69067 5.20061 4.69128 5.20404 4.69128C5.20747 4.69128 5.21088 4.69067 5.21405 4.68949C5.21554 4.6864 5.2163 4.68308 5.2163 4.67971C5.2163 4.67634 5.21554 4.67302 5.21405 4.66992C5.19962 4.66195 5.18838 4.6501 5.18202 4.63608C5.16802 4.63608 5.14602 4.63607 5.13602 4.62538C5.13458 4.62258 5.13387 4.61954 5.13387 4.61646C5.13387 4.61339 5.13458 4.61034 5.13602 4.60755C5.11943 4.5969 5.1052 4.58361 5.09403 4.56835C5.1179 4.58235 5.14431 4.59258 5.17206 4.59863C5.15406 4.58794 5.12801 4.56838 5.12801 4.54878C5.12801 4.52918 5.18602 4.48105 5.18802 4.47927L5.21805 4.54343H5.25204C5.2674 4.56592 5.28141 4.58909 5.29403 4.6129C5.30467 4.61187 5.31538 4.61187 5.32601 4.6129C5.32835 4.61804 5.32835 4.6238 5.32601 4.62895H5.37801H5.36405C5.37291 4.63319 5.38098 4.63856 5.38802 4.64495C5.37545 4.64688 5.36261 4.64688 5.35004 4.64495C5.35104 4.65205 5.35104 4.65926 5.35004 4.66635C5.33272 4.66277 5.31639 4.65608 5.30204 4.64674C5.29775 4.66279 5.28914 4.67769 5.27694 4.6901C5.26474 4.70252 5.24931 4.71211 5.23202 4.71803H5.21805C5.19384 4.71549 5.17092 4.70681 5.15204 4.69306C5.14187 4.68493 5.12945 4.67942 5.11605 4.67705C5.11605 4.69131 5.11603 4.71444 5.14603 4.74117C5.16595 4.76176 5.18031 4.78616 5.18802 4.81246C5.21601 4.79692 5.24277 4.77965 5.26805 4.76079C5.26805 4.74832 5.26805 4.67526 5.31005 4.66814C5.31327 4.66937 5.31609 4.67133 5.3182 4.67384C5.32031 4.67634 5.32164 4.6793 5.32206 4.6824C5.34006 4.6824 5.35204 4.68238 5.35404 4.7002H5.36605C5.36897 4.70708 5.36897 4.71471 5.36605 4.7216L5.32601 4.73047L5.30004 4.77327C5.27492 4.81186 5.24321 4.84669 5.20604 4.87658C5.21832 4.88705 5.2335 4.89445 5.25004 4.89798C5.27204 4.89798 5.27801 4.86055 5.27801 4.84452C5.27801 4.84452 5.27803 4.85879 5.29203 4.86057C5.29142 4.86456 5.29251 4.86858 5.2951 4.87188C5.2977 4.87518 5.30162 4.8775 5.30604 4.87836C5.29948 4.89008 5.29022 4.90043 5.27884 4.90872C5.26747 4.91701 5.25422 4.92306 5.24003 4.92647H5.21605C5.17862 4.92336 5.14309 4.91034 5.11405 4.88906C5.10048 4.89749 5.08457 4.90243 5.06805 4.90333C5.06332 4.90877 5.05712 4.91302 5.05004 4.91577L5.19003 4.98171L5.10404 5.04226H4.06605L4.00604 5.04583Z" fill="#CCCCCC"/>
<path d="M3.664 3.66699C3.6144 3.71517 3.54852 3.74766 3.47636 3.75955C3.40419 3.77145 3.32967 3.76212 3.264 3.73293C3.26215 3.75904 3.26215 3.78521 3.264 3.81132H1.44598V5.10837H3.264C3.26204 5.13447 3.26204 5.16065 3.264 5.18675C3.32981 5.15814 3.4042 5.14914 3.47621 5.161C3.54821 5.17287 3.61404 5.20501 3.664 5.2527C3.43212 5.04047 3.30238 4.75602 3.30238 4.45987C3.30238 4.16371 3.43212 3.87921 3.664 3.66699Z" fill="#CCCCCC"/>
<path d="M4.54396 5.48976V5.54679C4.54425 5.55429 4.54661 5.56163 4.55079 5.56814C4.55497 5.57466 4.56088 5.58016 4.56798 5.5842C4.23523 5.57903 3.91822 5.45701 3.686 5.24465C3.45377 5.0323 3.32509 4.7468 3.32799 4.45034C3.33089 4.15389 3.46513 3.87045 3.70148 3.66173C3.93782 3.45302 4.25716 3.33594 4.58995 3.33594C4.92275 3.33594 5.24208 3.45302 5.47843 3.66173C5.71478 3.87045 5.84901 4.15389 5.85192 4.45034C5.85482 4.7468 5.72613 5.0323 5.49391 5.24465C5.26168 5.45701 4.94472 5.57903 4.61197 5.5842C4.61658 5.57994 4.62017 5.57491 4.62257 5.56941C4.62497 5.5639 4.62611 5.55804 4.62594 5.55214V5.48976H4.70597C4.78797 5.48976 4.78797 5.43456 4.70597 5.43456H4.62594V5.37754C4.6273 5.37207 4.62732 5.36638 4.62589 5.36092C4.62446 5.35547 4.62167 5.35037 4.61774 5.346C4.6138 5.34163 4.60881 5.33812 4.60314 5.33569C4.59747 5.33327 4.59126 5.332 4.58497 5.332C4.57868 5.332 4.57248 5.33327 4.56681 5.33569C4.56114 5.33812 4.55614 5.34163 4.55221 5.346C4.54827 5.35037 4.54548 5.35547 4.54405 5.36092C4.54263 5.36638 4.54259 5.37207 4.54396 5.37754V5.43456H4.46398C4.38398 5.43456 4.38398 5.48976 4.46398 5.48976H4.54396Z" fill="#CCCCCC"/>
<path d="M5.47595 3.64034C5.42236 3.59589 5.38611 3.53736 5.37244 3.47327C5.35877 3.40918 5.36842 3.34288 5.39998 3.28401C5.37107 3.27831 5.34159 3.27532 5.31199 3.27509V1.65381H3.85798V3.27509C3.82773 3.27542 3.79759 3.27841 3.76799 3.28401C3.80109 3.34244 3.81173 3.40891 3.79836 3.47327C3.785 3.53762 3.74834 3.59632 3.69397 3.64034C3.93278 3.43408 4.25236 3.31872 4.58499 3.31872C4.91761 3.31872 5.23714 3.43408 5.47595 3.64034Z" fill="#CCCCCC"/>
<path d="M3.26199 3.72736C3.32766 3.75655 3.40218 3.76592 3.47434 3.75403C3.5465 3.74214 3.61239 3.7096 3.66199 3.66142L3.69197 3.63293C3.74634 3.58891 3.783 3.53026 3.79636 3.4659C3.80973 3.40154 3.79909 3.33503 3.76599 3.2766C3.76033 3.2657 3.75213 3.256 3.74197 3.24811C3.73139 3.23829 3.71927 3.22986 3.70598 3.22314C3.63571 3.2024 3.56035 3.19947 3.48831 3.21462C3.41626 3.22976 3.35033 3.26242 3.29788 3.30896C3.24543 3.3555 3.20852 3.41409 3.19124 3.47821C3.17395 3.54233 3.17697 3.60944 3.19998 3.67212C3.2075 3.68451 3.2169 3.69589 3.22796 3.70596C3.23878 3.71371 3.25017 3.72087 3.26199 3.72736ZM3.50798 3.2659L3.76599 3.49574L3.722 3.53315L3.46599 3.30509L3.50798 3.2659ZM3.20798 3.53315L3.25198 3.49574L3.422 3.57234L3.33797 3.41914L3.37996 3.38173L3.55198 3.68639L3.20798 3.53315Z" fill="#9C877D"/>
<path d="M3.552 3.69186L3.37998 3.38721L3.33799 3.42461L3.42202 3.57781L3.252 3.50121L3.20801 3.53862L3.552 3.69186Z" fill="#D0D0D0"/>
<path d="M3.5035 3.23027L3.46106 3.26807L3.71841 3.4974L3.76085 3.45961L3.5035 3.23027Z" fill="#D0D0D0"/>
<path d="M5.39998 3.28229C5.36842 3.34116 5.35877 3.40746 5.37244 3.47155C5.38611 3.53564 5.42236 3.59417 5.47595 3.63862L5.50598 3.66533C5.55559 3.71351 5.62142 3.746 5.69358 3.75789C5.76574 3.76978 5.84032 3.76046 5.90598 3.73127C5.91712 3.72472 5.92779 3.71756 5.93797 3.70987C5.94902 3.6998 5.95847 3.68842 5.96599 3.67603C5.989 3.61335 5.99202 3.54624 5.97473 3.48212C5.95745 3.41799 5.92049 3.35936 5.86804 3.31282C5.8156 3.26629 5.74971 3.23367 5.67766 3.21852C5.60562 3.20338 5.53026 3.20631 5.45999 3.22705C5.4467 3.23377 5.43458 3.24219 5.424 3.25201C5.41435 3.26099 5.40624 3.27118 5.39998 3.28229ZM5.918 3.50143L5.66199 3.73127L5.618 3.69208L5.87595 3.46402L5.918 3.50143ZM5.618 3.23418L5.66199 3.27159L5.57595 3.42483L5.74798 3.34823L5.78997 3.38742L5.44798 3.53884L5.618 3.23418Z" fill="#9C877D"/>
<path d="M5.44806 3.53854L5.79005 3.38713L5.74806 3.34794L5.57604 3.42454L5.66207 3.27129L5.61808 3.23389L5.44806 3.53854Z" fill="#D0D0D0"/>
<path d="M5.8804 3.50406L5.62305 3.7334L5.66545 3.77116L5.9228 3.54183L5.8804 3.50406Z" fill="#D0D0D0"/>
<path d="M5.90805 5.1866C5.84224 5.15799 5.76785 5.14898 5.69584 5.16085C5.62383 5.17272 5.55801 5.20485 5.50805 5.25254L5.47802 5.28103C5.42388 5.32517 5.38722 5.38371 5.37353 5.44793C5.35983 5.51216 5.36984 5.57862 5.40204 5.63737C5.40957 5.6482 5.41826 5.65833 5.42802 5.66764C5.43913 5.67692 5.45122 5.6853 5.46405 5.69261C5.53453 5.71355 5.61015 5.7166 5.68246 5.70139C5.75477 5.68619 5.82089 5.65333 5.87343 5.60653C5.92596 5.55973 5.96281 5.50082 5.97987 5.43641C5.99694 5.37199 5.99356 5.30463 5.97006 5.24184C5.96236 5.23009 5.95292 5.21932 5.94203 5.20979L5.90805 5.1866ZM5.66205 5.64807L5.40404 5.41823L5.44804 5.38082L5.70404 5.60888L5.66205 5.64807ZM5.96205 5.38082L5.91806 5.41823L5.74804 5.34341L5.83202 5.49482L5.79003 5.53402L5.61806 5.22758L5.96205 5.38082Z" fill="#9C877D"/>
<path d="M5.61798 5.22754L5.78995 5.53398L5.83195 5.49479L5.74796 5.34337L5.91798 5.41819L5.96198 5.38078L5.61798 5.22754Z" fill="#D0D0D0"/>
<path d="M5.44799 5.38086L5.40399 5.41827L5.662 5.64811L5.70399 5.60892L5.44799 5.38086Z" fill="#D0D0D0"/>
<path d="M3.76802 5.63737C3.80111 5.57893 3.81176 5.51247 3.79839 5.44811C3.78503 5.38375 3.74837 5.32505 3.694 5.28103L3.66402 5.25254C3.61405 5.20485 3.54823 5.17272 3.47622 5.16085C3.40422 5.14898 3.32983 5.15799 3.26402 5.1866L3.23198 5.20979C3.22051 5.21884 3.21103 5.2297 3.20401 5.24184C3.17173 5.30349 3.16324 5.37294 3.17988 5.43932C3.19653 5.50571 3.23735 5.56532 3.296 5.60888C3.34517 5.66132 3.41231 5.69792 3.48711 5.71305C3.56191 5.72818 3.64024 5.72099 3.71001 5.69261C3.72285 5.6853 3.73488 5.67692 3.746 5.66764C3.75504 5.65861 3.76248 5.64841 3.76802 5.63737ZM3.294 5.4592L3.252 5.42001L3.50801 5.19195L3.552 5.22936L3.294 5.4592ZM3.552 5.68726L3.50801 5.64985L3.594 5.49661L3.42202 5.57325L3.37998 5.5358L3.72202 5.3826L3.552 5.68726Z" fill="#9C877D"/>
<path d="M3.72205 5.38086L3.38 5.53406L3.42205 5.57151L3.59402 5.49487L3.50803 5.64811L3.55203 5.68552L3.72205 5.38086Z" fill="#D0D0D0"/>
<path d="M3.50538 5.1443L3.24744 5.37305L3.28977 5.41093L3.54772 5.18219L3.50538 5.1443Z" fill="#D0D0D0"/>
<path d="M5.50598 3.66718L5.47595 3.64047C5.23714 3.43421 4.91761 3.31885 4.58499 3.31885C4.25236 3.31885 3.93278 3.43421 3.69397 3.64047L3.66399 3.66896C3.43211 3.88118 3.30237 4.16568 3.30237 4.46183C3.30237 4.75799 3.43211 5.04244 3.66399 5.25466L3.69397 5.28315C3.93254 5.48983 4.25221 5.60547 4.58499 5.60547C4.91776 5.60547 5.23739 5.48983 5.47595 5.28315L5.50598 5.25466C5.73786 5.04244 5.8676 4.75799 5.8676 4.46183C5.8676 4.16568 5.73786 3.88118 5.50598 3.66896V3.66718ZM4.56199 5.58424C4.22871 5.57907 3.91119 5.45687 3.67859 5.24418C3.44599 5.03149 3.31714 4.74554 3.32004 4.44861C3.32294 4.15168 3.45735 3.86779 3.69407 3.65874C3.93079 3.44969 4.25063 3.33242 4.58396 3.33242C4.91729 3.33242 5.23713 3.44969 5.47385 3.65874C5.71057 3.86779 5.84502 4.15168 5.84792 4.44861C5.85083 4.74554 5.72193 5.03149 5.48933 5.24418C5.25673 5.45687 4.93926 5.57907 4.60598 5.58424C4.60317 5.58694 4.59976 5.58912 4.59597 5.59059C4.59219 5.59207 4.58809 5.59281 4.58396 5.59281C4.57983 5.59281 4.57578 5.59207 4.572 5.59059C4.56821 5.58912 4.5648 5.58694 4.56199 5.58424Z" fill="#9C877D"/>
<path d="M5.56596 4.45959C5.56635 4.2865 5.50907 4.11717 5.40141 3.97307C5.29374 3.82898 5.14053 3.71659 4.96112 3.6501C4.78172 3.58362 4.58422 3.56605 4.39359 3.5996C4.20297 3.63316 4.02781 3.71631 3.89027 3.83858C3.75274 3.96085 3.65899 4.11673 3.62094 4.28647C3.58289 4.45621 3.60224 4.63218 3.67651 4.79213C3.75077 4.95208 3.87664 5.08884 4.03818 5.18504C4.19971 5.28125 4.38962 5.33259 4.58393 5.33259C4.84402 5.33259 5.09352 5.24067 5.27763 5.077C5.46173 4.91333 5.56543 4.69129 5.56596 4.45959ZM3.62592 4.45959C3.62592 4.29038 3.68231 4.12493 3.78788 3.98425C3.89346 3.84358 4.0435 3.73396 4.21903 3.66929C4.39457 3.60461 4.58769 3.58782 4.77397 3.62096C4.96024 3.6541 5.13129 3.73572 5.26547 3.8555C5.39965 3.97528 5.49091 4.12781 5.52773 4.29382C5.56454 4.45983 5.54527 4.63185 5.47231 4.78809C5.39934 4.94432 5.27595 5.07776 5.11781 5.17152C4.95968 5.26527 4.77388 5.31511 4.58393 5.31475C4.32983 5.31381 4.08646 5.22335 3.90697 5.06312C3.72749 4.90289 3.62645 4.68595 3.62592 4.45959Z" fill="#9C877D"/>
<path d="M4.10005 5.43065C4.13319 5.43065 4.16006 5.40671 4.16006 5.37719C4.16006 5.34767 4.13319 5.32373 4.10005 5.32373C4.06691 5.32373 4.04004 5.34767 4.04004 5.37719C4.04004 5.40671 4.06691 5.43065 4.10005 5.43065Z" fill="black"/>
<path d="M5.06999 5.33109C5.05812 5.33109 5.0465 5.33422 5.03664 5.34009C5.02677 5.34596 5.01906 5.35433 5.01452 5.3641C5.00998 5.37387 5.00879 5.38462 5.0111 5.39498C5.01342 5.40535 5.01916 5.41487 5.02756 5.42234C5.03595 5.42982 5.04663 5.4349 5.05827 5.43696C5.06991 5.43902 5.08197 5.43796 5.09294 5.43391C5.1039 5.42987 5.11325 5.423 5.11984 5.41421C5.12643 5.40542 5.12995 5.39512 5.12995 5.38454C5.13023 5.37746 5.12891 5.37039 5.12599 5.3638C5.12308 5.3572 5.11863 5.35119 5.11301 5.34618C5.10738 5.34117 5.10068 5.33725 5.09328 5.33465C5.08587 5.33206 5.07794 5.33084 5.06999 5.33109Z" fill="black"/>
<path d="M4.62008 5.55217V5.4898H4.70006C4.78206 5.4898 4.78206 5.4346 4.70006 5.4346H4.62008V5.37757C4.62145 5.3721 4.62141 5.36641 4.61999 5.36096C4.61856 5.3555 4.61577 5.35041 4.61183 5.34604C4.6079 5.34167 4.6029 5.33815 4.59723 5.33573C4.59156 5.3333 4.58536 5.33203 4.57907 5.33203C4.57278 5.33203 4.56657 5.3333 4.5609 5.33573C4.55523 5.33815 4.55024 5.34167 4.5463 5.34604C4.54237 5.35041 4.53958 5.3555 4.53815 5.36096C4.53672 5.36641 4.53669 5.3721 4.53805 5.37757V5.4346H4.45807C4.37807 5.4346 4.37807 5.4898 4.45807 5.4898H4.53805V5.54682C4.53766 5.55387 4.53908 5.56091 4.5422 5.5674C4.54532 5.57388 4.55007 5.57963 4.55607 5.58423C4.55888 5.58693 4.56229 5.58911 4.56608 5.59058C4.56986 5.59205 4.57391 5.5928 4.57804 5.5928C4.58217 5.5928 4.58627 5.59205 4.59005 5.59058C4.59384 5.58911 4.59726 5.58693 4.60006 5.58423C4.60576 5.58046 4.61048 5.57567 4.61393 5.57014C4.61738 5.56461 4.6195 5.55848 4.62008 5.55217Z" fill="black"/>
<path d="M5.37799 3.90568C5.37646 3.89982 5.37646 3.89371 5.37799 3.88785C5.38287 3.8816 5.38899 3.87619 5.39601 3.87184L5.50402 3.80055L5.44801 3.99655L5.59601 3.89855H5.61603C5.61876 3.89714 5.62185 3.89642 5.62501 3.89642C5.62817 3.89642 5.63126 3.89714 5.634 3.89855L5.59 3.84331C5.59176 3.84602 5.59269 3.8491 5.59269 3.85223C5.59269 3.85535 5.59176 3.85843 5.59 3.86114C5.59 3.86114 5.59004 3.87007 5.57404 3.87719L5.47203 3.94309L5.52404 3.76493L5.488 3.72217V3.73287C5.48886 3.73759 5.48886 3.74242 5.488 3.74714C5.48873 3.75306 5.48873 3.759 5.488 3.76493L5.36603 3.84509C5.35989 3.85033 5.35227 3.85403 5.34401 3.85579C5.34028 3.85539 5.33673 3.85421 5.33361 3.85236C5.33048 3.8505 5.32784 3.848 5.32599 3.84509L5.37203 3.89855L5.37799 3.90568Z" fill="black"/>
<path d="M5.00007 3.58673C4.99254 3.59437 4.9838 3.60099 4.9741 3.60635C4.96687 3.60793 4.9593 3.60793 4.95208 3.60635C4.94081 3.60795 4.92935 3.60795 4.91809 3.60635H4.90208L4.88005 3.59743C4.88005 3.59743 4.88005 3.59741 4.88005 3.58138L4.9241 3.46559C4.92624 3.45862 4.92957 3.45199 4.93406 3.44597C4.93588 3.44503 4.93796 3.44454 4.94006 3.44454C4.94217 3.44454 4.94425 3.44503 4.94607 3.44597H4.97009L4.87605 3.41748C4.88247 3.41953 4.88806 3.42327 4.89207 3.42818C4.8936 3.43584 4.8936 3.44366 4.89207 3.45132L4.84807 3.57072C4.84807 3.58141 4.84806 3.58851 4.83606 3.5903C4.83279 3.59221 4.82898 3.59325 4.82507 3.59325C4.82116 3.59325 4.81735 3.59221 4.81409 3.5903L4.9741 3.63662L5.00007 3.58673Z" fill="black"/>
<path d="M5.13198 3.70277C5.13198 3.70277 5.11802 3.69207 5.11802 3.6885V3.67959L5.13398 3.66889L5.16602 3.65109L5.23599 3.69564V3.72413C5.23816 3.73052 5.23816 3.73735 5.23599 3.74374C5.23011 3.74528 5.22389 3.74528 5.21802 3.74374L5.28799 3.7865C5.28267 3.78204 5.27855 3.77654 5.27598 3.77045C5.2731 3.76052 5.2731 3.75011 5.27598 3.74018L5.32002 3.56201L5.154 3.65288C5.14449 3.65945 5.13363 3.66426 5.12202 3.6671H5.104L5.16001 3.70099L5.13198 3.70277ZM5.26001 3.6012L5.23799 3.68315L5.17798 3.64574L5.26001 3.6012Z" fill="black"/>
<path d="M4.71599 3.51543C4.71199 3.52437 4.70659 3.53274 4.69998 3.54035C4.69458 3.54553 4.68762 3.54924 4.67996 3.55105C4.66802 3.55261 4.65591 3.55261 4.64397 3.55105H4.60398C4.60398 3.55105 4.60398 3.55104 4.60398 3.535V3.41386C4.60214 3.40623 4.60214 3.39835 4.60398 3.39072C4.60727 3.39004 4.6107 3.39004 4.61399 3.39072H4.63796H4.53997C4.54574 3.38864 4.55221 3.38864 4.55798 3.39072C4.55982 3.39835 4.55982 3.40623 4.55798 3.41386V3.53857C4.55908 3.54566 4.55908 3.55288 4.55798 3.55997C4.55494 3.56153 4.55148 3.56236 4.54797 3.56236C4.54446 3.56236 4.541 3.56153 4.53796 3.55997H4.70798L4.71599 3.51543Z" fill="black"/>
<path d="M5.76807 4.34742H5.62803H5.60005C5.59675 4.34552 5.5941 4.34286 5.59234 4.33972C5.59058 4.33659 5.58977 4.33308 5.59005 4.32959V4.41158C5.58776 4.40582 5.58776 4.39951 5.59005 4.39375H5.61607H5.67803V4.40267C5.67803 4.40267 5.67803 4.40268 5.67803 4.41337L5.58004 4.48462V4.53629C5.57773 4.5275 5.57773 4.51833 5.58004 4.50954C5.58723 4.49951 5.59681 4.49102 5.60806 4.48462L5.66807 4.44186C5.66934 4.44864 5.67211 4.45514 5.67623 4.46095C5.68035 4.46677 5.68572 4.47176 5.69205 4.4757C5.69616 4.47999 5.70146 4.48326 5.70743 4.48514C5.7134 4.48701 5.71981 4.48744 5.72603 4.4864C5.73784 4.48663 5.74933 4.48279 5.75806 4.4757C5.76701 4.46865 5.77326 4.45934 5.77603 4.44899C5.77829 4.43362 5.77829 4.41804 5.77603 4.40267V4.33316C5.77804 4.33896 5.77804 4.34519 5.77603 4.35099C5.77327 4.34998 5.77064 4.34878 5.76807 4.34742ZM5.78604 4.42759C5.78175 4.43152 5.77662 4.43468 5.77095 4.43681C5.76528 4.43895 5.75919 4.44003 5.75303 4.44003C5.74688 4.44003 5.74083 4.43895 5.73516 4.43681C5.72949 4.43468 5.72436 4.43152 5.72007 4.42759C5.70889 4.41634 5.70312 4.40162 5.70406 4.38662H5.79605C5.79673 4.39432 5.79673 4.40209 5.79605 4.4098C5.79459 4.41643 5.79112 4.42257 5.78604 4.42759Z" fill="black"/>
<path d="M5.69 4.04467H5.70602V4.06246V4.08386L5.54801 4.13375C5.54088 4.13592 5.53312 4.13592 5.52599 4.13375C5.52226 4.13301 5.51894 4.13122 5.51642 4.12866C5.5139 4.1261 5.51236 4.12288 5.51202 4.11948L5.54401 4.19608C5.542 4.19028 5.542 4.1841 5.54401 4.17829C5.55105 4.17282 5.55922 4.16858 5.56803 4.16581L5.72404 4.1177V4.14267C5.72582 4.14911 5.72582 4.15581 5.72404 4.16224C5.7254 4.16752 5.7254 4.17302 5.72404 4.17829L5.70802 4.18721L5.75602 4.16938L5.69601 4.02148L5.64801 4.03397C5.65531 4.03107 5.66352 4.03058 5.6712 4.03253C5.67888 4.03449 5.68553 4.03878 5.69 4.04467Z" fill="black"/>
<path d="M3.45398 4.50801C3.48455 4.50972 3.51466 4.50079 3.53796 4.48308C3.54872 4.47527 3.55749 4.46552 3.56369 4.45446C3.5699 4.4434 3.57344 4.43127 3.574 4.41892C3.57505 4.40624 3.57306 4.39353 3.56823 4.38156C3.56341 4.36959 3.55583 4.35865 3.54597 4.34946C3.52504 4.32985 3.49634 4.31835 3.46599 4.3174C3.45127 4.31605 3.43639 4.31742 3.42229 4.3214C3.40818 4.32539 3.39512 4.33188 3.38396 4.34054C3.37278 4.34801 3.36374 4.35768 3.35749 4.36881C3.35124 4.37995 3.34797 4.39225 3.34797 4.4047C3.34671 4.41656 3.34819 4.42851 3.35232 4.43984C3.35644 4.45118 3.36315 4.46165 3.37199 4.4706C3.38172 4.48183 3.3941 4.49101 3.40827 4.49748C3.42245 4.50395 3.43806 4.50754 3.45398 4.50801ZM3.38396 4.36551C3.40898 4.35156 3.43875 4.34587 3.46799 4.34946C3.49501 4.34881 3.52133 4.35708 3.54197 4.37264C3.54949 4.37826 3.55543 4.38538 3.55925 4.39343C3.56308 4.40149 3.5647 4.4102 3.56399 4.41892C3.5633 4.42679 3.56058 4.43444 3.55608 4.44124C3.55157 4.44803 3.54537 4.45383 3.53796 4.45816C3.51349 4.4717 3.48457 4.47733 3.45598 4.47416C3.42768 4.47519 3.39991 4.46697 3.37795 4.45102C3.37123 4.44569 3.36598 4.43907 3.36252 4.43167C3.35906 4.42427 3.3575 4.41627 3.35798 4.40827C3.35804 4.39978 3.36043 4.39145 3.36496 4.38399C3.3695 4.37654 3.37602 4.37019 3.38396 4.36551Z" fill="black"/>
<path d="M5.80007 4.65217L5.78606 4.66287L5.76409 4.67179L5.66008 4.70207L5.61008 4.68958C5.6028 4.69071 5.59534 4.69071 5.58806 4.68958C5.58645 4.68651 5.58562 4.68318 5.58562 4.67979C5.58562 4.67641 5.58645 4.67308 5.58806 4.67001L5.56409 4.74839C5.56454 4.74507 5.56586 4.74187 5.56794 4.73908C5.57003 4.7363 5.57278 4.73399 5.57605 4.73234C5.58396 4.73079 5.59217 4.73079 5.60007 4.73234L5.65408 4.74482L5.72009 4.80898L5.73806 4.82856C5.73974 4.83319 5.73974 4.83819 5.73806 4.84282C5.73912 4.84477 5.73967 4.84688 5.73967 4.84904C5.73967 4.8512 5.73912 4.85336 5.73806 4.85531L5.75608 4.78937C5.75764 4.79279 5.75764 4.79664 5.75608 4.80007C5.75608 4.80007 5.75606 4.80005 5.73806 4.78758L5.68206 4.73591L5.76208 4.71277C5.77408 4.71277 5.78206 4.71277 5.78606 4.71277C5.78606 4.71277 5.79006 4.71277 5.78606 4.71277V4.73056L5.81008 4.65039C5.80706 4.65194 5.80354 4.65257 5.80007 4.65217Z" fill="black"/>
<path d="M3.40002 4.16037C3.40002 4.16037 3.40004 4.14793 3.41404 4.14615C3.42804 4.14437 3.42601 4.14615 3.44001 4.14615L3.57004 4.19069H3.59202C3.59395 4.19367 3.595 4.19704 3.595 4.20048C3.595 4.20392 3.59395 4.20729 3.59202 4.21027L3.62405 4.13367C3.62326 4.1369 3.62152 4.13992 3.61907 4.14241C3.61662 4.1449 3.61353 4.1468 3.61003 4.14793C3.61003 4.14793 3.59801 4.14793 3.58601 4.14793L3.526 4.12832V4.11583L3.64802 4.08734L3.66804 4.03923C3.66443 4.04773 3.65817 4.05516 3.65002 4.06063C3.63894 4.06665 3.62677 4.07084 3.61404 4.07307L3.54001 4.09091C3.54429 4.07751 3.54429 4.06333 3.54001 4.04993C3.53748 4.04471 3.53364 4.04007 3.52878 4.03636C3.52393 4.03266 3.51822 4.02996 3.51204 4.02853C3.50105 4.02499 3.48899 4.02499 3.478 4.02853C3.4672 4.0315 3.45754 4.03706 3.45002 4.04458C3.44114 4.05754 3.43375 4.07127 3.428 4.08556L3.40002 4.15146V4.16037ZM3.43401 4.09626C3.43862 4.08577 3.4471 4.07695 3.45803 4.07129C3.46971 4.06776 3.48235 4.06776 3.49402 4.07129C3.50011 4.07355 3.5056 4.07695 3.51008 4.08125C3.51457 4.08556 3.51797 4.09068 3.52004 4.09626C3.5257 4.11007 3.5257 4.12521 3.52004 4.13902L3.43601 4.11048C3.4358 4.10573 3.4358 4.10101 3.43601 4.09626H3.43401Z" fill="black"/>
<path d="M3.942 3.72763C3.95928 3.73179 3.9774 3.73249 3.99503 3.72972C4.01266 3.72695 4.02936 3.72076 4.044 3.71158L4.07599 3.68844L4.09801 3.65995L4.06202 3.61006C4.05985 3.60367 4.05985 3.59683 4.06202 3.59044C4.06202 3.59044 4.06202 3.57974 4.06202 3.57617L3.99 3.61715C3.99518 3.61552 4.00084 3.61552 4.00602 3.61715H4.01803L4.02999 3.63142L4.06603 3.67952C4.06253 3.68613 4.05778 3.69217 4.05201 3.69736L4.03399 3.7098C4.02225 3.71701 4.00827 3.72076 3.994 3.7205C3.97699 3.72056 3.96032 3.71622 3.94601 3.70801C3.92977 3.69829 3.91612 3.68553 3.90602 3.67061C3.89198 3.65353 3.88427 3.633 3.88399 3.61184C3.88443 3.60071 3.88797 3.58981 3.89425 3.58018C3.90053 3.57054 3.90939 3.56246 3.92003 3.5566C3.93538 3.54768 3.95406 3.54447 3.97203 3.54768C3.98693 3.55029 4.00074 3.55647 4.01202 3.56552L3.97003 3.51562H3.95802H3.92999L3.91202 3.52633C3.89483 3.535 3.88092 3.54802 3.87203 3.56373C3.86211 3.58136 3.85794 3.60108 3.86002 3.62072C3.86175 3.63778 3.86788 3.65425 3.87799 3.66882C3.88349 3.68204 3.89207 3.69411 3.90309 3.70423C3.9141 3.71435 3.92734 3.72233 3.942 3.72763Z" fill="black"/>
<path d="M3.58798 4.67005C3.58998 4.67463 3.58998 4.67974 3.58798 4.68432H3.56801L3.50199 4.69676V4.66292C3.49998 4.65833 3.49998 4.65323 3.50199 4.64865C3.50111 4.6473 3.50067 4.64578 3.50067 4.64421C3.50067 4.64265 3.50111 4.64113 3.50199 4.63978C3.50722 4.63849 3.51277 4.63849 3.51801 4.63978L3.44598 4.654C3.45798 4.654 3.46601 4.654 3.47001 4.654C3.47401 4.654 3.46997 4.65402 3.48197 4.67005V4.70389L3.39799 4.72173L3.38798 4.68075C3.38614 4.67312 3.38614 4.6652 3.38798 4.65757C3.38629 4.65293 3.38629 4.64793 3.38798 4.6433L3.408 4.63086L3.362 4.6433L3.39999 4.78227C3.39905 4.7803 3.39857 4.7782 3.39857 4.77605C3.39857 4.77391 3.39905 4.77181 3.39999 4.76983C3.39999 4.76983 3.40001 4.76983 3.42001 4.76983L3.558 4.73952C3.56585 4.73762 3.57411 4.73762 3.58197 4.73952C3.5852 4.74074 3.58802 4.74271 3.59012 4.74521C3.59223 4.74772 3.59356 4.75068 3.59398 4.75378L3.57201 4.67362L3.58798 4.67005Z" fill="black"/>
<path d="M5.334 4.67534V4.66464H5.34601C5.35712 4.66746 5.36888 4.66746 5.37999 4.66464C5.37351 4.66023 5.36601 4.65717 5.35802 4.65572H5.34601H5.35602H5.36803C5.35546 4.65768 5.34256 4.65768 5.32999 4.65572C5.32999 4.65572 5.32999 4.65571 5.32999 4.64502H5.30402C5.30579 4.65863 5.30579 4.67238 5.30402 4.68599C5.31699 4.69461 5.33109 4.70181 5.34601 4.7074C5.34488 4.69602 5.34076 4.68504 5.334 4.67534Z" fill="#9C877D"/>
<path d="M5.30399 4.62723H5.32997C5.32997 4.62723 5.32997 4.62724 5.32997 4.63793C5.34254 4.63989 5.35543 4.63989 5.36801 4.63793H5.35599H5.34598H5.358C5.36599 4.63938 5.37348 4.64239 5.37997 4.6468C5.36886 4.64962 5.3571 4.64962 5.34598 4.6468H5.33397V4.6575C5.33515 4.66459 5.33515 4.67181 5.33397 4.6789C5.31905 4.67331 5.30496 4.66611 5.29198 4.6575C5.30634 4.66685 5.32266 4.67353 5.33998 4.67712C5.34098 4.67002 5.34098 4.66281 5.33998 4.65572C5.35188 4.65766 5.36406 4.65766 5.37596 4.65572C5.36891 4.64933 5.36085 4.64395 5.35199 4.63971H5.366H5.314C5.31634 4.63457 5.31634 4.6288 5.314 4.62366C5.3027 4.62265 5.29127 4.62265 5.27997 4.62366C5.27997 4.62366 5.30199 4.61832 5.30399 4.62723Z" fill="black"/>
<path d="M5.10803 4.58984L5.14802 4.62012L5.18801 4.6112C5.16801 4.61833 5.13003 4.60053 5.10803 4.58984Z" fill="#9C877D"/>
<path d="M5.14594 4.61829L5.10594 4.58802C5.12794 4.59871 5.16592 4.61472 5.18392 4.60938H5.17196C5.14421 4.60332 5.1178 4.59309 5.09393 4.5791C5.1051 4.59436 5.11933 4.60764 5.13593 4.61829H5.14594Z" fill="black"/>
<path d="M4.75597 4.96223C4.75597 4.96223 4.74396 4.97293 4.74396 4.97472C4.74396 4.9765 4.76395 4.97472 4.78195 4.97472L4.76598 4.96045L4.75597 4.96223Z" fill="#9C877D"/>
<path d="M5.04597 4.98525C5.03694 4.9917 5.02553 4.99489 5.01399 4.99417H4.99998C4.9901 4.99616 4.97987 4.99616 4.97 4.99417C4.95859 4.99397 4.94746 4.99087 4.93796 4.98525C4.92078 4.99354 4.90151 4.9978 4.88196 4.99769H4.85999H4.84998C4.85111 5.00239 4.85111 5.00726 4.84998 5.01196C4.84073 5.01111 4.83188 5.00823 4.82419 5.00356C4.81651 4.9989 4.81025 4.99261 4.80598 4.98525C4.78058 4.99731 4.75269 5.00456 4.724 5.00661C4.70989 5.01144 4.69503 5.01444 4.67996 5.01552C4.67996 5.01552 4.69398 4.99416 4.69998 4.9906V4.95493C4.67398 4.95493 4.65196 4.93358 4.63396 4.89795C4.65541 4.92525 4.67351 4.95451 4.68796 4.98525H4.64998C4.63345 4.98796 4.6165 4.98796 4.59998 4.98525C4.59998 4.98525 4.58796 4.98524 4.58196 4.97455C4.57988 4.97113 4.57665 4.96841 4.57268 4.96681C4.56871 4.9652 4.56424 4.96478 4.55999 4.96563L4.53596 4.94784C4.52401 4.95355 4.51123 4.95772 4.49797 4.96028C4.48604 4.96187 4.47392 4.96187 4.46199 4.96028H4.43396L4.34397 4.9692L4.30198 5.01196L4.172 5.02087H4.02795L4.30798 5.06006L4.04197 5.04758L4.10398 5.09391H5.13596L5.20999 5.04223L5.08196 4.9799H5.06799H5.05798L5.04597 4.98525Z" fill="#9C877D"/>
<path d="M5.21206 5.04792L5.07207 4.98202H5.05806H5.07207L5.20005 5.04435L5.12603 5.09603H4.09404L4.03203 5.0497L4.29805 5.06219L4.01807 5.02299H4.16206L4.29204 5.01408L4.33403 4.97132L4.42603 4.9624L4.32407 4.9731L4.28403 5.01408L4.15605 5.02299H3.95605L4.21807 5.0604L4.00405 5.0497L4.08604 5.11208H5.12407L5.21206 5.04792Z" fill="black"/>
<path d="M4.62402 4.88009C4.64202 4.92107 4.66399 4.94246 4.69199 4.94246V4.91036L4.76602 4.89792C4.77084 4.90455 4.77339 4.91229 4.77339 4.92019C4.77339 4.92809 4.77084 4.93583 4.76602 4.94246C4.77149 4.94825 4.77749 4.95359 4.78398 4.95847C4.79971 4.95103 4.81446 4.94209 4.82798 4.93176C4.83571 4.92916 4.84427 4.92916 4.852 4.93176C4.85349 4.93486 4.85425 4.93818 4.85425 4.94155C4.85425 4.94492 4.85349 4.94828 4.852 4.95138C4.8559 4.95601 4.85801 4.9616 4.85801 4.96739C4.85801 4.97317 4.8559 4.97881 4.852 4.98344C4.87092 4.98356 4.88954 4.97925 4.90601 4.97095C4.91478 4.97652 4.92521 4.97963 4.93599 4.97987C4.94517 4.98198 4.95483 4.98198 4.96401 4.97987H4.98398C4.98398 4.97987 5.00601 4.97987 5.01001 4.97987H5.02002C5.03297 4.97787 5.04487 4.97224 5.054 4.96382C5.06861 4.96393 5.08301 4.96086 5.096 4.9549L5.12998 4.91036L5.16602 4.94068C5.20312 4.91141 5.23483 4.87713 5.26001 4.83911L5.28599 4.79279H5.32402C5.32571 4.78877 5.32571 4.78433 5.32402 4.7803C5.32402 4.76961 5.312 4.7643 5.296 4.76608C5.296 4.76608 5.26201 4.832 5.26201 4.85338C5.23404 4.87346 5.20466 4.89187 5.17402 4.90858C5.16831 4.88146 5.15446 4.85624 5.13398 4.83555C5.11198 4.80882 5.092 4.78211 5.102 4.7643C5.10453 4.76332 5.10726 4.76282 5.11001 4.76282C5.11276 4.76282 5.11549 4.76332 5.11802 4.7643C5.13322 4.76605 5.14731 4.7723 5.15801 4.78209C5.17622 4.79424 5.19753 4.80222 5.22002 4.80527H5.23198C5.25541 4.79456 5.27498 4.77816 5.28843 4.75799C5.30187 4.73782 5.30866 4.71467 5.30801 4.69122C5.29401 4.6645 5.26601 4.62175 5.26001 4.61284H5.22598L5.2 4.55225C5.186 4.55225 5.144 4.58789 5.146 4.61284C5.148 4.63778 5.20601 4.6663 5.20601 4.6663C5.19036 4.675 5.17243 4.67992 5.154 4.68056H5.13999C5.1391 4.68223 5.13867 4.68402 5.13867 4.68587C5.13867 4.68772 5.1391 4.68955 5.13999 4.69122C5.13999 4.69122 5.16202 4.69122 5.17202 4.69122H5.19199C5.19783 4.70499 5.20834 4.71685 5.22202 4.72511C5.22418 4.7293 5.22529 4.73385 5.22529 4.73846C5.22529 4.74307 5.22418 4.74762 5.22202 4.75181C5.22202 4.75181 5.20799 4.76073 5.19399 4.76073C5.17557 4.75586 5.15898 4.7466 5.146 4.73398C5.12902 4.71784 5.10649 4.7072 5.08198 4.7037C5.07171 4.70336 5.06171 4.70656 5.054 4.71262C5.04836 4.71603 5.04364 4.72052 5.04019 4.72576C5.03673 4.731 5.03459 4.73684 5.03398 4.7429C5.03398 4.77853 5.07998 4.8195 5.07998 4.8195C5.07067 4.82396 5.06197 4.82935 5.054 4.83555V4.84803L5.03398 4.90858C5.0261 4.91031 5.01789 4.91031 5.01001 4.90858H4.98398C4.98398 4.90858 4.98398 4.90861 4.98398 4.89792L4.96001 4.88365H4.94399C4.91922 4.87114 4.89214 4.86271 4.86401 4.85873H4.83999C4.81986 4.85845 4.80004 4.85418 4.78198 4.84625C4.75837 4.84902 4.73501 4.8532 4.71201 4.85873L4.63999 4.87474C4.62283 4.86616 4.60364 4.8613 4.58398 4.86051C4.56698 4.86213 4.55062 4.86711 4.53608 4.87513C4.52154 4.88315 4.5092 4.894 4.5 4.90684L4.52202 4.91749C4.53323 4.91538 4.5448 4.91538 4.55601 4.91749C4.56826 4.91808 4.58004 4.9218 4.58999 4.9282C4.58999 4.9282 4.59001 4.92818 4.60801 4.91749L4.62402 4.88009Z" fill="#9C877D"/>
<path d="M4.47 4.92285C4.45947 4.93804 4.44738 4.95235 4.43396 4.96561C4.46002 4.96602 4.4857 4.95986 4.50798 4.94782C4.49631 4.93837 4.48359 4.92998 4.47 4.92285Z" fill="#9C877D"/>
<path d="M4.93201 4.82702C4.90587 4.81501 4.87734 4.80776 4.84802 4.80566H4.85803C4.88616 4.80965 4.91324 4.81808 4.93801 4.83059L4.93201 4.82702Z" fill="black"/>
<path d="M4.62 4.89256C4.638 4.92819 4.65996 4.9478 4.68596 4.94958C4.65796 4.94958 4.63599 4.92819 4.61799 4.88721C4.61799 4.88721 4.60598 4.89613 4.59998 4.89791L4.62 4.89256Z" fill="black"/>
<path d="M4.76604 4.9535L4.78201 4.96857C4.77551 4.96341 4.76952 4.95778 4.76404 4.95166L4.76604 4.9535Z" fill="black"/>
<path d="M4.42596 4.96221H4.45399C4.46593 4.9638 4.47804 4.9638 4.48998 4.96221C4.50323 4.95965 4.51601 4.95548 4.52797 4.94977C4.50568 4.96182 4.48005 4.96797 4.45399 4.96756C4.46742 4.95431 4.47945 4.94 4.48998 4.9248C4.48218 4.93703 4.4728 4.94839 4.462 4.95865L4.42596 4.96221Z" fill="black"/>
<path d="M4.59993 4.82868C4.61959 4.82947 4.63877 4.83436 4.65593 4.84294L4.72791 4.82689C4.7509 4.82137 4.77431 4.81723 4.79792 4.81445L4.73591 4.82689L4.66594 4.84116C4.64807 4.83255 4.62823 4.82767 4.60793 4.82689C4.58965 4.82851 4.57203 4.83386 4.55642 4.84251C4.54082 4.85116 4.52766 4.86289 4.51794 4.87679C4.52673 4.86383 4.53862 4.85279 4.55281 4.84447C4.567 4.83614 4.5831 4.83075 4.59993 4.82868Z" fill="black"/>
<path d="M4.95801 4.8501L4.98198 4.86432C4.97552 4.85778 4.96727 4.8529 4.95801 4.8501Z" fill="black"/>
<path d="M5.12804 4.95162C5.11574 4.9575 5.10201 4.96053 5.08805 4.96049C5.07891 4.96891 5.06702 4.97454 5.05406 4.97654H5.04406C5.04406 4.97654 5.02608 4.97654 5.01808 4.97654H4.99806C4.98888 4.97865 4.97926 4.97865 4.97008 4.97654C4.95931 4.97631 4.94883 4.9732 4.94005 4.96763C4.92359 4.97592 4.90496 4.98024 4.88605 4.98011H4.86407H4.88605C4.9056 4.98022 4.92486 4.97592 4.94205 4.96763C4.95155 4.97324 4.96268 4.97634 4.97408 4.97654C4.98396 4.97853 4.99419 4.97853 5.00406 4.97654H5.02208C5.03363 4.97726 5.04504 4.97408 5.05406 4.96763H5.06407H5.07804C5.08512 4.96488 5.09133 4.96058 5.09606 4.95514C5.11257 4.95425 5.12848 4.94934 5.14205 4.94092L5.12804 4.95162Z" fill="black"/>
<path d="M5.05491 4.78804L5.04802 4.79307C5.05026 4.79133 5.05256 4.78965 5.05491 4.78804Z" fill="black"/>
<path d="M4.49606 4.77345C4.49606 4.78948 4.49606 4.80372 4.49606 4.80907H4.51207C4.52363 4.80816 4.53467 4.80445 4.54406 4.79837C4.55596 4.80031 4.56814 4.80031 4.58004 4.79837C4.62004 4.79671 4.65968 4.79071 4.69806 4.78054C4.70461 4.78213 4.71153 4.78213 4.71808 4.78054C4.71937 4.77726 4.72181 4.77446 4.72506 4.77253C4.72831 4.7706 4.73215 4.76968 4.73605 4.76988C4.74339 4.78385 4.75543 4.79546 4.77047 4.80311C4.78551 4.81077 4.80284 4.81409 4.82008 4.81264C4.78946 4.78232 4.75369 4.75644 4.71407 4.73599C4.6722 4.74851 4.6282 4.75456 4.58405 4.75383H4.60006C4.58406 4.75383 4.58405 4.74134 4.58405 4.73243C4.58619 4.72725 4.58619 4.72159 4.58405 4.71642C4.61205 4.69148 4.59605 4.63444 4.58405 4.60059H4.57008H4.51808C4.51697 4.60887 4.51697 4.61727 4.51808 4.62555C4.51808 4.6505 4.51805 4.67545 4.49005 4.68436C4.5023 4.7128 4.5044 4.74391 4.49606 4.77345Z" fill="#9C877D"/>
<path d="M4.48798 4.77332C4.48798 4.79292 4.48798 4.80717 4.48798 4.81429C4.49449 4.81608 4.50148 4.81608 4.508 4.81429C4.52121 4.81378 4.53385 4.80939 4.54398 4.80181C4.55588 4.80375 4.56807 4.80375 4.57997 4.80181C4.62003 4.80066 4.65974 4.79465 4.69799 4.78397C4.70586 4.78578 4.71414 4.78578 4.72201 4.78397C4.72201 4.78397 4.73398 4.78397 4.73798 4.77506C4.74198 4.76615 4.73799 4.77506 4.74999 4.77506C4.75512 4.78474 4.76267 4.79329 4.77201 4.80002C4.79007 4.80796 4.80984 4.81223 4.82997 4.81251H4.85399H4.84398C4.81372 4.78604 4.78017 4.7627 4.74398 4.743C4.70324 4.75716 4.65972 4.76385 4.616 4.76262H4.59598C4.59598 4.76262 4.58597 4.7626 4.58597 4.74657C4.58696 4.74066 4.58696 4.73468 4.58597 4.72878C4.61397 4.70205 4.59997 4.64679 4.58597 4.60938C4.60197 4.64323 4.61797 4.70027 4.58597 4.72521C4.58812 4.73038 4.58812 4.73604 4.58597 4.74122C4.58597 4.75012 4.58599 4.76084 4.60199 4.76262H4.62401C4.66817 4.76335 4.71212 4.7573 4.75399 4.74478C4.79381 4.76573 4.83017 4.7915 4.862 4.82138C4.84476 4.82284 4.82743 4.81951 4.81239 4.81186C4.79735 4.8042 4.78531 4.7926 4.77797 4.77862C4.77407 4.77843 4.77023 4.77939 4.76698 4.78132C4.76373 4.78325 4.76129 4.78605 4.76 4.78932C4.75345 4.79092 4.74653 4.79092 4.73998 4.78932C4.7016 4.7995 4.66201 4.8055 4.62201 4.80716C4.61011 4.8091 4.59788 4.8091 4.58597 4.80716C4.57659 4.81324 4.56555 4.81695 4.55399 4.81786H4.53798C4.53798 4.81786 4.53798 4.79823 4.53798 4.78219C4.54094 4.75176 4.53328 4.72127 4.516 4.69489C4.516 4.69489 4.516 4.69491 4.516 4.70916C4.51218 4.73214 4.50259 4.75408 4.48798 4.77332Z" fill="black"/>
<path d="M4 4.52413C3.97129 4.51091 3.94012 4.50248 3.90801 4.49921C3.89895 4.49636 3.88904 4.49636 3.87998 4.49921C3.82798 4.53306 3.84998 4.61678 3.87998 4.66133C3.88228 4.66548 3.8835 4.67005 3.8835 4.67468C3.8835 4.67931 3.88228 4.68388 3.87998 4.68803C3.87998 4.70585 3.85398 4.71658 3.83198 4.72727C3.81868 4.73323 3.80654 4.74103 3.796 4.75041C3.776 4.77179 3.796 4.79673 3.796 4.79673L3.82403 4.811V4.84484L3.83599 4.88225C3.83599 4.88225 3.83599 4.89296 3.83599 4.90008C3.83599 4.90721 3.836 4.91788 3.848 4.92144C3.84427 4.89959 3.84427 4.87739 3.848 4.85554H3.86001C3.87201 4.85554 3.90001 4.85553 3.90801 4.84127C3.91601 4.82702 3.908 4.79672 3.898 4.78603H3.91001C3.90156 4.7748 3.89607 4.76202 3.894 4.74863C3.894 4.74863 3.96001 4.73079 3.95801 4.68803C3.95601 4.64527 3.93402 4.64708 3.91402 4.62748C3.89402 4.60789 3.87798 4.59541 3.87998 4.58116C3.8802 4.57823 3.88127 4.57538 3.88301 4.57289C3.88475 4.57041 3.88714 4.56835 3.88999 4.56689C3.89654 4.5653 3.90346 4.5653 3.91001 4.56689C3.93067 4.56975 3.95043 4.57645 3.96802 4.58651C3.9899 4.59838 4.01449 4.60566 4.03999 4.60787C4.05297 4.60787 4.06559 4.60411 4.07598 4.59717C4.06863 4.58673 4.06326 4.57531 4.06001 4.56333H4.05C4.03169 4.55203 4.01491 4.53888 4 4.52413Z" fill="#9C877D"/>
<path d="M4.11602 4.58647C4.10563 4.59341 4.09296 4.59712 4.07998 4.59712C4.05448 4.59492 4.02989 4.58764 4.00801 4.57577C3.99042 4.56571 3.97066 4.55901 3.95 4.55615C3.94345 4.55456 3.93653 4.55456 3.92998 4.55615C3.92713 4.55761 3.92474 4.55971 3.923 4.5622C3.92125 4.56468 3.92024 4.56749 3.92002 4.57042C3.92002 4.58467 3.936 4.59893 3.954 4.61674C3.972 4.63456 3.998 4.65774 3.998 4.67733C3.998 4.69693 3.93599 4.73788 3.93599 4.73788C3.93806 4.75127 3.94355 4.76406 3.952 4.77529H3.93999C3.93999 4.78598 3.96 4.81628 3.95 4.83053C3.94 4.84479 3.914 4.8448 3.902 4.8448H3.88999C3.88626 4.86665 3.88626 4.88885 3.88999 4.9107C3.88999 4.9107 3.87998 4.90003 3.87798 4.88934C3.87598 4.87865 3.87798 4.87507 3.87798 4.87151L3.86602 4.8341V4.80026L3.83999 4.78599C3.83999 4.78599 3.81199 4.76105 3.83999 4.73967C3.85053 4.73029 3.86267 4.72249 3.87598 4.71653C3.89798 4.70584 3.92002 4.69515 3.92402 4.67733C3.92632 4.67318 3.92749 4.66857 3.92749 4.66394C3.92749 4.6593 3.92632 4.65474 3.92402 4.65058C3.88602 4.60604 3.86402 4.52232 3.92402 4.48847C3.93308 4.48561 3.94294 4.48561 3.952 4.48847C3.98412 4.49173 4.01528 4.50017 4.04399 4.51339C4.0746 4.52745 4.10779 4.53653 4.14199 4.54014H4.154H4.13999C4.10659 4.53695 4.07409 4.52848 4.04399 4.51518C4.0147 4.50166 3.98282 4.49322 3.95 4.49025C3.93783 4.48942 3.92575 4.4926 3.91602 4.49917C3.86202 4.5348 3.88402 4.62388 3.91602 4.67733C3.91795 4.68031 3.91895 4.68368 3.91895 4.68712C3.91895 4.69056 3.91795 4.69393 3.91602 4.69691C3.91602 4.71116 3.89202 4.72184 3.87002 4.73253C3.85702 4.73894 3.8449 4.74674 3.83398 4.75572C3.82611 4.76356 3.82178 4.77369 3.82178 4.78421C3.82178 4.79473 3.82611 4.8049 3.83398 4.81274L3.85601 4.82518V4.8555L3.87002 4.89469C3.87396 4.89553 3.87804 4.89553 3.88198 4.89469C3.88198 4.89469 3.88198 4.8947 3.88198 4.90539C3.88221 4.91202 3.8849 4.91838 3.8896 4.92353C3.8943 4.92868 3.90077 4.93232 3.90801 4.93388C3.90305 4.91273 3.90305 4.89088 3.90801 4.86972C3.92401 4.86972 3.95401 4.86975 3.96401 4.85193C3.97401 4.83412 3.96401 4.80738 3.96401 4.79491H3.98398C3.97312 4.7853 3.96613 4.77279 3.96401 4.75928C3.97801 4.75928 4.02998 4.7361 4.02998 4.69334C4.02998 4.65058 4.00598 4.64882 3.98398 4.62923C3.96198 4.60963 3.95 4.59716 3.952 4.58647C3.952 4.58647 3.954 4.57578 3.952 4.58647C3.95418 4.58552 3.95656 4.58503 3.95898 4.58503C3.96141 4.58503 3.96383 4.58552 3.96602 4.58647C3.98575 4.58822 4.00484 4.59366 4.02202 4.60247C4.04381 4.61615 4.0694 4.62419 4.096 4.62566C4.1096 4.62567 4.12286 4.62192 4.13398 4.61496C4.13398 4.61496 4.11602 4.59003 4.11602 4.58647Z" fill="black"/>
<path d="M4.38192 3.88982C4.36405 3.88881 4.34648 3.88523 4.32992 3.87916H4.29994C4.22645 3.87201 4.15442 3.85582 4.08593 3.83105C4.07181 3.83154 4.0583 3.83618 4.04745 3.84423C4.0366 3.85229 4.029 3.86331 4.02592 3.8756C4.01503 3.87693 4.00468 3.88051 3.99564 3.88608C3.98661 3.89165 3.9792 3.89905 3.97396 3.90765C3.96431 3.91965 3.95874 3.93388 3.95795 3.94863H3.93192C3.91705 3.94995 3.90301 3.95527 3.89159 3.96385C3.88017 3.97244 3.87192 3.9839 3.86796 3.99674C3.86217 4.00664 3.85912 4.01763 3.85912 4.02879C3.85912 4.03996 3.86217 4.05099 3.86796 4.0609H3.85795C3.80395 4.0609 3.79793 4.11256 3.79393 4.14641C3.79393 4.14641 3.79393 4.16064 3.79393 4.16599C3.7902 4.17294 3.78827 4.18055 3.78827 4.18826C3.78827 4.19596 3.7902 4.20357 3.79393 4.21053C3.79393 4.21944 3.82193 4.21944 3.84393 4.21053C3.8464 4.21496 3.84769 4.21985 3.84769 4.22479C3.84769 4.22974 3.8464 4.23463 3.84393 4.23906C3.83927 4.24456 3.83304 4.24883 3.82592 4.2515C3.8347 4.26179 3.84587 4.27028 3.85863 4.27643C3.87139 4.28257 3.88547 4.28622 3.89994 4.28713C3.93794 4.28713 3.97195 4.25865 4.00795 4.23014C4.02802 4.21212 4.05015 4.19599 4.07396 4.18204C4.07891 4.14784 4.09488 4.11565 4.11996 4.08939C4.11996 4.08939 4.13193 4.0769 4.13993 4.07334C4.17393 4.02345 4.19996 4.00387 4.22196 4.00387C4.23479 3.98231 4.25615 3.96579 4.28192 3.95755C4.28192 3.9326 4.32996 3.91299 4.37196 3.89874C4.38468 3.89316 4.3981 3.88896 4.41195 3.88625L4.38192 3.88982Z" fill="#9C877D"/>
<path d="M4.29597 4.08377C4.29623 4.07962 4.29623 4.07544 4.29597 4.07129C4.26794 4.09856 4.2339 4.12042 4.19597 4.13545C4.19312 4.14038 4.189 4.14466 4.18396 4.14793C4.22563 4.13325 4.26368 4.11145 4.29597 4.08377Z" fill="black"/>
<path d="M4.05402 4.19087C4.03021 4.20483 4.00807 4.22095 3.988 4.23898C3.952 4.26748 3.91799 4.29596 3.87999 4.29596C3.86552 4.29505 3.85144 4.2914 3.83868 4.28526C3.82592 4.27911 3.8148 4.27062 3.80602 4.26033C3.81314 4.25766 3.81937 4.25334 3.82404 4.24785C3.8265 4.24342 3.82775 4.23857 3.82775 4.23363C3.82775 4.22868 3.8265 4.22379 3.82404 4.21936C3.80204 4.22827 3.78204 4.22827 3.77404 4.21936C3.77031 4.21241 3.76837 4.2048 3.76837 4.19709C3.76837 4.18938 3.77031 4.18177 3.77404 4.17482C3.77404 4.17482 3.77404 4.16233 3.77404 4.1552C3.77404 4.12135 3.784 4.07147 3.838 4.06968H3.84801C3.84223 4.05978 3.83922 4.04879 3.83922 4.03763C3.83922 4.02646 3.84223 4.01547 3.84801 4.00557C3.85198 3.99273 3.86022 3.98127 3.87164 3.97269C3.88307 3.9641 3.89715 3.95878 3.91202 3.95746H3.938C3.93879 3.94271 3.94436 3.92849 3.95402 3.91649C3.95925 3.90788 3.96666 3.90048 3.9757 3.89491C3.98473 3.88934 3.99513 3.88572 4.00602 3.88439C4.0091 3.8721 4.01665 3.86108 4.0275 3.85302C4.03836 3.84497 4.05191 3.84033 4.06603 3.83984C4.13452 3.86461 4.20651 3.8808 4.27999 3.88795H4.31002H4.292H4.26603L4.17799 3.87373C4.14224 3.86771 4.1074 3.85812 4.07404 3.84519C4.06204 3.84519 4.05801 3.8452 4.04801 3.85411C4.02248 3.88358 3.98962 3.90739 3.95201 3.92362C3.94289 3.93586 3.93738 3.94995 3.936 3.96459C3.92878 3.96294 3.92124 3.96294 3.91403 3.96459C3.89758 3.96576 3.8819 3.9713 3.86906 3.98051C3.85621 3.98973 3.84678 4.00221 3.842 4.01627C3.83242 4.03803 3.83242 4.06219 3.842 4.08395C3.788 4.08395 3.78199 4.14275 3.77799 4.17482C3.77399 4.20689 3.77799 4.19087 3.77799 4.19444C3.7736 4.20217 3.77135 4.21069 3.77135 4.21936C3.77135 4.22803 3.7736 4.23655 3.77799 4.24428C3.77799 4.25676 3.808 4.25854 3.834 4.24428C3.83605 4.25069 3.83605 4.2575 3.834 4.2639C3.83172 4.26686 3.82876 4.26936 3.82531 4.27121C3.82185 4.27305 3.81803 4.27421 3.81403 4.2746C3.82375 4.28669 3.8363 4.29676 3.85079 4.30414C3.86529 4.31152 3.88138 4.31604 3.89801 4.31736C3.94237 4.30979 3.98257 4.28905 4.01202 4.25855C4.02991 4.24227 4.04932 4.22737 4.07003 4.21401C4.06629 4.2055 4.06086 4.19768 4.05402 4.19087Z" fill="black"/>
<path d="M4.64197 3.8808C4.64197 3.8808 4.64197 3.8986 4.64197 3.90751L4.69397 3.82913C4.69397 3.82913 4.69397 3.82911 4.69397 3.81842C4.69821 3.78889 4.68912 3.75907 4.66868 3.73552C4.64824 3.71196 4.61814 3.69658 4.58499 3.6928C4.55183 3.68902 4.51836 3.69713 4.49192 3.71534C4.46548 3.73355 4.44821 3.7604 4.44397 3.78993L4.49197 3.80237C4.4995 3.79357 4.50907 3.7863 4.52 3.78102H4.53596H4.55398H4.574C4.58598 3.78268 4.59749 3.78631 4.60798 3.79172C4.62034 3.79814 4.63118 3.80658 4.63997 3.81664C4.63997 3.81664 4.63997 3.81665 4.63997 3.82556C4.63997 3.82556 4.63997 3.83447 4.63997 3.82556C4.64174 3.8332 4.64174 3.84106 4.63997 3.8487C4.64474 3.85887 4.64545 3.87022 4.64197 3.8808Z" fill="#9C877D"/>
<path d="M4.47795 3.88408C4.47795 3.88408 4.47795 3.86984 4.47795 3.84667C4.47795 3.82351 4.47795 3.84671 4.47795 3.83602L4.45398 3.84667C4.45949 3.86016 4.46836 3.87238 4.47996 3.88234L4.47795 3.88408Z" fill="#9C877D"/>
<path d="M4.47408 3.88621C4.46249 3.87625 4.45357 3.86407 4.44806 3.85059C4.45363 3.86417 4.46177 3.87682 4.47208 3.88799L4.47408 3.88621Z" fill="black"/>
<path d="M4.44601 3.78456C4.45025 3.75503 4.46751 3.72821 4.49396 3.71C4.5204 3.6918 4.55387 3.68365 4.58702 3.68743C4.62018 3.69121 4.65027 3.70659 4.67072 3.73014C4.69116 3.7537 4.70025 3.78352 4.69601 3.81305C4.69601 3.81305 4.69601 3.81306 4.69601 3.82375C4.69628 3.80777 4.69293 3.79189 4.68619 3.77708C4.67945 3.76227 4.66948 3.74884 4.6568 3.73754C4.64412 3.72624 4.62899 3.71731 4.61237 3.71131C4.59574 3.70531 4.57796 3.70237 4.56002 3.70261C4.53016 3.70294 4.50124 3.71198 4.47775 3.7284C4.45425 3.74483 4.43746 3.76772 4.42999 3.79348L4.44601 3.78456Z" fill="black"/>
<path d="M4.84398 4.47749H4.87797C4.93422 4.47479 4.98962 4.46397 5.04198 4.44543L5.09598 4.43117C5.10112 4.43595 5.10735 4.43971 5.11425 4.44217C5.12115 4.44463 5.12855 4.44574 5.13597 4.44543H5.164C5.20228 4.46441 5.23354 4.49287 5.25399 4.52738C5.25812 4.53463 5.26354 4.54127 5.27001 4.547C5.27001 4.547 5.26997 4.54699 5.27997 4.53095V4.52025V4.53095C5.29997 4.58974 5.344 4.59511 5.36 4.59511L5.29198 4.48998C5.29198 4.48998 5.21 4.43296 5.158 4.39376C5.12671 4.38086 5.09244 4.37474 5.058 4.37592H5.012C5.03937 4.36042 5.06286 4.3401 5.08109 4.3162C5.09932 4.29231 5.1119 4.26537 5.11801 4.23699H5.16C5.20525 4.2396 5.24911 4.25181 5.28798 4.27262C5.30235 4.28156 5.31872 4.28761 5.33597 4.29041C5.33968 4.29763 5.3456 4.30379 5.35302 4.3082C5.36043 4.3126 5.36906 4.3151 5.37797 4.31538C5.39333 4.3147 5.40839 4.31104 5.42201 4.30468L5.314 4.22629C5.28733 4.21975 5.26123 4.21139 5.23597 4.20133C5.20092 4.18477 5.16314 4.17335 5.12401 4.16748C5.087 4.20338 5.04291 4.23297 4.99398 4.25478C4.97578 4.22685 4.95129 4.2026 4.92201 4.18354C4.93601 4.16037 4.89599 4.10868 4.85599 4.06592C4.79463 4.11537 4.72244 4.153 4.64398 4.1764C4.64398 4.1764 4.64398 4.18889 4.64398 4.19245C4.63525 4.21263 4.62078 4.2304 4.60199 4.24408V4.25478C4.60199 4.25478 4.60198 4.27084 4.59198 4.27797C4.62429 4.27836 4.65617 4.28456 4.68573 4.29619C4.71529 4.30783 4.74192 4.32463 4.764 4.34565C4.77432 4.39669 4.7918 4.44638 4.816 4.49354C4.82495 4.48923 4.8343 4.48564 4.84398 4.48284V4.47749Z" fill="#9C877D"/>
<path d="M4.81005 3.99842H4.82006C4.85449 3.99584 4.8879 3.98675 4.91805 3.97171L4.94803 3.93961H4.95804H4.98202L4.96205 3.96279C4.97299 3.9601 4.98273 3.95449 4.99003 3.94674C4.99213 3.94699 4.99428 3.94689 4.99633 3.94639C4.99837 3.9459 5.00031 3.94503 5.00199 3.94387C5.00366 3.94271 5.00505 3.94125 5.00609 3.93961C5.00713 3.93796 5.0078 3.93613 5.00804 3.93426C5.01255 3.92466 5.01488 3.91438 5.01488 3.90398C5.01488 3.89358 5.01255 3.8833 5.00804 3.87371C4.97962 3.87122 4.95152 3.86644 4.92406 3.85944C4.88801 3.85146 4.85116 3.84668 4.81405 3.84517H4.78802C4.79278 3.83184 4.79278 3.81753 4.78802 3.8042C4.77262 3.81006 4.7579 3.81724 4.74403 3.8256C4.73144 3.8505 4.71531 3.87383 4.69603 3.89507C4.67011 3.92677 4.64797 3.96082 4.63002 3.99663C4.62232 4.01299 4.61835 4.03057 4.61835 4.04831C4.61835 4.06605 4.62232 4.08362 4.63002 4.09998C4.63586 4.11377 4.6399 4.12812 4.64203 4.14274C4.71499 4.11663 4.78258 4.07988 4.84203 4.03404L4.81005 3.99842Z" fill="#9C877D"/>
<path d="M4.66002 4.39402C4.57825 4.38916 4.49721 4.37724 4.41803 4.3584H4.39601C4.36401 4.3584 4.32801 4.37263 4.29401 4.38332L4.34601 4.41364L4.42003 4.50803L4.288 4.47062L4.21603 4.41542C4.18029 4.43555 4.15125 4.46385 4.13199 4.49737V4.50803C4.12515 4.52118 4.11983 4.53495 4.11603 4.54905C4.13265 4.59421 4.16254 4.63454 4.20265 4.66588C4.24275 4.69722 4.29158 4.71842 4.34401 4.72721C4.35163 4.75351 4.35163 4.78109 4.34401 4.80738C4.33773 4.82476 4.33773 4.84346 4.34401 4.86084C4.34401 4.86084 4.35603 4.8608 4.37203 4.86971C4.44772 4.87282 4.51923 4.90152 4.57203 4.94992C4.57635 4.95019 4.58054 4.95125 4.58434 4.9531C4.58814 4.95494 4.59142 4.95749 4.59401 4.96058C4.59858 4.96497 4.60401 4.9686 4.61002 4.97128C4.62525 4.97354 4.64079 4.97354 4.65602 4.97128H4.68199C4.66859 4.94028 4.64968 4.91141 4.62599 4.88576C4.61575 4.87858 4.60303 4.87478 4.59 4.87506C4.57874 4.87346 4.56728 4.87346 4.55602 4.87506L4.534 4.86436C4.50726 4.85116 4.48355 4.83368 4.46403 4.81273V4.80381C4.45689 4.7962 4.45082 4.78779 4.44601 4.77885C4.47294 4.75985 4.4908 4.73249 4.49601 4.70225C4.49601 4.68621 4.49601 4.67553 4.49601 4.67019C4.51601 4.67019 4.52004 4.63811 4.52404 4.61316C4.52306 4.60428 4.52306 4.59534 4.52404 4.58646H4.60402C4.62929 4.58587 4.65399 4.57974 4.67599 4.56862C4.70628 4.55571 4.73512 4.54019 4.76202 4.5223C4.72435 4.48534 4.70426 4.43679 4.70602 4.38689L4.66002 4.39402Z" fill="#9C877D"/>
<path d="M4.47001 4.92323C4.4836 4.93036 4.49632 4.93875 4.508 4.9482L4.53197 4.96599C4.53623 4.96513 4.54069 4.96556 4.54467 4.96716C4.54864 4.96877 4.55192 4.97149 4.55399 4.97491C4.55399 4.97491 4.56401 4.98383 4.57201 4.98561C4.58854 4.98832 4.60548 4.98832 4.62201 4.98561H4.66C4.64555 4.95487 4.62744 4.92561 4.60599 4.89831C4.59604 4.89192 4.58426 4.88819 4.57201 4.88761C4.5608 4.88549 4.54918 4.88549 4.53798 4.88761L4.516 4.87691C4.48079 4.86283 4.45288 4.83737 4.43798 4.80566C4.46576 4.78552 4.48427 4.75699 4.48998 4.72549C4.49099 4.71899 4.49099 4.71238 4.48998 4.70587C4.48998 4.70587 4.48998 4.69517 4.48998 4.69161C4.50998 4.69161 4.51401 4.65779 4.51801 4.63284C4.51689 4.62456 4.51689 4.61616 4.51801 4.60787H4.57001H4.58397C4.60912 4.60654 4.63368 4.60049 4.65599 4.59008C4.68675 4.57722 4.71561 4.56106 4.74198 4.54198C4.71507 4.55987 4.68628 4.57539 4.65599 4.5883C4.634 4.59942 4.60925 4.60551 4.58397 4.60609H4.50399C4.50302 4.61498 4.50302 4.62395 4.50399 4.63284C4.50399 4.65779 4.50396 4.6827 4.47596 4.68982C4.47596 4.68982 4.47596 4.70589 4.47596 4.72192C4.47076 4.75217 4.45289 4.77953 4.42596 4.79852C4.43078 4.80747 4.43684 4.81583 4.44398 4.82345V4.83237C4.46351 4.85331 4.48727 4.87084 4.514 4.88404L4.53597 4.89474C4.54724 4.89314 4.55875 4.89314 4.57001 4.89474C4.58304 4.89446 4.59576 4.89825 4.60599 4.90544C4.62968 4.93109 4.6486 4.95996 4.662 4.99096H4.63597C4.62075 4.99322 4.60521 4.99322 4.58998 4.99096C4.58397 4.98828 4.57858 4.98465 4.57401 4.98026C4.57143 4.97717 4.56809 4.97462 4.56429 4.97278C4.5605 4.97093 4.55631 4.96982 4.55199 4.96956C4.49919 4.92115 4.42767 4.8925 4.35199 4.88939C4.33599 4.88939 4.32601 4.88938 4.32401 4.88047C4.31774 4.8631 4.31774 4.84439 4.32401 4.82701C4.33163 4.80072 4.33163 4.77314 4.32401 4.74685C4.27158 4.73805 4.22276 4.7169 4.18265 4.68556C4.14255 4.65422 4.11261 4.61384 4.09598 4.56868C4.09978 4.55459 4.10516 4.54086 4.112 4.52771V4.51701C4.13125 4.48348 4.16025 4.45518 4.19598 4.43506C4.14446 4.46466 4.10732 4.51045 4.09198 4.56333C4.09198 4.56333 4.09198 4.56333 4.09198 4.56333C4.09522 4.57531 4.10064 4.58673 4.108 4.59717C4.12957 4.63431 4.15985 4.66692 4.19677 4.69274C4.23368 4.71856 4.2764 4.737 4.32201 4.74685C4.32863 4.77144 4.32863 4.79707 4.32201 4.82166C4.32201 4.84661 4.30601 4.868 4.32201 4.88047C4.33801 4.89295 4.34 4.89118 4.358 4.89296C4.39751 4.89495 4.43592 4.90532 4.47001 4.92323Z" fill="black"/>
<path d="M4.59998 4.24408V4.26191C4.59998 4.26191 4.59999 4.2459 4.60999 4.23877L4.59998 4.24408Z" fill="black"/>
<path d="M4.912 3.96631C4.88185 3.98135 4.84844 3.99044 4.814 3.99302H4.79999L4.83597 4.02864L4.80599 4.00015C4.83849 3.99738 4.8699 3.98823 4.89799 3.9734L4.912 3.96631Z" fill="black"/>
<path d="M4.41606 4.35645H4.40005C4.3629 4.36369 4.32617 4.37259 4.29004 4.38315C4.32404 4.37246 4.36004 4.36536 4.39204 4.35823L4.41606 4.35645Z" fill="black"/>
<path d="M4.74996 3.81997C4.76383 3.81161 4.77856 3.80443 4.79396 3.79857C4.79871 3.8119 4.79871 3.82622 4.79396 3.83955H4.81998C4.85709 3.84105 4.8939 3.84584 4.92994 3.85381C4.9574 3.86081 4.98555 3.8656 5.01398 3.86808C5.01849 3.87767 5.02081 3.88796 5.02081 3.89836C5.02081 3.90876 5.01849 3.91904 5.01398 3.92863C5.01373 3.93051 5.01307 3.93233 5.01202 3.93398C5.01098 3.93563 5.00955 3.93708 5.00787 3.93824C5.0062 3.9394 5.00431 3.94027 5.00226 3.94077C5.00021 3.94126 4.99806 3.94136 4.99596 3.94111C4.98867 3.94886 4.97892 3.95447 4.96798 3.95717C4.98317 3.95377 4.99744 3.94769 5.00997 3.93933C5.01997 3.93933 5.02794 3.93936 5.02994 3.92689C5.03602 3.90379 5.03175 3.87947 5.01798 3.85917C4.98963 3.85719 4.96149 3.853 4.93395 3.84668C4.89749 3.83729 4.85991 3.83194 4.82198 3.83067H4.79996C4.80395 3.81604 4.80395 3.80077 4.79996 3.78613C4.77992 3.79253 4.76104 3.80152 4.74396 3.81284L4.74996 3.81997Z" fill="black"/>
<path d="M4.86206 4.05382C4.90206 4.09658 4.94203 4.14823 4.92803 4.17139C4.95731 4.19045 4.98184 4.2147 5.00005 4.24264C5.04898 4.22082 5.09301 4.19124 5.13003 4.15534C5.16916 4.1612 5.20699 4.17267 5.24204 4.18923C5.26729 4.19929 5.2934 4.20761 5.32007 4.21415L5.42803 4.29253C5.41441 4.2989 5.3994 4.30256 5.38403 4.30323C5.37512 4.30296 5.3665 4.3005 5.35908 4.2961C5.35166 4.29169 5.34575 4.28553 5.34204 4.27831C5.32479 4.27551 5.30842 4.26942 5.29404 4.26047C5.25518 4.23966 5.21131 4.22746 5.16606 4.22485H5.12407C5.1182 4.25308 5.10591 4.27995 5.08804 4.30384C5.07016 4.32773 5.04706 4.34814 5.02007 4.36382H5.06606C5.10051 4.36264 5.13478 4.36872 5.16606 4.38162C5.21806 4.42081 5.29205 4.47249 5.30005 4.47783L5.36807 4.58297C5.35207 4.58297 5.30804 4.58295 5.28804 4.51881V4.50811V4.51881C5.28804 4.53484 5.28804 4.53486 5.28804 4.53486C5.28804 4.53486 5.27607 4.52415 5.27007 4.51524C5.24962 4.48073 5.21831 4.45226 5.18003 4.43329H5.15205C5.14463 4.4336 5.13722 4.43249 5.13032 4.43003C5.12342 4.42757 5.1172 4.42381 5.11206 4.41902L5.05806 4.43329C5.0057 4.45182 4.9503 4.46264 4.89404 4.46535H4.86006C4.85038 4.46815 4.84098 4.47174 4.83203 4.47605L4.85605 4.46713H4.89004C4.94759 4.46444 5.00432 4.45362 5.05806 4.43507L5.10806 4.42081C5.11394 4.42569 5.12086 4.42949 5.12842 4.43194C5.13598 4.43439 5.14402 4.43545 5.15205 4.43507H5.17803C5.21476 4.45466 5.2446 4.48305 5.26406 4.51702C5.26406 4.53128 5.27804 4.53842 5.28604 4.53842C5.29404 4.53842 5.29605 4.53841 5.30005 4.52594C5.30517 4.54382 5.31721 4.55951 5.33403 4.57026C5.35086 4.58102 5.37139 4.58616 5.39204 4.58475L5.31606 4.4707C5.31606 4.4707 5.23403 4.41546 5.18003 4.37448C5.14771 4.3604 5.11198 4.3537 5.07603 4.35491H5.04404C5.06937 4.33959 5.09097 4.31985 5.10747 4.29688C5.12397 4.27391 5.13503 4.24819 5.14004 4.22128H5.17603C5.22015 4.22327 5.26294 4.23555 5.30005 4.25691C5.31492 4.26626 5.33204 4.27238 5.35005 4.27474C5.3543 4.28285 5.36111 4.28966 5.36963 4.2944C5.37815 4.29915 5.388 4.3016 5.39805 4.30145C5.41648 4.30081 5.4344 4.29588 5.45005 4.28718L5.33604 4.20345C5.30984 4.19739 5.28441 4.18905 5.26006 4.17853C5.2233 4.16108 5.18332 4.14962 5.14204 4.14468C5.10662 4.17941 5.06468 4.20835 5.01807 4.2302C4.99883 4.20401 4.97521 4.18055 4.94805 4.16069C4.94805 4.13397 4.91603 4.08053 4.87803 4.03955L4.86206 4.05382Z" fill="black"/>
<path d="M4 4.25146C4 4.25146 4.00002 4.26753 4.02002 4.28178C4.02192 4.27278 4.02598 4.26424 4.03198 4.25682H4.004L4 4.25146Z" fill="#9C877D"/>
<path d="M4.12402 4.33133L4.28999 4.45787L4.398 4.48992L4.33799 4.41154L4.15 4.30462L4.12402 4.28857V4.30284C4.12402 4.32244 4.12602 4.32955 4.12402 4.33133Z" fill="#9C877D"/>
<path d="M4.21399 4.41905L4.28596 4.4743L4.41799 4.5117L4.34397 4.41731L4.29197 4.387L4.16399 4.31396C4.15686 4.31614 4.1491 4.31614 4.14197 4.31396L4.16799 4.32997L4.35598 4.43689L4.41599 4.51527L4.30798 4.48321L4.14197 4.35672H4.15198L4.24197 4.42441L4.21399 4.41905Z" fill="black"/>
<path d="M4.02599 4.28325C4.01399 4.26899 4.00402 4.25649 4.00602 4.25293H4.034H4.00201H3.992C3.992 4.25293 4.00603 4.285 4.02203 4.29925C4.0213 4.29366 4.02266 4.28804 4.02599 4.28325Z" fill="black"/>
<path d="M5.01199 4.75718C5.01514 4.67332 5.04883 4.59265 5.10798 4.52734C5.06998 4.52734 5.00599 4.57902 4.95999 4.62178C4.99399 4.64672 5.00197 4.65562 4.99797 4.66097C4.99397 4.66631 4.99795 4.66097 4.97595 4.66097C4.95758 4.66022 4.93945 4.65722 4.922 4.65205C4.91453 4.65856 4.90781 4.66574 4.90198 4.67345C4.94198 4.69769 4.97888 4.72577 5.01199 4.75718Z" fill="#9C877D"/>
<path d="M4.90198 4.67912C4.90781 4.6714 4.91453 4.66422 4.922 4.65771L4.90198 4.67733V4.67912Z" fill="black"/>
<path d="M4.96 4.61851C5.006 4.57575 5.07 4.52586 5.108 4.52407C5.04885 4.58938 5.01515 4.67005 5.012 4.75392C5.012 4.73966 5.012 4.72184 5.012 4.70224C5.01131 4.69275 5.01131 4.68324 5.012 4.67375C5.02284 4.61617 5.05278 4.56278 5.09799 4.52051H5.07997C5.03997 4.52051 4.97401 4.57218 4.92401 4.61851H4.96Z" fill="black"/>
<path d="M4.45399 4.12834C4.44531 4.11282 4.44052 4.09579 4.43997 4.07845C4.44028 4.0517 4.43121 4.02555 4.414 4.00363L4.38597 3.9751C4.36197 3.95194 4.34598 3.93415 4.34798 3.91455C4.31198 3.9288 4.274 3.94663 4.272 3.96801C4.25925 3.97118 4.24741 3.9768 4.23738 3.98449C4.22736 3.99219 4.21939 4.00178 4.214 4.01255C4.196 4.01255 4.17197 4.03391 4.13997 4.07845C4.07397 4.10517 4.068 4.23704 4.068 4.23882C4.05821 4.2491 4.05133 4.26131 4.04798 4.27445C4.04569 4.28021 4.04569 4.28648 4.04798 4.29224H4.05799C4.0583 4.29517 4.0596 4.29797 4.06175 4.3002C4.0639 4.30243 4.0668 4.304 4.07 4.30472C4.07 4.30472 4.08197 4.31541 4.08997 4.30472H4.11199C4.11199 4.30472 4.11199 4.29402 4.11199 4.28689C4.11199 4.27976 4.11199 4.26731 4.11199 4.26553H4.12401H4.13997C4.13997 4.26553 4.13997 4.25661 4.13997 4.2477C4.13363 4.2451 4.1281 4.24115 4.12391 4.23617C4.11972 4.23119 4.11702 4.22536 4.116 4.21921C4.11462 4.20055 4.11946 4.18194 4.12996 4.16575C4.12996 4.16575 4.206 4.11229 4.214 4.06953C4.23326 4.06939 4.25214 4.06494 4.26893 4.05653C4.28572 4.04811 4.29986 4.03601 4.30999 4.02142C4.29084 4.04263 4.2804 4.06906 4.2804 4.09628C4.2804 4.1235 4.29084 4.14989 4.30999 4.1711C4.30999 4.21742 4.36198 4.31722 4.39798 4.32612C4.4757 4.3457 4.55542 4.35823 4.63597 4.36353H4.668C4.668 4.4348 4.70599 4.50605 4.80999 4.57376C4.80662 4.5818 4.80662 4.59064 4.80999 4.59868C4.80999 4.59868 4.82797 4.6076 4.84197 4.6076C4.86707 4.62341 4.89724 4.63156 4.92796 4.63078H4.94398C4.91617 4.60707 4.88606 4.58559 4.85399 4.56662L4.79197 4.5203C4.75432 4.45564 4.72675 4.38672 4.70999 4.31542C4.68818 4.29532 4.66208 4.27929 4.63323 4.26827C4.60439 4.25726 4.57336 4.25147 4.54197 4.25127V4.20494C4.52696 4.19313 4.51091 4.18242 4.49398 4.17288C4.47879 4.15944 4.46538 4.14449 4.45399 4.12834Z" fill="#9C877D"/>
<path d="M4.48395 3.88789C4.47561 3.89498 4.4662 3.90099 4.45597 3.90572C4.47913 3.92639 4.50457 3.9449 4.53195 3.96096L4.54796 3.95026C4.55996 3.95026 4.58195 3.9289 4.58395 3.92356H4.59996C4.59996 3.92356 4.59996 3.92354 4.59996 3.91107C4.59996 3.8986 4.59996 3.88792 4.59996 3.87901C4.60749 3.87372 4.61251 3.86606 4.61398 3.85761H4.60397C4.58289 3.85631 4.56206 3.85271 4.54196 3.84691C4.51856 3.84036 4.49443 3.8362 4.46998 3.83447H4.45197C4.45226 3.83863 4.45226 3.84276 4.45197 3.84691C4.49197 3.86651 4.49195 3.88076 4.48395 3.88789Z" fill="#9C877D"/>
<path d="M4.47805 3.88456H4.46409H4.44006C4.44861 3.88274 4.45754 3.88274 4.46609 3.88456C4.47632 3.87983 4.48573 3.87385 4.49407 3.86677C4.49407 3.86677 4.49407 3.84539 4.49407 3.82401C4.49436 3.81985 4.49436 3.81568 4.49407 3.81152C4.49407 3.81152 4.49407 3.81153 4.49407 3.82222C4.49407 3.83291 4.48205 3.87921 4.47805 3.88456Z" fill="black"/>
<path d="M4.61002 3.7773C4.59953 3.7719 4.58797 3.76826 4.57599 3.7666C4.58804 3.76798 4.59966 3.77164 4.61002 3.7773Z" fill="black"/>
<path d="M4.65002 3.81494V3.82743C4.65002 3.82743 4.65202 3.8185 4.65002 3.81494Z" fill="black"/>
<path d="M4.63596 3.8756C4.63596 3.8756 4.63596 3.89696 4.63596 3.90765C4.63596 3.91834 4.63596 3.91836 4.63596 3.92014C4.63596 3.92014 4.63596 3.92192 4.63596 3.92014H4.62C4.62 3.92014 4.59596 3.94684 4.58396 3.94684L4.56799 3.95754L4.61199 3.97355L4.57795 3.95754H4.58796C4.60396 3.95754 4.62596 3.9397 4.63396 3.92901H4.64998V3.91835C4.64998 3.90945 4.64998 3.89873 4.64998 3.8916C4.65921 3.88354 4.6649 3.8728 4.66599 3.86133C4.66258 3.86562 4.65806 3.86912 4.65286 3.87159C4.64765 3.87407 4.64186 3.87546 4.63596 3.8756Z" fill="black"/>
<path d="M4.20001 3.84357C4.23828 3.84463 4.27584 3.85317 4.31002 3.86854C4.33175 3.8784 4.35562 3.88385 4.37999 3.88455C4.40136 3.86534 4.42737 3.85072 4.45602 3.84179L4.486 3.82757H4.51002C4.53537 3.82889 4.5603 3.83367 4.584 3.84179C4.60369 3.84621 4.62377 3.84919 4.64401 3.85071H4.65402C4.65564 3.83732 4.65132 3.8239 4.642 3.8133C4.6346 3.80249 4.62436 3.79346 4.61217 3.78694C4.59998 3.78042 4.58623 3.77663 4.57203 3.77589C4.5588 3.77567 4.54569 3.77832 4.53385 3.78359C4.52201 3.78886 4.51176 3.7966 4.50402 3.80617C4.47776 3.79713 4.45012 3.79175 4.42203 3.79016C4.41237 3.78687 4.40166 3.78687 4.392 3.79016C4.37701 3.78366 4.36067 3.78001 4.34401 3.77946C4.33238 3.77913 4.32089 3.78182 4.31095 3.7872C4.30101 3.79258 4.29303 3.80039 4.288 3.80973C4.288 3.80973 4.21601 3.81329 4.20001 3.84357Z" fill="#9C877D"/>
<path d="M4.18793 3.85236C4.21747 3.85287 4.24668 3.85832 4.27396 3.86841H4.29994H4.31796C4.33452 3.87448 4.35209 3.8781 4.36996 3.87911C4.38553 3.8668 4.40305 3.85656 4.42196 3.8488L4.44594 3.83814H4.47196C4.49641 3.83987 4.52054 3.84402 4.54393 3.85058C4.56404 3.85637 4.58487 3.85997 4.60594 3.86128H4.62396C4.62574 3.85364 4.62574 3.84578 4.62396 3.83814V3.82566C4.61518 3.8156 4.60429 3.80711 4.59193 3.80069C4.58157 3.79503 4.57 3.79141 4.55795 3.79003H4.53793H4.51996H4.50394C4.49302 3.79532 4.48345 3.80258 4.47592 3.81139L4.42792 3.79891H4.40194C4.38984 3.79864 4.37797 3.80177 4.36796 3.80782C4.35296 3.80133 4.33662 3.79768 4.31996 3.79712C4.30725 3.79658 4.29463 3.79935 4.28363 3.80504C4.27263 3.81073 4.26371 3.81912 4.25795 3.82922C4.24395 3.82922 4.19392 3.82922 4.17792 3.86663L4.18793 3.85236ZM4.27396 3.81496C4.279 3.80562 4.28697 3.7978 4.29691 3.79242C4.30685 3.78705 4.31829 3.78435 4.32992 3.78468C4.34658 3.78524 4.36292 3.78884 4.37792 3.79534C4.38758 3.79205 4.39829 3.79205 4.40795 3.79534C4.43604 3.79693 4.46367 3.80235 4.48993 3.81139C4.48993 3.81139 4.51995 3.77399 4.55795 3.77933C4.57214 3.78007 4.58589 3.78386 4.59808 3.79038C4.61027 3.7969 4.62051 3.80593 4.62792 3.81674C4.63724 3.82734 4.64156 3.84076 4.63993 3.85415H4.62992C4.60968 3.85263 4.58965 3.84965 4.56996 3.84523C4.54627 3.83711 4.52128 3.83233 4.49594 3.83101H4.47196L4.44193 3.84523C4.41328 3.85416 4.38732 3.86878 4.36595 3.88799C4.34158 3.88729 4.31766 3.88184 4.29594 3.87198C4.26175 3.85661 4.2242 3.84807 4.18593 3.84701C4.20593 3.81673 4.25995 3.82031 4.25995 3.82031L4.27396 3.81496Z" fill="black"/>
<path d="M4.446 3.90553C4.43626 3.89896 4.42419 3.89579 4.41201 3.89661C4.3917 3.89732 4.37185 3.90222 4.354 3.91088C4.354 3.92692 4.36799 3.94475 4.39199 3.96969L4.42002 3.9964C4.43853 4.01986 4.4483 4.04789 4.448 4.07656C4.44713 4.09237 4.45205 4.108 4.46201 4.1211C4.48166 4.14931 4.50833 4.17311 4.53999 4.19061C4.55961 4.20256 4.57832 4.21565 4.596 4.2298V4.2084V4.171C4.59139 4.17198 4.58658 4.17198 4.58198 4.171C4.58198 4.171 4.57202 4.171 4.56802 4.171C4.53802 4.13714 4.55602 4.0552 4.56802 4.05164C4.55924 4.04897 4.55155 4.04399 4.546 4.03737C4.54063 4.03723 4.53545 4.03563 4.53115 4.03276C4.52685 4.02989 4.52367 4.02587 4.52202 4.02132C4.51709 4.02066 4.51235 4.01904 4.5082 4.01658C4.50406 4.01412 4.50058 4.0109 4.498 4.0071C4.498 4.0071 4.51002 4.0071 4.52202 4.0071C4.52779 4.00502 4.53422 4.00502 4.53999 4.0071C4.54501 4.00749 4.54986 4.009 4.55405 4.01149C4.55825 4.01398 4.56168 4.01734 4.56401 4.02132C4.57601 4.02132 4.58398 4.03024 4.58398 4.03737V4.01423L4.53599 3.9964C4.50199 3.96944 4.47179 3.93893 4.446 3.90553Z" fill="#9C877D"/>
<path d="M4.60004 4.1481C4.60004 4.1481 4.60005 4.1481 4.61005 4.1481L4.58603 4.07324C4.5826 4.09886 4.58747 4.12486 4.60004 4.1481Z" fill="#9C877D"/>
<path d="M4.59997 4.23176C4.5823 4.2176 4.56358 4.20452 4.54397 4.19257C4.51231 4.17506 4.48564 4.15126 4.46599 4.12306C4.45603 4.10995 4.4511 4.09432 4.45197 4.07852C4.45228 4.04984 4.44251 4.02181 4.424 3.99835L4.39597 3.97164C4.37197 3.9467 4.35398 3.92887 4.35798 3.91283C4.37582 3.90417 4.39568 3.89928 4.41599 3.89857C4.42816 3.89774 4.44024 3.90092 4.44997 3.90748C4.47628 3.93073 4.50507 3.95163 4.53596 3.96986L4.58396 3.98765L4.53996 3.97164C4.51259 3.95558 4.48715 3.93707 4.46399 3.9164C4.45544 3.91458 4.44651 3.91458 4.43796 3.9164H4.42595H4.40798C4.39413 3.91911 4.38071 3.92326 4.36799 3.92884C4.36799 3.92884 4.38198 3.96627 4.40598 3.98943L4.43396 4.01792C4.45117 4.03984 4.46029 4.06604 4.45998 4.09278C4.46053 4.11012 4.46532 4.12715 4.474 4.14267C4.49557 4.17118 4.52346 4.19542 4.55598 4.21392C4.57291 4.22346 4.58896 4.23417 4.60398 4.24598L4.59997 4.23176Z" fill="black"/>
<path d="M4.60398 4.17463L4.60198 4.17285L4.59998 4.21204L4.60398 4.17463Z" fill="black"/>
<path d="M4.57002 4.0144C4.57002 4.0144 4.57 4.00369 4.552 4.00191C4.552 4.00191 4.54198 3.99299 4.53198 3.99121H4.5C4.50518 3.99284 4.51084 3.99284 4.51602 3.99121C4.51602 4.00012 4.51599 4.0037 4.53599 4.00548C4.53599 4.00548 4.548 4.00545 4.554 4.01792V4.00369L4.57002 4.0144Z" fill="#9C877D"/>
<path d="M4.55607 3.99288C4.55373 3.9889 4.5503 3.9855 4.54611 3.983C4.54191 3.98051 4.53707 3.979 4.53204 3.97861C4.52627 3.97653 4.51985 3.97653 4.51407 3.97861C4.50207 3.97861 4.49005 3.97861 4.49005 3.97861C4.49263 3.98241 4.49611 3.98567 4.50026 3.98814C4.5044 3.9906 4.50915 3.99221 4.51407 3.99288C4.51573 3.99743 4.51891 4.0014 4.52321 4.00427C4.5275 4.00715 4.53268 4.00879 4.53805 4.00893C4.5436 4.01555 4.55129 4.02049 4.56007 4.02315V4.03207H4.57008C4.57008 4.03207 4.55406 4.03206 4.55206 4.01959C4.54206 4.01959 4.53404 4.01962 4.53204 4.00536C4.52687 4.00699 4.52125 4.00699 4.51608 4.00536H4.54806C4.54806 4.00536 4.56608 4.00537 4.56808 4.01606C4.56808 4.01606 4.58605 4.01603 4.58605 4.0285C4.58605 4.0285 4.56807 3.99644 4.55607 3.99288Z" fill="black"/>
<path d="M4.61401 4.15315H4.63799C4.6355 4.13934 4.63215 4.12566 4.62798 4.11218C4.61874 4.09493 4.61396 4.07609 4.61396 4.05698C4.61396 4.03787 4.61874 4.01898 4.62798 4.00174C4.64585 3.96551 4.66871 3.93139 4.696 3.90017C4.71429 3.87995 4.72973 3.85783 4.74199 3.83427C4.73546 3.83259 4.72855 3.83259 4.72202 3.83427C4.71479 3.83275 4.70723 3.83275 4.7 3.83427L4.61802 3.95898L4.58398 3.9839V4.0819L4.61201 4.16385L4.61401 4.15315Z" fill="#9C877D"/>
<path d="M4.59998 4.22482C4.61559 4.21258 4.62788 4.19736 4.63596 4.18028C4.63596 4.18028 4.63596 4.17136 4.63596 4.16602L4.60598 4.17493L4.59998 4.22482Z" fill="#9C877D"/>
<path d="M4.70001 3.81667L4.64801 3.89505V3.90932V3.92002L4.636 3.93603L4.60001 3.96278V3.97344V4.02689V4.06609L4.62404 4.14095L4.59601 4.059V3.961L4.62999 3.93603L4.71202 3.81132C4.71926 3.8098 4.72676 3.8098 4.734 3.81132C4.74053 3.80964 4.74748 3.80964 4.75402 3.81132C4.74175 3.83488 4.72631 3.85704 4.70802 3.87726C4.68073 3.90848 4.65788 3.94256 4.64 3.97879C4.63077 3.99604 4.62599 4.01492 4.62599 4.03403C4.62599 4.05314 4.63077 4.07202 4.64 4.08927C4.64418 4.10276 4.64753 4.11643 4.65001 4.13024C4.64788 4.11563 4.64384 4.10128 4.638 4.08749C4.6303 4.07112 4.62633 4.05355 4.62633 4.03581C4.62633 4.01807 4.6303 4.0005 4.638 3.98414C4.65596 3.94832 4.67809 3.91432 4.70402 3.88261C4.72329 3.86138 4.73942 3.838 4.75201 3.8131H4.742C4.7374 3.81212 4.73259 3.81212 4.72799 3.8131H4.70602L4.70001 3.81667Z" fill="black"/>
<path d="M4.59998 4.21043V4.23183V4.24249C4.61877 4.2288 4.63323 4.21103 4.64197 4.19086C4.64197 4.19086 4.64197 4.18193 4.64197 4.1748C4.64197 4.1748 4.64197 4.18551 4.64197 4.18907C4.63389 4.20615 4.6216 4.22137 4.60598 4.23361V4.18372L4.59998 4.21043Z" fill="black"/>
<path d="M4.60003 4.16768C4.74517 4.12944 4.8723 4.04998 4.96205 3.94141H4.94603C4.86089 4.04368 4.7431 4.12067 4.60804 4.16233C4.60356 4.16487 4.59836 4.1662 4.59305 4.1662C4.58774 4.1662 4.5825 4.16487 4.57801 4.16233C4.56091 4.12759 4.55675 4.08891 4.56605 4.05189C4.56605 4.06614 4.55001 4.13383 4.57601 4.16411C4.58336 4.16761 4.59181 4.16887 4.60003 4.16768Z" fill="#9C877D"/>
<path d="M4.96 3.96293L4.97997 3.93975H4.956H4.94599L4.91601 3.97185C4.89688 3.99158 4.87614 4.01001 4.85399 4.02705C4.79454 4.07289 4.72696 4.10964 4.65399 4.13575H4.62997H4.59999C4.59999 4.13575 4.59998 4.13575 4.58998 4.13575C4.57814 4.11357 4.57329 4.08891 4.57597 4.06446V4.02527H4.55399C4.55399 4.02527 4.53399 4.11082 4.55399 4.14467C4.55399 4.14467 4.56401 4.14467 4.56801 4.14467C4.57261 4.14565 4.57737 4.14565 4.58197 4.14467L4.612 4.13575C4.69046 4.11235 4.76265 4.07472 4.82401 4.02527C4.85361 4.00116 4.88163 3.97559 4.908 3.94867L4.96 3.96293ZM4.57597 4.15532C4.54997 4.12504 4.56401 4.05735 4.56601 4.0431C4.5567 4.08012 4.56087 4.1188 4.57797 4.15354C4.58245 4.15608 4.5877 4.15746 4.59301 4.15746C4.59832 4.15746 4.60351 4.15608 4.608 4.15354C4.74306 4.11188 4.86085 4.03489 4.94599 3.93262H4.962C4.87226 4.04119 4.74513 4.12065 4.59999 4.15889C4.59177 4.16008 4.58331 4.15882 4.57597 4.15532Z" fill="black"/>
<path d="M4.63593 4.65048C4.66242 4.64899 4.68867 4.65596 4.70995 4.67009C4.71959 4.67766 4.72651 4.68755 4.72992 4.69858C4.75108 4.6978 4.77181 4.70418 4.78793 4.71642C4.79215 4.72555 4.79215 4.73578 4.78793 4.74491C4.79334 4.7445 4.79883 4.74507 4.80399 4.74661C4.80915 4.74814 4.8139 4.7506 4.81796 4.75383C4.82721 4.76114 4.83291 4.77133 4.83392 4.78232C4.84421 4.77874 4.85567 4.77874 4.86595 4.78232C4.87156 4.7858 4.87573 4.79081 4.87792 4.79658C4.88139 4.79526 4.88517 4.79458 4.88895 4.79458C4.89273 4.79458 4.89646 4.79526 4.89994 4.79658C4.91994 4.79658 4.93393 4.83222 4.93793 4.83934C4.94847 4.84017 4.95862 4.84339 4.96737 4.84869C4.97612 4.854 4.98319 4.86119 4.98793 4.86962C4.99363 4.87277 5.00021 4.87445 5.00692 4.87445C5.01364 4.87445 5.02021 4.87277 5.02592 4.86962L5.04594 4.80907C5.04594 4.80907 4.86993 4.57743 4.63593 4.65048Z" fill="#9C877D"/>
<path d="M4.90193 4.67902C4.86051 4.65429 4.81269 4.63935 4.76301 4.63561C4.71333 4.63187 4.66343 4.63944 4.61794 4.65762C4.65107 4.65183 4.68542 4.65758 4.71394 4.67367C4.72323 4.68046 4.72955 4.68988 4.73191 4.70037C4.73191 4.70037 4.77192 4.70039 4.78792 4.71643C4.78995 4.72065 4.79099 4.72518 4.79099 4.72978C4.79099 4.73437 4.78995 4.73891 4.78792 4.74313C4.79228 4.74124 4.79708 4.74026 4.80193 4.74026C4.80678 4.74026 4.81158 4.74124 4.81594 4.74313C4.82034 4.74678 4.82384 4.75119 4.82625 4.7561C4.82865 4.761 4.82988 4.76632 4.82991 4.77167C4.83957 4.76838 4.85028 4.76838 4.85994 4.77167C4.85994 4.77167 4.85994 4.77164 4.85994 4.78589C4.86273 4.78464 4.86579 4.78398 4.86892 4.78398C4.87205 4.78398 4.87511 4.78464 4.87791 4.78589C4.88886 4.79126 4.8979 4.79932 4.90393 4.80908V4.82152H4.91995C4.92921 4.82432 4.93746 4.82925 4.94392 4.83578C4.94392 4.83578 4.94392 4.83579 4.94392 4.84648H4.96995C4.97712 4.84842 4.98475 4.84842 4.99192 4.84648C4.98622 4.84964 4.97964 4.85131 4.97292 4.85131C4.96621 4.85131 4.95963 4.84964 4.95393 4.84648C4.94919 4.83805 4.94213 4.83082 4.93337 4.82552C4.92462 4.82022 4.91447 4.81704 4.90393 4.81621C4.90393 4.81621 4.88594 4.78058 4.86594 4.77345C4.86247 4.77213 4.85869 4.77141 4.85491 4.77141C4.85113 4.77141 4.8474 4.77213 4.84392 4.77345C4.84173 4.76768 4.83752 4.76267 4.83191 4.75918C4.82162 4.75561 4.81022 4.75561 4.79993 4.75918C4.79892 4.7482 4.79317 4.73796 4.78391 4.73065C4.77985 4.72743 4.7751 4.725 4.76995 4.72347C4.76479 4.72194 4.75935 4.72137 4.75393 4.72178C4.75815 4.71265 4.75815 4.70237 4.75393 4.69324C4.73781 4.681 4.71709 4.67466 4.69592 4.67545C4.69251 4.66442 4.68554 4.65448 4.6759 4.64692C4.65462 4.63278 4.62842 4.62586 4.60193 4.62734C4.83393 4.55429 5.01795 4.78946 5.01995 4.79302V4.78054C5.01056 4.77054 5.00052 4.76104 4.98992 4.75205C4.96314 4.72537 4.9337 4.70093 4.90193 4.67902Z" fill="black"/>
<path d="M5.12402 4.93892C5.14132 4.95456 5.1623 4.96654 5.1855 4.97394C5.2087 4.98134 5.2335 4.98398 5.25801 4.98168C5.28266 4.97438 5.30336 4.95913 5.31602 4.93892C5.31144 4.93748 5.30745 4.93481 5.30459 4.93131C5.30173 4.92781 5.30013 4.92363 5.3 4.91931C5.29761 4.91821 5.29552 4.91671 5.2938 4.91487C5.29208 4.91303 5.29077 4.91089 5.28999 4.90861C5.28999 4.92642 5.278 4.95671 5.254 4.95671C5.224 4.95671 5.16801 4.90151 5.16401 4.89795L5.12998 4.94249L5.12402 4.93892Z" fill="#9C877D"/>
<path d="M5.2 4.923L5.16401 4.89273C5.16401 4.89273 5.224 4.95154 5.254 4.95154C5.278 4.95154 5.28599 4.92124 5.28999 4.90343C5.29077 4.90572 5.29208 4.90781 5.2938 4.90965C5.29552 4.91148 5.29761 4.91299 5.3 4.91408C5.30013 4.91841 5.30173 4.92263 5.30459 4.92613C5.30745 4.92963 5.31144 4.93226 5.31602 4.9337C5.30336 4.95391 5.28266 4.96916 5.25801 4.97646C5.2335 4.97876 5.2087 4.97612 5.1855 4.96872C5.1623 4.96131 5.14132 4.94934 5.12402 4.9337C5.15306 4.95498 5.18854 4.968 5.22598 4.97111H5.25C5.26419 4.9677 5.27739 4.96165 5.28877 4.95336C5.30015 4.94507 5.30946 4.93472 5.31602 4.923C5.31602 4.923 5.298 4.92303 5.3 4.90521C5.3 4.90521 5.28799 4.89272 5.28599 4.88916C5.28599 4.9052 5.28601 4.94262 5.25801 4.94262C5.24147 4.93909 5.2263 4.93169 5.21401 4.92122L5.2 4.923Z" fill="black"/>
<path d="M4.68801 4.9945C4.6802 5.00026 4.67406 5.00757 4.67004 5.01586C4.68577 5.01483 4.70125 5.01182 4.71604 5.00694C4.74494 5.00461 4.7729 4.99673 4.79802 4.9838C4.80126 4.99046 4.80622 4.99634 4.81248 5.00099C4.81873 5.00563 4.82608 5.00888 4.83401 5.01051C4.83498 5.0064 4.83498 5.00214 4.83401 4.99803C4.84184 5.00011 4.8502 5.00011 4.85803 4.99803C4.85803 4.99803 4.85802 4.98023 4.84802 4.97489C4.84802 4.97489 4.84802 4.96418 4.84802 4.9624C4.84279 4.96111 4.83724 4.96111 4.83201 4.9624C4.80801 4.98378 4.75001 5.0105 4.73401 4.99981C4.71801 4.98912 4.73401 4.99981 4.73401 4.99981C4.73401 4.99981 4.73402 4.99093 4.74802 4.98202C4.76202 4.97311 4.78405 4.95173 4.77405 4.93213L4.70002 4.94461L4.68801 4.9945Z" fill="#9C877D"/>
</g>
<defs>
<clipPath id="clip0_284_100792">
<rect width="24" height="21.3799" fill="white" transform="translate(0 0.69873)"/>
</clipPath>
</defs>
</svg>
