<svg width="24" height="22" viewBox="0 0 24 22" fill="none" xmlns="http://www.w3.org/2000/svg">
<g clip-path="url(#clip0_284_100787)">
<path d="M21.938 1.03219C22.3139 1.03266 22.6743 1.1659 22.9401 1.4027C23.2059 1.63949 23.3555 1.96052 23.356 2.2954V20.0015C23.3555 20.3364 23.2059 20.6574 22.9401 20.8942C22.6743 21.131 22.3139 21.2642 21.938 21.2647H2.06201C1.6861 21.2642 1.32572 21.131 1.05991 20.8942C0.7941 20.6574 0.644523 20.3364 0.643994 20.0015V2.2954C0.644523 1.96052 0.7941 1.63949 1.05991 1.4027C1.32572 1.1659 1.6861 1.03266 2.06201 1.03219H21.938ZM21.938 0.458496H2.06201C1.5153 0.458968 0.991126 0.652658 0.604541 0.997039C0.217956 1.34142 0.000529505 1.80837 0 2.2954V20.0015C0.000529505 20.4885 0.217956 20.9555 0.604541 21.2999C0.991126 21.6442 1.5153 21.8379 2.06201 21.8384H21.938C22.4845 21.8375 23.0084 21.6436 23.3949 21.2993C23.7813 20.9551 23.9989 20.4884 24 20.0015V2.2954C23.9995 1.80837 23.782 1.34142 23.3955 0.997039C23.0089 0.652658 22.4847 0.458968 21.938 0.458496Z" fill="#CAB99E"/>
<path d="M0.643951 17.3592H23.356V4.53125H0.643951V17.3592ZM13.8759 8.40279L15.156 9.97418L17.2299 9.37379L15.948 10.9452L17.2299 12.5166L15.156 11.9162L13.8759 13.4859V11.5456L11.802 10.9452L13.8759 10.3448V8.40279ZM6.73194 5.60025C7.74499 5.60076 8.74144 5.82973 9.62833 6.26589C10.5152 6.70204 11.2637 7.33118 11.804 8.09457C11.1551 7.45052 10.3022 6.997 9.35787 6.79395C8.41355 6.5909 7.42229 6.64786 6.51509 6.95733C5.6079 7.26679 4.82746 7.81417 4.27691 8.52715C3.72636 9.24014 3.43165 10.0851 3.43165 10.9505C3.43165 11.8159 3.72636 12.6609 4.27691 13.3739C4.82746 14.0869 5.6079 14.6343 6.51509 14.9438C7.42229 15.2532 8.41355 15.3102 9.35787 15.1072C10.3022 14.9041 11.1551 14.4506 11.804 13.8065C11.2474 14.5928 10.4704 15.2363 9.54942 15.6733C8.62847 16.1103 7.59551 16.3258 6.5525 16.2986C5.50948 16.2713 4.49245 16.0022 3.60186 15.5178C2.71128 15.0334 1.97791 14.3505 1.47413 13.5364C0.970348 12.7224 0.713597 11.8054 0.729205 10.8759C0.744814 9.94649 1.03225 9.03675 1.56314 8.2365C2.09403 7.43625 2.85 6.77318 3.75645 6.31274C4.66291 5.85229 5.68848 5.61037 6.73194 5.6109V5.60025Z" fill="white"/>
<path d="M21.9379 1.03223H2.06197C1.68605 1.0327 1.32568 1.16595 1.05987 1.40274C0.794057 1.63953 0.644481 1.96056 0.643951 2.29544V2.39344H23.356V2.29544C23.3554 1.96056 23.2059 1.63953 22.94 1.40274C22.6742 1.16595 22.3139 1.0327 21.9379 1.03223Z" fill="white"/>
<path d="M0.643951 20.0017C0.644481 20.3366 0.794057 20.6576 1.05987 20.8944C1.32568 21.1312 1.68605 21.2645 2.06197 21.265H21.9379C22.3139 21.2645 22.6742 21.1312 22.94 20.8944C23.2059 20.6576 23.3554 20.3366 23.356 20.0017V19.4976H0.643951V20.0017Z" fill="white"/>
<path d="M23.356 2.39355H0.643951V4.53155H23.356V2.39355Z" fill="#FF0410"/>
<path d="M23.356 17.3594H0.643951V19.4974H23.356V17.3594Z" fill="#FF0410"/>
<path d="M6.73192 16.2905C7.74497 16.29 8.74143 16.061 9.62831 15.6248C10.5152 15.1887 11.2636 14.5596 11.8039 13.7962C11.1551 14.4402 10.3022 14.8937 9.35785 15.0968C8.41353 15.2998 7.42227 15.2428 6.51508 14.9334C5.60788 14.6239 4.82745 14.0765 4.27689 13.3635C3.72634 12.6506 3.43163 11.8056 3.43163 10.9402C3.43163 10.0748 3.72634 9.22977 4.27689 8.51679C4.82745 7.80381 5.60788 7.25639 6.51508 6.94692C7.42227 6.63745 8.41353 6.58049 9.35785 6.78354C10.3022 6.98659 11.1551 7.44012 11.8039 8.08416C11.2474 7.29785 10.4704 6.6544 9.5494 6.21738C8.62845 5.78036 7.59549 5.56487 6.55248 5.59215C5.50946 5.61942 4.49243 5.88853 3.60184 6.37293C2.71126 6.85732 1.97789 7.54025 1.47411 8.35428C0.970329 9.16832 0.713579 10.0853 0.729187 11.0148C0.744796 11.9442 1.03223 12.854 1.56312 13.6542C2.09401 14.4544 2.84998 15.1175 3.75643 15.578C4.66289 16.0384 5.68846 16.2803 6.73192 16.2798V16.2905Z" fill="#FF0410"/>
<path d="M13.8759 11.5457V13.4877L15.1559 11.9163L17.2299 12.5167L15.9479 10.9453L17.2299 9.37383L15.1559 9.97422L13.8759 8.40283V10.3448L11.8019 10.9453L13.8759 11.5457Z" fill="#FF0410"/>
</g>
<defs>
<clipPath id="clip0_284_100787">
<rect width="24" height="21.3799" fill="white" transform="translate(0 0.458496)"/>
</clipPath>
</defs>
</svg>
