<svg width="24" height="23" viewBox="0 0 24 23" fill="none" xmlns="http://www.w3.org/2000/svg">
<g clip-path="url(#clip0_284_100842)">
<path d="M21.938 1.55172C22.3139 1.55219 22.6743 1.68544 22.9401 1.92223C23.2059 2.15902 23.3555 2.48005 23.356 2.81493V20.521C23.3555 20.8559 23.2059 21.1769 22.9401 21.4137C22.6743 21.6505 22.3139 21.7838 21.938 21.7843H2.06201C1.6861 21.7838 1.32572 21.6505 1.05991 21.4137C0.7941 21.1769 0.644523 20.8559 0.643994 20.521V2.81493C0.644523 2.48005 0.7941 2.15902 1.05991 1.92223C1.32572 1.68544 1.6861 1.55219 2.06201 1.55172H21.938ZM21.938 0.978027H2.06201C1.5153 0.978499 0.991126 1.17219 0.604541 1.51657C0.217956 1.86095 0.000529505 2.3279 0 2.81493V20.521C0.000529505 21.0081 0.217956 21.475 0.604541 21.8194C0.991126 22.1638 1.5153 22.3575 2.06201 22.3579H21.938C22.4845 22.357 23.0084 22.1632 23.3949 21.8189C23.7813 21.4746 23.9989 21.0079 24 20.521V2.81493C23.9995 2.3279 23.782 1.86095 23.3955 1.51657C23.0089 1.17219 22.4847 0.978499 21.938 0.978027Z" fill="#CAB99E"/>
<path d="M21.9379 1.55176H2.06197C1.68605 1.55223 1.32568 1.68548 1.05987 1.92227C0.794057 2.15906 0.644481 2.48009 0.643951 2.81497V20.5211C0.644481 20.856 0.794057 21.177 1.05987 21.4138C1.32568 21.6506 1.68605 21.7838 2.06197 21.7843H21.9379C22.3139 21.7838 22.6742 21.6506 22.94 21.4138C23.2059 21.177 23.3554 20.856 23.356 20.5211V2.81497C23.3554 2.48009 23.2059 2.15906 22.94 1.92227C22.6742 1.68548 22.3139 1.55223 21.9379 1.55176ZM9.69796 17.4388C8.57175 17.4389 7.46498 17.1774 6.48682 16.6802C5.50866 16.183 4.69289 15.4672 4.12003 14.6034C3.54717 13.7396 3.23702 12.7577 3.22012 11.7546C3.20323 10.7514 3.48018 9.7617 4.02369 8.88301C4.5672 8.00431 5.35847 7.26703 6.31944 6.74389C7.28041 6.22074 8.37792 5.92983 9.50362 5.89982C10.6293 5.8698 11.7444 6.10175 12.7387 6.57277C13.7331 7.04378 14.5725 7.73758 15.174 8.58575C14.4737 7.89017 13.5528 7.4003 12.5333 7.18086C11.5138 6.96142 10.4435 7.02276 9.46392 7.35677C8.48435 7.69077 7.64158 8.28173 7.04708 9.05152C6.45257 9.8213 6.13428 10.7337 6.13428 11.668C6.13428 12.6024 6.45257 13.5148 7.04708 14.2845C7.64158 15.0543 8.48435 15.6453 9.46392 15.9793C10.4435 16.3133 11.5138 16.3746 12.5333 16.1552C13.5528 15.9358 14.4737 15.4459 15.174 14.7503C14.5906 15.5741 13.7823 16.2528 12.8247 16.723C11.8671 17.1931 10.7914 17.4394 9.69796 17.4388ZM20.6839 13.3642L18.448 12.7156L17.064 14.4118V12.3165L14.8259 11.668L17.064 11.0213V8.92429L18.448 10.6204L20.6839 9.97188L19.302 11.668L20.6839 13.3642Z" fill="#E31E10"/>
<path d="M11.318 16.284C10.4538 16.2843 9.60334 16.092 8.84388 15.7247C8.08443 15.3574 7.44014 14.8268 6.96967 14.181C6.49919 13.5353 6.21744 12.795 6.15009 12.0275C6.08274 11.2601 6.2319 10.4898 6.58402 9.78675C6.93614 9.08374 7.48005 8.47032 8.1662 8.00235C8.85235 7.53438 9.65898 7.22673 10.5127 7.10735C11.3664 6.98796 12.2401 7.06062 13.0542 7.31879C13.8683 7.57695 14.597 8.0124 15.174 8.58548C14.4241 7.52815 13.309 6.71648 11.9964 6.27263C10.6839 5.82877 9.24501 5.77677 7.89642 6.12448C6.54784 6.47218 5.36255 7.20077 4.51903 8.20053C3.67551 9.20028 3.21942 10.4171 3.21942 11.6678C3.21942 12.9184 3.67551 14.1352 4.51903 15.135C5.36255 16.1347 6.54784 16.8633 7.89642 17.211C9.24501 17.5588 10.6839 17.5067 11.9964 17.0629C13.309 16.619 14.4241 15.8074 15.174 14.75C14.689 15.2334 14.0947 15.62 13.4302 15.8844C12.7656 16.1487 12.0458 16.2849 11.318 16.284Z" fill="white"/>
<path d="M18.448 10.6205L17.064 8.92432V11.0195L14.826 11.6681L17.064 12.3166V14.4118L18.448 12.7156L20.686 13.3642L19.302 11.6681L20.686 9.97191L18.448 10.6205Z" fill="white"/>
</g>
<defs>
<clipPath id="clip0_284_100842">
<rect width="24" height="21.3799" fill="white" transform="translate(0 0.978027)"/>
</clipPath>
</defs>
</svg>
